<?xml version="1.0" encoding="UTF-8" standalone="no"?>
<svg viewBox="0 0 340 360" xmlns:rdf="http://www.w3.org/1999/02/22-rdf-syntax-ns#" xmlns="http://www.w3.org/2000/svg" sodipodi:docname="apple_with_worm.svg" height="270.31pt" sodipodi:version="0.32" width="9cm" xmlns:xlink="http://www.w3.org/1999/xlink" xmlns:cc="http://web.resource.org/cc/" xmlns:dc="http://purl.org/dc/elements/1.1/" sodipodi:docbase="/home/dan/pictures/svg" xmlns:sodipodi="http://inkscape.sourceforge.net/DTD/sodipodi-0.dtd">
 <defs>
  <linearGradient id="linearGradient20875">
   <stop stop-color="#707070" offset="0"/>
   <stop stop-color="#000" offset="1"/>
  </linearGradient>
  <linearGradient id="linearGradient20822">
   <stop stop-color="#efc9c6" offset="0"/>
   <stop stop-color="#d2837d" offset="1"/>
  </linearGradient>
  <linearGradient id="linearGradient16331">
   <stop stop-color="#b87018" stop-opacity="0.44705883" offset="0"/>
   <stop stop-color="#e9bd42" stop-opacity="0.22352941" offset="1"/>
  </linearGradient>
  <linearGradient id="linearGradient16293">
   <stop stop-color="#b8a718" stop-opacity="0.44705883" offset="0"/>
   <stop stop-color="#e9e742" stop-opacity="0.22448979" offset="1"/>
  </linearGradient>
  <linearGradient id="linearGradient13971">
   <stop stop-color="#070001" offset="0"/>
   <stop stop-color="#620916" offset="1"/>
  </linearGradient>
  <linearGradient id="linearGradient8822">
   <stop stop-color="#fefefe" offset="0"/>
   <stop stop-color="#fefefe" stop-opacity="0" offset="1"/>
  </linearGradient>
  <radialGradient id="radialGradient8878" xlink:href="#linearGradient8822" gradientUnits="userSpaceOnUse" cy="65.671" cx="48.504" gradientTransform="matrix(0.396859,7.060190e-2,-2.777794e-2,0.156142,35.79646,52.88718)" r="42.887"/>
  <radialGradient id="radialGradient8881" gradientUnits="userSpaceOnUse" cy="140.84" cx="40.423" gradientTransform="matrix(1.974909,-0.752030,0.664289,1.744492,-132.9643,-72.54759)" r="18.795">
   <stop stop-color="#c04958" offset="0"/>
   <stop stop-color="#be4656" stop-opacity="0.74489796" offset="0.5"/>
   <stop stop-color="#bd4253" stop-opacity="0.0000000" offset="1"/>
  </radialGradient>
  <radialGradient id="radialGradient8885" xlink:href="#linearGradient8822" gradientUnits="userSpaceOnUse" cy="67.063" cx="62.485" gradientTransform="matrix(1.864309,-0.111884,2.142618e-2,0.357021,-50.58910,48.78081)" r="42.887"/>
  <radialGradient id="radialGradient8889" gradientUnits="userSpaceOnUse" cy="96.75" cx="61.331" gradientTransform="matrix(2.284827,0.320645,-0.134288,0.956900,-65.80743,-15.18181)" r="28.271">
   <stop stop-color="#420202" offset="0"/>
   <stop stop-color="#420202" stop-opacity="0" offset="1"/>
  </radialGradient>
  <radialGradient id="radialGradient8892" gradientUnits="userSpaceOnUse" cy="177.76" cx="86.174" gradientTransform="matrix(2.111825,-9.891897e-2,1.849545e-2,0.394860,-99.08371,102.6595)" r="34.793">
   <stop stop-color="#000" offset="0"/>
   <stop stop-color="#380c0e" stop-opacity="0.0000000" offset="1"/>
  </radialGradient>
  <linearGradient id="linearGradient8895" y2="60.823" gradientUnits="userSpaceOnUse" y1="139.21" x2="82.966" x1="89.084">
   <stop stop-color="#7f1c21" offset="0"/>
   <stop stop-color="#b0161d" offset="1"/>
  </linearGradient>
  <linearGradient id="linearGradient13977" y2="42.511" xlink:href="#linearGradient13971" gradientUnits="userSpaceOnUse" y1="40.503" x2="83.511" x1="80.452"/>
  <radialGradient id="radialGradient13987" xlink:href="#linearGradient13971" gradientUnits="userSpaceOnUse" cy="33.996" cx="86.065" gradientTransform="matrix(-1.633335,-1.061337,0.908849,-1.398664,195.7418,172.8886)" r="2.728"/>
  <linearGradient id="linearGradient19339" y2="183.22" gradientUnits="userSpaceOnUse" y1="196.74" gradientTransform="translate(-192.2522,-79.49671)" x2="307.36" x1="286.44">
   <stop stop-color="#e1e899" offset="0"/>
   <stop stop-color="#f7fadb" offset="1"/>
  </linearGradient>
  <radialGradient id="radialGradient19341" xlink:href="#linearGradient16293" gradientUnits="userSpaceOnUse" cy="103.76" cx="256.11" gradientTransform="matrix(0.367168,0.483351,-1.225841,0.931188,130.0035,-127.2121)" r="8.1621"/>
  <radialGradient id="radialGradient19343" xlink:href="#linearGradient16293" gradientUnits="userSpaceOnUse" cy="121.61" cx="259.35" gradientTransform="matrix(1.583920,0.722404,-0.310992,0.827798,-272.8859,-158.8299)" r="8.1621"/>
  <radialGradient id="radialGradient19345" xlink:href="#linearGradient16293" gradientUnits="userSpaceOnUse" cy="114.64" cx="288.29" gradientTransform="matrix(1.161036,0.000000,0.000000,2.279391,-202.8700,-145.6333)" r="8.1621"/>
  <radialGradient id="radialGradient19347" xlink:href="#linearGradient16293" gradientUnits="userSpaceOnUse" cy="120.57" cx="280.54" gradientTransform="matrix(0.372615,0.437996,-0.245668,0.208997,46.36350,-21.87512)" r="8.1621"/>
  <linearGradient id="linearGradient19349" y2="182.88" gradientUnits="userSpaceOnUse" y1="181.12" gradientTransform="translate(-192.2522,-79.49671)" x2="326.1" x1="315.4">
   <stop stop-color="#e2e99a" stop-opacity="0.61224490" offset="0"/>
   <stop stop-color="#e8e99a" offset="0.5"/>
   <stop stop-color="#e5ef8b" offset="1"/>
  </linearGradient>
  <radialGradient id="radialGradient19351" xlink:href="#linearGradient16331" gradientUnits="userSpaceOnUse" cy="96.092" cx="294.09" gradientTransform="matrix(-0.377055,-0.358713,1.025253,-1.077677,149.5455,288.5998)" r="8.1621"/>
  <radialGradient id="radialGradient19353" xlink:href="#linearGradient16331" gradientUnits="userSpaceOnUse" cy="79.892" cx="251.51" gradientTransform="matrix(-0.148940,-0.582007,1.808962,-0.462926,29.57558,296.7160)" r="8.1621"/>
  <linearGradient id="linearGradient22430" y2="275.5" gradientUnits="userSpaceOnUse" y1="300.42" gradientTransform="translate(-187.9258,-67.05845)" x2="553.13" x1="538.56">
   <stop stop-color="#e0bc6e" offset="0"/>
   <stop stop-color="#f9fbea" offset="0.5"/>
   <stop stop-color="#e5c973" offset="1"/>
  </linearGradient>
  <radialGradient id="radialGradient22432" xlink:href="#linearGradient20822" gradientUnits="userSpaceOnUse" cy="201.26" cx="343.6" gradientTransform="matrix(0.630162,0.446228,-0.573959,0.810543,255.7404,-100.0520)" r="12.061"/>
  <radialGradient id="radialGradient22434" xlink:href="#linearGradient20822" gradientUnits="userSpaceOnUse" cy="201.26" cx="343.6" gradientTransform="matrix(0.715919,0.289282,-0.372088,0.920847,191.4979,-63.88675)" r="12.061"/>
  <radialGradient id="radialGradient22436" xlink:href="#linearGradient20822" gradientUnits="userSpaceOnUse" cy="201.26" cx="343.6" gradientTransform="matrix(0.761378,0.128564,-0.165365,0.979318,142.0529,-17.79711)" r="12.061"/>
  <radialGradient id="radialGradient22438" xlink:href="#linearGradient20822" gradientUnits="userSpaceOnUse" cy="201.26" cx="343.6" gradientTransform="matrix(0.768693,7.305378e-2,-9.396573e-2,0.988726,134.1814,0.360248)" r="12.061"/>
  <radialGradient id="radialGradient22440" xlink:href="#linearGradient20822" gradientUnits="userSpaceOnUse" cy="201.26" cx="343.6" gradientTransform="matrix(0.772157,0.000000,0.000000,0.993181,123.8957,23.99462)" r="12.061"/>
  <radialGradient id="radialGradient22442" xlink:href="#linearGradient20822" gradientUnits="userSpaceOnUse" cy="199.25" cx="357.25" gradientTransform="matrix(0.772157,0.000000,0.000000,0.941067,123.0970,34.74930)" r="12.769"/>
  <radialGradient id="radialGradient22444" xlink:href="#linearGradient20822" gradientUnits="userSpaceOnUse" cy="194.62" cx="371.53" gradientTransform="matrix(0.772157,0.000000,0.000000,0.884333,122.4193,46.93089)" r="13.558"/>
  <radialGradient id="radialGradient22446" xlink:href="#linearGradient20822" gradientUnits="userSpaceOnUse" cy="188.12" cx="382.89" gradientTransform="matrix(0.766464,-9.359629e-2,0.103295,0.845879,104.3758,89.72424)" r="13.986"/>
  <radialGradient id="radialGradient22448" xlink:href="#linearGradient20822" gradientUnits="userSpaceOnUse" cy="188.12" cx="382.89" gradientTransform="matrix(0.721950,-0.273887,0.302266,0.796754,90.55121,160.7287)" r="13.986"/>
  <radialGradient id="radialGradient22450" xlink:href="#linearGradient20875" gradientUnits="userSpaceOnUse" cy="160.31" cx="408.6" gradientTransform="matrix(0.890517,3.458723e-7,-2.270184e-7,0.584504,65.60371,104.3992)" r="9.7429"/>
  <radialGradient id="radialGradient22452" xlink:href="#linearGradient20875" gradientUnits="userSpaceOnUse" cy="167.39" cx="400.71" gradientTransform="matrix(1.000000,0.000000,0.000000,0.723404,1.870380e-14,46.48180)" r="2.2466"/>
 </defs>
 <g fill-rule="evenodd" transform="matrix(2.276961,0.000000,0.000000,2.276961,-37.87740,-62.62277)">
  <path d="M136.55,70.28c-3.44-4.574-6.15-10.645-11.39-13.244-4.96-2.459-9.3-6.681-15.27-6.789-5.6-0.101-10.515,2.191-15.519,4.033-5.333,1.962-10.931,2.597-16.638,2.793-6.457,0.222-12.909,0.572-19.327,0.228-5.893-0.315-11.632,1.265-16.765,4.056-4.238,2.305-6.797,6.419-9.232,10.316-2.542,4.069-5.07,8.419-6.16,13.106-1.277,5.488-3.067,11.084-2.451,16.821,0.656,6.12,1.67,12.2,4.299,17.87,2.14,4.61,12.647,25.43,16.808,30.27,3.407,3.97,6.121,8.11,10.047,11.64,4.45,3.99,10.713,3.53,16.236,2.86,4.879,1.6,9.165,4.52,14.528,5.01,6.178,0.56,10.7-3.84,16.544-3.79,5.64,1.22,11.01-0.15,15.15-3.89,3.63-3.28,6.42-7.56,9.14-11.62,2.84-4.25,5.52-8.76,7.85-13.47,2.16-4.38,5.81-8.41,5.67-13.74-0.24-8.81,1.74-17.63,2.16-26.501,0.28-5.99-1.51-11.633-2.48-17.377-0.53-3.092-1.25-5.992-3.2-8.582z" sodipodi:nodetypes="csssssssssssscscsssssss" fill="url(#linearGradient8895)"/>
  <path d="M83.268,142.23c-40.92-3.67-32.242,15.62-28.316,19.15,4.45,3.99,10.713,3.53,16.236,2.86,4.879,1.6,9.165,4.52,14.528,5.01,6.178,0.56,10.7-3.84,16.544-3.79,5.64,1.22,11.01-0.15,15.15-3.89,3.63-3.28,14.31-20.92-34.142-19.34z" sodipodi:nodetypes="cscscsc" fill="url(#radialGradient8892)"/>
  <path d="M64.658,122.37c-6.974-16.77-33.167-15.6-36.561-2.9-2.629-5.67-3.643-11.75-4.299-17.87-0.616-5.737,1.174-11.333,2.451-16.821,1.09-4.687,3.618-9.037,6.16-13.106,5.081-1.256,8.86-1.151,12.219,0.305,5.02,2.176,13.184,6.559,17.356,6.883,3.311,0.038,10.126-3.058,12.572-3.261,2.644-0.218,11.149-0.494,18.233-0.202,5.204,2.697,9.071,7.27,12.461,11.927,6.73,7.136,7.37,18.675,2.34,26.925-3.89,7.68-15.499,11.13-42.932,8.12z" sodipodi:nodetypes="ccsscscscccc" fill="url(#radialGradient8889)"/>
  <path d="M99.063,54.139c4.077-1.333,8.497-1.702,12.747-1.291,4.2,0.303,6.64,3.869,9.86,5.988,4.28,1.985,2.02,6.911-1.78,7.75-3.31,1.209-4.66,4.686-7.5,6.552-2.52,2.088-6.3,3.228-9.27,1.377-4.14-1.42-8.258,1.264-12.479,0.661-4.782-0.056-9.588-0.232-14.344,0.38-4.206-1.198-7.378,3.034-11.482,3.058-4.757,0.72-9.465-1.039-13.411-3.561-3.796-1.362-7.372-4.815-11.599-4.064-4.028,1.29,0.809-3.141,1.407-4.593,2.332-3.296,5.803-6.295,10.096-6.098,10.668-0.471,21.324-1.563,32.003-1.618,0.765-0.004,10.357-1.44,15.752-4.541z" sodipodi:nodetypes="cccccccccccccsc" fill="url(#radialGradient8885)"/>
  <path d="M84.093,31.073c1.751,0.492,2.95,1.945,4.3,3.064,0.954,1.087-0.08,2.574-1.16,3.091-1.18,0.844-1.925,2.126-2.541,3.405-0.77,1.096-1.578,2.174-2.09,3.421-0.665,1.215-1.223,2.512-1.328,3.908-0.254,1.501-0.373,2.887-0.906,4.295-0.307,1.328-0.488,3.816-0.923,5.118-0.901,0.524-2.403,0.782-3.123-0.165-0.081-2.356,1.208-6.593,1.821-8.864,0.487-1.992,0.97-4.011,1.975-5.818,0.947-1.834,1.923-3.696,2.277-5.752,0.387-1.445,0.726-2.907,1.001-4.374,0.175-0.471,0.447-0.896,0.697-1.329z" sodipodi:nodetypes="cccccccccccccc" fill="url(#linearGradient13977)"/>
  <path opacity="0.63730568" d="M28.097,119.47c2.14,4.61,12.647,25.43,16.808,30.27,3.407,3.97,6.121,8.11,10.047,11.64,10.128-6.55,11.684-31.73,9.982-36.78-8.709-25.834-39.466-10.8-36.837-5.13z" sodipodi:nodetypes="cscss" fill="url(#radialGradient8881)"/>
  <path style="marker-end:none;color:#000000;marker-start:none;marker-mid:none;" fill="url(#radialGradient8878)" d="M62.707,62.977c-4.507-0.902-9.129-0.908-13.663-1.615-2.353,0.01-4.914,1.024-6.054,3.196-0.867,2.108,0.541,4.591,2.576,5.382,1.957,1.114,4.077,1.908,6.022,3.045,4.015,1.684,9.299,0.254,11.479-3.632,1.043-1.991,0.754-4.48-0.36-6.376z"/>
  <path fill="url(#radialGradient13987)" d="M88.717,34.607c-0.653-1.03-1.603-1.818-2.539-2.578-0.46-0.554-1.17-0.96-1.904-0.927-0.453,0.017-0.813,0.401-0.882,0.835-0.102,0.792-0.063,1.61,0.13,2.386,0.216,0.884,0.784,1.705,1.625,2.093,0.898,0.465,1.985,0.632,2.957,0.304,0.498-0.561,0.852-1.361,0.613-2.113z"/>
 </g>
 <g fill-rule="evenodd" transform="matrix(2.276961,0.000000,0.000000,2.276961,-37.87740,-62.62277)">
  <path d="M136.41,71.783c-2.88-3.135-8.29-5.294-11.28-2.268-2.39-3.801-10.44-3.29-13.61,0.43-4.13,2.183,1.16,9.148-5.18,7.619-4.34,1.447-7.863,5.126-7.952,9.687-5.283-0.522-9.88,6.517-6.161,10.706,1.768,1.428,0.728,1.779-0.702,2.763-2.14,2.25-3.997,11,0.6,14.01-2.263,3.18-3.269,9.96,1.684,12.47-2.104,4.44,1.477,10.34,6.921,8.83,3.46-2.26,4.17,5.66,8.64,4.16,4.56,1.19,9.89-0.69,11.67-5.01,5.47,0.3,10.68-0.72,14.56-4.72,3.17-4.4,4.06-10.14,1.33-15,0.01-4.46,3.85-8.39,2.57-13.35,2.91-5.341,0.57-11.134,0.16-16.672,0.03-4.692-0.06-9.893-3.25-13.655z" sodipodi:nodetypes="ccccccccccccccccc" fill="url(#linearGradient19339)"/>
  <path style="marker-end:none;color:#000000;marker-start:none;marker-mid:none;" fill="url(#radialGradient19341)" d="M105.36,86.111c-3.46-2.431-6.369,4.549-10.286,4.91-3.895,3.447,1.734,9.979,4.926,4.65,3.45-1.473,9.37-4.835,5.68-9.24l-0.32-0.32z"/>
  <path style="marker-end:none;color:#000000;marker-start:none;marker-mid:none;" d="M93.693,125.54c-0.117-6.09,7.807,0.43,8.257-5.64,3.71-4.24,0.87,5.85,5.13,3.75,5.71-0.05-1.36,8.69,5.06,8.79,4.32-2.59,10.07,4.23,4.32,6.81-4.1,0.32-9.15,2.59-12.92-3.88-3.13-3.22-5.543,4.31-8.858-1.75-0.949-2.63,0.421-5.57-0.989-8.08z" sodipodi:nodetypes="cccccccc" fill="url(#radialGradient19343)"/>
  <path opacity="0.83937824" style="marker-end:none;color:#000000;marker-start:none;marker-mid:none;" d="M113.02,93.969c-4.04,0.03-11.46,3.062-11,8.761,1.59,2.84,3.78,11.51,8.08,7.42,0.97-2.77,4.92-5.8,3.81-0.42-1.72,3.77-6.8,10.02,0.34,11.38,6.31,1.5,6.97-8.4,6.76-12.93-0.53-5.43-2.21-12.185-7.99-14.211z" fill="url(#radialGradient19345)"/>
  <path opacity="0.74093264" style="marker-end:none;color:#000000;marker-start:none;marker-mid:none;" d="M125.62,130.47c-3.58-2.4-3.99-7.66-6.38-10.16-6.56,2.57,2.88,7.12,2.94,11.12,0.91,1.04,3.62,0.93,3.44-0.96z" fill="url(#radialGradient19347)"/>
  <path opacity="0.90673578" d="M137.76,75.298c-10.18,5.788-11.2,13.625-12.09,16.119-1.68,4.74-6.36,18.853-5.55,24.353,0.38,2.63,10.49,11.56,17.08,10,1.68-3.85,1.11-5.32-0.27-10.31,0.01-4.46,3.85-8.39,2.57-13.35,2.91-5.341,0.57-11.134,0.16-16.672,0.03-4.692,1.29-6.378-1.9-10.14z" sodipodi:nodetypes="cssccccc" fill="url(#linearGradient19349)"/>
  <path style="marker-end:none;color:#000000;marker-start:none;marker-mid:none;" fill="url(#radialGradient19351)" d="M136.95,76.644c-5.16,1.738-8.76,5.438-8.29,11.11-1.9,3.46,1.48,4.205,1.98,0.362,1.71-4.554,7.43-5.116,9.47-8.779-0.16-1.47-1.62-2.91-3.16-2.693z"/>
  <path style="marker-end:none;color:#000000;marker-start:none;marker-mid:none;" d="M120.12,115.77c0.66,2.67,8.91,4.55,15.5,2.98,1.68-3.85,2.69,1.7,1.31-3.29,0.01-4.46,3.85-8.39,2.57-13.35,1.45-2.668-1.1,3.75-6.52,7.17-5.41,3.41-13.53,3.79-12.86,6.49z" sodipodi:nodetypes="cccccs" fill="url(#radialGradient19353)"/>
 </g>
 <g fill-rule="evenodd" transform="translate(-129.1570,-40.06377)">
  <path style="marker-end:none;color:#000000;marker-start:none;marker-mid:none;" d="M357.77,204.99c-4.35,2.3-6.52,6.71-8.78,10.93-3.53,6.58-1.46,14.31,3.84,19.68,3.93,3.97,9.5,3.13,13.21-0.2,5.46-4.9,8.03-12.39,7.86-19.28-0.09-3.88-1.44-9.39-5.39-11.3-2.63-1.27-7.99-1.29-10.74,0.17z" sodipodi:nodetypes="cssssss" fill="url(#linearGradient22430)"/>
  <path d="M356.18,207.59c-3.47,1.84-5.21,5.36-7.01,8.73-2.82,5.26-1.17,11.43,3.07,15.72,3.13,3.17,7.58,2.5,10.55-0.16,4.36-3.91,6.41-9.9,6.28-15.4-0.08-3.1-1.15-7.5-4.31-9.03-2.1-1.01-6.38-1.03-8.58,0.14z" sodipodi:nodetypes="cssssss" fill="#6c4343"/>
  <path d="M348.9,216.85c-0.89,1.85-2.26,6.26,0.55,11.44,2.24,1.54,5.72,2.95,8.58,2.16,1.87-0.71-0.15-7.46,1.26-10.29,1.6-3.2,3.61-4.56,7.07-5.96,1.63-1.49-2.21-5.9-5.51-6.67-2.11-1.07-3.38-0.25-4.28-0.09-3.41,1.28-5.91,5.87-7.67,9.41z" sodipodi:nodetypes="cccscccc" fill="url(#radialGradient22432)"/>
  <path d="M352.42,222.32c-0.44,2.87,0.05,9.44,5.22,11.46,2.53,0.99,6.83,1.87,9.44,0.44,1.66-1.13-1.87-7.23-1.14-10.31,0.82-3.48,2.46-5.26,5.51-7.43,1.24-1.82-3.51-5.23-6.9-5.22-5.86,0.01-10.99,3.78-12.13,11.06z" sodipodi:nodetypes="cscscss" fill="url(#radialGradient22434)"/>
  <path d="M360.76,227.11c0.18,2.9,2.07,9.21,7.56,10.07,2.68,0.42,7.07,0.35,9.31-1.6,1.38-1.46-3.37-6.66-3.33-9.82,0.06-3.58,1.27-5.67,3.78-8.44,0.82-2.05-4.54-4.35-7.86-3.62-5.72,1.27-9.92,6.06-9.46,13.41z" sodipodi:nodetypes="cscscss" fill="url(#radialGradient22436)"/>
  <path d="M370.06,228.77c0.39,2.89,2.74,9.04,8.27,9.5,2.71,0.22,7.08-0.16,9.17-2.27,1.27-1.55-3.85-6.4-4.03-9.55-0.21-3.57,0.86-5.75,3.16-8.7,0.67-2.1-4.85-4.01-8.1-3.03-5.61,1.68-9.46,6.76-8.47,14.05z" sodipodi:nodetypes="cscscss" fill="url(#radialGradient22438)"/>
  <path d="M380.33,229.07c0.66,2.83,3.57,8.73,9.13,8.67,2.71-0.04,7.03-0.83,8.91-3.13,1.12-1.67-4.43-6-4.91-9.13-0.55-3.53,0.3-5.8,2.32-8.95,0.47-2.16-5.21-3.54-8.36-2.26-5.42,2.21-8.77,7.62-7.09,14.8z" sodipodi:nodetypes="cscscss" fill="url(#radialGradient22440)"/>
  <path d="M390.11,228.46c1.02,2.72,4.68,8.2,10.18,7.41,2.69-0.39,6.86-1.74,8.43-4.27,0.89-1.79-5.18-5.37-6.07-8.41-0.99-3.43-0.45-5.79,1.14-9.18,0.18-2.2-5.62-2.82-8.58-1.14-5.09,2.89-7.7,8.7-5.1,15.59z" sodipodi:nodetypes="cscscss" fill="url(#radialGradient22442)"/>
  <path d="M400.85,226.08c1.46,2.52,5.96,7.32,11.25,5.65,2.59-0.82,6.5-2.83,7.63-5.57,0.59-1.92-5.99-4.46-7.35-7.32-1.54-3.22-1.39-5.64-0.37-9.24-0.18-2.2-6.01-1.87-8.65,0.26-4.55,3.68-6.19,9.84-2.51,16.22z" sodipodi:nodetypes="cscscss" fill="url(#radialGradient22444)"/>
  <path d="M410.35,222.23c1.98,2.13,7.44,5.81,12.23,3,2.34-1.37,5.7-4.2,6.19-7.13,0.14-2-6.83-3.02-8.8-5.49-2.22-2.8-2.61-5.2-2.42-8.93-0.66-2.11-6.27-0.49-8.37,2.18-3.62,4.61-3.84,10.97,1.17,16.37z" sodipodi:nodetypes="cscscss" fill="url(#radialGradient22446)"/>
  <path d="M433.14,205.97c1.68-1.32,3.36-2.71,5.39-3.46,1.15-0.57,2.28-1.25,3.57-1.42,1.02-0.21,2.97-0.56,3.11-0.26,0.1,0.23-1.64,0.5-2.43,0.85-1.09,0.23-2.04,0.81-2.99,1.36-1.07,0.54-1.82,1.5-2.72,2.27-0.53,0.84-1.52,1.31-2.51,1.17-0.51-0.06-1.05-0.13-1.42-0.51z" sodipodi:nodetypes="cccscccsc" fill="#271515"/>
  <path d="M434.92,201.5c0.18-0.85,0.85-1.43,1.44-2.05,0.85-0.89,1.54-0.9,2.48-1.6,0.54-0.4,2.13-0.71,1.4-0.13-0.81,0.52-1.85,1.12-2.45,1.95-0.65,0.9-1.01,2.08-2.05,2.64-0.48,0.16-1.29-0.26-0.82-0.81z" sodipodi:nodetypes="csscscc" fill="#271515"/>
  <path d="M419.31,216.35c2.43,1.6,8.61,3.87,12.59,0,1.95-1.9,6.41-6.91,3.68-10.71-0.33-1.98-6.72,1-9.22-0.93-2.83-2.19-2.31-4.42-3.02-8.09-3.03-1.89-7.67,1.02-9.07,4.11-2.42,5.34-1.11,11.57,5.04,15.62z" sodipodi:nodetypes="cscscss" fill="url(#radialGradient22448)"/>
  <path d="M421.46,195.96c-1.62,1.37,0.04,4.42,1.59,6.32,1.76,2.15,3.49,4.82,6.43,5.2,2.47,0.32,6.4,2.21,7.82-0.73,1.25-2.57,0.84-4.13,0.52-6.7-0.24-1.87-2.5-5.48-5.17-4.73-3.68,1.04-8.62-1.53-11.19,0.64z" sodipodi:nodetypes="cssssss" fill="url(#radialGradient22450)"/>
  <path sodipodi:rx="2.2465944" sodipodi:ry="1.6251960" style="marker-end:none;color:#000000;marker-start:none;marker-mid:none;" sodipodi:type="arc" d="M402.95,168.05a2.2466,1.6252,0,1,1,-4.49,0,2.2466,1.6252,0,1,1,4.49,0z" opacity="0.63730568" transform="matrix(1.153285,0.000000,0.000000,1.153285,-34.16215,4.290428)" sodipodi:cy="168.04958" sodipodi:cx="400.70639" fill="url(#radialGradient22452)"/>
  <path fill="#9f9f9f" d="M428.17,196.84c-0.1-0.04-0.37-0.08-0.59-0.08-0.2,0-0.4,0.04-0.54,0.08-0.16,0.04-0.34,0.13-0.47,0.19-0.15,0.08-0.27,0.12-0.39,0.24-0.14,0.14-0.19,0.22-0.24,0.39-0.05,0.2,0.25,0.27,0.39,0.35,0.22,0.11,0.29,0.14,0.47,0.23,0.12,0.06,0.2-0.16,0.27-0.23,0.13-0.13,0.23-0.19,0.39-0.27s0.23-0.21,0.35-0.28c0.15-0.07,0.31-0.07,0.47-0.11,0.21-0.06,0.28-0.09,0.39-0.2,0.07-0.07-0.44-0.28-0.5-0.31z"/>
  <path d="M432.97,207.78c1.68-1.32,3.36-2.71,5.4-3.45,1.14-0.58,2.27-1.25,3.56-1.42,1.02-0.21,3.13-0.5,3.11-0.26-0.03,0.25-1.55,0.59-2.34,0.93-1.09,0.24-2.13,0.91-3.08,1.46-1.07,0.54-1.82,1.32-2.72,2.08-0.53,0.85-1.52,1.31-2.51,1.18-0.51-0.06-1.05-0.13-1.42-0.52z" sodipodi:nodetypes="cccscccsc" fill="#271515"/>
  <path d="M435.06,201.13c0.39-0.79,1.17-1.18,1.9-1.64,1.04-0.66,1.71-0.49,2.79-0.95,0.62-0.26,2.24-0.17,1.39,0.22-0.91,0.3-2.07,0.63-2.85,1.29-0.85,0.71-1.49,1.78-2.63,2.07-0.5,0.03-1.18-0.57-0.6-0.99z" sodipodi:nodetypes="csscscc" fill="#271515"/>
  <path opacity="0.60103625" d="M356.18,207.59c-3.47,1.84-5.21,5.36-7.01,8.73-2.82,5.26-1.17,11.43,3.07,15.72,3.13,3.17-0.25-0.47-1.88-5.9-1.71-5.71,2.29-12.94,6.76-16.16,5.66-3.68,12.04,1.1,7.64-2.53-2.1-1.01-6.38-1.03-8.58,0.14z" sodipodi:nodetypes="cscsccs" fill="#6e4545"/>
 </g>
</svg>
