<?xml version="1.0" encoding="UTF-8" standalone="no"?>
<svg viewBox="0 0 120 133" xmlns:rdf="http://www.w3.org/1999/02/22-rdf-syntax-ns#" xmlns="http://www.w3.org/2000/svg" sodipodi:docname="Boy.svg" sodipodi:version="0.32" xmlns:xlink="http://www.w3.org/1999/xlink" xmlns:cc="http://web.resource.org/cc/" xmlns:dc="http://purl.org/dc/elements/1.1/" sodipodi:docbase="D:\temp\bilder" xmlns:sodipodi="http://inkscape.sourceforge.net/DTD/sodipodi-0.dtd">
 <defs>
  <linearGradient id="linearGradient12058">
   <stop stop-color="#392e21" offset="0"/>
   <stop stop-color="#b39069" stop-opacity="0.49803922" offset="0.5"/>
   <stop stop-color="#cca478" stop-opacity="0.00000000" offset="1"/>
  </linearGradient>
  <linearGradient id="linearGradient4591">
   <stop stop-color="#9f805e" offset="0"/>
   <stop stop-color="#ffcd97" offset="1"/>
  </linearGradient>
  <linearGradient id="linearGradient1963">
   <stop stop-color="#a0815e" offset="0"/>
   <stop stop-color="#ffcd97" stop-opacity="0.00000000" offset="1"/>
  </linearGradient>
  <linearGradient id="linearGradient4858">
   <stop stop-color="#23283e" offset="0"/>
   <stop stop-color="#3139a3" offset="1"/>
  </linearGradient>
  <linearGradient id="linearGradient4202">
   <stop stop-color="#FFF" offset="0"/>
   <stop stop-color="#dbdde4" offset="1"/>
  </linearGradient>
  <radialGradient id="radialGradient2299" xlink:href="#linearGradient4202" gradientUnits="userSpaceOnUse" cy="396.96" cx="67.611" gradientTransform="scale(1.408203,0.710125)" r="10.161"/>
  <radialGradient id="radialGradient3274" gradientUnits="userSpaceOnUse" cy="379.9" cx="96.388" gradientTransform="matrix(1.594834,0.000000,0.000000,0.615758,-92.74442,-127.9447)" r="1.717">
   <stop stop-color="#9a7c5a" offset="0"/>
   <stop stop-color="#cca478" stop-opacity="0" offset="1"/>
  </radialGradient>
  <radialGradient id="radialGradient3282" xlink:href="#linearGradient4591" gradientUnits="userSpaceOnUse" cy="381.08" cx="67.211" gradientTransform="matrix(-1.384093,0.133995,5.165153e-2,0.799151,151.2252,-246.2807)" r="9.4621"/>
  <linearGradient id="linearGradient3284" y2="157.57" xlink:href="#linearGradient4858" gradientUnits="userSpaceOnUse" y1="157.57" gradientTransform="matrix(0.501175,0.297521,-0.109717,0.316405,-208.4501,-190.3748)" x2="551.76" x1="535.26"/>
  <linearGradient id="linearGradient3286" y2="157.57" xlink:href="#linearGradient4858" gradientUnits="userSpaceOnUse" y1="157.57" gradientTransform="matrix(1.117704,0.517130,-0.340961,0.736939,-511.3202,-379.2060)" x2="551.76" x1="535.26"/>
  <linearGradient id="linearGradient3288" y2="157.57" xlink:href="#linearGradient4858" gradientUnits="userSpaceOnUse" y1="157.57" gradientTransform="matrix(1.189080,0.320586,-0.211373,0.784000,-566.4533,-273.6643)" x2="551.76" x1="535.26"/>
  <linearGradient id="linearGradient3290" y2="157.57" xlink:href="#linearGradient4858" gradientUnits="userSpaceOnUse" y1="157.57" gradientTransform="matrix(1.394465,0.232338,0.481896,0.797413,-783.9610,-222.2871)" x2="551.76" x1="535.26"/>
  <linearGradient id="linearGradient3292" y2="157.57" xlink:href="#linearGradient4858" gradientUnits="userSpaceOnUse" y1="157.57" gradientTransform="matrix(0.939212,6.581614e-3,0.139356,0.565910,-480.7727,-60.25678)" x2="551.76" x1="535.26"/>
  <linearGradient id="linearGradient3294" y2="157.57" xlink:href="#linearGradient4858" gradientUnits="userSpaceOnUse" y1="157.57" gradientTransform="matrix(0.939212,6.581614e-3,0.139356,0.565910,-479.4308,-55.03848)" x2="551.76" x1="535.26"/>
  <linearGradient id="linearGradient3296" y2="157.57" xlink:href="#linearGradient4858" gradientUnits="userSpaceOnUse" y1="157.57" gradientTransform="matrix(0.516644,0.104272,8.635152e-3,0.347331,-231.5198,-80.46976)" x2="551.76" x1="535.26"/>
  <linearGradient id="linearGradient3298" y2="157.57" xlink:href="#linearGradient4858" gradientUnits="userSpaceOnUse" y1="157.57" gradientTransform="matrix(1.418597,0.191922,0.221711,0.874953,-780.9324,-205.1655)" x2="551.76" x1="535.26"/>
  <linearGradient id="linearGradient3300" y2="157.57" xlink:href="#linearGradient4858" gradientUnits="userSpaceOnUse" y1="157.57" gradientTransform="matrix(1.419368,-0.186139,0.443029,0.786399,-820.6936,29.12067)" x2="551.76" x1="535.26"/>
  <linearGradient id="linearGradient3302" y2="157.57" xlink:href="#linearGradient4858" gradientUnits="userSpaceOnUse" y1="157.57" gradientTransform="matrix(1.200033,-0.139972,0.357781,0.711936,-674.6141,16.48857)" x2="551.76" x1="535.26"/>
  <linearGradient id="linearGradient3304" y2="157.57" xlink:href="#linearGradient4858" gradientUnits="userSpaceOnUse" y1="157.57" gradientTransform="matrix(1.419368,-0.186139,0.443029,0.786399,-796.6875,28.64987)" x2="551.76" x1="535.26"/>
  <linearGradient id="linearGradient3306" y2="157.57" xlink:href="#linearGradient4858" gradientUnits="userSpaceOnUse" y1="157.57" gradientTransform="matrix(1.310019,0.577151,-2.917958e-2,0.902134,-684.3018,-430.9028)" x2="551.76" x1="535.26"/>
  <linearGradient id="linearGradient3308" y2="157.57" xlink:href="#linearGradient4858" gradientUnits="userSpaceOnUse" y1="157.57" gradientTransform="matrix(0.889864,-0.310662,0.428468,0.585600,-530.4954,137.2519)" x2="551.76" x1="535.26"/>
  <linearGradient id="linearGradient3310" y2="157.57" xlink:href="#linearGradient4858" gradientUnits="userSpaceOnUse" y1="157.57" gradientTransform="matrix(0.714940,-0.967974,0.635516,0.286180,-462.9175,551.5299)" x2="551.76" x1="535.26"/>
  <linearGradient id="linearGradient3312" y2="157.57" xlink:href="#linearGradient4858" gradientUnits="userSpaceOnUse" y1="157.57" gradientTransform="matrix(0.825369,0.448251,-0.143665,0.564831,-354.5117,-317.9040)" x2="551.76" x1="535.26"/>
  <linearGradient id="linearGradient3314" y2="157.57" xlink:href="#linearGradient4858" gradientUnits="userSpaceOnUse" y1="157.57" gradientTransform="matrix(0.529276,0.463663,-9.994493e-2,0.562036,-200.3824,-322.1827)" x2="551.76" x1="535.26"/>
  <linearGradient id="linearGradient3316" y2="157.57" xlink:href="#linearGradient4858" gradientUnits="userSpaceOnUse" y1="157.57" gradientTransform="matrix(0.501175,0.297521,-0.109717,0.316405,-181.9343,-190.8071)" x2="551.76" x1="535.26"/>
  <linearGradient id="linearGradient3318" y2="157.57" xlink:href="#linearGradient4858" gradientUnits="userSpaceOnUse" y1="157.57" gradientTransform="matrix(0.882991,0.237111,0.261031,0.509430,-447.6662,-185.8329)" x2="551.76" x1="535.26"/>
  <linearGradient id="linearGradient3320" y2="157.57" xlink:href="#linearGradient4858" gradientUnits="userSpaceOnUse" y1="157.57" gradientTransform="matrix(0.856457,0.319963,0.211430,0.531934,-425.6354,-231.3354)" x2="551.76" x1="535.26"/>
  <linearGradient id="linearGradient3322" y2="157.57" xlink:href="#linearGradient4858" gradientUnits="userSpaceOnUse" y1="157.57" gradientTransform="matrix(0.168073,0.564674,-0.250923,0.526873,20.22408,-360.6139)" x2="551.76" x1="535.26"/>
  <linearGradient id="linearGradient3324" y2="157.57" xlink:href="#linearGradient4858" gradientUnits="userSpaceOnUse" y1="157.57" gradientTransform="matrix(-4.340377e-3,0.832551,-0.373201,0.123530,128.3985,-433.0355)" x2="551.76" x1="535.26"/>
  <linearGradient id="linearGradient3328" y2="157.57" xlink:href="#linearGradient4858" gradientUnits="userSpaceOnUse" y1="157.57" gradientTransform="matrix(-1.157922,-0.344803,-0.475184,0.639578,779.6092,133.0753)" x2="551.76" x1="535.26"/>
  <linearGradient id="linearGradient3330" y2="157.57" xlink:href="#linearGradient4858" gradientUnits="userSpaceOnUse" y1="157.57" gradientTransform="matrix(-1.108059,-0.481537,-0.548643,0.577798,774.9432,231.6126)" x2="551.76" x1="535.26"/>
  <linearGradient id="linearGradient3332" y2="157.57" xlink:href="#linearGradient4858" gradientUnits="userSpaceOnUse" y1="157.57" gradientTransform="matrix(-1.108059,-0.501233,-0.548643,0.601431,783.4452,244.5903)" x2="551.76" x1="535.26"/>
  <linearGradient id="linearGradient3334" y2="157.57" xlink:href="#linearGradient4858" gradientUnits="userSpaceOnUse" y1="157.57" gradientTransform="matrix(-0.957484,-0.275917,-0.381158,0.552788,680.9517,116.5027)" x2="551.76" x1="535.26"/>
  <linearGradient id="linearGradient3336" y2="157.57" xlink:href="#linearGradient4858" gradientUnits="userSpaceOnUse" y1="157.57" gradientTransform="matrix(-0.985415,0.147860,-0.116346,0.661301,648.7567,-154.8273)" x2="551.76" x1="535.26"/>
  <linearGradient id="linearGradient3338" y2="157.57" xlink:href="#linearGradient4858" gradientUnits="userSpaceOnUse" y1="157.57" gradientTransform="matrix(-0.812149,0.577339,0.195155,0.642472,451.5593,-403.9375)" x2="551.76" x1="535.26"/>
  <linearGradient id="linearGradient3340" y2="157.57" xlink:href="#linearGradient4858" gradientUnits="userSpaceOnUse" y1="157.57" gradientTransform="matrix(-1.207349,4.450897e-2,-0.245127,0.758138,784.3102,-111.7911)" x2="551.76" x1="535.26"/>
  <linearGradient id="linearGradient3342" y2="157.57" xlink:href="#linearGradient4858" gradientUnits="userSpaceOnUse" y1="157.57" gradientTransform="matrix(-1.025802,-0.216424,-0.364309,0.593847,703.9782,64.54077)" x2="551.76" x1="535.26"/>
  <linearGradient id="linearGradient3344" y2="441.57" xlink:href="#linearGradient4202" gradientUnits="userSpaceOnUse" y1="447.51" gradientTransform="matrix(1.322060,-0.180133,0.394162,0.916202,-333.4185,-303.1181)" x2="154.67" x1="153.34"/>
  <linearGradient id="linearGradient3346" y2="297.24" xlink:href="#linearGradient4858" gradientUnits="userSpaceOnUse" y1="294.27" gradientTransform="matrix(2.518273,0.000000,0.000000,3.115716,-800.5177,-845.1210)" x2="336.34" x1="335.18"/>
  <radialGradient id="radialGradient3348" xlink:href="#linearGradient1963" gradientUnits="userSpaceOnUse" cy="237.48" cx="125.08" gradientTransform="matrix(0.848613,-0.121518,0.140502,1.468985,-70.57122,-260.3544)" r="4.7144"/>
  <linearGradient id="linearGradient3350" y2="441.57" xlink:href="#linearGradient4202" gradientUnits="userSpaceOnUse" y1="447.51" gradientTransform="matrix(-1.261847,-0.180133,-0.376210,0.916202,439.1392,-303.0941)" x2="154.67" x1="153.34"/>
  <linearGradient id="linearGradient3352" y2="297.24" xlink:href="#linearGradient4858" gradientUnits="userSpaceOnUse" y1="294.27" gradientTransform="matrix(2.403579,0.000000,0.000000,3.115716,-726.6521,-845.0970)" x2="336.34" x1="335.18"/>
  <radialGradient id="radialGradient3354" xlink:href="#linearGradient12058" gradientUnits="userSpaceOnUse" cy="415.24" cx="9.3867" gradientTransform="matrix(4.754165,8.192899e-2,0.829911,0.717962,-334.1772,-197.0876)" r="1.9257"/>
  <radialGradient id="radialGradient3356" xlink:href="#linearGradient12058" gradientUnits="userSpaceOnUse" cy="415.24" cx="9.3867" gradientTransform="matrix(-4.269630,8.192899e-2,-0.745329,0.717962,415.1091,-197.0876)" r="1.9257"/>
  <radialGradient id="radialGradient3368" xlink:href="#linearGradient4591" gradientUnits="userSpaceOnUse" cy="381.08" cx="67.211" gradientTransform="matrix(1.450139,0.133995,-5.411624e-2,0.799151,-32.55442,-246.9681)" r="9.4621"/>
  <radialGradient id="radialGradient3370" xlink:href="#linearGradient1963" gradientUnits="userSpaceOnUse" cy="237.48" cx="125.08" gradientTransform="matrix(-0.889107,-0.121518,-0.147206,1.468985,200.0657,-260.5836)" r="4.7144"/>
 </defs>
 <sodipodi:namedview bordercolor="#666666" pagecolor="#ffffff" borderopacity="1.0" showguides="true"/>
 <flowRoot>
  <flowRegion>
   <path sodipodi:rx="4.2287278" sodipodi:ry="5.4883490" sodipodi:type="arc" d="M142.88,143.55a4.2287,5.4883,0,1,1,-8.46,0,4.2287,5.4883,0,1,1,8.46,0z" fill-rule="nonzero" transform="translate(-39.04825,-6.118159)" sodipodi:cy="143.54561" sodipodi:cx="138.64828" stroke-miterlimit="4.0000000" stroke-width="0.00000000" fill="#060715"/>
  </flowRegion>
  <flowDiv>
   <flowPara>This is flowed text. Currently, you can only edit it by using the XML editor. You can paste style (Ctrl+Shift+V) from regular text objects to it.</flowPara>
  </flowDiv>
 </flowRoot>
 <flowRoot id="flowRoot5491">
  <flowRegion>
   <path d="M100.64,138.24c-1.038,2.67-3.553,3.47-5.617,1.79-2.064-1.69-2.899-5.22-1.863-7.89,1.035-2.67,3.55-3.47,5.614-1.78,1.102,0.9,1.836,2.21,2.156,3.87l-4.032,0.96,3.742,3.05z" fill-opacity="0.57251906" fill-rule="nonzero" stroke-miterlimit="4.0000000" stroke-width="0.00000000" fill="#6c78fe"/>
  </flowRegion>
  <flowDiv>
   <flowPara>This is flowed text. Currently, you can only edit it by using the XML editor. You can paste style (Ctrl+Shift+V) from regular text objects to it.</flowPara>
  </flowDiv>
 </flowRoot>
 <flowRoot>
  <flowRegion>
   <use y="0" x="0" xlink:href="#flowRoot5491"/>
  </flowRegion>
  <flowDiv>
   <flowPara>This is flowed text. Currently, you can only edit it by using the XML editor. You can paste style (Ctrl+Shift+V) from regular text objects to it.</flowPara>
  </flowDiv>
 </flowRoot>
 <flowRoot>
  <flowRegion>
   <path d="M100.64,138.24c-1.038,2.67-3.553,3.47-5.617,1.79-2.064-1.69-2.899-5.22-1.863-7.89,1.035-2.67,3.55-3.47,5.614-1.78,1.102,0.9,1.836,2.21,2.156,3.87l-4.032,0.96,3.742,3.05z" fill-opacity="0.57251906" fill-rule="nonzero" stroke-miterlimit="4.0000000" stroke-width="0.00000000" fill="#6c78fe"/>
  </flowRegion>
  <flowDiv>
   <flowPara>This is flowed text. Currently, you can only edit it by using the XML editor. You can paste style (Ctrl+Shift+V) from regular text objects to it.</flowPara>
  </flowDiv>
 </flowRoot>
 <flowRoot>
  <flowRegion>
   <path d="M105.63,280.27c-0.37,0.86-0.6,4.46-3.71,5.84-2.122,0.71-6.552,1.48-9.709,0.72-3.054-0.73-4.838-0.18-7.418-8.05,4.5-2.3,8.298-1.93,12.356-2.14,5.441,0.15,6.381,1.23,8.481,3.63z" fill-rule="nonzero" sodipodi:nodetypes="ccsccc" fill="url(#radialGradient2299)"/>
  </flowRegion>
  <flowDiv>
   <flowPara>This is flowed text. Currently, you can only edit it by using the XML editor. You can paste style (Ctrl+Shift+V) from regular text objects to it.</flowPara>
  </flowDiv>
 </flowRoot>
 <flowRoot>
  <flowRegion>
   <path d="M470.86,161.6c-0.47,1.09-1.8,1.5-2.97,0.93-1.17-0.58-1.74-1.93-1.26-3.02,0.47-1.09,1.8-1.51,2.97-0.93,0.63,0.31,1.07,0.79,1.3,1.43l-2.16,0.54,2.12,1.05z" fill-opacity="0.49629626" fill-rule="nonzero" stroke-miterlimit="4.0000000" stroke-width="0.00000000" fill="#fffffe"/>
  </flowRegion>
  <flowDiv>
   <flowPara>This is flowed text. Currently, you can only edit it by using the XML editor. You can paste style (Ctrl+Shift+V) from regular text objects to it.</flowPara>
  </flowDiv>
 </flowRoot>
 <path d="M90.52,104.48c-0.734-8.863-0.032-22.078-6.255-25.831,2.64-5.307,2.424-3.226,3.788-4.045,5.723,11.18,4.532,20.275,2.467,29.876z" fill-rule="nonzero" sodipodi:nodetypes="cccc" stroke-miterlimit="4.0000000" stroke-width="0.00000000" fill="#060715"/>
 <path d="M95.883,98.272c-0.215-8.892,1.257-22.044-4.736-26.153,2.944-5.144,2.607-3.08,4.017-3.817,5.056,11.495,3.341,20.505,0.719,29.97z" fill-rule="nonzero" sodipodi:nodetypes="cccc" stroke-miterlimit="4.0000000" stroke-width="0.00000000" fill="#060715"/>
 <path d="M92.236,102.45c0.519-8.876,3.07-21.862-2.563-26.451,3.358-4.885,2.852-2.855,4.318-3.473,4.096,11.873,1.638,20.711-1.755,29.924z" fill-rule="nonzero" sodipodi:nodetypes="cccc" stroke-miterlimit="4.0000000" stroke-width="0.00000000" fill="#060715"/>
 <path d="M34.742,111.01c-1.371-8.79-5.16-21.467,0.006-26.578-3.813-4.538-3.114-2.566-4.633-3.04-2.934,12.211,0.363,20.768,4.627,29.618z" fill-rule="nonzero" sodipodi:nodetypes="cccc" stroke-miterlimit="4.0000000" stroke-width="0.00000000" fill="#060715"/>
 <path d="M27.824,103.73c0.734-8.864,0.032-22.079,6.254-25.832-2.639-5.307-2.423-3.226-3.788-4.044-5.723,11.179-4.531,20.275-2.466,29.876z" fill-rule="nonzero" sodipodi:nodetypes="cccc" stroke-miterlimit="4.0000000" stroke-width="0.00000000" fill="#060715"/>
 <path d="M23.177,97.044c0.215-8.892-1.257-22.044,4.736-26.153-2.944-5.145-2.607-3.08-4.017-3.817-5.061,11.494-3.341,20.504-0.719,29.97z" fill-rule="nonzero" sodipodi:nodetypes="cccc" stroke-miterlimit="4.0000000" stroke-width="0.00000000" fill="#060715"/>
 <path d="M27.063,103.37c-0.519-8.875-3.071-21.861,2.563-26.45-3.358-4.885-2.852-2.855-4.319-3.473-4.095,11.873-1.637,20.711,1.756,29.923z" fill-rule="nonzero" sodipodi:nodetypes="cccc" stroke-miterlimit="4.0000000" stroke-width="0.00000000" fill="#060715"/>
 <path d="M50.046,68.875c0,1.263-2.913-2.52-8.771-1.582-2.806,0-8.504,3.791-8.504,2.528,1.79,0.976,6.035-4.884,8.929-4.348,2.508-0.803,6.159,1.535,8.346,3.402z" fill-rule="nonzero" sodipodi:nodetypes="ccccc" fill="#ffcd97"/>
 <path d="M59.356,21.188c-21.809,0.162-42.877,13.143-37.982,46.695-2.764-2.753-3.917-0.736-4.323,2.857,0,4.371,6.083,20.404,7.522,12.881,14.815,33.009,21.681,34.869,35.92,36.559,13.065-1.5,22.378-2.88,34.978-38.15,2.099,7.97,6.489-5.891,6.489-10.261,0.69-7.147-3.549-4.367-4.436-3.138,0.775-29.819-15.622-47.443-38.168-47.443z" fill-rule="nonzero" sodipodi:nodetypes="ccccccccc" stroke="#000100" stroke-miterlimit="4.0000000" stroke-width="0.62500000" fill="#ffcd97"/>
 <path d="M85.573,94.509c-3.754,7.341-8.525,19.891-24.571,25.081,10.518-1.44,18.295-1.67,28.729-24.266-1.046,3.272,6.825-14.485,7.6-24.518-0.839-4.675-4.651-11.709-7.919-23.965,5.132,33.022-2.009,43.644-3.839,47.668z" fill-rule="nonzero" sodipodi:nodetypes="cccccc" stroke-miterlimit="4.0000000" stroke-width="0.00000000" fill="#e6bf88"/>
 <path d="M58.24,105.34c0.949-0.19,3.214-0.85,5.476,0.05-0.794,0.73-0.578,1.77-2.574,1.62-1.999,0.24-2.587-0.83-2.902-1.67z" fill-rule="nonzero" sodipodi:nodetypes="cccc" stroke-miterlimit="4.0000000" stroke-width="0.00000000" fill="url(#radialGradient3274)"/>
 <g fill-rule="nonzero" transform="matrix(0.520985,0.000000,3.196653e-7,1.011739,14.09518,-362.9510)">
  <path d="M165.88,435.21c-0.79,4.85-4.03,9.43-6.36,9.37-2.03-0.11-3.3-6.55-1.57-10.88,1.32-4.53,2.93-7.17,5.89-6.9,2.76,0.07,2.31,3.56,2.04,8.41z" sodipodi:nodetypes="ccccc" stroke-miterlimit="4.0000000" stroke-width="0.00000000" fill="#e6bf88"/>
  <path fill="#000" d="M161.39,430.93c0.58-0.63,1.44-0.91,2.18-0.64,0.4,0.26,0.43,0.88,0.51,1.36,0.21,1.65-0.19,3.33-0.71,4.88-0.27,0.82-0.48,1.69-0.93,2.41-0.56,0.85-1.35,1.49-2.23,1.76-0.19,0.02-0.56,0.34-0.56-0.07,0.12-0.41,0.55-0.46,0.87-0.45,0.28,0.04,0.53-0.11,0.78-0.23,0,0.2-0.39,0.25-0.54,0.4-0.23,0.13-0.47,0.26-0.7,0.39,0.64-0.51,1.3-1.07,1.69-1.89,0.29-0.68,0.48-1.43,0.73-2.14,0.47-1.5,0.84-3.11,0.63-4.69-0.05-0.37-0.14-0.73-0.3-1.05-0.28-0.07-0.59-0.28-0.83-0.32-0.19,0.09-0.39,0.19-0.59,0.28z"/>
  <path d="M158.82,438.36c-0.04,1.83,2.29-0.03,2.8-1.1-0.27-1.07,0.67-2.01-0.91-3.04-1.56,0.16-1.45,2.59-1.89,4.14z" sodipodi:nodetypes="cccc" stroke-miterlimit="4.0000000" stroke-width="0.00000000" fill="#9c780c"/>
 </g>
 <g fill-rule="nonzero" transform="matrix(1.000000,0.000000,0.000000,1.180386,-57.29202,-435.5013)">
  <path fill="#000" d="M78.838,431.16c-0.58-0.63-1.436-0.91-2.175-0.64-0.406,0.27-0.427,0.88-0.511,1.36-0.207,1.65,0.193,3.33,0.706,4.88,0.271,0.82,0.481,1.69,0.931,2.41,0.564,0.85,1.353,1.5,2.232,1.76,0.193,0.03,0.564,0.34,0.561-0.07-0.125-0.4-0.555-0.46-0.866-0.44-0.281,0.04-0.539-0.11-0.785-0.24-0.002,0.2,0.392,0.25,0.544,0.4,0.231,0.13,0.464,0.26,0.698,0.39-0.641-0.51-1.306-1.07-1.687-1.88-0.299-0.69-0.483-1.43-0.732-2.15-0.473-1.49-0.847-3.11-0.632-4.69,0.053-0.36,0.145-0.73,0.295-1.05,0.286-0.06,0.593-0.27,0.832-0.32,0.196,0.1,0.391,0.19,0.589,0.28z"/>
  <path d="M80.977,438.86c0.037,1.83-1.708-0.2-2.215-1.26-0.313-0.58-0.754-2.02,0.321-2.55,1.144,0.32,1.453,2.25,1.894,3.81z" sodipodi:nodetypes="cccc" stroke-miterlimit="4.0000000" stroke-width="0.00000000" fill="#9c780c"/>
 </g>
 <path d="M49.627,76.534c-0.086,1.259-5.8,4.631-8.598,4.373-2.797-0.259-5.888-3.33-5.802-4.589,1.717,1.138,5.033-0.054,7.881,0.747,2.555-0.57,0.485,0.239,6.519-0.531z" fill-rule="nonzero" sodipodi:nodetypes="ccccc" fill="#ffcd97"/>
 <path d="M48.35,68.795c0,1.29-3.873-1.99-7.39-1.484-2.737-0.304-6.167,1.052-7.207,1.18,0.964-2.345,5.079-6.4,7.901-5.853,5.971-0.149,4.585,6.055,6.696,6.157z" fill-rule="nonzero" sodipodi:nodetypes="ccccc" fill="#ffcd97"/>
 <path d="M48.176,69.302c-9.104-4.18-13.47-1.243-16.591,0.607,1.051-2.244,4.992-6.703,7.814-6.157,5.971-0.149,8.141,3.118,8.777,5.55z" fill-rule="nonzero" sodipodi:nodetypes="cccc" fill="#ffcd97"/>
 <path d="M23.291,78.46c2.312-30.692,21.908-45.649,45.251-46.978-0.392-6.669-4.635-2.4-6.166-3.922-27.327,1.156-39.888,18.613-39.085,50.9z" fill-rule="nonzero" sodipodi:nodetypes="cccc" stroke-miterlimit="4.0000000" stroke-width="0.00000000" fill="#060715"/>
 <path d="M28.155,93.665c-11.437-39.996,6.574-73.71,35.273-67.23-4.652-7.409-26.118-5.533-31.626-0.899-9.947,5.465-20.535,19.759-3.647,68.129z" fill-rule="nonzero" sodipodi:nodetypes="cccc" stroke-miterlimit="4.0000000" stroke-width="0.00000000" fill="#060715"/>
 <path d="M30.361,68.99c1.581-24.155,14.986-35.926,30.952-36.973-0.268-5.248-3.17-1.888-4.218-3.086-18.691,0.91-27.283,14.649-26.734,40.059z" fill-rule="nonzero" sodipodi:nodetypes="cccc" stroke-miterlimit="4.0000000" stroke-width="0.00000000" fill="#060715"/>
 <path d="M50.905,67.15c1.581-24.155,14.986-35.926,30.952-36.972-0.268-5.249-3.17-1.889-4.218-3.086-18.692,0.909-27.283,14.648-26.734,40.058z" fill-rule="nonzero" sodipodi:nodetypes="cccc" stroke-miterlimit="4.0000000" stroke-width="0.00000000" fill="#060715"/>
 <path d="M29.262,88.435c-11.437-39.996,6.574-73.71,35.272-67.23-4.651-7.409-26.117-5.533-31.625-0.899-9.947,5.466-20.535,19.76-3.647,68.129z" fill-rule="nonzero" sodipodi:nodetypes="cccc" stroke-miterlimit="4.0000000" stroke-width="0.00000000" fill="#060715"/>
 <path d="M26.502,85.675c-10.21-43.675,6.574-73.71,35.273-67.23-4.652-7.408-25.198-2.16-30.706,2.474-11.48,11.905-21.454,16.387-4.567,64.756z" fill-rule="nonzero" sodipodi:nodetypes="cccc" stroke-miterlimit="4.0000000" stroke-width="0.00000000" fill="#060715"/>
 <path d="M14.745,77.575c2.99-30.071,28.336-44.725,58.527-46.028-0.507-6.534-5.995-2.351-7.975-3.842-35.344,1.132-51.59,18.236-50.552,49.87z" fill-rule="nonzero" sodipodi:nodetypes="cccc" stroke-miterlimit="4.0000000" stroke-width="0.00000000" fill="#060715"/>
 <path d="M9.5323,76.962c2.9897-30.072,28.336-44.726,58.527-46.028-0.507-6.535-5.994-2.351-7.975-3.842-35.344,1.132-51.59,18.236-50.552,49.87z" fill-rule="nonzero" sodipodi:nodetypes="cccc" stroke-miterlimit="4.0000000" stroke-width="0.00000000" fill="#060715"/>
 <path d="M66.199,73.468c4.283-0.852,3.971-3.662,12.162-4.831,10.337,2.77,11.775,4.042,12.698,1.458-0.67-6.845-6.713-7.605-11.325-7.718-7.201,1.562-16.259,2.666-13.535,11.091z" fill-rule="nonzero" sodipodi:nodetypes="ccccc" fill="url(#radialGradient3282)"/>
 <path d="M7.782,65.16c6.424-29.529,34.617-40.177,64.757-38.004,0.247-6.549-7.016-4.022-8.813-5.731-35.24-2.934-53.342,12.191-55.944,43.735z" fill-rule="nonzero" sodipodi:nodetypes="cccc" stroke-miterlimit="4.0000000" stroke-width="0.00000000" fill="#060715"/>
 <path d="M3.2661,51.394c12.121-25.903,40.752-27.82,69.872-15.47,1.533-6.147-4.977-4.816-6.401-7.055-33.97-14.813-54.699-6.599-63.471,22.525z" fill-rule="nonzero" sodipodi:nodetypes="cccc" stroke-miterlimit="4.0000000" stroke-width="0.00000000" fill="#060715"/>
 <path d="M2.8894,38.125c23.483-20.724,39.859-19.303,61.061,3.865,3.738-6.51,1.124-3.45,4.822-8.508-29.695-25.968-50.366-20.348-65.883,4.643z" fill-rule="nonzero" sodipodi:nodetypes="cccc" stroke-miterlimit="4.0000000" stroke-width="0.00000000" fill="#060715"/>
 <path d="M10.124,22.884c22.563-9.072,20.541-5.198,48.182,5.705,3.738-6.51,6.03-2.836,9.728-7.895-16.203-13.089-36.567-9.922-57.91,2.19z" fill-rule="nonzero" sodipodi:nodetypes="cccc" stroke-miterlimit="4.0000000" stroke-width="0.00000000" fill="#060715"/>
 <path d="M105.37,35.589c-10.956-7.794-5.659-13.179-34.335-5.397-2.996-6.883-3.653-5.512-6.769-10.948,21.603-9.53,36.764,6.002,41.104,16.345z" fill-rule="nonzero" sodipodi:nodetypes="cccc" stroke-miterlimit="4.0000000" stroke-width="0.00000000" fill="#060715"/>
 <path d="M34.04,63.471c1.582-19.718,12.227-24.421,28.193-25.275-0.268-4.284,0.203-6.14-0.845-7.118-18.692,0.742-27.897,11.65-27.348,32.393z" fill-rule="nonzero" sodipodi:nodetypes="cccc" stroke-miterlimit="4.0000000" stroke-width="0.00000000" fill="#060715"/>
 <path d="M17.076,81.154c1.582-25.143,8.24-7.075,7.342-15.824-3.641,1.878-1.637-3.88-3.297-6.723-2.135,3.819-4.594-3.903-4.045,22.547z" fill-rule="nonzero" sodipodi:nodetypes="cccc" stroke-miterlimit="4.0000000" stroke-width="0.00000000" fill="#060715"/>
 <path d="M91.007,82.518c0.621-25.086-8.37-46.454-26.269-48.66,0.718-5.231,3.191-0.776,4.295-1.615,17.753,7.647,24.738,24.682,21.974,50.275z" fill-rule="nonzero" sodipodi:nodetypes="cccc" stroke-miterlimit="4.0000000" stroke-width="0.00000000" fill="#060715"/>
 <path d="M73.692,69.066c0.621-25.085-11.13-41.854-26.27-48.66,0.718-5.23,3.191-0.776,4.296-1.615,17.752,7.647,24.738,24.682,21.974,50.275z" fill-rule="nonzero" sodipodi:nodetypes="cccc" stroke-miterlimit="4.0000000" stroke-width="0.00000000" fill="#060715"/>
 <path d="M102.93,86.612c2.43-28.526,1.19-38.961-32.927-56.905,0.903-6.491,6.842-3.654,8.91-5.022,13.475,30.746,20.291,33.281,24.017,61.927z" fill-rule="nonzero" sodipodi:nodetypes="cccc" stroke-miterlimit="4.0000000" stroke-width="0.00000000" fill="#060715"/>
 <path d="M95.934,86.534c-2.182-24.998-10.823-43.724-23.869-51.558,0.131-5.278,3.085-1.127,4.089-2.084,18.495,5.619,19.671,27.901,19.78,53.642z" fill-rule="nonzero" sodipodi:nodetypes="cccc" stroke-miterlimit="4.0000000" stroke-width="0.00000000" fill="#060715"/>
 <path d="M92.051,90.049c2.245-24.993-2.972-44.946-14.438-54.95,1.056-5.173,3.234-0.568,4.391-1.333,17.22,8.78,14.463,30.922,10.047,56.283z" fill-rule="nonzero" sodipodi:nodetypes="cccc" stroke-miterlimit="4.0000000" stroke-width="0.00000000" fill="#060715"/>
 <path d="M90.444,85.567c5.942-21.156,2.124-37.939-10.6-46.217,1.952-4.388,4.023-0.53,5.534-1.194,19.912,7.156,13.707,25.911,5.066,47.411z" fill-rule="nonzero" sodipodi:nodetypes="cccc" stroke-miterlimit="4.0000000" stroke-width="0.00000000" fill="#060715"/>
 <path d="M96.096,74.974c5.944-21.155-6.155-36.711-18.879-44.99,1.952-4.388,12.302-1.756,13.814-2.421,14.699,12.063,11.869,29.591,5.065,47.411z" fill-rule="nonzero" sodipodi:nodetypes="cccc" stroke-miterlimit="4.0000000" stroke-width="0.00000000" fill="#060715"/>
 <path d="M107.93,52.571c-9.315-25.903-27.013-25.192-46.998-22.158-1.179-6.146-3.581-6.965-2.487-9.204,26.1-14.814,42.745,2.239,49.485,31.362z" fill-rule="nonzero" sodipodi:nodetypes="cccc" stroke-miterlimit="4.0000000" stroke-width="0.00000000" fill="#060715"/>
 <path d="M107.41,84.312c-7.4-49.31-20.087-45.733-39.117-47.715-1.178-6.146,10.99-10.548,12.084-12.786,18.456,2.861,26.983,24.69,27.033,60.501z" fill-rule="nonzero" sodipodi:nodetypes="cccc" stroke-miterlimit="4.0000000" stroke-width="0.00000000" fill="#060715"/>
 <path d="M23.294,5.3157c19.563,2.9251,21.05,3.1415,31.798,15.267,6.51,3.737,3.449-1.981,8.508,1.716-10.098-20.379-28.09-18.26-40.306-16.983z" fill-rule="nonzero" sodipodi:nodetypes="cccc" stroke-miterlimit="4.0000000" stroke-width="0.00000000" fill="#060715"/>
 <path d="M97.04,20.516c-21.252-8.56-25.103,0.439-35.176,0.067-6.51,3.737-6.151-2.319-11.21,1.379,16.178-19.029,39.237-10.154,46.386-1.446z" fill-rule="nonzero" sodipodi:nodetypes="cccc" stroke-miterlimit="4.0000000" stroke-width="0.00000000" fill="#060715"/>
 <path d="M108.14,68.841c-2.99-30.071-28.338-44.725-58.528-46.028,0.507-6.534,5.994-2.351,7.975-3.842,35.344,1.132,51.593,18.236,50.553,49.87z" fill-rule="nonzero" sodipodi:nodetypes="cccc" stroke-miterlimit="4.0000000" stroke-width="0.00000000" fill="#060715"/>
 <path d="M50.939,19.576c-5.303-0.251-7.084,0.589-10.386,1.326,2.983,0.413,5.008-0.931,5.89-0.06,0.428-0.488-1.248-0.063-1.841,0.942,2.761-1.108,5.791-1.867,6.337-2.208z" fill-rule="nonzero" sodipodi:nodetypes="ccccc" stroke-miterlimit="4.0000000" stroke-width="0.00000000" fill="url(#linearGradient3284)"/>
 <path d="M52.414,15.21c-1.507-0.482-7.607-1.345-19.158,1.907,6.995,0.052,8.31-0.882,9.299,0.399,1.14-1.213-2.348,0.466-5.66,2.698,5.288,0.056,6.977-1.763,7.132-0.961,0.814,0.422-2.809,0.847-4.474,3.258,3.288-0.74,6.687-3.894,13.964-4.28-2.558-0.684-5.393-1.053-8.86-0.578,1.156-1.767,6.372-1.525,7.757-2.443z" fill-rule="nonzero" sodipodi:nodetypes="ccccccccc" stroke-miterlimit="4.0000000" stroke-width="0.00000000" fill="url(#linearGradient3286)"/>
 <path d="M55.881,19.696c-9.916,0.376-13.986,3.241-22.436,7.357,6.903-1.132,11.918-4.512,13.11-3.417,0.918-1.388-3.727,0.112-6.613,2.872,4.922-2.182,5.284-2.634,4.052,0.025,3.115-0.987,3.248-2.584,10.354-4.196-2.636-0.241-3.107-0.125-6.444,0.93,0.84-1.937,6.767-2.433,7.977-3.571z" fill-rule="nonzero" sodipodi:nodetypes="cccccccc" stroke-miterlimit="4.0000000" stroke-width="0.00000000" fill="url(#linearGradient3288)"/>
 <path d="M54.835,24.547c-8.982,1.104-9.721,3.067-11.994,5.855,5.498-1.636,4.589-2.245,6.658-1.24-0.342-1.451-3.402,0.385-3.716,3.35,2.728-2.537,3.887-3.088,8.265-5.665-2.685-0.048-3.771,0.252-6.287,1.251-0.892-1.994,6.926-2.327,7.074-3.551z" fill-rule="nonzero" sodipodi:nodetypes="ccccccc" stroke-miterlimit="4.0000000" stroke-width="0.00000000" fill="url(#linearGradient3290)"/>
 <path d="M56.525,27.862c-6.722,2.002-8.494,4.651-12.839,8.916,4.362-1.98,6.6-5.143,7.823-4.615,0.13-1.097-2.537,0.732-3.528,3.102,2.61-2.338,2.696-2.707,2.811-0.697,1.795-1.215,1.306-2.315,5.634-4.654-1.911,0.301-2.195,0.463-4.119,1.763-0.124-1.455,3.795-2.834,4.218-3.815z" fill-rule="nonzero" sodipodi:nodetypes="cccccccc" stroke-miterlimit="4.0000000" stroke-width="0.00000000" fill="url(#linearGradient3292)"/>
 <path d="M57.27,31.59c-7.318,4.238-8.941,7.036-12.69,11.003,4.363-1.981,5.855-5.74,7.823-5.211,0.13-1.098-1.726,0.991-1.611,3,2.69-4.047,6.056-7.811,6.478-8.792z" fill-rule="nonzero" sodipodi:nodetypes="ccccc" stroke-miterlimit="4.0000000" stroke-width="0.00000000" fill="url(#linearGradient3294)"/>
 <path d="M53.733,27.794c-4.542,1.707-5.773,3.177-8.316,5.107,2.641-0.697,3.916-2.746,4.937-2.225,0.204-0.631-1.071,0.398-1.249,1.59,1.969-2.09,4.277-3.941,4.628-4.472z" fill-rule="nonzero" sodipodi:nodetypes="ccccc" stroke-miterlimit="4.0000000" stroke-width="0.00000000" fill="url(#linearGradient3296)"/>
 <path d="M29.119,28.384c-8.154,3.049-11.265,7.407-14.826,14.556,2.708-4.155,5.681-6.863,6.771-8.001,1.069-1.065,3.117-3.081,8.055-6.555z" fill-rule="nonzero" sodipodi:nodetypes="cccc" stroke-miterlimit="4.0000000" stroke-width="0.00000000" fill="url(#linearGradient3298)"/>
 <path d="M22.248,42.466c-7.072,5.077-8.933,10.098-10.498,17.929,1.525-4.718,3.686-8.11,4.44-9.494,0.753-1.307,2.202-3.789,6.058-8.435z" fill-rule="nonzero" sodipodi:nodetypes="cccc" stroke-miterlimit="4.0000000" stroke-width="0.00000000" fill="url(#linearGradient3300)"/>
 <path d="M35.605,44.214c-6.061,4.41-7.73,8.868-9.205,15.846,1.38-4.194,3.268-7.188,3.931-8.412,0.661-1.156,1.932-3.349,5.274-7.434z" fill-rule="nonzero" sodipodi:nodetypes="cccc" stroke-miterlimit="4.0000000" stroke-width="0.00000000" fill="url(#linearGradient3302)"/>
 <path d="M29.432,17.777c-8.68,0.672-12.875,3.999-18.276,9.882,3.752-3.243,7.359-5.022,8.721-5.814,1.322-0.727,3.849-2.097,9.555-4.068z" fill-rule="nonzero" sodipodi:nodetypes="cccc" stroke-miterlimit="4.0000000" stroke-width="0.00000000" fill="url(#linearGradient3306)"/>
 <path d="M20.092,52.889c-3.693,4.902-4.007,9.17-3.628,15.676,0.15-3.986,0.95-6.971,1.194-8.174,0.256-1.142,0.755-3.312,2.434-7.502z" fill-rule="nonzero" sodipodi:nodetypes="cccc" stroke-miterlimit="4.0000000" stroke-width="0.00000000" fill="url(#linearGradient3308)"/>
 <path d="M22.169,62.971c-1.536,7.714,0.192,13.293,2.295,20.459-1.438-4.188-1.368-9.595-1.615-11.004-0.212-1.356-0.601-3.941-0.68-9.455z" fill-rule="nonzero" sodipodi:nodetypes="cccc" stroke-miterlimit="4.0000000" stroke-width="0.00000000" fill="url(#linearGradient3310)"/>
 <path d="M75.953,11.533c-5.421-0.152-6.199-0.442-13.7,2.787,5.418-1.46,5.857-0.428,6.687,0.614,0.632-0.907-1.88-0.707-3.87,0.917,3.404-0.833,3.72-0.628,8.64-0.653-1.828-0.634-2.061-1.619-4.37-1.379,0.576-1.341,5.779-1.62,6.613-2.286z" fill-rule="nonzero" sodipodi:nodetypes="ccccccc" stroke-miterlimit="4.0000000" stroke-width="0.00000000" fill="url(#linearGradient3312)"/>
 <path d="M75.753,16.715c-4.436-1.53-7.716-0.225-10.08,1.524,2.805-0.755,5.358-1.272,5.883-0.214,0.42-0.896-2.243-0.166-3.552,1.42,2.215-0.769,2.957-1.481,2.387,0.33,1.4-0.186,1.47-1.385,4.658-1.317-1.177-0.669-1.388-0.666-2.887-0.469,0.389-1.331,3.042-0.624,3.591-1.274z" fill-rule="nonzero" sodipodi:nodetypes="cccccccc" stroke-miterlimit="4.0000000" stroke-width="0.00000000" fill="url(#linearGradient3314)"/>
 <path d="M76.59,19.576c-5.303-0.251-4.923,0.013-8.224,0.749,2.983,0.413,3.711-0.787,4.593,0.085,0.427-0.488-1.248-0.064-1.841,0.941,2.76-1.107,4.926-1.434,5.472-1.775z" fill-rule="nonzero" sodipodi:nodetypes="ccccc" stroke-miterlimit="4.0000000" stroke-width="0.00000000" fill="url(#linearGradient3316)"/>
 <path d="M76.882,20.625c-5.848,0.023-6.444,1.141-8.078,2.642,3.638-0.587,3.091-1.014,4.361-0.268-0.131-0.89-2.213-0.012-2.597,1.734,1.911-1.32,2.691-1.566,5.666-2.793-1.724-0.218-2.442-0.116-4.122,0.302-0.451-1.252,4.6-0.898,4.77-1.617z" fill-rule="nonzero" sodipodi:nodetypes="ccccccc" stroke-miterlimit="4.0000000" stroke-width="0.00000000" fill="url(#linearGradient3318)"/>
 <path d="M76.915,24.044c-5.824-0.533-6.523,0.524-8.293,1.862,3.678-0.238,3.174-0.715,4.367,0.148-0.046-0.898-2.202-0.221-2.751,1.479,2.029-1.132,2.828-1.303,5.907-2.241-1.696-0.381-2.42-0.348-4.132-0.092-0.331-1.289,4.664-0.456,4.902-1.156z" fill-rule="nonzero" sodipodi:nodetypes="ccccccc" stroke-miterlimit="4.0000000" stroke-width="0.00000000" fill="url(#linearGradient3320)"/>
 <path d="M75.183,28.582c-2.203-2.435-3.82-1.413-6.695-0.656,1.763,1.046,3.715-0.102,3.68,1.041,0.56-0.784-0.82-0.937-2.158,0.331,1.618-0.279,1.814-0.517,0.853,1.128,0.921,0.117,1.369-1.037,3.3-0.294-0.496-0.902-0.626-0.944-1.612-1.071,0.688-1.215,2.076,0.038,2.632-0.479z" fill-rule="nonzero" sodipodi:nodetypes="cccccccc" stroke-miterlimit="4.0000000" stroke-width="0.00000000" fill="url(#linearGradient3322)"/>
 <path d="M71.558,46.75c-2.219-7.495-3.487-12.104-6.103-15.427,1.306,3.867,2.344,5.334,1.995,7.079,0.724,0.115-0.509-2.252-1.835-2.149,2.669,2.384,5.296,10.123,5.943,10.497z" fill-rule="nonzero" sodipodi:nodetypes="ccccc" stroke-miterlimit="4.0000000" stroke-width="0.00000000" fill="url(#linearGradient3324)"/>
 <path d="M35.605,44.214c-6.061,4.41-7.73,8.868-9.205,15.846,1.38-4.194,3.268-7.188,3.931-8.412,0.661-1.156,1.932-3.349,5.274-7.434z" fill-rule="nonzero" sodipodi:nodetypes="cccc" stroke-miterlimit="4.0000000" stroke-width="0.00000000" fill="url(#linearGradient3302)"/>
 <path d="M76.399,37.054c4.202,5.966,5.797,9.348,6.191,16.763-0.636-4.368-1.98-6.923-2.422-8.242-0.451-1.253-1.469-3.489-3.769-8.521z" fill-rule="nonzero" sodipodi:nodetypes="cccc" stroke-miterlimit="4.0000000" stroke-width="0.00000000" fill="url(#linearGradient3328)"/>
 <path d="M88.382,51.73c3.453,6.428,4.63,9.976,4.13,17.386-0.106-4.413-1.133-7.111-1.413-8.474-0.298-1.298-1.039-3.64-2.717-8.912z" fill-rule="nonzero" sodipodi:nodetypes="cccc" stroke-miterlimit="4.0000000" stroke-width="0.00000000" fill="url(#linearGradient3330)"/>
 <path d="M96.884,57.35c3.166,7.591,4.196,9.485,4.126,18.097-0.82-5.044-1.561-8.302-1.841-9.721-0.298-1.35-0.607-2.888-2.285-8.376z" fill-rule="nonzero" sodipodi:nodetypes="cccc" stroke-miterlimit="4.0000000" stroke-width="0.00000000" fill="url(#linearGradient3332)"/>
 <path d="M101.18,45.615c3.54,5.021,4.9,7.879,5.34,14.197-0.59-3.715-1.73-5.873-2.12-6.991-0.39-1.061-1.26-2.952-3.22-7.206z" fill-rule="nonzero" sodipodi:nodetypes="cccc" stroke-miterlimit="4.0000000" stroke-width="0.00000000" fill="url(#linearGradient3334)"/>
 <path d="M91.69,21.001c5.315,3.089,8.176,6.273,11.2,11.835-2.08-3.133-4.017-4.618-4.832-5.475-0.796-0.802-2.807-3.311-6.368-6.36z" fill-rule="nonzero" sodipodi:nodetypes="cccc" stroke-miterlimit="4.0000000" stroke-width="0.00000000" fill="url(#linearGradient3336)"/>
 <path d="M27.078,5.1496c6.713-0.2234,14.452-1.1266,19.666,2.4665-3.994-1.2766-6.971-1.5809-9.382-1.8331-1.072-0.3557-2.56-0.2435-10.284-0.6334z" fill-rule="nonzero" sodipodi:nodetypes="cccc" stroke-miterlimit="4.0000000" stroke-width="0.00000000" fill="url(#linearGradient3338)"/>
 <path d="M84.108,21.196c7.189,2.575,15.404,9.878,17.722,17.353-2.003-3.934-6.401-8.373-7.242-9.482-0.829-1.041-3.951-3.554-10.48-7.871z" fill-rule="nonzero" sodipodi:nodetypes="cccc" stroke-miterlimit="4.0000000" stroke-width="0.00000000" fill="url(#linearGradient3340)"/>
 <path d="M86.739,30.274c5.517,3.707,10.912,11.655,11.306,18.507-0.866-3.771-3.644-8.477-4.122-9.598-0.481-1.061-2.586-3.858-7.184-8.909z" fill-rule="nonzero" sodipodi:nodetypes="cccc" stroke-miterlimit="4.0000000" stroke-width="0.00000000" fill="url(#linearGradient3342)"/>
 <path d="M56.529,72.781c-4.488-0.852-4.16-3.662-12.742-4.831-10.831,2.77-12.337,4.042-13.304,1.458,0.702-6.845,7.034-7.606,11.866-7.718,7.544,1.561,17.034,2.665,14.18,11.091z" fill-rule="nonzero" sodipodi:nodetypes="ccccc" fill="url(#radialGradient3368)"/>
 <path d="M56.049,67.466c-5.168-1.476-8.714-3.961-14.787-4.286-5.12-0.848-7.511,1.919-11.439,1.998,1.289-1.365,6.817-4.655,12.235-4.117,4.692,0.916,13.748,3.782,13.991,6.405z" fill-rule="nonzero" sodipodi:nodetypes="ccccc" stroke-miterlimit="4.0000000" stroke-width="0.00000000" fill="#060715"/>
 <path d="M81.989,74.526c-2.181-24.998-15.729-40.352-31.534-45.426,0.131-5.278,3.085-1.127,4.089-2.084,18.495,5.619,27.337,21.768,27.445,47.51z" fill-rule="nonzero" sodipodi:nodetypes="cccc" stroke-miterlimit="4.0000000" stroke-width="0.00000000" fill="#060715"/>
 <path d="M49.773,71.796c-0.688,6.863,1.421,8.361,4.336,8.76,3.719,0.303,3.973-7.545,3.975-10.206,0.495-2.6,0.177-2.647-2.593-4.086-4.141,2.085-2.994,0.632-5.718,5.532z" fill-rule="nonzero" sodipodi:nodetypes="ccccc" fill="url(#radialGradient3370)"/>
 <path d="M84.081,66.734c-1.973-25.015-20.299-34.042-36.061-39.247,0.174-5.277,8-7.541,9.012-8.489,18.447,5.772,27.155,21.995,27.049,47.736z" fill-rule="nonzero" sodipodi:nodetypes="cccc" stroke-miterlimit="4.0000000" stroke-width="0.00000000" fill="#060715"/>
 <path d="M52.941,73.175c-2.616-4.16-12.546-7.639-19.961,0.485,0.912,2.763,4.313,4.501,8.921,5.704,2.481-0.707,6.188,0.761,7.935-0.711,1.236-1.043,2.777-1.316,3.105-5.478z" fill-rule="nonzero" sodipodi:nodetypes="cccsc" stroke-miterlimit="4.0000000" stroke-width="0.00000000" fill="url(#linearGradient3344)"/>
 <path d="M48.814,69.989c2.646,4.486,0.483,9.253-1.255,9.253-3.728,0.882-4.257,0.683-8.673-0.734-1.905-2.295-2.138-7.098,0.428-9.039,3.476,0,5.408-3.574,9.5,0.52z" fill-rule="evenodd" sodipodi:nodetypes="ccccc" fill="url(#linearGradient3346)"/>
 <path sodipodi:rx="3.8198624" sodipodi:ry="3.9047482" sodipodi:type="arc" d="M326.13,310.8a3.8199,3.9047,0,1,1,-7.64,0,3.8199,3.9047,0,1,1,7.64,0z" fill-rule="evenodd" transform="matrix(0.908023,0.000000,0.000000,1.064238,-248.9052,-257.0357)" sodipodi:cy="310.79956" sodipodi:cx="322.31149" fill="#00001d"/>
 <path d="M51.054,78.092c-4.245,1.062-5.352,1.307-8.956,0.98-2.468-0.219-3.814-0.849-7.231-2.579,1.16,2.015,4.195,3.02,5.858,3.244,8.226,0.661,7.59-0.331,10.329-1.645z" fill-rule="nonzero" sodipodi:nodetypes="ccccc" stroke-miterlimit="4.0000000" stroke-width="0.00000000" fill="#060715"/>
 <path d="M72.877,72.025c0.656,6.863-1.356,8.361-4.139,8.76-3.55,0.303-3.792-7.545-3.794-10.206-0.472-2.6-0.169-2.647,2.475-4.086,3.953,2.085,2.858,0.632,5.458,5.532z" fill-rule="nonzero" sodipodi:nodetypes="ccccc" fill="url(#radialGradient3348)"/>
 <path d="M70.377,73.199c2.496-4.16,11.974-7.64,19.051,0.485-0.87,2.763-4.117,4.501-8.515,5.704-2.367-0.707-5.906,0.761-7.573-0.712-1.18-1.042-2.65-1.316-2.963-5.477z" fill-rule="nonzero" sodipodi:nodetypes="cccsc" stroke-miterlimit="4.0000000" stroke-width="0.00000000" fill="url(#linearGradient3350)"/>
 <path d="M83.996,70.013c2.286,3.458,0.952,8.537-1.427,8.831-3.558,0.881-3.833,1.105-8.049-0.312-1.577-3.03-2.4-4.747,0.409-9.039,3.318,0,5.162-3.574,9.067,0.52z" fill-rule="evenodd" sodipodi:nodetypes="ccccc" fill="url(#linearGradient3352)"/>
 <path sodipodi:rx="3.8198624" sodipodi:ry="3.9047482" sodipodi:type="arc" d="M326.13,310.8a3.8199,3.9047,0,1,1,-7.64,0,3.8199,3.9047,0,1,1,7.64,0z" fill-rule="evenodd" transform="matrix(-0.866667,0.000000,0.000000,1.064238,358.4750,-257.0117)" sodipodi:cy="310.79956" sodipodi:cx="322.31149" fill="#00001d"/>
 <path d="M43.431,72.421c-0.36,1.897-1.781,3.436-3.174,3.436s-2.231-1.539-1.872-3.436c0.36-1.897,1.781-3.436,3.174-3.436s2.231,1.539,1.872,3.436z" fill-opacity="0.69629627" fill-rule="evenodd" fill="#ededff"/>
 <path d="M53.9,73.604c-2.696-1.366-2.285-2.919-7.165-4.072-5.313-1.382-8.859,0.556-13.824,4.009,2.049-3.262,8.316-6.466,13.939-5.59,4.335,1.284,5.197,2.627,7.05,5.653z" fill-rule="nonzero" sodipodi:nodetypes="ccccc" stroke-miterlimit="4.0000000" stroke-width="0.00000000" fill="#060715"/>
 <path d="M66.042,67.128c4.932-1.476,8.317-3.961,14.113-4.286,4.887-0.848,7.169,1.919,10.918,1.998-1.231-1.365-6.507-4.655-11.678-4.117-4.477,0.916-13.121,3.782-13.353,6.405z" fill-rule="nonzero" sodipodi:nodetypes="ccccc" stroke-miterlimit="4.0000000" stroke-width="0.00000000" fill="#060715"/>
 <path d="M68.479,71.212c0.621-25.085-11.129-41.854-26.27-48.66,0.719-5.23,5.951-4.455,7.056-5.294,17.752,7.647,21.978,28.361,19.214,53.954z" fill-rule="nonzero" sodipodi:nodetypes="cccc" stroke-miterlimit="4.0000000" stroke-width="0.00000000" fill="#060715"/>
 <path d="M42.185,72.224c-0.238,1.291-1.182,2.338-2.106,2.338-0.923,0-1.48-1.047-1.241-2.338,0.238-1.291,1.181-2.339,2.105-2.339s1.48,1.048,1.242,2.339z" fill-opacity="0.69629627" fill-rule="evenodd" fill="#ededff"/>
 <path d="M77.938,71.962c-0.228,1.291-1.128,2.338-2.01,2.338s-1.413-1.047-1.185-2.338c0.227-1.291,1.128-2.339,2.009-2.339,0.882,0,1.413,1.048,1.186,2.339z" fill-opacity="0.69629627" fill-rule="evenodd" fill="#ededff"/>
 <path d="M79.107,72.181c-0.343,1.897-1.7,3.437-3.029,3.437-1.33,0-2.13-1.54-1.787-3.437s1.7-3.436,3.029-3.436c1.33,0,2.13,1.539,1.787,3.436z" fill-opacity="0.69629627" fill-rule="evenodd" fill="#ededff"/>
 <path d="M69.461,73.628c2.573-1.366,2.181-2.919,6.839-4.072,5.071-1.382,8.455,0.556,13.195,4.009-1.957-3.262-7.938-6.467-13.305-5.59-4.138,1.284-4.96,2.627-6.729,5.653z" fill-rule="nonzero" sodipodi:nodetypes="ccccc" stroke-miterlimit="4.0000000" stroke-width="0.00000000" fill="#060715"/>
 <path d="M72.178,78.116c4.051,1.062,5.107,1.307,8.548,0.98,2.355-0.219,3.64-0.849,6.901-2.579-1.107,2.015-4.004,3.02-5.591,3.244-7.851,0.661-7.245-0.331-9.858-1.645z" fill-rule="nonzero" sodipodi:nodetypes="ccccc" stroke-miterlimit="4.0000000" stroke-width="0.00000000" fill="#060715"/>
 <path d="M60.506,94.071c2.239-1.389,2.983-0.649,3.899-2.123-0.265-0.642-1.271-5.621-2.516-13.374-0.771-4.105,2.471,12.42,2.745,13.47,0.449,1.022-1.824,1.962-4.128,2.027z" fill-rule="nonzero" sodipodi:nodetypes="ccccc" stroke-miterlimit="4.0000000" stroke-width="0.00000000" fill="#060715"/>
 <path d="M68.044,101.76c-0.514,0.96-4.356,0.45-7.032,0.73-2.411-0.3-7.44,0.14-7.331-0.48,0.122-0.7,2.736,0.11,7.048,0.26,4.252,0,6.635-0.81,7.315-0.51z" fill-rule="nonzero" sodipodi:nodetypes="cczcc" fill="#000"/>
 <path d="M50.021,101.39c2.358-0.66,11.995-0.36,10.477,0.6,0.203,0.35,1.503,1.1-3.824,0.85-4.875,0.16-4.79-0.53-6.653-1.45z" fill-rule="nonzero" sodipodi:nodetypes="cccc" stroke-miterlimit="4.0000000" stroke-width="0.00000000" fill="url(#radialGradient3354)"/>
 <path d="M70.068,101.39c-2.118-0.66-10.773-0.36-9.409,0.6-0.183,0.35-1.351,1.1,3.433,0.85,4.379,0.16,4.302-0.53,5.976-1.45z" fill-rule="nonzero" sodipodi:nodetypes="cccc" stroke-miterlimit="4.0000000" stroke-width="0.00000000" fill="url(#radialGradient3356)"/>
 <path d="M46.254,41.996c-7.072,5.077-8.933,10.097-10.498,17.929,1.525-4.719,3.686-8.111,4.44-9.494,0.753-1.308,2.202-3.79,6.058-8.435z" fill-rule="nonzero" sodipodi:nodetypes="cccc" stroke-miterlimit="4.0000000" stroke-width="0.00000000" fill="url(#linearGradient3304)"/>
 <g fill-opacity="0.30370370" fill-rule="nonzero" transform="translate(-518.6738,-100.9803)" stroke-miterlimit="4.0000000" stroke-width="0.00000000" fill="#060715">
  <path d="M563.55,177.79c1.59-25.38,15.3-40.83,31.26-41.88-0.26-5.25-2.86,2.1-3.91,0.9-21.76,0.3-27.89,15.57-27.35,40.98z" sodipodi:nodetypes="cccc"/>
  <path d="M571.32,168.71c1.58-24.16,14.99-35.93,30.95-36.98-0.27-5.24-3.17-1.88-4.22-3.08-18.69,0.91-27.28,14.65-26.73,40.06z" sodipodi:nodetypes="cccc"/>
  <path d="M588.89,172.77c0.63-25.09-11.13-41.85-26.27-48.66,0.72-5.23,5.96-4.46,7.06-5.29,17.75,7.64,21.98,28.36,19.21,53.95z" sodipodi:nodetypes="cccc"/>
  <path d="M602.4,176.08c-2.18-25-15.72-40.35-31.53-45.42,0.13-5.28,3.09-1.13,4.09-2.09,18.49,5.62,27.34,21.77,27.44,47.51z" sodipodi:nodetypes="cccc"/>
  <path d="M604.5,168.29c-1.98-25.01-20.3-34.04-36.06-39.25,0.17-5.27,8-7.54,9.01-8.49,18.44,5.78,27.15,22,27.05,47.74z" sodipodi:nodetypes="cccc"/>
  <path d="M594.11,170.62c0.62-25.08-11.13-41.85-26.27-48.66,0.72-5.23,3.19-0.77,4.29-1.61,17.76,7.64,24.74,24.68,21.98,50.27z" sodipodi:nodetypes="cccc"/>
  <path d="M555.38,177.09c1.58-24.16,14.98-35.93,30.95-36.98-0.27-5.24-3.17-1.88-4.22-3.08-18.69,0.91-27.28,14.65-26.73,40.06z" sodipodi:nodetypes="cccc"/>
  <path d="M554.46,165.03c1.58-19.72,12.22-24.42,28.19-25.28-0.27-4.28,0.2-6.14-0.85-7.12-18.69,0.75-27.89,11.66-27.34,32.4z" sodipodi:nodetypes="cccc"/>
  <path d="M550.78,170.55c1.58-24.16,14.98-35.93,30.95-36.98-0.27-5.24-3.17-1.88-4.22-3.08-18.69,0.91-27.28,14.65-26.73,40.06z" sodipodi:nodetypes="cccc"/>
 </g>
 <path d="M43.139,76.232c1.582-25.381,15.293-40.831,31.259-41.878-0.268-5.248-2.863,2.098-3.911,0.9-21.758,0.296-27.897,15.568-27.348,40.978z" fill-rule="nonzero" sodipodi:nodetypes="cccc" stroke-miterlimit="4.0000000" stroke-width="0.00000000" fill="#060715"/>
 <path d="M34.347,76.349c1.581-24.155,14.986-35.926,30.952-36.973-0.268-5.248-3.17-1.888-4.217-3.086-18.692,0.91-27.284,14.649-26.735,40.059z" fill-rule="nonzero" sodipodi:nodetypes="cccc" stroke-miterlimit="4.0000000" stroke-width="0.00000000" fill="#060715"/>
 <path d="M28.799,79.881c-1.908-21.891,4.96-37.673,19-43.444-1.102-4.674-3.855-1.267-5.216-2.201-20.891,3.334-18.281,22.914-13.784,45.645z" fill-rule="nonzero" sodipodi:nodetypes="cccc" stroke-miterlimit="4.0000000" stroke-width="0.00000000" fill="#060715"/>
</svg>
