<?xml version="1.0" encoding="UTF-8" standalone="no"?>
<svg viewBox="0 0 400 400" xmlns:rdf="http://www.w3.org/1999/02/22-rdf-syntax-ns#" xmlns="http://www.w3.org/2000/svg" height="300pt" width="300pt" xmlns:xlink="http://www.w3.org/1999/xlink" xmlns:cc="http://web.resource.org/cc/" xmlns:dc="http://purl.org/dc/elements/1.1/">
 <defs>
  <linearGradient id="linearGradient4048">
   <stop stop-color="#853c00" stop-opacity="0.74338627" offset="0"/>
   <stop stop-color="#5e0000" stop-opacity="0.0000000" offset="1"/>
  </linearGradient>
  <linearGradient id="linearGradient4051" y2="0.78906" xlink:href="#linearGradient4048" y1="0.39844" x2="0.3125" x1="0.51302"/>
  <linearGradient id="linearGradient4056" y2="0.63208" xlink:href="#linearGradient4048" y1="0.63208" x2="0.28404" x1="0.72066"/>
 </defs>
 <path fill-rule="evenodd" fill="#eab033" d="M190.1,33.214c-25.7,2.954-52.06,4.606-76.28,14.528-17.652,4.923-35.761,10.1-50.535,21.436-12.837,8.009-27.013,16.281-33.659,30.591-1.917,10.511-5.408,24.321,4.26,32.121,17.759,9.3,38.511,6.1,57.73,8.64,55.414,2.86,110.96,1.4,166.38,4.29,34.31,0.34,68.65-1.99,102.94,0.06,0.73-19.24-10.33-35.93-16.48-53.455-6.11-11.324-18.95-16.031-28.15-24.331-11.49-8.8-25.3-13.647-39.36-16.357-28.62-7.353-57.67-12.913-86.85-17.523z"/>
 <path fill-rule="evenodd" fill="#eab033" d="M355.95,265.79c-15.4,6.68-30.57,15.42-47.77,16.01-26.44,4.36-53.05,8.65-79.93,8.32-35.73,1.64-71.63,0.55-107.14-3.63-19.23-2.89-38.481-6.04-57.495-10.01-17.68-5.03-35.379-10.01-52.891-15.62,0.877,14.32,0.617,30.66,11.305,41.69,6.193,15.32,24.166,17.78,37.333,24.28,20.132,9.57,42.988,8.96,64.318,14.17,27,4.62,54.5,5.09,81.83,5.12,20.81-0.68,41.72-1.8,62.4-3.82,20.45-5.34,42.93-5.49,61.17-17.28,9.48-4.82,23.67-7.72,25.51-20.2,1.63-10.95,5.01-22.09,2.59-33.31-0.31-1.92-0.72-3.83-1.23-5.72z"/>
 <path fill-rule="evenodd" fill="#c34b00" d="M14.166,263l-3.905-4.69-1.5614-19.57,10.152-3.91-0.781-7.04,26.552,4.69,57.007,3.13,11.72-2.34,14.83,10.95,26.56,1.57,35.92,3.13,46.08-3.13,24.99-7.83,32.8-0.78,48.41-0.78,17.97-3.92,6.24,7.83,1.56,14.08-10.15,14.87-40.61,14.09-65.6,10.17h-55.44l-54.67-3.13-57.008-7.04-21.085-4.7-49.981-15.65z"/>
 <path fill-rule="evenodd" fill="#eeeee0" d="M18.852,227.8l-3.905-12.57,2.343-17.82,28.895,18.87,38.266,5.24,32.019,2.09-0.78,11.53-16.401,3.14-31.238-2.09-31.237-5.24-17.962-3.15z"/>
 <path fill-rule="evenodd" fill="#eeeee0" d="M117.33,218.86l-1.64,16.46,10.69,9.27,37.84,5.14,39.49,2.06,31.26-2.06,26.33-10.29v-19.55l-28.8,1.03-37.02,2.06-31.26-1.03-29.61-1.03-17.28-2.06z"/>
 <path fill-rule="evenodd" fill="#eeeee0" d="M253.14,222.16l0.78,14.97,27.33,0.93,41.39,1.87,31.24-4.67,8.59-3.75,3.9-18.71-15.62,5.62-28.89,2.8h-28.12l-24.21,0.94-10.93-1.87-2.34-0.94-3.12,2.81z"/>
 <path fill-rule="evenodd" fill="#eb3d33" d="M17.29,199.81l1.562-26.08,47.637,14.91,57.791,4.65,53.1-0.93,8.59,1.86,0.78,22.36v5.58l-41.39,0.93-26.55-3.72-3.9,3.72-38.268-2.79-31.238-0.93-28.114-19.56z"/>
 <path fill-rule="evenodd" fill="#eb3d33" d="M182.72,198.58l44.87,16.95,17.63,5.09,9.61,1.69h39.26,45.68l25.64-6.78,7.21-11.02-7.21-23.73-22.44,12.71-25.64,2.55-31.25-0.85-19.23-4.24-38.46-2.54-22.44-8.48-16.02-2.54-11.22,15.26,8.01,7.62-4-1.69z"/>
 <path fill-rule="evenodd" fill="#ba3d33" d="M185.97,200.2v19.56,3.13h43.74l24.21-2.35-34.37-10.95-22.64-7.83-10.94-1.56z"/>
 <path fill-rule="evenodd" fill="url(#linearGradient4051)" d="M190.38,34.594c-24.47,3.03-49.65,4.1-72.8,13.41-19.55,5.604-39.758,11.17-56.031,23.987-13.396,8.742-30.879,17.532-33.153,35.259-1.902,10.71-0.498,25.78,11.569,29.74,60.215,9.03,121.38,5.17,182.02,8.17,42.53,2.19,85.13-0.35,127.67,0.67,7.8,2.9,16.07-2.51,10.64-10.78-4.32-16.68-10.34-33.05-19.33-47.802-11.96-10.397-25.04-19.68-38.83-27.408-36.06-12.812-74.2-18.66-111.75-25.246z"/>
 <path d="M356.22,268.48l-39.83,14.87-59.35,7.82-53.1,1.57,76.53,1.56,53.1-10.17,17.96-3.13,2.35,18.78-1.57,10.17,6.25-25.82-2.34-15.65z" fill-opacity="0.52499998" fill-rule="evenodd" fill="#000"/>
 <path fill-rule="evenodd" fill="url(#linearGradient4056)" d="M356.3,266.88c-17.42,8.59-35.49,16.11-55.1,17.17-47.28,8.65-95.65,8.94-143.52,6.65-35.17-1.85-70.285-7.37-104.35-16.16-13.184-1.94-33.581-13.26-42.108-9.93-0.661,17.94,5.142,35.61,17.758,48.42,16.579,10.7,35.88,17.89,55.093,22.34,33.353,5.42,66.633,12.06,100.6,11.7,28.47,0.59,57.14-0.95,85.36-4.13,21.48-4.73,44.31-6.46,63.27-18.63,22.96-4.11,25.79-29.17,24.66-48.32-0.31-3.08-0.88-6.13-1.67-9.11z"/>
 <path d="M10.59,261.09l4.237,30.65,23.308,27.43-14.832-30.65,4.237-16.14,80.52,12.91-97.47-24.2z" fill-opacity="0.35624996" fill-rule="evenodd" fill="#000"/>
 <path d="M53.198,278.57l42.311,9.86,60.021,8.88,67.9,1.97,46.25-5.92-32.48-0.98h-48.21l-72.82-5.92-50.18-7.89h-12.792z" fill-opacity="0.45624998" fill-rule="evenodd" fill="#000"/>
 <path d="M9.9022,239.14l2.9518,19.71,48.216,17.75,13.776,3.94-6.888-23.66,18.695,0.99,30.507,2.96,7.87,6.9,3.93,15.77,3.94,3.95h9.84v-16.76l8.86-10.85,23.61,3.94,1.97,6.91,19.68-2.96,17.71-1.97,1.97,11.83-1.97,9.86-0.98,3.94h15.74l-0.98-17.75,8.85-7.88,1.97,2.95h5.91l5.9-3.94,9.84,9.86,3.94,9.86,6.88,4.93,42.31-4.93,35.43-12.82,5.9-3.94,10.83-16.76-0.99-12.82-3.93-3.94-18.7,2.95-18.7,0.99-61-0.99-25.59,8.88-47.23,3.94-63.96-4.93-12.79-12.82-9.84,3.95-62.974-1.97-21.648-5.92,0.984,6.9-9.8398,3.95z" fill-opacity="0.53125000" fill-rule="evenodd" fill="#000"/>
 <path d="M116.17,224.35l-1.96,7.88-12.8,2.96h-33.452l31.487-1.97,7.875-7.89-2.95-0.98-10.829-2.96,22.629,2.96z" fill-opacity="0.42187497" fill-rule="evenodd" fill="#000"/>
 <path d="M262.79,224.35l1.97,10.84-14.76,5.92-13.78,5.91-17.71,0.99,27.55-6.9,9.84-8.88-1.97-8.87h-6.89l15.75,0.99z" fill-opacity="0.42187497" fill-rule="evenodd" fill="#000"/>
 <path d="M367.09,216.46l0.98,8.87-3.93,7.89-16.73,3.94-30.5,0.99,37.39-4.93,6.89-2.96-0.99-6.9-6.89-2.96-1.96-0.98,5.9-1.98,9.84-0.98z" fill-opacity="0.42187497" fill-rule="evenodd" fill="#000"/>
 <path d="M18.758,204.63l-1.968,8.87,1.968,13.8,15.744,3.95s-3.936-1.97-7.872-6.9-4.92-7.89-4.92-7.89l-2.952-11.83z" fill-opacity="0.42187497" fill-rule="evenodd" fill="#000"/>
 <path d="M17.774,183.92l0.984,18.74,26.568,18.73,15.744-1.97-12.792-9.86-5.904-14.79-4.92-6.9-9.84,0.98-9.84-4.93z" fill-opacity="0.24999996" fill-rule="evenodd" fill="#000"/>
 <path d="M90.589,199.7l23.621,3.94,22.63,0.99,26.56,1.97,11.81,2.96,9.84,10.84,0.99-20.7-12.8-2.96-38.37,0.99-39.361-0.99-4.92,2.96z" fill-opacity="0.24999996" fill-rule="evenodd" fill="#000"/>
 <path fill-rule="evenodd" fill="#4fbe33" d="M28.223,126.85l-6.247-5.48-7.81,0.78,6.248,10.96-11.714,1.56,2.3424,7.05,5.467,0.78-6.248,6.26-5.4662,4.69,4.6857,3.13,7.0285,0.79-5.467,10.17-5.4662,5.47s0.7809,5.48,3.9047,5.48h12.496l-1.562,7.83,6.247,3.91,9.372-3.91,7.809,9.39,2.343,0.78,11.714-6.26,10.152,7.04,12.495,0.78,20.304,1.57,7.03-8.61,4.69,12.52,5.46-10.17,14.06,4.69,4.68,3.13s16.4-4.69,19.53-4.69c3.12,0,15.62,1.56,15.62,1.56l2.34,9.39,12.49-10.17,9.38-10.95,19.52,9.39,3.9-9.39,7.03,10.17,11.72,2.35,7.81-3.13,8.59,14.08s15.62,14.87,17.96,11.74,16.4-17.22,16.4-17.22l16.4,3.13,7.03-4.69,16.4,3.13,7.81-3.91,7.81-3.92,13.27,5.48,3.91-10.95,4.68-4.7s7.03,1.57,7.03-2.35c0-3.91-0.78-10.95-0.78-10.95s-5.47-0.78-5.47-3.91,3.91-10.96,3.91-10.96l-3.13-7.04,2.35-7.82-7.81-1.57s-65.6-1.56-68.73-0.78c-3.12,0.78-99.18-0.78-99.18-0.78h-86.68l-35.143-2.35-30.457-3.91-14.057-8.61z"/>
 <path d="M344.46,199.7l8.85,4.93-4.92,5.91-12.79,7.89-3.93,2.96,19.68-3.95,14.76-3.94,4.92-9.86-3.94-15.77-5.9,5.91-2.96,8.88-13.77-2.96z" fill-opacity="0.36249998" fill-rule="evenodd" fill="#000"/>
 <path d="M186.04,200.68l-0.99,19.72h11.81l23.62,1.97h12.79l-15.75-7.88-10.82-7.89-7.87-5.92-7.87-4.93h-3.94l-0.98,4.93z" fill-opacity="0.21562500" fill-rule="evenodd" fill="#000"/>
 <path d="M29.582,125.75v-28.59l19.68-16.761,19.68-13.803-19.68,20.705-8.856,17.749,6.888,19.72,12.792,7.88,23.615,4.93,21.649,3.95h-35.424l-23.616-2.96-10.824-5.92-5.904-6.9z" fill-opacity="0.28749999" fill-rule="evenodd" fill="#000"/>
 <path d="M335.6,81.385l5.91,12.817,7.87,21.688v13.81l-3.94,10.84-10.82,2.96h16.73,12.79l-5.91-18.73-7.87-19.72-8.85-19.721-5.91-3.944z" fill-opacity="0.28749999" fill-rule="evenodd" fill="#000"/>
 <path d="M82.717,143.5l22.633,4.93,30.5,2.96,22.63-1.98,3.94,9.86,7.87-8.87,6.89-0.99,11.81,5.92,13.77-7.89,7.88-2.95,9.84,9.85,9.84-6.9,8.85-0.98,19.68,5.91,15.75-4.93s3.93,0.99,6.88,4.93c2.96,3.95,8.86,13.81,8.86,13.81l1.97-9.86,10.82-3.95,1.97,11.83,4.92,16.76-0.99-14.78,3.94-7.89v-9.86l8.86,0.98,7.87-1.97,9.84-0.98,6.89,3.94,5.9-3.94,7.87-1.97h2.95l-58.05-0.99-84.62-1.97-83.64-0.99-47.235-0.98-24.599-0.99-15.744-0.99-11.808-4.93-8.856-7.88-0.984,6.9-3.936,2.96,11.808,1.97,2.952,12.81,13.776-2.95,4.92,2.95,3.936-1.97,6.888,3.95,1.968,7.88,4.92-5.91,3.935-2.96,1.968,2.96,1.968-9.86z" fill-opacity="0.46874997" fill-rule="evenodd" fill="#000"/>
 <path d="M41.39,159.27l-5.904,5.92-1.968,10.85-5.904,4.92,17.712-0.98,2.952-8.87,5.904,8.87,5.904-9.86-2.952-8.87-15.744-1.98z" fill-opacity="0.28749999" fill-rule="evenodd" fill="#000"/>
 <path d="M96.493,170.12l-1.968,9.86,5.905,8.87,3.94-9.86,6.88,4.93,4.92-4.93,9.84,7.89-8.85-19.72-9.84-10.84-9.843-4.93-7.872-0.99,7.872,9.86-0.984,9.86z" fill-opacity="0.28749999" fill-rule="evenodd" fill="#000"/>
 <path d="M175.21,178.01l-0.98,10.84,2.95,10.85,6.89-8.88,6.89-10.84,5.9,3.94,7.87,4.93,7.87,2.96,3.94-2.96,0.98-3.94-13.77-10.85-10.83-11.83-13.77-1.97,2.95,7.89-2.95,8.87-9.84-2.96,5.9,3.95z" fill-opacity="0.28749999" fill-rule="evenodd" fill="#000"/>
 <path d="M251.96,172.09v13.8l12.8,3.95-3.94,6.9,2.95,9.86,1.97,6.9,4.92-10.84,4.92-10.85,8.86,1.97,1.96-15.77,6.89-6.9-11.81,2.95-4.92,6.9-11.8-11.83-0.99-7.88-9.84-0.99,5.91,6.9-0.99,5.92-6.89-0.99z" fill-opacity="0.40937498" fill-rule="evenodd" fill="#000"/>
 <path d="M327.73,169.13l9.84-4.93,6.89,7.89,6.89-9.86,10.82-7.89-2.95,9.86,1.97,2.96-2.96,8.88-4.92,1.97,3.94,9.86-1.97,10.84-8.85-13.8-8.86-0.99-1.97,7.89-7.87,1.97-5.9,3.95-8.86-1.98h-12.79l-10.82,6.91,2.95-10.85,10.82-2.96h11.81l5.9-8.87-3.93-5.92-0.99-9.86,5.91,3.95,2.95-9.86,2.95,10.84z" fill-opacity="0.45937499" fill-rule="evenodd" fill="#000"/>
 <path d="M91.573,158.29l-6.888-1.97-8.855,2.95-3.936,7.89h-5.904l-3.936,4.93v8.87l4.92,2.96-1.968,7.89,8.856,0.99,6.887-5.92,3.936,5.92,5.904-3.95,5.904,6.9-1.968-13.8-2.952-4.93,2.952-7.89v-5.91l-2.952-4.93z" fill-opacity="0.45937499" fill-rule="evenodd" fill="#000"/>
 <path d="M29.582,147.44l-8.856-1.97-6.888,3.94-1.968,1.98,6.888,2.95,4.92,0.99-2.952,6.9-3.936,4.93-0.984,5.92,10.824-1.97,4.92-7.89,1.968-7.89-3.936-7.89z" fill-opacity="0.48749998" fill-rule="evenodd" fill="#000"/>
 <path d="M158.48,162.23l-7.87-7.89-12.79,1.98-21.65-1.98h-5.9l13.77,10.85,0.99,9.86,4.92,9.86,4.92,6.9-0.99,3.94,3.94-7.88,5.9,5.91,6.89-6.9,0.99-6.9,5.9,8.87,4.92-2.96,9.84,12.82-0.98-13.8-4.92-10.85-1.97-3.94,5.9-2.96,2.95-6.9-6.88,1.97h-7.88z" fill-opacity="0.28749999" fill-rule="evenodd" fill="#000"/>
 <path d="M201.78,158.29l2.95-6.9,3.94,4.93,3.93-1.98,4.92,5.92,7.88-1.97,7.87-3.95h11.81l6.88,8.88-8.85-0.99-2.95,7.89,3.93,7.89-1.97,7.88v5.92l-8.85,0.99-5.91-3.95-3.93-11.83-7.87,0.99-6.89-7.89-5.91-4.93-0.98-6.9z" fill-opacity="0.44687501" fill-rule="evenodd" fill="#000"/>
 <path d="M304.12,178.01l-0.99-7.89-2.95-8.87-4.92,1.97,0.98,8.87-3.93,6.9-2.95,6.9,0.98,3.95,6.89-2.96,3.93-2.96,2.96-5.91z" fill-opacity="0.28749999" fill-rule="evenodd" fill="#000"/>
 <path d="M282.47,163.22l-2.95-5.92-5.91-3.94-4.92,0.98,2.95,8.88,0.99,5.91,0.98,2.96,6.89-3.94,1.97-4.93z" fill-opacity="0.28749999" fill-rule="evenodd" fill="#000"/>
 <path d="M330.68,153.36l0.99,5.91,11.8,1.98,5.91-2.96,12.79-7.89-15.74,0.99-5.91,0.98-3.93-0.98-5.91,1.97z" fill-opacity="0.45624998" fill-rule="evenodd" fill="#000"/>
 <path d="M285.42,200.68l-6.89-3.94-3.93,4.93-2.96,6.9-2.95,7.89,4.92-1.97,8.86-6.9,2.95-6.91z" fill-opacity="0.28749999" fill-rule="evenodd" fill="#000"/>
 <path d="M251.96,191.81l-0.98,7.89,6.89,6.9-0.99-7.89,0.99-6.9h-5.91z" fill-opacity="0.43749997" fill-rule="evenodd" fill="#000"/>
 <path d="M169.17,48.61l-7.35,2.854,1.47,3.568,5.88-0.714v-5.708z" fill-opacity="0.44374999" fill-rule="evenodd" fill="#FFF"/>
 <path d="M177.98,55.389l-7.34,2.854,1.46,3.568,5.88-0.714v-5.708z" fill-opacity="0.44374999" fill-rule="evenodd" fill="#FFF"/>
 <path d="M180.92,48.253l-7.35,2.854,1.47,3.568,5.88-0.714v-5.708z" fill-opacity="0.44374999" fill-rule="evenodd" fill="#FFF"/>
 <path d="M190.46,53.961l-7.34,2.855,1.47,3.568,5.87-0.714v-5.709z" fill-opacity="0.44374999" fill-rule="evenodd" fill="#FFF"/>
 <path d="M154.11,61.454l-7.34,2.854,1.47,3.568,5.87-0.713v-5.709z" fill-opacity="0.44374999" fill-rule="evenodd" fill="#FFF"/>
 <path d="M201.85,94.635l-7.35,2.855,1.47,3.57,5.88-0.72v-5.705z" fill-opacity="0.44374999" fill-rule="evenodd" fill="#FFF"/>
 <path d="M189.36,76.082l-7.34,2.855,1.47,3.568,5.87-0.714v-5.709z" fill-opacity="0.44374999" fill-rule="evenodd" fill="#FFF"/>
 <path d="M175.41,66.806l-7.34,2.854,1.46,3.568,5.88-0.714v-5.708z" fill-opacity="0.44374999" fill-rule="evenodd" fill="#FFF"/>
 <path d="M190.83,66.449l-7.34,2.854,1.47,3.568,5.87-0.713v-5.709z" fill-opacity="0.44374999" fill-rule="evenodd" fill="#FFF"/>
 <path d="M207.72,70.374l-7.34,2.854,1.47,3.568,5.87-0.714v-5.708z" fill-opacity="0.44374999" fill-rule="evenodd" fill="#FFF"/>
 <path d="M207.72,56.816l-7.34,2.854,1.47,3.568,5.87-0.714v-5.708z" fill-opacity="0.44374999" fill-rule="evenodd" fill="#FFF"/>
 <path d="M212.13,62.524l-7.35,2.855,1.47,3.568,5.88-0.714v-5.709z" fill-opacity="0.44374999" fill-rule="evenodd" fill="#FFF"/>
 <path d="M205.52,50.037l-7.34,2.854,1.46,3.568,5.88-0.714v-5.708z" fill-opacity="0.44374999" fill-rule="evenodd" fill="#FFF"/>
 <path d="M201.11,57.529l-7.34,2.855,1.47,3.568,5.87-0.714v-5.709z" fill-opacity="0.44374999" fill-rule="evenodd" fill="#FFF"/>
 <path d="M195.24,45.398l-7.35,2.855,1.47,3.568,5.88-0.714v-5.709z" fill-opacity="0.44374999" fill-rule="evenodd" fill="#FFF"/>
 <path d="M212.86,56.102l-7.34,2.854,1.47,3.568,5.87-0.713v-5.709z" fill-opacity="0.44374999" fill-rule="evenodd" fill="#FFF"/>
 <path d="M224.61,67.876l-7.34,2.855,1.47,3.567,5.87-0.713v-5.709z" fill-opacity="0.44374999" fill-rule="evenodd" fill="#FFF"/>
 <path d="M220.21,62.524l-7.35,2.855,1.47,3.568,5.88-0.714v-5.709z" fill-opacity="0.44374999" fill-rule="evenodd" fill="#FFF"/>
 <path d="M221.68,58.243l-7.35,2.854,1.47,3.568,5.88-0.713v-5.709z" fill-opacity="0.44374999" fill-rule="evenodd" fill="#FFF"/>
 <path d="M204.05,62.524l-7.34,2.855,1.47,3.568,5.87-0.714v-5.709z" fill-opacity="0.44374999" fill-rule="evenodd" fill="#FFF"/>
 <path d="M177.98,65.022l-7.34,2.854,1.46,3.568,5.88-0.713v-5.709z" fill-opacity="0.44374999" fill-rule="evenodd" fill="#FFF"/>
 <path d="M186.79,71.801l-7.34,2.854,1.47,3.568,5.87-0.713v-5.709z" fill-opacity="0.44374999" fill-rule="evenodd" fill="#FFF"/>
 <path d="M189.73,64.665l-7.34,2.854,1.46,3.568,5.88-0.713v-5.709z" fill-opacity="0.44374999" fill-rule="evenodd" fill="#FFF"/>
 <path d="M184.59,70.731l-5.88,6.342,1.18,7.929,4.7-1.586v-12.685z" fill-opacity="0.44374999" fill-rule="evenodd" fill="#FFF"/>
 <path d="M197.81,66.806l-7.35,2.854,1.47,3.568,5.88-0.714v-5.708z" fill-opacity="0.44374999" fill-rule="evenodd" fill="#FFF"/>
 <path d="M200.75,59.67l-7.35,2.854,1.47,3.568,5.88-0.713v-5.709z" fill-opacity="0.44374999" fill-rule="evenodd" fill="#FFF"/>
 <path d="M216.17,77.866l-7.35,2.855,1.47,3.568,5.88-0.714v-5.709z" fill-opacity="0.44374999" fill-rule="evenodd" fill="#FFF"/>
 <path d="M224.98,84.645l-7.34,2.855,1.46,3.568,5.88-0.714v-5.709z" fill-opacity="0.44374999" fill-rule="evenodd" fill="#FFF"/>
 <path d="M227.92,77.51l-7.35,2.854,1.47,3.568,5.88-0.714v-5.708z" fill-opacity="0.44374999" fill-rule="evenodd" fill="#FFF"/>
 <path d="M231.59,66.449l-7.34,2.854,1.46,3.568,5.88-0.713v-5.709z" fill-opacity="0.44374999" fill-rule="evenodd" fill="#FFF"/>
 <path d="M240.4,73.228l-7.34,2.854,1.47,3.568,5.87-0.713v-5.709z" fill-opacity="0.44374999" fill-rule="evenodd" fill="#FFF"/>
 <path d="M243.34,66.092l-7.34,2.855,1.46,3.567,5.88-0.713v-5.709z" fill-opacity="0.44374999" fill-rule="evenodd" fill="#FFF"/>
 <path d="M222.78,52.177l-7.35,2.855,1.47,3.568,5.88-0.714v-5.709z" fill-opacity="0.44374999" fill-rule="evenodd" fill="#FFF"/>
 <path d="M231.59,58.956l-7.34,2.855,1.46,3.568,5.88-0.714v-5.709z" fill-opacity="0.44374999" fill-rule="evenodd" fill="#FFF"/>
 <path d="M234.53,51.821l-7.35,2.854,1.47,3.568,5.88-0.714v-5.708z" fill-opacity="0.44374999" fill-rule="evenodd" fill="#FFF"/>
 <path d="M242.6,59.313l-7.34,2.855,1.47,3.567,5.87-0.713v-5.709z" fill-opacity="0.44374999" fill-rule="evenodd" fill="#FFF"/>
 <path d="M251.42,66.092l-7.35,2.855,1.47,3.567,5.88-0.713v-5.709z" fill-opacity="0.44374999" fill-rule="evenodd" fill="#FFF"/>
 <path d="M254.35,58.956l-7.34,2.855,1.47,3.568,5.87-0.714v-5.709z" fill-opacity="0.44374999" fill-rule="evenodd" fill="#FFF"/>
 <path d="M135.39,55.745l-7.35,2.855,1.47,3.568,5.88-0.714v-5.709z" fill-opacity="0.44374999" fill-rule="evenodd" fill="#FFF"/>
 <path d="M137.59,69.66l-7.34,2.854,1.46,3.568,5.88-0.713v-5.709z" fill-opacity="0.44374999" fill-rule="evenodd" fill="#FFF"/>
 <path d="M147.14,55.389l-7.35,2.854,1.47,3.568,5.88-0.714v-5.708z" fill-opacity="0.44374999" fill-rule="evenodd" fill="#FFF"/>
 <path d="M140.53,72.871l-7.35,2.855,1.47,3.567,5.88-0.713v-5.709z" fill-opacity="0.44374999" fill-rule="evenodd" fill="#FFF"/>
 <path d="M149.34,79.65l-7.34,2.855,1.46,3.567,5.88-0.713v-5.709z" fill-opacity="0.44374999" fill-rule="evenodd" fill="#FFF"/>
 <path d="M142,85.359l-7.35,2.854,1.47,3.568,5.88-0.713v-5.709z" fill-opacity="0.44374999" fill-rule="evenodd" fill="#FFF"/>
 <path d="M155.21,96.419l-7.34,2.855,1.47,3.566,5.87-0.71v-5.711z" fill-opacity="0.44374999" fill-rule="evenodd" fill="#FFF"/>
 <path d="M169.9,83.932l-7.34,2.854,1.47,3.568,5.87-0.714v-5.708z" fill-opacity="0.44374999" fill-rule="evenodd" fill="#FFF"/>
 <path d="M175.04,85.359l-7.34,2.854,1.47,3.568,5.87-0.713v-5.709z" fill-opacity="0.44374999" fill-rule="evenodd" fill="#FFF"/>
 <path d="M183.12,81.434l-7.34,2.855,1.47,3.567,5.87-0.713v-5.709z" fill-opacity="0.44374999" fill-rule="evenodd" fill="#FFF"/>
 <path d="M191.93,88.213l-7.34,2.855,1.47,3.567,5.87-0.713v-5.709z" fill-opacity="0.44374999" fill-rule="evenodd" fill="#FFF"/>
 <path d="M194.87,81.077l-7.34,2.855,1.47,3.568,5.87-0.714v-5.709z" fill-opacity="0.44374999" fill-rule="evenodd" fill="#FFF"/>
 <path d="M195.6,103.56l-7.34,2.85,1.47,3.57,5.87-0.72v-5.7z" fill-opacity="0.44374999" fill-rule="evenodd" fill="#FFF"/>
 <path d="M213.23,85.359l-7.34,2.854,1.46,3.568,5.88-0.713v-5.709z" fill-opacity="0.44374999" fill-rule="evenodd" fill="#FFF"/>
 <path d="M219.1,95.349l-7.34,2.854,1.47,3.567,5.87-0.71v-5.711z" fill-opacity="0.44374999" fill-rule="evenodd" fill="#FFF"/>
 <path d="M238.93,81.434l-7.34,2.855,1.47,3.567,5.87-0.713v-5.709z" fill-opacity="0.44374999" fill-rule="evenodd" fill="#FFF"/>
 <path d="M247.75,88.213l-7.35,2.855,1.47,3.567,5.88-0.713v-5.709z" fill-opacity="0.44374999" fill-rule="evenodd" fill="#FFF"/>
 <path d="M250.68,81.077l-7.34,2.855,1.47,3.568,5.87-0.714v-5.709z" fill-opacity="0.44374999" fill-rule="evenodd" fill="#FFF"/>
 <path d="M255.82,77.153l-7.34,2.854,1.47,3.568,5.87-0.714v-5.708z" fill-opacity="0.44374999" fill-rule="evenodd" fill="#FFF"/>
 <path d="M290.34,101.77l-7.34,2.86,1.46,3.56,5.88-0.71v-5.71z" fill-opacity="0.44374999" fill-rule="evenodd" fill="#FFF"/>
 <path d="M261.7,73.228l-7.35,2.854,1.47,3.568,5.88-0.713v-5.709z" fill-opacity="0.44374999" fill-rule="evenodd" fill="#FFF"/>
 <path d="M262.43,64.308l-7.34,2.855,1.47,3.568,5.87-0.714v-5.709z" fill-opacity="0.44374999" fill-rule="evenodd" fill="#FFF"/>
 <path d="M283,80.364l-7.35,2.854,1.47,3.568,5.88-0.714v-5.708z" fill-opacity="0.44374999" fill-rule="evenodd" fill="#FFF"/>
 <path d="M274.18,63.952l-7.34,2.854,1.47,3.568,5.87-0.714v-5.708z" fill-opacity="0.44374999" fill-rule="evenodd" fill="#FFF"/>
 <path d="M122.9,67.876l-7.34,2.855,1.47,3.567,5.87-0.713v-5.709z" fill-opacity="0.44374999" fill-rule="evenodd" fill="#FFF"/>
 <path d="M131.71,74.655l-7.34,2.855,1.47,3.567,5.87-0.713v-5.709z" fill-opacity="0.44374999" fill-rule="evenodd" fill="#FFF"/>
 <path d="M140.53,74.655l-7.35,2.855,1.47,3.567,5.88-0.713v-5.709z" fill-opacity="0.44374999" fill-rule="evenodd" fill="#FFF"/>
 <path d="M109.68,61.454l-7.34,2.854,1.47,3.568,5.87-0.713v-5.709z" fill-opacity="0.44374999" fill-rule="evenodd" fill="#FFF"/>
 <path d="M118.5,68.233l-7.35,2.854,1.47,3.568,5.88-0.713v-5.709z" fill-opacity="0.44374999" fill-rule="evenodd" fill="#FFF"/>
 <path d="M122.9,69.66l-7.34,2.854,1.47,3.568,5.87-0.713v-5.709z" fill-opacity="0.44374999" fill-rule="evenodd" fill="#FFF"/>
 <path d="M151.54,51.464l-7.34,2.854,1.47,3.568,5.87-0.713v-5.709z" fill-opacity="0.44374999" fill-rule="evenodd" fill="#FFF"/>
 <path d="M161.09,88.927l-7.34,2.854,1.46,3.568,5.88-0.714v-5.708z" fill-opacity="0.44374999" fill-rule="evenodd" fill="#FFF"/>
 <path d="M163.29,51.107l-7.34,2.854,1.47,3.568,5.87-0.713v-5.709z" fill-opacity="0.44374999" fill-rule="evenodd" fill="#FFF"/>
 <path d="M97.933,83.575l-7.344,2.854,1.469,3.568,5.875-0.713v-5.709z" fill-opacity="0.44374999" fill-rule="evenodd" fill="#FFF"/>
 <path d="M117.76,84.645l-7.34,2.855,1.47,3.568,5.87-0.714v-5.709z" fill-opacity="0.44374999" fill-rule="evenodd" fill="#FFF"/>
 <path d="M111.15,86.786l-7.34,2.854,1.47,3.568,5.87-0.713v-5.709z" fill-opacity="0.44374999" fill-rule="evenodd" fill="#FFF"/>
 <path d="M133.18,88.57l-7.34,2.854,1.47,3.568,5.87-0.713v-5.709z" fill-opacity="0.44374999" fill-rule="evenodd" fill="#FFF"/>
 <path d="M142,95.349l-7.35,2.854,1.47,3.567,5.88-0.71v-5.711z" fill-opacity="0.44374999" fill-rule="evenodd" fill="#FFF"/>
 <path d="M144.93,88.213l-7.34,2.855,1.47,3.567,5.87-0.713v-5.709z" fill-opacity="0.44374999" fill-rule="evenodd" fill="#FFF"/>
 <path d="M255.82,92.138l-7.34,2.854,1.47,3.568,5.87-0.713v-5.709z" fill-opacity="0.44374999" fill-rule="evenodd" fill="#FFF"/>
 <path d="M264.64,98.917l-7.35,2.853,1.47,3.57,5.88-0.71v-5.713z" fill-opacity="0.44374999" fill-rule="evenodd" fill="#FFF"/>
 <path d="M267.57,91.781l-7.34,2.854,1.47,3.568,5.87-0.713v-5.709z" fill-opacity="0.44374999" fill-rule="evenodd" fill="#FFF"/>
 <path d="M267.57,99.987l-7.34,2.853,1.47,3.57,5.87-0.71v-5.713z" fill-opacity="0.44374999" fill-rule="evenodd" fill="#FFF"/>
 <path d="M282.26,91.068l-7.34,2.854,1.47,3.568,5.87-0.714v-5.708z" fill-opacity="0.44374999" fill-rule="evenodd" fill="#FFF"/>
 <path d="M236.73,96.063l-7.34,2.854,1.46,3.563,5.88-0.71v-5.707z" fill-opacity="0.44374999" fill-rule="evenodd" fill="#FFF"/>
</svg>
