<?xml version="1.0" encoding="UTF-8" standalone="no"?>
<svg xmlns:rdf="http://www.w3.org/1999/02/22-rdf-syntax-ns#" xmlns:xml="http://www.w3.org/XML/1998/namespace" xmlns="http://www.w3.org/2000/svg" width="275.88" sodipodi:docname="casa in campagna.svg" xml:space="preserve" style="enable-background:new 0 0 275.882 276.6;" height="276.6" sodipodi:version="0.32" viewBox="0 0 275.882 276.6" version="1.0" xmlns:cc="http://web.resource.org/cc/" xmlns:dc="http://purl.org/dc/elements/1.1/" sodipodi:docbase="F:\openclip\svg2" xmlns:sodipodi="http://inkscape.sourceforge.net/DTD/sodipodi-0.dtd"><metadata><rdf:RDF xmlns:rdf="http://www.w3.org/1999/02/22-rdf-syntax-ns#" xmlns:cc="http://web.resource.org/cc/" xmlns:dc="http://purl.org/dc/elements/1.1/"><cc:Work rdf:about=""><dc:title>Casa in campagna</dc:title><dc:description/><dc:subject><rdf:Bag><rdf:li>house</rdf:li><rdf:li>building</rdf:li></rdf:Bag></dc:subject><dc:publisher><cc:Agent rdf:about="http://www.openclipart.org"><dc:title>Architetto Francesco Rollandin</dc:title></cc:Agent></dc:publisher><dc:creator><cc:Agent><dc:title>Architetto Francesco Rollandin</dc:title></cc:Agent></dc:creator><dc:rights><cc:Agent><dc:title>Architetto Francesco Rollandin</dc:title></cc:Agent></dc:rights><dc:date/><dc:format>image/svg+xml</dc:format><dc:type rdf:resource="http://purl.org/dc/dcmitype/StillImage"/><cc:license rdf:resource="http://web.resource.org/cc/PublicDomain"/><dc:language>en</dc:language></cc:Work><cc:License rdf:about="http://web.resource.org/cc/PublicDomain"><cc:permits rdf:resource="http://web.resource.org/cc/Reproduction"/><cc:permits rdf:resource="http://web.resource.org/cc/Distribution"/><cc:permits rdf:resource="http://web.resource.org/cc/DerivativeWorks"/></cc:License></rdf:RDF></metadata>
<path fill="#B8FFD1" d="M1.009,158.49"/>
<path fill="#63C91E" d="M134.9,77.936c-9.631,0.366-19.263,0.732-28.894,1.099-4.789,0.182-4.749,0.819-6.851-3.59-0.906-1.898-3.854-5.638-2.926-8.047,0.036-0.093,1.804-0.912,2.072-1.022,1.293-0.531,1.06-1.203,3.563-0.269-0.932-1.398-0.938-2.96-1.425-4.517,1.307,0.597,4.308,2.245,4.989,1.291,0.21,0.045,0.804,0.331,0.971,0.269,0.671-0.913,1.17-2.104,0.908-3.495,3.198,1.18,3.077,0.924,4.599-0.807,1.426-1.622-0.476-1.315,1.75-2.043,1.118-0.366,1.181,0.974,1.944,0.108,2.28,0.412,4.494,1.767,6.153,0.645,0.543-0.367,0.028-1.984,1.165-2.312,0.867-0.25,2.446,1.37,3.629,1.452,0.186-0.208,0.124-0.695,0.193-0.968-0.024,0.01,0.442,0.179,0.455,0.162-0.671-1.651-2.772-5.019,0.647-3.549,0.488-2.017,1.412,0.231,2.849,0.054,0.932-0.115,0.833-0.805,1.491-0.807,0.89-0.003,2.583-1.131,2.602,1.368,0.05,8.198,0.67,17.038,0.11,24.978"/>
<path fill="#63C91E" d="M134.9,77.56c-0.04-8.057-0.08-16.113-0.119-24.169-0.015-3.042,2.19-2.343,4.135-2.018,1.446,0.242,5.23,0.262,4.47,2.85,2.646-0.657,5.543-1.439,8.228-1.829-0.375,0.631-0.219,0.583-0.844,1.129,0.005,0.003,0.005,0.157,0,0.161,0.975,1.117-2.28,2.066,0.519,2.151,0.046,0.102-0.174,0.59-0.064,0.645,2.447,0.024,4.797-0.025,7.318-0.162-2.391,3.84,4.358,2.564,6.674,2.527,1.295-0.195,2.12,0.548,1.166,2.098,0.401,0,0.811,0.014,1.229,0-0.917,2.188-0.509,3.345,1.425,3.925,0.808,0.242,4.312-0.765,5.053,0.269,0.315,0.44-1.13,1.508-1.23,2.634,2.17,0.292,9.515-2.854,9.199-0.107,2.482-0.556,1.641,0.815,1.359,2.367,3.126-0.118,4.893,1.637,0.314,2.147-16.17,1.801-32.65,4.708-48.85,5.382"/>
<path fill="#009E02" d="M144.29,77.506c-8.28-1.642-16.561-3.284-24.841-4.926-3.836-0.761-8.306-2.369-12.21-2.227,0.035,0.119,0.546,0.154,0.647,0.216,0.012-0.005-0.511,0.142-0.52,0.107,0.078,0.085,0.248,0.098,0.324,0.162,0.103,0.081-0.375,0.243-0.387,0.161,0.555,0.202,1.185,0.534,1.813,0.7-1.19-0.149-2.524-0.201-3.757-0.162,1.048,0.38,2.819,0.899,3.174,1.129,0.1,0.152,0.468,0.147,0.583,0.215-0.544,0.063-1.081,0.354-1.942,0.376,0.769,0.204,1.579,0.6,2.396,0.807v0.107c-0.649,0.026-1.45,0.338-2.009,0.377v0.107c0.601,0.207,1.206,0.449,1.814,0.591,0.057,0.035-0.271,0.071-0.322,0.054,1.32,0.369,2.513,0.857,3.496,1.398-0.294,0.027-0.816,0.241-1.424,0.27,0.559,0.198,1.853,0.737,2.786,0.967-0.095,0.04-0.526-0.007-0.583,0.054,0.06-0.021,0.082-0.003,0.063,0.054,0.053-0.003,0.237,0.095,0.26,0.054-0.115-0.011-0.084,0.021-0.131,0.054-1.036-0.2-2.055-0.204-3.108-0.269,0.038,0.034,0.225,0.124,0.064,0.161,0.272,0.176,0.722,0.256,1.036,0.377,0.003-0.031-0.612,0.026-0.584,0.053,0.854,0.176,1.677,0.603,2.398,0.807-0.556,0.379-1.264,1.412,0.623,1.225,10.12-1,20.23-1.999,30.34-2.999"/>
<path fill="#009E02" d="M144.29,77.506c-8.133-1.661-16.266-3.322-24.399-4.984-3.585-0.732-9.952-0.871-12.848-2.921,0.083-0.088,0.522,0.037,0.647,0-0.033-0.104-0.381-0.224-0.258-0.376,0.626-0.138,0.055-0.189,0.193-0.323,0.062,0.021,0.083,0.003,0.065-0.054,0.578,0.074,1.174,0.025,1.75,0.108-0.782-0.355-1.921-1.017-2.592-1.506,1.38,0.149,2.585,0.404,3.693,0.215-0.261-0.246-0.394-0.737-0.972-1.237,0.751,0.193,1.609,0.016,2.397,0.162-0.353-0.314-0.624-1.069-0.971-1.398,1.804-0.027,3.296,0.188,5.183-0.054-0.154-0.166-0.35-0.52-0.713-0.86,0.717,0.039,1.806-0.097,2.72,0.162-0.033-0.078-0.289-0.363-0.323-0.323,0.021,0.013,0.31,0.015,0.323,0-0.745-0.27-1.603-0.876-2.331-1.237,0.326-0.115,0.78-0.011,1.166,0-0.027,0.008-0.388-0.356-0.325-0.376,0.731,0.218,1.507,0.124,2.267,0.215-0.028-0.306,0.248-2.066,1.449-1.26,7.95,5.349,15.91,10.698,23.87,16.047"/>
<path fill="#009E02" d="M144.29,77.506c11.271-1.094,22.541-2.187,33.812-3.281-1.661-0.698-3.423-1.46-5.181-1.828-1.137-0.238-2.525,0.148-3.369-0.269,0.356,0.176-0.784-1.483-1.165-1.721-1.411-0.884-1.906,0.215-3.694,0.216-2.477,0.001-4.064-2.043-6.347-2.527-1.108-0.235-2.708,0.305-3.95-0.054-1.295-0.374-2.54-1.646-3.822-1.989-2.412-0.646-4.905,0.173-7.319,0.053-2.382-0.118-3.683-1.606-5.96-1.936-1.481-0.214-3.118,0.61-4.534-0.215-0.779-0.454-0.809-1.541-1.943-2.097-0.889-0.437-2.816-0.166-3.757-0.269-2.472-0.271-4.776-0.789-7.514-0.484,8.25,5.468,16.49,10.935,24.74,16.401"/>
<path fill="#3B9400" d="M138.98,81.109c-8.529,0.018-17.058,0.036-25.586,0.053,0.014-1.788,1.852-3.08,3.758-2.742-0.579-0.837-0.718-1.682-0.971-2.635,1.978,0.031,4.804,1.439,4.599-2.205,3.352,1.008,1.898-1.263,3.303-2.258,1.467-1.04,3.021,0.212,4.599-0.43,1.371-0.558,1.337-1.664,2.268-2.097,1.104-0.514,2.214,0.593,3.044-0.484v-0.107c-2.384-2.509,0.531-2.131,2.008-2.527,0.216-0.058,1.65-0.907,1.424-0.967,1.199,0.322,1.554-0.898,1.554,1.118,0.01,5.039,0.01,10.428,0.01,15.281"/>
<path fill="#3B9400" d="M138.98,81.109c0-2.615-1.51-15.264,0.196-16.455,1.046-0.73,2.392,0.372,2.978,0.538,1.337,0.38,2.564,0.166,2.462,1.882,1.78-0.377,3.718-0.451,5.505-0.591-0.189,0.549-0.196,0.315-0.581,0.646v0.107c-1.17,1.943,2.152,2.196,5.116,2.205-1.712,3.675,6.561,0.263,5.183,3.441,0.654,0.775,0.047,1.505,0.97,2.205,0.967,0.733,3.17,0.209,4.277,1.291-2.783,1.652,5.051,1.287,6.347,1.882-1.51,2.241,1.685,1.256,1.556,1.936-0.385,2.026-5.777,0.967-8.314,0.967-8.52-0.001-17.31,0.404-25.71-0.054"/>
<path fill="#3D8000" d="M194.04,113.05c0.536-9.231,1.072-18.463,1.607-27.695,0.188-3.226-1.135-11.631,2.343-11.074,1.671,0.268,4.319,2.755,3.887,5.269,2.113-0.885,4.648-1.355,6.932-1.613-1.953,4.834-0.75,6.775,6.024,6.775-0.757,3.076-0.039,3.986,2.783,4.517,2.267,0.426,3.194-0.112,4.535,1.397,0.867,0.977-1.564,2.071,0.648,2.259,0.115,2.9-0.913,4.869,1.557,6.237,2.06,1.14,3.521-0.476,4.145,1.936,0.143,0.549-2.704,3.476,0.714,2.85,0.041,0.058-0.055,0.52,0,0.538,3.148-1.533,5.985-2.187,6.996,0.483,0.655,1.732-0.449,3.324,2.137,4.302,4.397,1.663,35.585-2.256,36.013,1.344,0.341,2.866-7.765,1.508-9.819,1.537-10.345,0.145-20.688,0.291-31.033,0.436-13.04,0.18-26.53,1.17-39.47,0.5"/>
<path fill="#315000" d="M194.36,113.21c8.118-0.302,16.236-0.604,24.354-0.905,1.053-0.039,6.786,0.485,7.45-0.331,0.357-0.438-0.389-1.096-0.388-1.022-0.016-1.185-2.485-2.997-4.083-2.635,0.774-1.375,0.938-3.009,1.36-4.517-1.597,0.244-3.729,1.122-4.923,0-0.46-1.176-0.786-2.66-0.52-4.087-4.789,1.239-2.176-2.011-3.884-4.194-1.272-1.626-4.089-0.364-5.892-0.968-2.641-0.884-0.599-2.688-2.528-3.871-1.365-0.837-3.152,1.528-3.37-1.021-0.26-3.034,1.888-1.874-0.259-3.657-1.246-1.035-1.406-0.07-3.238-0.86-0.944-0.407,0.098-2.592-2.136-1.882-2.63,0.84-1.75,25.84-1.94,29.95"/>
<path fill="#3D8000" d="M41.559,151.5c-9.889,0.932-19.778,1.864-29.667,2.796,0.401-1.169,1.038-3.098,1.879-4.14,0.712-0.883,2.018,0.065,2.396-1.13,0.018-0.056-1.08-2.331-1.037-2.903,0.147-1.979,0.375-1.175,2.073-1.56,1.604-0.363,0.388,0.731,1.684-0.323,1.149-0.936,0.447-2.167,1.231-3.494,0.113-0.192,0.024-1.015,0-1.237,4.551,0.924,2.346-3.285,3.822-5.484,0.923-1.375,4.229-0.921,5.505-1.613,2.322-1.26,0.506-2.984,2.267-4.463,1.345-1.13,2.959,1.195,3.11-1.72,0.083-1.617-1.233-2.413-0.583-3.818,0.317-0.687,2.254-0.942,2.656-1.237,0.96-0.704,2.245-2.711,3.951-2.688,0.256,10.86,1.203,22.37,0.713,33"/>
<path d="M41.559,151.5c-9.889,0.932-19.778,1.864-29.667,2.796,0.401-1.169,1.038-3.098,1.879-4.14,0.712-0.883,2.018,0.065,2.396-1.13,0.018-0.056-1.08-2.331-1.037-2.903,0.147-1.979,0.375-1.175,2.073-1.56,1.604-0.363,0.388,0.731,1.684-0.323,1.149-0.936,0.447-2.167,1.231-3.494,0.113-0.192,0.024-1.015,0-1.237,4.551,0.924,2.346-3.285,3.822-5.484,0.923-1.375,4.229-0.921,5.505-1.613,2.322-1.26,0.506-2.984,2.267-4.463,1.345-1.13,2.959,1.195,3.11-1.72,0.083-1.617-1.233-2.413-0.583-3.818,0.317-0.687,2.254-0.942,2.656-1.237,0.96-0.704,2.245-2.711,3.951-2.688,0.259,11.023,0.518,22.046,0.777,33.069" stroke="#3D8000" stroke-linecap="square" stroke-miterlimit="10" stroke-width="0.5" fill="none"/>
<path fill="#315000" d="M41.689,151.28c-0.281-7.707-0.562-15.415-0.843-23.122-0.894,0.437-2.003,1.292-2.786,1.989-0.336,0.299,0.321,1.51-0.129,1.721-0.348,0.163-0.744-0.536-0.842-0.484-0.702,0.374-1.846-0.116-2.527-0.054,0.187,2.52,1.185,4.076-3.109,4.517,1.275,3.369-2.127,1.9-3.498,3.441-0.975,1.097,0.233,3.291-0.583,4.517-0.839,1.26-1.949,1.149-2.98,2.419-0.075,0.092,1.128,1.256,0.26,1.883-0.762,0.551-1.031-0.25-2.073,0.161-2.033,0.803-1.054,0.181-2.073,2.259-0.571,1.164-1.612,1.489-1.554,3.118,7.579-0.8,15.158-1.59,22.737-2.38"/>
<path d="M41.689,151.28c-0.281-7.707-0.562-15.415-0.843-23.122-0.894,0.437-2.003,1.292-2.786,1.989-0.336,0.299,0.321,1.51-0.129,1.721-0.348,0.163-0.744-0.536-0.842-0.484-0.702,0.374-1.846-0.116-2.527-0.054,0.187,2.52,1.185,4.076-3.109,4.517,1.275,3.369-2.127,1.9-3.498,3.441-0.975,1.097,0.233,3.291-0.583,4.517-0.839,1.26-1.949,1.149-2.98,2.419-0.075,0.092,1.128,1.256,0.26,1.883-0.762,0.551-1.031-0.25-2.073,0.161-2.033,0.803-1.054,0.181-2.073,2.259-0.571,1.164-1.612,1.489-1.554,3.118,7.579-0.8,15.158-1.59,22.737-2.38" stroke="#315000" stroke-linecap="square" stroke-miterlimit="10" stroke-width="0.5" fill="none"/>
<path fill="#661E1B" d="M189.9,121.76h48.478,29.073c6.94,0,6.915-1.193,6.915,6.028,0,2.188,0.536,21.88-0.473,21.88h-19.701-59.903c-5.22,0-4.008-0.526-4.085-6.028-0.1-7.29-0.2-14.59-0.3-21.88"/>
<path fill="#BF4926" d="M150.96,107.13c0.021,13.619,0.043,27.238,0.064,40.857,0,0.134,17.686,0.063,18.942,0.063h13.919c0.902,0,5.72,0.673,6.392,0,0.673-0.674,0-5.49,0-6.394v-14.066s0-9.377,0-14.066c0-0.904,0.673-5.72,0-6.394-0.672-0.672-5.489,0-6.392,0h-13.919-19"/>
<path fill="#661E1B" d="M128.29,148c0.017-10.318,0.034-20.635,0.05-30.953,0.002-1.031-0.528-8.676,0.457-8.676h17.774c3.131,0,3.255,0.837,5.381,3.236,4.137,4.667,8.273,9.334,12.41,14.001,6.632,7.482,13.264,14.964,19.896,22.446-18.54-0.01-37.5,1.14-55.97-0.06"/>
<path fill="#670E09" d="M128.29,147.41c0.021-13.013,0.043-26.025,0.064-39.038h-30.266c-3.114,0-4.128-0.97-4.128,2.163v17.356,16.627c0,3.729,0.355,2.892,4.128,2.892h30.206"/>
<path fill="#BF4926" d="M93.963,147.19v-38.823c-17.416,1.381-34.832,2.762-52.248,4.143-0.977,0.077-4.042-0.32-4.042,0.886v12.044,26.213c18.763-1.48,37.527-2.97,56.29-4.46"/>
<path fill="#006D4E" d="M98.56,107.3c-1.764-0.305-2.483,1.979-1.729,2.111,1.159,0.204,2.317,0.408,3.475,0.612,5.426,0.955,10.853,1.91,16.279,2.866,5.263,0.926,9.69,1.607,14.97,1.517,19.152-0.33,38.305-0.659,57.456-0.989,2.977-0.051,2.31-0.261,2.31-3.509,0-0.85-2.973-0.472-3.687-0.488-8.338-0.193-16.676-0.387-25.013-0.58-19.922-0.462-39.844-0.924-59.766-1.386-1.4-0.03-2.999-0.04-4.3-0.15"/>
<path fill="#6C201C" d="M190.41,76.646c1.382-5.27,2.763-10.54,4.145-15.809,3.447,16.239,2.271,34.997,2.917,52.267-2.382,0-6.784,1.302-6.806-1.625-0.025-3.496-0.052-6.992-0.077-10.489-0.06-8.115-0.12-16.23-0.18-24.344"/>
<path fill="#3D4266" d="M113.78,78.474c25.564-3.226,51.128-6.453,76.692-9.679,0.056,12.335,0.112,24.67,0.168,37.005,0.019,3.935,1.446,5.922-2.613,6.025-7.54,0.192-15.081,0.384-22.622,0.575-5.601,0.143-11.201,0.285-16.801,0.427-1.844,0.047-6.554-6.272-7.787-7.498-9.01-8.952-18.02-17.904-27.04-26.856"/>
<path fill="#362A4D" d="M113.78,78.474c12.026,11.454,24.053,22.907,36.079,34.36-5.353,0.132-10.706,0.264-16.058,0.396-4.646,0.115-7.357,1.787-8.892-2.641-3.71-10.706-7.42-21.411-11.13-32.116"/>
<path fill="#141C33" d="M35.665,113c-0.675-3.109,2.59-6.869,3.958-9.36,3.731-6.796,7.461-13.593,11.192-20.389,5.94-10.821,11.88-21.643,17.821-32.464,14.216,8.65,28.433,17.299,42.649,25.949,4.674,2.844,4.908,7.647,6.642,12.839,2.657,7.952,5.313,15.904,7.97,23.856-13.398-2.235-25.606-4.848-39.102-3.914-16.914,1.16-34.26,3.34-51.123,3.48"/>
<path fill="#634A00" d="M36.831,111.65c19.973-1.416,39.945-2.832,59.917-4.248-9.09-18.533-18.181-37.066-27.271-55.6-10.788,19.817-20.545,40.887-32.646,59.85"/>
<path d="M36.831,111.65c19.973-1.416,39.945-2.832,59.917-4.248-9.09-18.533-18.181-37.066-27.271-55.6-10.86,19.949-21.721,39.898-32.582,59.848" stroke="#634A00" stroke-linecap="square" stroke-miterlimit="10" stroke-width="0.5" fill="none"/>
<path fill="#FC9" d="M39.485,110.04c18.31-1.47,36.62-2.939,54.929-4.409-8.313-16.92-16.625-33.84-24.938-50.761-9.954,18.329-19.552,37.319-29.991,55.171"/>
<path d="M39.485,110.04c18.31-1.47,36.62-2.939,54.929-4.409-8.313-16.92-16.625-33.84-24.938-50.761-9.997,18.408-19.994,36.816-29.991,55.224" stroke="#FC9" stroke-linecap="square" stroke-miterlimit="10" fill="none"/>
<path fill="#634A00" d="M69.088,64.601c0.038,2.174,0.836,4.378-2.138,4.194,0.001-2.21-0.632-4.412,2.138-4.194"/>
<path fill="#82CCFF" d="M69.023,65.569c0.456,1.613,0.239,3.03-1.555,3.011-0.463-1.632-0.154-2.989,1.555-3.011"/>
<path d="M69.023,65.569c0.456,1.613,0.239,3.03-1.555,3.011-0.454-1.6-0.221-2.983,1.555-2.958" stroke="#634A00" stroke-linecap="square" stroke-miterlimit="10" stroke-width="0.6" fill="none"/>
<path fill="#634A00" d="M60.992,70.247c2.498,0.839,4.78,2.286,5.927,4.732,0.846,1.805,2.221,7.372-1.005,6.829,0.439-4.724-1.064-8.547-5.764-10.163-0.163,0.23,1.181-1.748,0.842-1.398"/>
<path d="M60.992,70.247c2.498,0.839,4.78,2.286,5.927,4.732,0.846,1.805,2.221,7.372-1.005,6.829,0.439-4.724-1.064-8.547-5.764-10.163,0.302-0.466,0.604-0.932,0.906-1.398" stroke="#634A00" stroke-linecap="square" stroke-miterlimit="10" fill="none"/>
<path d="M67.793,81.593c-0.205-3.852-0.386-6.254,1.943-9.41,1.174-1.591,6.021-6.694,7.126-3.28-2.505,1.071-4.721,2.72-6.155,5.054-1.13,1.839-1.403,7.511-2.914,7.636"/>
<path fill="#634A00" d="M67.209,81.593c-0.206-3.972-0.392-6.385,2.009-9.625,1.206-1.626,6.139-6.893,7.254-3.388-2.488,1.149-4.815,2.795-6.283,5.162-1.16,1.87-1.436,7.711-2.98,7.851"/>
<path d="M67.209,81.593c-0.206-3.972-0.392-6.385,2.009-9.625,1.206-1.626,6.139-6.893,7.254-3.388-2.488,1.149-4.815,2.795-6.283,5.162-1.166,1.879-1.363,7.625-2.98,7.904" stroke="#634A00" stroke-linecap="square" stroke-miterlimit="10" fill="none"/>
<path d="M82.497,81.485c0.021-0.592,0.043-1.183,0.064-1.775-4.53,0.583-29.683,1.29-29.861,5.647,9.874-1.28,20.162-2.513,29.797-3.872"/>
<path fill="#634A00" d="M71.162,82.83c0.019,4.808,0.037,9.616,0.056,14.424,0.016,4.02-6.604,2.65-10.032,2.944v-14.887c-0.001-2.593,7.871-2.195,9.976-2.483"/>
<path d="M71.162,84.442c0.02,4.507,0.039,9.014,0.058,13.521,0.012,2.813-6.248,1.917-8.674,2.127v-13.13c-0.001-2.787,6.465-2.098,8.616-2.518"/>
<path fill="#59CCB0" d="M71.162,85.142v11.932c0,3.951-4.648,2.61-8.097,2.908v-12.333c-0.001-2.872,5.629-2.179,8.097-2.507"/>
<path d="M71.162,85.142v11.932c0,3.951-4.648,2.61-8.097,2.908v-12.333c-0.001-2.872,5.629-2.179,8.097-2.507" stroke="#634A00" stroke-linecap="square" stroke-miterlimit="10" stroke-width="0.5" fill="none"/>
<path fill="#ABDCFF" d="M64.813,86.378c0.438,1.521,0.455,3.058-1.296,2.958-0.42-1.55-0.188-2.98,1.296-2.958"/>
<path fill="#ABDCFF" d="M64.813,89.766c0.441,1.52,0.441,3.047-1.296,3.011-0.421-1.564-0.204-3.027,1.296-3.011"/>
<path fill="#ABDCFF" d="M64.813,93.154c0.444,1.592,0.443,3.019-1.296,3.011-0.423-1.58-0.184-3.016,1.296-3.011"/>
<path fill="#ABDCFF" d="M64.813,96.541c0.444,1.592,0.443,3.02-1.296,3.011-0.423-1.562-0.157-2.966,1.296-3.011"/>
<path fill="#B3DFFF" d="M66.821,86.056c0.408,1.599,0.367,3.02-1.36,3.011-0.415-1.552-0.281-3.001,1.36-3.011"/>
<path fill="#BCE3FF" d="M68.829,85.733c0.409,1.614,0.38,3.063-1.36,3.065-0.418-1.55-0.269-2.995,1.36-3.065"/>
<path fill="#C4E6FF" d="M70.771,85.464c0.444,1.592,0.444,3.02-1.295,3.011-0.42-1.564-0.202-3.027,1.295-3.011"/>
<path fill="#ABDCFF" d="M68.829,89.228c0.408,1.599,0.367,3.02-1.36,3.011-0.407-1.513-0.335-2.99,1.36-3.011"/>
<path fill="#ABDCFF" d="M66.821,92.885c0.408,1.598,0.367,3.019-1.36,3.01-0.416-1.534-0.253-2.948,1.36-3.01"/>
<path fill="#C3EFFF" d="M70.771,88.906c0.445,1.608,0.458,3.064-1.295,3.064-0.424-1.577-0.171-3.013,1.295-3.064"/>
<path fill="#C1F7FF" d="M70.771,92.401c0.447,1.591,0.43,3.009-1.295,3.065-0.421-1.578-0.217-3.074,1.295-3.065"/>
<path fill="#B2E7FF" d="M66.821,89.55c0.408,1.599,0.367,3.02-1.36,3.012-0.407-1.512-0.335-2.99,1.36-3.012"/>
<path fill="#B8F3FF" d="M68.829,92.723c0.408,1.599,0.367,3.021-1.36,3.011-0.407-1.512-0.335-2.99,1.36-3.011"/>
<path fill="#B2E7FF" d="M66.821,96.326c0.408,1.599,0.367,3.019-1.36,3.011-0.415-1.551-0.281-3.001,1.36-3.011"/>
<path fill="#B8F3FF" d="M68.829,96.111c0.408,1.599,0.367,3.02-1.36,3.011-0.407-1.513-0.336-2.991,1.36-3.011"/>
<path fill="#BFFFFF" d="M70.771,95.896c0.444,1.592,0.445,3.021-1.295,3.011-0.42-1.565-0.201-3.027,1.295-3.011"/>
<path d="M78.998,107.03c0.012-4.812,0.024-9.623,0.036-14.434,0.005-2.329-1.592-12.172,1.714-11.806v14.464c0,2.349,1.639,12.326-1.75,11.776"/>
<path d="M84.052,106.7v-22.046c2.193,3.438,3.267,22.546,0,22.046"/>
<path d="M88.715,106.22c0.021-4.123,0.043-8.245,0.065-12.367,1.204,2.306,4.067,12.977-0.065,12.367"/>
<path fill="#634A00" d="M88.262,107.13c0.021-4.75,0.043-9.5,0.065-14.249,1.75,2.639,3.785,14.639-0.065,14.249"/>
<path d="M88.262,107.13c0.021-4.75,0.043-9.5,0.065-14.249,1.74,2.62,3.809,14.475,0,14.303" stroke="#634A00" stroke-linecap="square" stroke-miterlimit="10" fill="none"/>
<path d="M51.146,109.5c0.022-7.813-2.068-18.222,1.749-25.165v14.577c0,2.318,1.622,10.988-1.749,10.588"/>
<path d="M47.389,109.5c0-6-1.263-12.521,1.75-17.798-0.001,3.068,1.601,18.268-1.75,17.798"/>
<path d="M42.854,109.88c0-4.202-0.32-6.859,1.75-10.485,0,2.315,1.523,11.065-1.75,10.485"/>
<path fill="#634A00" d="M78.545,107.35v-13.855c0-2.403-1.682-13.067,1.749-12.708v13.883c0,2.386,1.668,13.14-1.749,12.68"/>
<path d="M78.545,107.35v-13.855c0-2.403-1.682-13.067,1.749-12.708v13.883c0,2.386,1.668,13.14-1.749,12.68" stroke="#634A00" stroke-linecap="square" stroke-miterlimit="10" fill="none"/>
<path fill="#634A00" d="M83.533,107.35c0.021-8.083,0.043-16.167,0.065-24.251,2.027,4.077,1.685,7.111,1.685,11.726-0.001,2.293,1.621,13.115-1.75,12.525"/>
<path d="M83.533,107.35c0.021-8.083,0.043-16.167,0.065-24.251,1.953,3.927,3.628,24.531,0,24.251" stroke="#634A00" stroke-linecap="square" stroke-miterlimit="10" fill="none"/>
<path fill="#634A00" d="M88.262,92.831l1.749,2.904-1.749-2.904z"/>
<path fill="#634A00" d="M50.691,109.5c0-7.792-2.172-18.295,1.75-25.165v13.196c0,2.398,1.666,12.369-1.75,11.969"/>
<path d="M50.691,109.5c0-7.792-2.172-18.295,1.75-25.165v13.196c0,2.398,1.666,12.369-1.75,11.969" stroke="#634A00" stroke-linecap="square" stroke-miterlimit="10" fill="none"/>
<path fill="#634A00" d="M46.936,109.5c0-5.984-1.232-12.49,1.684-17.798-0.001,3.032,1.555,18.218-1.684,17.798"/>
<path d="M46.936,109.5c0-5.984-1.232-12.49,1.684-17.798-0.001,3.032,1.555,18.218-1.684,17.798" stroke="#634A00" stroke-linecap="square" stroke-miterlimit="10" fill="none"/>
<path fill="#634A00" d="M42.401,109.88c0-4.158-0.306-6.864,1.684-10.485,0,2.545,1.55,10.675-1.684,10.485"/>
<path d="M42.401,109.88c0-4.158-0.306-6.864,1.684-10.485,0,2.545,1.55,10.675-1.684,10.485" stroke="#634A00" stroke-linecap="square" stroke-miterlimit="10" fill="none"/>
<path fill="#634A00" d="M82.497,80.732v-1.774c-4.563,0.631-29.878,1.566-30.121,5.915,9.973-1.353,20.335-2.172,30.121-4.141"/>
<path d="M82.497,80.732v-1.774c-4.563,0.631-29.878,1.566-30.121,5.915,10.04-1.362,20.081-2.725,30.121-4.087" stroke="#634A00" stroke-linecap="square" stroke-miterlimit="10" fill="none"/>
<path fill="#BF4926" d="M186.2,62.02c2.785-0.395,5.57-0.789,8.355-1.184,0.152,3.747,0.305,7.493,0.456,11.239,0.121,2.96-5.28,1.835-7.775,1.989-0.06-4.422-0.62-8.841-1.04-12.044"/>
<path fill="#B38F7D" d="M187.24,74.064c2.612-0.161,5.225-0.323,7.837-0.484,1.575,4.374-4.899,3.157-7.709,3.388-0.04-0.867-0.33-2.065-0.13-2.904"/>
<path fill="#BF494F" d="M190.41,76.646c1.598-0.107,3.194-0.215,4.792-0.322,0.086,2.025,0.173,4.05,0.259,6.076-1.68-1.906-3.43-3.816-5.05-5.754"/>
<path fill="#9A4D00" d="M106.53,87.293v10.861c0,4.404,1.264,3.561,5.57,4.517v-11.129c0-3.655-2.37-2.99-5.57-4.248"/>
<path fill="#457287" d="M107.44,89.55c0.018,2.696,0.035,5.392,0.053,8.088,0.017,2.609,1.301,2.176,3.769,2.882v-7.736c0-2.525-1.49-2.367-3.82-3.234"/>
<path fill="#5C98B5" d="M107.44,91.271c0.032,4.059-1.659,8.379,3.173,9.034,0-4.651,1.41-7.344-3.17-9.029"/>
<path fill="#BA7B3C" d="M97.072,83.206c3.044,5.79,6.088,11.579,9.132,17.369-0.041-4.246-0.082-8.492-0.123-12.739-0.02-1.848-7.27-3.826-9.008-4.635"/>
<path fill="#402F00" d="M100.24,84.335c3.17,0.585,1.75,6,1.75,8.442-1.66-3.173-1.75-4.816-1.75-8.442"/>
<path fill="#402F00" d="M106.01,87.185c0.015,3.123-1.583,12.714,0.906,14.41,0-2.953,1.5-13.225-0.91-14.415"/>
<path fill="#402F00" d="M93.963,80.087c2.654,1.275,13.653,4.657,13.214,7.743-3.95-1.831-11.347-3.396-13.217-7.743"/>
<path fill="#281E00" d="M107.18,86.378c1.901,0.754,6.105,1.251,5.831,3.657-1.96-0.742-6.19-1.136-5.83-3.657"/>
<path fill="#3D4266" d="M93.898,79.872c6.722,2.654,13.085,5.553,19.561,8.765v0.538c-6.46-2.819-13.92-6.613-19.562-9.303"/>
<path fill="#3D4266" d="M113.78,78.474c2.106,6.426,4.213,12.852,6.32,19.278,0.909,2.772,3.047,15.977,6.894,15.674-4.4-11.65-8.8-23.305-13.21-34.956"/>
<path fill="#227B62" d="M98.497,109.02c0.021-0.556,0.042-1.111,0.063-1.667,3.858,0.764,27.491,3.602,27.271,6.722-9.11-1.68-18.22-3.37-27.333-5.05"/>
<path fill="#70EAC8" d="M195.92,112.19c13.305,0.009,26.608,0.019,39.913,0.027,9.182,0.006,18.363,0.013,27.545,0.019,0.914,0.001,12.332-0.172,10.984,1.19-1.264,1.277-10.446,0-12.155,0h-28.131-27.369c-2.21,0-9.93,1.43-10.78-1.24"/>
<path fill="#31A887" d="M196.56,113.37c-2.439,0.018-4.879,0.036-7.318,0.054,0.17-2.1,6.7-2.02,7.32-0.05"/>
<path fill="#58BB9F" d="M149.86,112.14c6.986-0.173,13.972-0.346,20.958-0.519,2.696-0.066,18.756-2.112,18.297,1.271-13.085,0.251-26.17,0.501-39.255,0.752v-1.5"/>
<path fill="#227B62" d="M149.86,113.64c-3.514,0.063-24.253,1.742-24.162-0.914,8.054-0.197,16.108-0.395,24.162-0.592v1.5"/>
<path fill="#61A08A" d="M98.497,109.02c-0.561,0.125-1.122,0.25-1.683,0.376-0.151-0.515-0.177-1.464-0.065-1.989,0.604-0.018,1.208-0.036,1.812-0.054-0.022,0.54-0.043,1.1-0.064,1.66"/>
<path fill="#6C201C" d="M188.73,148.16c0.007-3.88-0.536-34.736,0.635-34.736,3.413,0,1.634,13.13,1.634,16.171v18.94c-0.68-0.11-1.65-0.06-2.26-0.37"/>
<path fill="#FC9" d="M198.32,114.55c14.063,0.01,28.125,0.02,42.188,0.03,8.767,0.006,17.534,0.012,26.301,0.019,2.247,0.001,4.494,0.003,6.742,0.005,1.886,0.001,0.813,4.567,0.813,6.035,0,2.386-10.034,1.117-12.117,1.117h-28.814-25.07c-6.03,0-6.34-1.91-10.04-7.21"/>
<path fill="#BA7B3C" d="M203.62,121.76h-10.171c-4.881,0-3.56-1.21-3.56-6.034,0-2.288,6.169-1.117,8.187-1.117,1.39,0,4.63,5.91,5.54,7.15"/>
<path fill="#402F00" d="M198.19,121.76c0.021-2.402,0.044-4.804,0.065-7.206-2.16-0.21-1.98,7.47-0.07,7.21"/>
<path fill="#402F00" d="M193.98,116.71c-1.295,1.446-1.77,3.143-1.555,5.108-3.84,0.344,0.59-6.081,1.555-7.206,0,0.65,0.08,1.65,0,2.1"/>
<path fill="#402F00" d="M193.98,116.71c1.38,1.423,1.783,3.154,1.554,5.108,3.908,0.419-0.504-6.063-1.554-7.206,0,0.65-0.09,1.65,0,2.1"/>
<path fill="#7B5417" d="M206.61,121.76c0.021-2.402,0.043-4.804,0.064-7.206-2.14-0.21-1.97,7.46-0.06,7.21"/>
<path fill="#7B5417" d="M200.19,117.08c0.572-0.884,1.39-1.7,2.072-2.474,0.362,1.399-0.098,2.748-1.166,3.656-0.29-0.4-0.59-0.79-0.9-1.19"/>
<path fill="#402F00" d="M201.1,118.26c-0.463,1.084-0.562,2.342-0.388,3.549-2.387,0.255-1.493-3.345-0.519-4.731,0.31,0.4,0.61,0.79,0.91,1.18"/>
<path fill="#7B5417" d="M202.2,116.71c1.41,1.423,1.829,3.148,1.618,5.108,3.842,0.347-0.588-6.08-1.554-7.206,0.03,0.63-0.12,1.74-0.07,2.1"/>
<path fill="#7B5417" d="M215.03,121.76c0.021-2.402,0.043-4.804,0.064-7.206-2.15-0.21-1.97,7.46-0.06,7.21"/>
<path fill="#7B5417" d="M210.49,116.71c-1.355,1.447-1.773,3.147-1.556,5.108-3.839,0.345,0.587-6.08,1.556-7.206,0,0.65,0.09,1.65,0,2.1"/>
<path fill="#7B5417" d="M210.49,116.71c1.377,1.424,1.785,3.152,1.555,5.108,3.893,0.415-0.513-6.068-1.555-7.206,0.01,0.65-0.07,1.65,0.01,2.1"/>
<path fill="#7B5417" d="M223.45,121.76c0-0.885,0.43-8.546-1.104-7.206-0.91,0.8-0.58,7.35,1.1,7.21"/>
<path fill="#7B5417" d="M218.72,116.71c-1.251,1.436-1.811,3.16-1.556,5.108-3.781,0.34,0.534-6.071,1.621-7.206,0.04,0.66,0.03,1.69-0.06,2.1"/>
<path fill="#7B5417" d="M218.72,116.71c1.409,1.423,1.832,3.148,1.619,5.108,3.782,0.339-0.537-6.071-1.619-7.206,0.05,0.63-0.06,1.75,0,2.1"/>
<path fill="#7B5417" d="M231.87,121.76c0-0.886,0.43-8.543-1.102-7.206-0.91,0.79-0.58,7.35,1.1,7.21"/>
<path fill="#7B5417" d="M227.01,116.71c-1.369,1.422-1.772,3.159-1.555,5.108-3.895,0.418,0.508-6.067,1.555-7.206-0.01,0.65,0.08,1.65-0.01,2.1"/>
<path fill="#7B5417" d="M227.01,116.71c1.366,1.424,1.771,3.159,1.554,5.108,3.895,0.418-0.508-6.067-1.554-7.206,0,0.65-0.08,1.65,0,2.1"/>
<path fill="#402F00" d="M274.3,114.07c-0.708,1.522-9.385,0.538-11.357,0.538h-28.728-44.32v-0.538h84.41"/>
<path fill="#7B5417" d="M274.3,113.37c-0.358,2.451-36.24,0.806-40.085,0.806h-44.32v-0.752h42.929c13.61-0.01,28.12,0.95,41.47-0.06"/>
<path fill="#402F00" d="M231.81,147.19v-16.091c0-5.582,0.948-5.632-4.483-5.632h-21.471c-1.924,0-12.325-1.421-13.689,0-0.6,0.625,0,4.818,0,5.646v11.654c0,5.434,0.093,4.477,5.435,4.477,11.31,0,23,0.65,34.21-0.06"/>
<path fill="#066597" d="M199.22,145.74v-14.18c0-0.671,0.509-4.475,0-4.963-0.297-0.285-5.6-0.285-5.896,0-1.48,1.421,0,12.04,0,14.18,0.01,5.8,0.01,4.96,5.9,4.96"/>
<path fill="#09BA95" d="M200.97,139.4c0,4.789-1.398,6.345,3.614,6.345,4.145,0,2.346-4.816,2.346-8.388-1.99,0.69-3.97,1.37-5.96,2.05"/>
<path fill="#066597" d="M206.87,137.35c0.021-3.585,0.044-7.169,0.065-10.754-2.368,0-5.96-1.281-5.96,1.511v11.287c1.9-0.66,4.21-1.42,5.89-2.05"/>
<path fill="#09BA95" d="M208.68,136.44v7.293c0,3.141,1.849,2.009,4.777,2.009,2.463,0,1.182-9.113,1.182-11.507-1.99,0.74-3.97,1.47-5.96,2.21"/>
<path fill="#066597" d="M214.57,134.18c0.021-2.527,0.043-5.054,0.064-7.582-1.534,0-5.959-0.922-5.959,0.857v8.983c1.92-0.71,4.26-1.49,5.9-2.26"/>
<path fill="#09BA95" d="M216.39,133.43v8.724c0,4.419,0.263,3.59,4.727,3.59,2.457,0,1.169-12.698,1.169-15.432-1.93,1.03-4.05,2.26-5.9,3.12"/>
<path fill="#066597" d="M222.28,130.31c0-4.505-0.337-3.71-4.727-3.71-2.323,0-1.169,4.896-1.169,6.883,1.97-1.06,3.94-2.11,5.9-3.17"/>
<path fill="#09BA95" d="M224.03,130.1c0.013,3.291,0.026,6.582,0.039,9.873,0.014,3.411-1.329,5.774,2.344,5.774,4.393,0,3.575-0.218,3.575-4.518v-11.292c-1.96,0.07-4.01,0.21-5.95,0.17"/>
<path fill="#066597" d="M229.99,129.93c0.436-2.911,0.339-3.333-2.32-3.333-3.82,0-3.575-0.305-3.575,3.549,1.96-0.07,3.92-0.15,5.89-0.22"/>
<path fill="#7B5417" d="M200.58,138.21c0.021,2.509,0.043,5.019,0.064,7.527-2.5,0.39-2.13-7.04-0.06-7.53"/>
<path fill="#7B5417" d="M208.29,135.31c0,1.688,0.704,10.431-0.647,10.431-1.09,0-1.64-9.56,0.65-10.43"/>
<path fill="#7B5417" d="M215.94,132.41v7.333c0,0.445,0.532,7.763-1.298,6.002-1.34-1.29-0.54-12.76,1.3-13.33"/>
<path fill="#7B5417" d="M223.58,129.02c0.021,5.574,0.043,11.148,0.064,16.723-2.729,0.151-1.358-13.916-1.358-16.884-0.14-0.02,1.66,0.28,1.3,0.16"/>
<path fill="#7B5417" d="M231.28,129.02c0,2.273,0.695,16.723-0.646,16.723s-0.647-14.596-0.647-16.884c0.44,0.05,0.87,0.1,1.3,0.16"/>
<path fill="#7B5417" d="M240.22,121.76c0.021-2.402,0.043-4.804,0.064-7.206-2.13-0.21-1.96,7.46-0.06,7.21"/>
<path fill="#7B5417" d="M235.69,116.71c-1.257,1.433-1.812,3.159-1.558,5.108-3.778,0.337,0.535-6.071,1.619-7.206-0.01,0.66,0.03,1.65-0.06,2.1"/>
<path fill="#7B5417" d="M235.69,116.71c1.363,1.413,1.871,3.165,1.618,5.108,3.782,0.339-0.539-6.07-1.618-7.206,0,0.66-0.08,1.65,0,2.1"/>
<path fill="#7B5417" d="M248.65,121.76c0.021-2.402,0.042-4.804,0.063-7.206-2.15-0.21-1.97,7.46-0.06,7.21"/>
<path fill="#7B5417" d="M243.92,116.71c-1.27,1.445-1.723,3.148-1.492,5.108-3.891,0.415,0.509-6.069,1.555-7.206,0.03,0.66,0.03,1.69-0.06,2.1"/>
<path fill="#7B5417" d="M243.92,116.71c1.446,1.399,1.836,3.149,1.618,5.108,3.816,0.343-0.554-6.083-1.556-7.206,0.03,0.63-0.12,1.74-0.06,2.1"/>
<path fill="#7B5417" d="M257.07,121.76c0.021-2.402,0.043-4.804,0.064-7.206-2.14-0.21-1.96,7.46-0.06,7.21"/>
<path fill="#7B5417" d="M252.21,116.71c-1.295,1.446-1.768,3.143-1.554,5.108-3.848,0.346,0.607-6.074,1.554-7.206,0,0.65,0.08,1.65,0,2.1"/>
<path fill="#7B5417" d="M252.21,116.71c1.392,1.421,1.782,3.163,1.554,5.108,3.888,0.417-0.469-6.068-1.554-7.206,0,0.65-0.08,1.65,0,2.1"/>
<path fill="#402F00" d="M257,147.19c0.021-7.241,0.043-14.482,0.064-21.723h-19.771c-0.829,0-5.299-0.532-5.299,0.429v10.459,10.46c0,0.961,4.47,0.429,5.299,0.429,6.47,0,13.52,0.31,19.71-0.06"/>
<path fill="#09BA95" d="M233.88,136.44c0.017,2.431,0.034,4.861,0.051,7.293,0.021,3.125,1.817,2.009,4.74,2.009,2.439,0,1.169-9.127,1.169-11.507-1.99,0.75-3.97,1.52-5.96,2.21"/>
<path fill="#066597" d="M239.77,134.18c0.021-2.527,0.044-5.054,0.065-7.582-1.529,0-5.896-0.918-5.896,0.857v8.983c1.89-0.71,4.21-1.49,5.83-2.26"/>
<path fill="#066597" d="M247.48,130.31c0.021-1.237,0.043-2.474,0.064-3.71-1.005,0-5.338-0.64-5.957,0-0.757,0.783,0,5.674,0,6.883,1.92-1.02,4.22-2.18,5.9-3.17"/>
<path fill="#066597" d="M255.19,129.93c0.436-2.91,0.34-3.333-2.319-3.333-3.819,0-3.573-0.304-3.573,3.549,1.96-0.07,3.92-0.15,5.89-0.22"/>
<path fill="#7B5417" d="M241.13,132.41c0.021,4.445,0.043,8.89,0.064,13.335-2.33,0.26-2.52-12.63-0.06-13.33"/>
<path fill="#7B5417" d="M248.84,129.02c0,2.274,0.696,16.723-0.647,16.723s-0.648-14.595-0.648-16.884c0.44,0.05,0.87,0.1,1.3,0.16"/>
<path fill="#7B5417" d="M256.48,129.02c0.021,5.574,0.043,11.148,0.064,16.723-2.735,0.155-1.362-13.914-1.362-16.884-0.13-0.02,1.66,0.28,1.3,0.16"/>
<path fill="#362A4D" d="M152.52,83.475c3.584,5.915,7.167,11.83,10.751,17.745-3.889-1.004-8.712,1.275-12.63,2.312,0.63-6.684,1.25-13.37,1.88-20.055"/>
<path fill="#BA7B3C" d="M150.58,103.53c0.69-6.112,1.382-12.224,2.072-18.335-3.111,2.863-2.963,3.013-2.702,7.198,0.23,3.662,0.62,7.585,0.63,11.137"/>
<path fill="#FC9" d="M136.26,90.142v13.712c2.451-0.055,12.883,1.267,14.379-0.323,1.67-1.774,0-12.367,0-15.056-4.79,0.557-9.58,1.112-14.38,1.668"/>
<path fill="#085F46" d="M135.09,89.121c0.021,0.501,0.043,1.003,0.065,1.505,4.402-0.591,18.815,0.385,17.36-7.151-5.8,1.887-11.59,3.879-17.43,5.646"/>
<path fill="#6B74B3" d="M152.52,83.475c-2.253,3.238-2.305,3.774-6.066,4.242-3.765,0.468-7.529,0.936-11.294,1.404,2.22-3.239,2.272-3.826,6.065-4.284,3.77-0.454,7.54-0.908,11.3-1.362"/>
<path fill="#7B5417" d="M151.61,96.595c-0.043-3.226-0.086-6.453-0.129-9.679-2.918,3.086-0.878,12.564-0.844,16.615,0.32-2.31,0.65-4.623,0.97-6.935"/>
<path fill="#7B5417" d="M148.44,102.4c0.021-4.517,0.043-9.034,0.064-13.55-1.184,0.156-10.234,0.958-10.234,1.526v12.293c3.31-0.07,7.12-0.03,10.17-0.27"/>
<path fill="#87D1FF" d="M143.9,90.411c0.021,3.764,0.043,7.528,0.064,11.292,3.345-0.1,3.629,0.542,3.629-2.742v-9.034c-1.22,0.167-2.45,0.334-3.69,0.487"/>
<path fill="#A6FFFF" d="M146.17,97.293c0.021,1.272,0.043,2.545,0.064,3.818,1.915-0.011,1.103-2.266,1.103-3.872-0.37,0.022-0.79,0.014-1.16,0.055"/>
<path fill="#A6FFFF" d="M144.42,97.293c0.08,4.667,1.166,4.568,1.166-0.054-0.38,0.021-0.79,0.013-1.17,0.054"/>
<path fill="#A6FFFF" d="M146.17,91.057c0.014,1.131-0.542,5.484,0.616,5.484,1.148,0,0.551-4.503,0.551-5.646-0.36,0.057-0.82,0.076-1.17,0.162"/>
<path fill="#87FFE6" d="M144.42,91.164c0.021,1.792,0.043,3.584,0.064,5.377,2.092-0.083,1.102-3.696,1.102-5.484-0.3,0.072-0.89,0.073-1.16,0.107"/>
<path fill="#87D1FF" d="M139.31,91.003v10.808c3.513-0.104,3.626,0.46,3.626-2.994v-8.245c-1.19,0.159-2.56,0.35-3.63,0.432"/>
<path fill="#A6FFFF" d="M141.44,97.348v3.818c1.915-0.013,1.103-2.267,1.103-3.873-0.36,0.015-0.73,0.033-1.1,0.051"/>
<path fill="#87FFE6" d="M139.69,97.348v3.818c1.914-0.013,1.102-2.267,1.102-3.873-0.36,0.015-0.73,0.033-1.1,0.051"/>
<path fill="#87FFE6" d="M141.44,91.541v5.054c2.069-0.039,1.103-3.484,1.103-5.216-0.02,0.005-1.2,0.182-1.1,0.162"/>
<path fill="#87FFE6" d="M139.69,91.702v4.893c2.053-0.013,1.102-3.357,1.102-5.054-0.36,0.053-0.73,0.107-1.1,0.161"/>
<path fill="#42591A" d="M138.4,102.67c0.021-4.158,0.043-8.317,0.065-12.475-0.237,0.018-0.475,0.036-0.712,0.054,0,2.736-1.12,11.361,0.65,12.421"/>
<path fill="#362A4D" d="M177.46,80.732c3.8,6.614,7.6,13.228,11.399,19.842-4.084-1.137-9.238,1.398-13.345,2.527,0.64-7.455,1.29-14.911,1.94-22.368"/>
<path fill="#BA7B3C" d="M175.45,103.1c0.733-6.811,1.468-13.622,2.201-20.433-3.439,3.322-3.137,3.672-2.854,8.417,0.23,3.905,0.68,8.348,0.65,12.016"/>
<path fill="#FC9" d="M160.29,88.153c0.021,5.108,0.042,10.216,0.063,15.325,1.571-0.033,15.156-0.136,15.156-0.457v-16.696c-5.07,0.612-10.14,1.252-15.22,1.829"/>
<path fill="#085F46" d="M159.13,86.97v1.721c4.266-0.597,20.662,0.118,18.396-7.904-6.08,2.059-12.34,4.503-18.4,6.183"/>
<path fill="#6B74B3" d="M177.46,80.732c-2.177,3.319-2.231,4.175-6.029,4.674-4.101,0.539-8.202,1.078-12.303,1.617,2.589-4.048,2.59-4.332,7.246-4.893,3.58-0.432,7.78-0.696,11.08-1.398"/>
<path fill="#7B5417" d="M176.55,95.358c-0.043-3.584-0.087-7.169-0.13-10.754-3.233,3.38-0.942,14.062-0.909,18.498,0.35-2.58,0.71-5.16,1.04-7.742"/>
<path fill="#7B5417" d="M173.18,101.86c0.021-5.037,0.044-10.073,0.065-15.11-1.236,0.166-10.817,1.051-10.817,1.629v13.803c3.52-0.08,7.53-0.03,10.76-0.32"/>
<path fill="#87D1FF" d="M168.39,88.476c0.021,4.194,0.042,8.388,0.063,12.582,3.318-0.093,3.823,0.646,3.823-2.687v-10.433c-1.29,0.18-2.58,0.366-3.88,0.536"/>
<path fill="#A6FFFF" d="M170.79,96.165c0.021,1.416,0.042,2.832,0.063,4.248,2.052-0.049,1.165-2.552,1.165-4.301-0.41,0.022-0.83,0.02-1.23,0.056"/>
<path fill="#A6FFFF" d="M168.97,96.111v4.301c2.136,0,1.229-2.515,1.229-4.301-0.06,0.009-1.28,0.005-1.23,0.002"/>
<path fill="#A6FFFF" d="M170.79,89.175c0.013,1.224-0.574,6.129,0.646,6.129,1.219,0,0.583-5.055,0.583-6.291-0.38,0.057-0.86,0.079-1.23,0.162"/>
<path fill="#87FFE6" d="M168.97,89.335v5.969c2.326,0.13,1.229-4.308,1.229-6.129-0.41,0.054-0.82,0.107-1.23,0.16"/>
<path fill="#87D1FF" d="M163.53,89.121v12.098c3.254-0.09,3.886,0.691,3.886-2.581v-10.001c-1.27,0.174-2.72,0.394-3.89,0.483"/>
<path fill="#A6FFFF" d="M165.8,96.218c0,5.252,1.164,5.137,1.164-0.053-0.38,0.018-0.77,0.036-1.16,0.053"/>
<path fill="#87FFE6" d="M163.92,96.165v4.301c2.137,0.001,1.23-2.514,1.23-4.301-0.06,0.002-1.28-0.001-1.23-0.004"/>
<path fill="#87FFE6" d="M165.8,89.712v5.646c2.202,0.118,1.164-4.082,1.164-5.808,0.05-0.011-1.33,0.207-1.16,0.162"/>
<path fill="#87FFE6" d="M163.92,89.874v5.484c2.294-0.004,1.23-3.75,1.23-5.646-0.01,0.002-1.35,0.184-1.23,0.162"/>
<path fill="#42591A" d="M162.62,102.13v-13.927c-0.237,0.018-0.476,0.036-0.713,0.054,0,2.862-1.28,12.823,0.71,13.873"/>
<path fill="#BA7B3C" d="M190.48,78.797c0.065,10.79,0.13,21.58,0.195,32.37-0.482,0.126-1.397,0.128-1.88,0,0.55-10.79,1.15-21.582,1.68-32.373"/>
<path fill="#661E1B" d="M130.75,147.57c0.022-9.213,0.043-18.426,0.065-27.639h-15.702c-1.214,0-0.558,12.297-0.558,13.846,0,1.55-0.657,13.847,0.558,13.847,5.12-0.01,10.78,0.23,15.63-0.06"/>
<path fill="#670E09" d="M139.82,147.57c0.021-9.213,0.043-18.426,0.065-27.639-1.271,0-9.457-0.406-9.457,0.353v13.493,13.494c0.01,0.78,8.42,0.37,9.4,0.31"/>
<path fill="#9A6242" d="M116.25,112.19c-1.894,1.733-6.312,7.743-1.254,7.743h16.54c-5.09-2.55-10.39-4.97-15.29-7.74"/>
<path fill="#141C33" d="M115.73,109.88c-1.399,4.233,9.994,7.916,12.849,9.472,4.639,2.526,8.647,1.928,13.969,1.928,0.73-3.79-22.8-9.95-26.82-11.4"/>
<path fill="#362A4D" d="M115.73,109.88c4.677,2.579,9.354,5.157,14.031,7.736,4.169,2.298,7.925,1.835,12.722,1.943-9.02-3.95-17.2-7.41-26.75-9.68"/>
<path fill="#370000" d="M127,147.52c0.022-3.221,3.498-28.815-6.574-24.252-4.036,1.829-2.948,8.077-2.948,11.471v12.656c0,0.25,8.49,0.12,9.52,0.12"/>
<path fill="#280000" d="M137.62,147.68c0.021-6.279,0.491-12.719,0.064-18.981-0.081-1.188-0.931-7.836-3.563-5.297-2.188,2.112-1.554,6.37-1.554,9.06v13.415c0,3.03,2.56,1.8,5.05,1.8"/>
<path d="M122.46,147.41v-12.708-5.633c0-0.808,4.239-0.939,4.664-0.479,1.38,1.494,0,10.644,0,12.707,0.01,5.6,1.16,6.11-4.66,6.11"/>
<path fill="#402F00" d="M126.8,118.43c0.965,0.469,1.902,1.004,2.851,1.505-2.586,0-15.149,1.685-16.581,0-1.901-2.237,5.616-1.505,6.209-1.505,2.42-0.01,5.34-0.01,7.52-0.01"/>
<path fill="#402F00" d="M115.92,112.46c1.46,0.786,1.739,5.969,0.228,5.969-1.47,0-1.06-4.87-0.23-5.97"/>
<path fill="#402F00" d="M120.2,114.77c2.205,1.075,0.499,5-0.52,3.71-0.94-1.19,0.18-3.65,0.52-3.71"/>
<path fill="#370000" d="M108.67,143.7v-17.493c0-0.873,0.606-4.89,0-5.575-0.853-0.963-6.122-0.745-7.515-0.914v17.351c0,0.96-0.7,5.919,0,6.631,0.79,0.8,6.23-0.01,7.51-0.01"/>
<path d="M107.89,142.57v-15.047c0-6.278,0.401-5.758-5.959-6.677v14.851,6.763c0,0.24,5.28,0.12,5.96,0.12"/>
<path fill="#520B07" d="M60.344,144.29v-29.735c-3,0.146-5.506-1.043-5.506,2.206v12.823,12.824c0,3.24,2.636,2.03,5.506,1.88"/>
<path fill="#09BA95" d="M60.344,144.29v-27.854c-3.048,0.22-4.47-0.715-4.47,2.367v11.749s0,7.833,0,11.75c0,3.07,1.528,2.14,4.47,1.98"/>
<path d="M60.344,144.29v-27.854c-3.048,0.22-4.47-0.715-4.47,2.367v11.749s0,7.833,0,11.75c0,3.111,1.422,2.043,4.47,2.043" stroke="#09BA95" stroke-linecap="square" stroke-miterlimit="10" stroke-width="0.5" fill="none"/>
<path fill="#520B07" d="M67.598,144.29c0.022-10.055,0.043-20.11,0.065-30.165-2.896,0.167-5.571-1-5.571,2.173v13.777,12.418c0.001,3.18,2.931,1.95,5.506,1.8"/>
<path fill="#09BA95" d="M67.598,144.29c0.022-9.41,0.043-18.82,0.065-28.229-3.079,0.222-4.47-0.713-4.47,2.394v11.91s0,7.94,0,11.91c0,3.11,1.61,2.19,4.405,2.02"/>
<path d="M67.598,144.29c0.022-9.41,0.043-18.82,0.065-28.229-3.079,0.222-4.47-0.713-4.47,2.394v11.91s0,7.94,0,11.91c0,3.137,1.391,2.071,4.47,2.071" stroke="#09BA95" stroke-linecap="square" stroke-miterlimit="10" stroke-width="0.5" fill="none"/>
<path fill="#520B07" d="M74.918,144.29c0.021-10.181,0.042-20.361,0.064-30.542-2.929,0.142-5.57-1.057-5.57,2.147v13.975,12.597c0,3.19,2.891,1.96,5.506,1.81"/>
<path fill="#09BA95" d="M74.918,144.29c0.021-9.535,0.042-19.071,0.064-28.606-2.969,0.215-4.469-0.723-4.469,2.297v12.88,11.51c0,3.03,1.72,2.08,4.405,1.92"/>
<path d="M74.918,144.29c0.021-9.535,0.042-19.071,0.064-28.606-2.969,0.215-4.469-0.723-4.469,2.297v11.51,12.081c0,3.704,0.636,2.773,4.469,2.773" stroke="#09BA95" stroke-linecap="square" stroke-miterlimit="10" stroke-width="0.5" fill="none"/>
<path fill="#520B07" d="M89.298,148v-19.681-12.21c0-0.425-0.606-6.367,1.294-4.727,0.565,0.487,0,5.02,0,5.73v13.98c0.001,2.39,1.187,17.39-1.294,16.91"/>
<path fill="#520B07" d="M185.1,148.16v-33.07h0.646v17.912c0,2.59,1.34,14.12-0.65,15.16"/>
<path fill="#520B07" d="M182.96,148.16v-33.07h0.647v17.912c0,2.59,1.35,14.12-0.65,15.16"/>
<path fill="#520B07" d="M132.24,115.04c5.287,0.005,50.72-0.445,50.72,0.538,0-0.36-45.59,2.8-50.72-0.54"/>
<path fill="#520B07" d="M41.169,114.55c0.797-0.614,1.755,0.494,1.425-1.182,1.849,1.806-1.36,1.078-1.36,3.46v13.001c0,3.006,1.614,21.107-1.037,21.662v-19.826c0.001-2.3-1.055-17.17,0.972-17.11"/>
<path fill="#520B07" d="M77.056,146.55c-1.815-1.971-7.796-0.752-10.283-0.752h-13.748c2.082,2.125,8.965,0.752,11.737,0.752h12.294"/>
<path fill="#520B07" d="M77.056,112.19c-2.378-1.734-8.166-0.147-11.029,0.044-4.334,0.29-8.668,0.58-13.002,0.869,2.363,1.822,8.216,0.202,11.094,0.009,4.204-0.28,9.005-0.4,12.937-0.92"/>
<path fill="#B38F7D" d="M76.537,144.24c0.021,0.448,0.043,0.896,0.065,1.345-3.07,0-24.939,0.709-24.939-0.672,0-1.38,22.046-0.67,24.874-0.67"/>
<path fill="#473631" d="M137.75,146.44c0.375,2.683-8.366,1.345-10.373,1.345-1.708,0-13.562,1.304-14.501,0-1.34-1.858,10.547-1.291,11.747-1.291,4.32,0.01,8.89,0.18,13.12-0.05"/>
<path fill="#520B07" d="M172.86,143.05c0.021-7.098,0.044-14.196,0.065-21.293h-17.722c-1.529,0-2.683-0.643-2.683,0.992v10.349,8.96c0,1.82,2.15,0.992,3.726,0.992h16.61"/>
<path fill="#661E1B" d="M172.86,143.05c0.021-6.435,0.044-12.869,0.065-19.304h-15.304c-1.641,0-2.834-0.68-2.834,1.069v9.271,7.894c0,1.749,1.193,1.069,2.834,1.069h15.24"/>
<path fill="#066597" d="M161.98,143.11v-14.14c0-0.67,0.508-4.461,0-4.949-0.297-0.285-5.598-0.285-5.895,0-1.48,1.421,0,12.04,0,14.179,0,5.61,0.07,5.26,5.9,4.91"/>
<path fill="#066597" d="M164.24,126.92v10.888c0,5.468-0.859,5.512,4.726,5.512,2.418,0,1.169-7.009,1.169-9.119,0-3.18-3.68-5.18-5.9-7.28"/>
<path fill="#09BA95" d="M170.14,132.46v-7.237c0-1.994-3.057-1.045-4.726-1.045-4.7,0,3.89,7.57,4.73,8.28"/>
<path fill="#7B5417" d="M171.5,124.02c0.021,3.011,0.043,6.022,0.064,9.033-2.603-1.592-1.361-6.473-1.361-9.087-0.17,0,1.7,0.16,1.3,0.06"/>
<path fill="#3D4266" d="M190.8,113.43"/>
<path fill="#63C91E" d="M1.333,152.79c28.168-3.632,56.471-4.642,84.856-4.933,6.91-0.07,13.818-0.171,20.727-0.282,3.11-0.05,6.22-0.111,9.33-0.162,2.34-0.038,7.577-1.299,7.577,1.366,0,1.071,22.346,0.516,24.812,0.516,6.619,0,10.04-1.392,17.193-1.678,8.01-0.32,16.026-0.621,24.044-0.566,4.349,0.03,8.699,0.058,13.043,0.309,3.997,0.23,8.621,1.653,12.566,1.183v1.614c14.4-0.59,28.9-0.7,43.313-0.59,2.728,0.021,15.567-1.199,15.567,1.859v17.554,106.54c0,0.165-190.77,0.082-205.97,0.082-4.618,0-66.535,0.869-66.542-0.738-0.154-36.553-0.309-73.105-0.463-109.66-0.017-4.14-0.034-8.28-0.052-12.41"/>
<path fill="#3D8000" d="M170.98,139.24c2.668,0.689,3.309-0.979,3.043-3.334,0.903-0.574,0.622-0.847,1.879-1.129-0.047-2.614,1.408-5.717,4.21-5.592,0.083,1.754,0.644,3.469,0.325,5.216,0.355,0.014,4.182,0.467,3.497-0.054,1.956,1.488,3.025,10.841,2.332,13.604-0.776,3.099-0.54,1.977-3.11,0-1.401-1.078-3.11-1.585-4.34-2.366-0.913-0.58-2.392-2.609-2.914-2.903-1.069-0.602-2.716-0.096-3.758-0.86-0.46-0.35-0.08-1.89-1.17-2.59"/>
<path fill="#315000" d="M114.04,150.53c1.389,0.839,3.491,1.119,5.181,1.29,5.096,0.517,9.161,0.808,14.703,0.808h17.199,8.969,3.758c1.034,0-0.119-0.947,0.391-1.292,0.972-0.656,0.787-1.415,2.462-1.989,1.208-0.414,3.01-0.107,4.275-0.107,4.423,0,8.854,0.054,13.28,0.054-0.886,0.008-1.771,0-2.657,0,5.034-0.227,40.522,4.159,41.196,0-10.412,0-23.166,1.158-32.518-0.591-1.578-0.295-4.065-0.568-4.922-1.236-0.547-0.426-1.124-2.274-1.685-2.689-0.181-0.134-3.563-1.143-3.563-0.941,0-1.684-0.825-3.833-1.941-4.543-0.566-0.36-5.783-1.179-6.642-0.161-1.281,1.519-3.257,3.129-4.631,4.193-2.892,2.238-4.041,1.313-7.967,1.506,0.146-1.462-0.457-2.32-1.879-2.258,0.47-3.496-4.621-5.495-7.58-5.216-3.974,0.375-4.033,3.881-4.922,7.474,0.387,0.006,0.78,0.016,1.167,0-0.123,0.397-0.776,1.95-1.167,2.205-2.679,1.745-9.127,0.247-12.211,0.349-3.996,0.133-7.931,0.404-11.95,0.404-2.139,0-12.563-0.766-8.486,2.42,0.55,0.45,2.1,0.35,2.13,0.34"/>
<path d="M114.04,150.53c1.389,0.839,3.491,1.119,5.181,1.29,5.096,0.517,9.161,0.808,14.703,0.808h17.199,8.969,3.758c1.034,0-0.119-0.947,0.391-1.292,0.972-0.656,0.787-1.415,2.462-1.989,1.208-0.414,3.01-0.107,4.275-0.107,4.423,0,8.854,0.054,13.28,0.054-0.886,0.008-1.771,0-2.657,0,5.034-0.227,40.522,4.159,41.196,0-10.412,0-23.166,1.158-32.518-0.591-1.578-0.295-4.065-0.568-4.922-1.236-0.547-0.426-1.124-2.274-1.685-2.689-0.181-0.134-3.563-1.143-3.563-0.941,0-1.684-0.825-3.833-1.941-4.543-0.566-0.36-5.783-1.179-6.642-0.161-1.281,1.519-3.257,3.129-4.631,4.193-2.892,2.238-4.041,1.313-7.967,1.506,0.146-1.462-0.457-2.32-1.879-2.258,0.47-3.496-4.621-5.495-7.58-5.216-3.974,0.375-4.033,3.881-4.922,7.474,0.387,0.006,0.78,0.016,1.167,0-0.123,0.397-0.776,1.95-1.167,2.205-2.679,1.745-9.127,0.247-12.211,0.349-3.996,0.133-7.931,0.404-11.95,0.404-2.139,0-12.563-0.766-8.486,2.42,0.55,0.45,2.1,0.35,2.13,0.34" stroke="#315000" stroke-linecap="square" stroke-miterlimit="10" stroke-width="0.5" fill="none"/>
<path fill="#3D8000" d="M30.675,150.74c-2.275-0.187-4.202,1.294-4.145,3.71,2.672,0.028,15.563,5.502,17.359,2.259-1.042-0.005-2.813-0.441-2.591-1.721,0.19-1.094,3.457-0.592,4.6-0.592-1.358-7.871,10.238-4.737,14.639-4.409-0.878-3.755,9.713-2.258,12.21-2.258,3.925,0,3.987-1.076,7.806-1.076,1.106,0,3.452,0.394,3.757-0.483,0.678-1.941-1.524-1.345-2.268-1.721-3.423-1.734-8.445-0.422-11.66-1.882-1.546-0.702-0.808-2.581-3.854-2.581-3.505,0-6.355-0.022-9.359,1.774-1.814,1.085-0.688,1.583-2.98,1.936-1.188,0.183-2.267-0.303-2.721-0.483-0.259-0.104-0.58-1.385-1.035-1.614-0.497-0.251-3.598-1.125-4.275-1.236-2.998-0.491-11.282-0.923-13.215,0.483-0.693,0.504,1.126,0.729,0.778,1.022-0.051,0.043-0.352,0.874-0.388,0.914-0.462,0.503-2.495-0.486-2.98,0-0.249,0.249,0.168,1.39,0.454,1.075-0.081,0.09,0.314,1.22,0.129,1.452-0.505,0.637-1.348,0.147-1.749,0.592-3.848,4.27,1.379,0.93,1.488,4.84"/>
<path d="M30.675,150.74c-2.275-0.187-4.202,1.294-4.145,3.71,2.672,0.028,15.563,5.502,17.359,2.259-1.042-0.005-2.813-0.441-2.591-1.721,0.19-1.094,3.457-0.592,4.6-0.592-1.358-7.871,10.238-4.737,14.639-4.409-0.878-3.755,9.713-2.258,12.21-2.258,3.925,0,3.987-1.076,7.806-1.076,1.106,0,3.452,0.394,3.757-0.483,0.678-1.941-1.524-1.345-2.268-1.721-3.423-1.734-8.445-0.422-11.66-1.882-1.546-0.702-0.808-2.581-3.854-2.581-3.505,0-6.355-0.022-9.359,1.774-1.814,1.085-0.688,1.583-2.98,1.936-1.188,0.183-2.267-0.303-2.721-0.483-0.259-0.104-0.58-1.385-1.035-1.614-0.497-0.251-3.598-1.125-4.275-1.236-2.66-0.437-11.535-1.032-13.215,0.377-0.633,0.531,0.887,0.936,0.778,1.021-0.167,0.132,0.166,0.886,0,1.021-0.547,0.449-2.506-0.51-2.979,0-0.129,0.139-0.376,1.427,0,1.021,0.035-0.038,0.336,1.187,0.194,1.345-0.37,0.413-1.17,0.465-1.425,0.753-1.266,1.432-2.84,0.41-1.425,2.903,0.571,1.007,2.587-0.943,2.268,1.56" stroke="#3D8000" stroke-linecap="square" stroke-miterlimit="10" stroke-width="0.5" fill="none"/>
<path fill="#3D8000" d="M200.45,149.24c1.588,0.43,3.242-0.03,3.047-1.828,3.194,0.587-0.121-4.017,2.783-3.227,1.261,0.343,1.527,3.565,2.914,4.355-0.019-0.37-0.019-0.759,0-1.129,4.668,2.333,0.434-4.804,4.858-3.71-0.117,1.652,1.73,2.561,2.655,2.957-0.228-1.545,0.146-2.384,1.556-1.451-0.541-2.372,1.126-2.231,1.487-3.765,1.772,0.149,2.072,2.576,2.269,4.141,0.572-0.086,3.305,2.937,4.146,1.075,0.052,0.003,1.014,0.267,0.777,0.377,0.003-0.373,0.022-0.756,0-1.129,0.368-0.039,0.313,0.377,0.389,0.376,0.529-1.157,0.547-1.043,1.101-2.205,1.033,0.593,3.232,5.676,3.758,2.205,3.467,0.712,3.853,1.18,4.535,4.087-12.464,0.182-24.938,0.19-37.376-0.699,0.36-0.15,0.73-0.29,1.09-0.43"/>
<path d="M200.45,149.24c1.588,0.43,3.242-0.03,3.047-1.828,3.194,0.587-0.121-4.017,2.783-3.227,1.261,0.343,1.527,3.565,2.914,4.355-0.019-0.37-0.019-0.759,0-1.129,4.668,2.333,0.434-4.804,4.858-3.71-0.117,1.652,1.73,2.561,2.655,2.957-0.228-1.545,0.146-2.384,1.556-1.451-0.541-2.372,1.126-2.231,1.487-3.765,1.772,0.149,2.072,2.576,2.269,4.141,0.572-0.086,3.305,2.937,4.146,1.075,0.052,0.003,1.014,0.267,0.777,0.377,0.003-0.373,0.022-0.756,0-1.129,0.368-0.039,0.313,0.377,0.389,0.376,0.529-1.157,0.547-1.043,1.101-2.205,1.033,0.593,3.232,5.676,3.758,2.205,3.467,0.712,3.853,1.18,4.535,4.087-12.464,0.182-24.938,0.19-37.376-0.699" stroke="#3D8000" stroke-linecap="square" stroke-miterlimit="10" stroke-width="0.5" fill="none"/>
<path fill="#3D8000" d="M274.3,275.65c-11.401,0.018-22.803,0.036-34.204,0.054,0.897-3.675,1.794-7.351,2.691-11.025,0.597-2.443,3.058-7.717,2.185-10.178-1.534-4.318-3.067-8.638-4.601-12.956-1.181-3.327-2.892-4.485-5.595-6.903-6.495-5.811-11.283-9.405-19.048-13.219-6.891-3.384-13.306-6.138-20.563-8.607-14.085-4.792-28.349-8.674-42.628-12.841-14.678-4.284-31.193-7.821-44.081-16.299-2.882-1.896-5.764-3.791-8.646-5.688-1.807-1.188-2.692-5.345-3.535-7.255-2.686-6.087-1.032-8.992,4.617-12.788,8.521-5.726,19.758-10.324,29.992-10.324-10.476,2.982-31.841,11.046-21.116,25.325,4.626,6.159,13.968,8.858,20.668,11.599,5.972,2.442,12.815,4.002,19.127,5.334,29.5,6.225,59.805,10.289,88.852,18.428,7.594,2.128,15.155,4.093,22.534,6.865,4.321,1.624,8.644,3.248,12.965,4.872,1.073,0.403,0.442,4.088,0.44,5.079-0.02,16.81-0.04,33.94-0.06,50.54"/>
<path d="M274.3,275.65c-11.401,0.018-22.803,0.036-34.204,0.054,0.897-3.675,1.794-7.351,2.691-11.025,0.597-2.443,3.058-7.717,2.185-10.178-1.534-4.318-3.067-8.638-4.601-12.956-1.181-3.327-2.892-4.485-5.595-6.903-6.495-5.811-11.283-9.405-19.048-13.219-6.891-3.384-13.306-6.138-20.563-8.607-14.085-4.792-28.349-8.674-42.628-12.841-14.678-4.284-31.193-7.821-44.081-16.299-2.882-1.896-5.764-3.791-8.646-5.688-1.807-1.188-2.692-5.345-3.535-7.255-2.686-6.087-1.032-8.992,4.617-12.788,8.521-5.726,19.758-10.324,29.992-10.324-10.476,2.982-31.841,11.046-21.116,25.325,4.626,6.159,13.968,8.858,20.668,11.599,5.972,2.442,12.815,4.002,19.127,5.334,29.5,6.225,59.805,10.289,88.852,18.428,7.173,2.011,14.387,3.804,21.36,6.425,4.537,1.705,9.075,3.41,13.612,5.115,1.719,0.646,0.97,2.77,0.968,4.476-0.019,17.127-0.037,34.255-0.056,51.382" stroke="#3D8000" stroke-linecap="square" stroke-miterlimit="10" stroke-width="0.5" fill="none"/>
<path fill="#6A816F" d="M274.36,275.6c-10.061,0.018-20.122,0.036-30.183,0.054,0.896-3.666,1.793-7.331,2.689-10.997,0.596-2.434,3.055-7.699,2.183-10.15-1.532-4.305-3.064-8.608-4.597-12.913-1.182-3.319-2.892-4.469-5.596-6.877-6.505-5.794-11.311-9.38-19.079-13.183-6.904-3.381-13.324-6.127-20.597-8.585-14.088-4.761-28.347-8.665-42.629-12.801-14.663-4.247-31.229-7.741-44.06-16.271-2.869-1.907-5.737-3.814-8.605-5.722-1.815-1.207-2.714-5.335-3.572-7.257-1.264-2.828-2.535-4.394-1.236-7.412,0.944-2.194,3.773-4.524,5.702-5.795,4.821-3.174,9.817-5.673,15.09-8.012,5.337-2.366,9.191-2.485,15.029-2.485-9.271,2.45-34.935,10.548-23.837,24.144,4.618,5.657,14.809,8.058,21.21,10.476,6.093,2.302,12.908,3.628,19.286,5.031,29.58,6.509,59.654,11.497,88.802,19.808,7.596,2.165,15.019,4.32,22.419,7.056,3.847,1.421,7.692,2.843,11.538,4.264,0.497,0.184,0.107,5.145,0.107,5.683,0,17.04,1.53,35.25-0.07,51.96"/>
<path d="M274.36,275.6c-10.061,0.018-20.122,0.036-30.183,0.054,0.896-3.666,1.793-7.331,2.689-10.997,0.596-2.434,3.055-7.699,2.183-10.15-1.532-4.305-3.064-8.608-4.597-12.913-1.182-3.319-2.892-4.469-5.596-6.877-6.505-5.794-11.311-9.38-19.079-13.183-6.904-3.381-13.324-6.127-20.597-8.585-14.088-4.761-28.347-8.665-42.629-12.801-14.663-4.247-31.229-7.741-44.06-16.271-2.869-1.907-5.737-3.814-8.605-5.722-1.815-1.207-2.714-5.335-3.572-7.257-1.264-2.828-2.535-4.394-1.236-7.412,0.944-2.194,3.773-4.524,5.702-5.795,4.821-3.174,9.817-5.673,15.09-8.012,5.337-2.366,9.191-2.485,15.029-2.485-9.271,2.45-34.935,10.548-23.837,24.144,4.618,5.657,14.809,8.058,21.21,10.476,6.093,2.302,12.908,3.628,19.286,5.031,29.58,6.509,59.654,11.497,88.802,19.808,7.596,2.165,15.019,4.32,22.419,7.056,3.847,1.421,7.692,2.843,11.538,4.264,0.497,0.184,0.107,5.145,0.107,5.683v52" stroke="#7B9580" stroke-linecap="square" stroke-miterlimit="10" stroke-width="0.5" fill="none"/>
<path fill="#315000" d="M108.41,148.27c2.071,0.995,9.822-1.038,5.7-3.925-2.72-1.9-5.43,2.2-5.7,3.93"/>
<path fill="#315717" d="M118.77,149.61c3.189-0.099,1.432-2.467,2.914-3.657,1.475-1.185,5.114-0.179,5.116,1.937,0.345-0.271,1.9-1.075,2.073-1.452,0.286-0.62-0.236-0.959-0.129-1.29,0.457-1.419-0.05-3.996,2.98-3.818-0.573,2.346,1.16,1.157,1.489,1.936,0.609,1.441,0.176,2.58,0.52,4.087,0.654,2.874,2.219,1.792-0.388,3.173,0.093-0.049-2.509,0.966-2.462,0.968-1.405-0.064-1.995-1.071-2.915-1.129-1.386-0.087-2.884,0.804-4.34,0.806-1.834,0.002-3.524-0.664-5.376-0.537-0.1-0.59,0.2-0.61,0.53-1.03"/>
<path d="M118.77,149.61c3.189-0.099,1.432-2.467,2.914-3.657,1.475-1.185,5.114-0.179,5.116,1.937,0.345-0.271,1.9-1.075,2.073-1.452,0.286-0.62-0.236-0.959-0.129-1.29,0.457-1.419-0.05-3.996,2.98-3.818-0.589,2.411,1.175,1.123,1.554,2.044,0.629,1.527,0.097,2.774,0.454,4.409,0.606,2.776,2.793,1.831-1.619,2.903-1.616,0.393-12.75,1.239-13.863-0.699" stroke="#315717" stroke-linecap="square" stroke-miterlimit="10" stroke-width="0.5" fill="none"/>
<path fill="#315717" d="M156.34,149.34c-2.823-0.51-1.763-2.932-2.463-4.57-1.826-4.271-2.98,0.501-4.145-1.183-1.205,0.535-1.611,1.824-1.425,3.172-0.203-0.272-2.227-2.11-2.268-2.258-0.33-1.176,0.773-1.571,0.647-2.688-0.111-0.995-0.351-2.819-1.036-3.603-2.285-2.61-1.998,0.057-2.657,1.505-0.094,0.206-1.076-0.072-1.359,0.592-0.53,1.243-0.389,2.491-0.389,3.871,0.001,1.385-0.59,4.062-0.583,4.786,0,0.045-0.937-0.159-0.647,0.646,0.547,1.52,1.198,0.408,2.397,1.075,0.839,0.467,1.655,1.458,2.915,1.452,1.235-0.006,0.919-1.573,1.878-1.667,0.972-0.096,2.512,0.871,3.498,1.075,1.69,0.34,7.31-0.15,5.62-2.22"/>
<path d="M156.34,149.34c-2.823-0.51-1.763-2.932-2.463-4.57-1.826-4.271-2.98,0.501-4.145-1.183-1.205,0.535-1.611,1.824-1.425,3.172-0.203-0.272-2.227-2.11-2.268-2.258-0.33-1.176,0.773-1.571,0.647-2.688-0.111-0.995-0.351-2.819-1.036-3.603-2.285-2.61-1.998,0.057-2.657,1.505-0.094,0.206-1.076-0.072-1.359,0.592-0.53,1.243-0.389,2.491-0.389,3.871,0.001,1.385-0.59,4.062-0.583,4.786,0,0.045-0.937-0.159-0.647,0.646,0.547,1.52,1.198,0.408,2.397,1.075,0.839,0.467,1.655,1.458,2.915,1.452,1.235-0.006,0.919-1.573,1.878-1.667,0.965-0.095,2.256,0.904,3.238,1.021,1.745,0.208,6.223-0.168,6.477-1.613" stroke="#315717" stroke-linecap="square" stroke-miterlimit="10" stroke-width="0.5" fill="none"/>
<path fill="#315717" d="M183.94,147.84c-2.075-0.813-0.51-2.108-1.749-3.28-1.146-1.084-3.178-0.379-3.173,1.721-2.071-1.39-1.029-8.409-3.5-4.355-0.421,0.691-1.698,5.266-1.553,5.7,0.73,2.18,2.673,0.99,4.016,1.128,1.742,0.179,4.186,0.049,6.347,0,0.08-0.48-0.18-0.53-0.4-0.91"/>
<path d="M183.94,147.84c-2.075-0.813-0.51-2.108-1.749-3.28-1.146-1.084-3.178-0.379-3.173,1.721-2.071-1.39-1.029-8.409-3.5-4.355-0.421,0.691-1.698,5.266-1.553,5.7,0.73,2.18,2.673,0.99,4.016,1.128,1.636,0.168,5.185,0.91,6.347-0.537" stroke="#315717" stroke-linecap="square" stroke-miterlimit="10" stroke-width="0.5" fill="none"/>
<path fill="#694F48" d="M110.42,149.51c2.192,0.201,9.349,1.881,10.233-1.613-2.92-0.01-8.64-0.63-10.23,1.61"/>
<path d="M274.81,275.6c0.017-69.146,0.034-138.29,0.051-207.44,0.006-22.356,0.011-44.712,0.017-67.068h-207.49c-4.084,0-65.994-0.369-65.994,0.336v80.52,133.77,46.755c0,2.111-1.423,13.125,1.12,13.125h219.28,53.084" stroke="#000" stroke-linecap="square" stroke-miterlimit="10" stroke-width="2" fill="none"/>
<path fill="#09BA95" d="M241.39,133.43v8.686c0,4.429,0.305,3.574,4.78,3.574,2.482,0,1.182-12.683,1.182-15.432-1.99,1.05-3.97,2.11-5.96,3.17"/>
<path fill="#09BA95" d="M249.1,130.1v9.839c0,3.437-1.352,5.754,2.346,5.754,4.422,0,3.614-0.192,3.614-4.518v-11.291c-1.99,0.07-3.98,0.14-5.96,0.22"/>
<path fill="#3D5900" d="M245.99,148.05c4.985,1.107,1.719-9.493,3.371-11.292,1.852-2.017,2.264,8.203,2.85,9.786-0.018-0.554,0.282-1.714,0.194-2.527,2.851-1.054,0.716-7.331,2.852-8.442,2.624-1.365,2.113,5.413,2.138,6.83,0.05-0.034,0.527-0.03,0.582,0,0-1.191-0.412-6.061,1.101-3.228,0.149-1.919-0.123-3.796,0.259-5.699,0.042-0.21,1.185-0.901,0.842-2.419,3.663,0.221,1.599,6.616,1.684,8.926,0.068-0.241,0.017-0.583,0.067-0.808-0.001-0.003,0.187,0.008,0.191,0-0.021,0.746,0.238,1.631,0.26,2.42,1.257,0.156,2.313,4.575,2.526,0.808,0.32,0.367,0.37,0.138,0.584,0.806-0.019-0.792,0.096-1.634,0-2.419,0.042,0.096,0.349,0.974,0.257,0.591-0.313-2.414,1.357-2.154,0.843-4.624,0.134,0.107,2.124,1.122,1.816,0.591,0.97,1.675-0.291,4.737-0.456,6.667,1.601,0.262,1.811-0.941,1.425-2.42,4.18,2.893,1.873,4.754,3.304,8.927-9.081,0.244-18.598,0.746-27.463-1.613,0.27-0.3,0.53-0.59,0.79-0.88"/>
<path fill="#3D8000" d="M273.91,151.23c-9.126,0.186-18.555,0.755-27.465-1.612,2.356-1.042,3.503-1.657,3.046-4.84,2.712,0.037-0.07-7.764,1.749-7.474,1.276,0.203,1.654,8.843,2.396,9.894-0.137-0.776,0.063-1.633,0-2.42,0.688,0.615,1.247,0.448,1.944,0.807,0-2.228-1.3-9.552,1.684-8.926-0.3,2.673,1.677,4.128,1.425,6.453,0.023-0.021,0.506-0.019,0.519,0,0-1.263-0.39-5.99,1.104-3.227,0.204-1.919-0.078-3.804,0.323-5.701,0.046-0.215,1.098-0.987,0.774-2.419,1.951,0.793,1.551,6.832,1.684,8.927,0.081-0.239,0.068-0.59,0.132-0.807h0.129c0.004,0.742,0.299,1.617,0.325,2.419,1.301,0.198,2.22,4.616,2.459,0.808,0.311,0.351,0.395,0.162,0.583,0.806-0.017-0.794,0.089-1.631,0-2.42,0.006,0.013,0.276,0.001,0.26,0.107-0.069,0.169,0.118,0.988,0,0.484-0.284-2.392,1.338-2.141,0.844-4.625,0.57,1.05,1.179,3.051,1.326,4.571,0.339,3.5,2.231,3.241,1.456,0.269,3.89,2.07,3.32,4.64,3.32,8.93"/>
<path d="M273.91,151.23c-9.126,0.186-18.555,0.755-27.465-1.612,2.356-1.042,3.503-1.657,3.046-4.84,2.712,0.037-0.07-7.764,1.749-7.474,1.276,0.203,1.654,8.843,2.396,9.894-0.137-0.776,0.063-1.633,0-2.42,0.688,0.615,1.247,0.448,1.944,0.807,0-2.228-1.3-9.552,1.684-8.926-0.3,2.673,1.677,4.128,1.425,6.453,0.023-0.021,0.506-0.019,0.519,0,0-1.263-0.39-5.99,1.104-3.227,0.204-1.919-0.078-3.804,0.323-5.701,0.046-0.215,1.098-0.987,0.774-2.419,1.951,0.793,1.551,6.832,1.684,8.927,0.081-0.239,0.068-0.59,0.132-0.807h0.129c0.004,0.742,0.299,1.617,0.325,2.419,1.301,0.198,2.22,4.616,2.459,0.808,0.311,0.351,0.395,0.162,0.583,0.806-0.017-0.794,0.089-1.631,0-2.42,0.006,0.013,0.276,0.001,0.26,0.107-0.069,0.169,0.118,0.988,0,0.484-0.284-2.392,1.338-2.141,0.844-4.625,0.57,1.05,1.179,3.051,1.326,4.571,0.339,3.5,2.231,3.241,1.456,0.269,3.89,2.07,3.32,4.64,3.32,8.93" stroke="#3D8000" stroke-linecap="square" stroke-miterlimit="10" stroke-width="0.5" fill="none"/>
</svg>
