<?xml version="1.0" encoding="UTF-8" standalone="no"?>
<svg xmlns:rdf="http://www.w3.org/1999/02/22-rdf-syntax-ns#" style="enable-background:new 0 0 129.143 128.634;" xmlns="http://www.w3.org/2000/svg" space="preserve" sodipodi:docname="casa verde.svg" viewBox="0 0 129.143 128.634" height="128.63" sodipodi:version="0.32" width="129.14" version="1.1" xmlns:cc="http://web.resource.org/cc/" xmlns:dc="http://purl.org/dc/elements/1.1/" sodipodi:docbase="F:\openclip\svg da inviare" xmlns:sodipodi="http://inkscape.sourceforge.net/DTD/sodipodi-0.dtd">
 <path fill="#00A33D" d="M118.88,82.416h-102.33c-5.645,0-4.979,0.422-5.298-5.48-0.555-10.285-1.11-20.57-1.665-30.856-0.298-5.529,3.482-6.924,7.698-10.557,8.835-7.612,17.833-15.081,27.262-21.951,5.172-3.769,10.674-7.941,16.739-10.167,3.634-1.333,5.623,0.418,8.696,2.37,12.306,7.813,24.112,16.46,35.951,24.952,4.639,3.328,9.27,6.668,13.889,10.024,2.667,1.937,2.312,1.901,2.029,5.329-0.98,12.111-1.98,24.224-2.97,36.336"/>
 <path fill="#006B33" d="M64.411,16.521c2.918,0.271,6.686,3.755,9.002,5.287,5.79,3.83,11.48,7.805,17.155,11.8,10.236,7.2,20.403,14.501,30.517,21.874,0.268-3.251,2.809-11.773,0.007-13.813-5.392-3.921-10.8-7.823-16.221-11.707-12.616-9.042-25.402-19.962-39.387-26.842-4.007-1.973-11.19,3.79-14.252,5.803-8.415,5.532-16.316,11.868-24.075,18.274-5.637,4.655-11.194,9.408-16.659,14.264-2.862,2.543-0.586,10.534-0.392,14.156,8.09-7.2,16.363-14.209,24.857-20.927,5.573-4.409,11.248-8.736,17.229-12.584,3.386-2.179,7.977-5.585,12.22-5.585"/>
 <path fill="#A85E14" d="M77.19,29.648c0,14.936-27.551,14.94-27.551,0,0-14.92,27.551-14.915,27.551,0"/>
 <path fill="#C68526" d="M75.547,29.648c0,13.144-24.262,13.144-24.262,0,0-13.127,24.262-13.126,24.262,0"/>
 <path fill="#8B5C29" d="M74.189,29.648c0,11.667-21.548,11.669-21.548,0,0.001-11.65,21.548-11.648,21.548,0"/>
 <radialGradient id="XMLID_28_" gradientUnits="userSpaceOnUse" cy="500" cx="-354.2" gradientTransform="matrix(7.1173 0 0 -7.1173 2584.3723 3595.6877)" r="1.6775">
  <stop stop-color="#00F6FF" offset="0"/>
  <stop stop-color="#00A3FF" offset="0.1708"/>
  <stop stop-color="#0081FF" offset="0.25"/>
  <stop stop-color="#0019B5" offset="0.5"/>
  <stop stop-color="#200061" offset="0.75"/>
  <stop stop-color="#000" offset="1"/>
 </radialGradient>
 <path fill="url(#XMLID_28_)" d="M62.691,30.585h-8.236c0.586,3.913,4.583,6.2,8.236,6.442v-6.442m1.283-0.709v7.167c3.703-0.192,7.806-2.482,8.4-6.457-2.14-0.001-7.639,0.886-8.4-0.71m-1.283-6.881c-3.861,0.254-6.497,2.489-8.209,5.583h7.173c2.058,0,1.036-3.857,1.036-5.583m1.283-0.724c0,0.905-0.324,6.307,0.285,6.307h8.089c-0.737-1.3-1.73-2.891-3.15-3.872-1.713-1.186-4.418-1.143-5.224-2.435"/>
 <linearGradient id="XMLID_31_" y2="511.37" gradientUnits="userSpaceOnUse" y1="511.37" gradientTransform="matrix(0 -15.2619 -15.2619 0 7876.8618 -3344.6609)" x2="-216.75" x1="-223.33">
  <stop stop-color="#FFB600" offset="0"/>
  <stop stop-color="#000" offset="1"/>
 </linearGradient>
 <path fill="url(#XMLID_31_)" d="M72.438,29.876"/>
 <linearGradient id="XMLID_33_" y2="512.55" gradientUnits="userSpaceOnUse" y1="512.55" gradientTransform="matrix(0 -15.2619 -15.2619 0 7876.8618 -3344.6609)" x2="-217.56" x1="-222.93">
  <stop stop-color="#FFB600" offset="0"/>
  <stop stop-color="#000" offset="1"/>
 </linearGradient>
 <path fill="url(#XMLID_33_)" d="M54.392,29.876"/>
 <path fill="#D59758" d="M71.44,24.333c0-4.644-16.586-4.272-16.586,0.452,0-1.346,5.022-2.682,5.807-2.808,5.141-0.822,0.665,5.356,2.626,5.356,1.984,0-2.313-6.143,2.711-5.407,0.66,0.094,5.442,1.199,5.442,2.407"/>
 <path fill="#D59758" d="M71.68,34.548c0,4.64-16.132,5.048-16.132,0.299,4.499,3.818,11.8,3.739,16.132-0.299"/>
 <path fill="#E4BC96" d="M62.679,28.738c0,0.251-8.201,0.251-8.201,0,0.001-0.25,8.201-0.25,8.201,0"/>
 <path fill="#E4BC96" d="M72.274,28.738c0,0.251-8.201,0.251-8.201,0,0-0.25,8.201-0.25,8.201,0"/>
 <path fill="#5A3D1C" d="M8.945,41.941c-1.044,4.152,1.663,41.147,2.549,41.147h49.5,55.761c0.219,0,2.737,0.104,2.75-0.062,0.266-3.247,0.534-6.493,0.8-9.74,0.814-9.898,1.628-19.797,2.439-29.696,0.221-2.684-3.451-4.07-5.489-5.548-5.863-4.252-11.742-8.481-17.642-12.683-10.839-7.718-21.687-16.451-33.5-22.655-3.253-1.708-7.256,0.924-10.106,2.523-6.781,3.807-13.051,8.561-19.182,13.324-9.574,7.441-18.87,15.279-27.885,23.39m55.474-38.552c2.719,0.306,6.177,3.526,8.346,4.964,6.311,4.184,12.512,8.532,18.701,12.896,6.827,4.814,13.624,9.678,20.398,14.568,4.354,3.143,9.772,4.688,9.313,10.289-0.854,10.395-1.709,20.79-2.563,31.187-0.486,5.913-1.632,4.439-7.396,4.439h-62.044-28.365-7.207c-2.009,0-1.444-0.686-1.556-2.734-0.519-9.656-1.038-19.311-1.559-28.965-0.131-2.433-0.261-4.865-0.393-7.295,2.035-1.818,4.088-3.615,6.151-5.401,8.198-7.103,16.539-14.063,25.189-20.608,5.76-4.355,15.194-13.34,22.993-13.34"/>
 <path fill="#00A33D" d="M120.92,122.73c0,6.242-10.286,4.512-14.15,4.512h-28.748-60.286c-6.521,0-10.295-0.35-10.275-8.264,0.024-8.599-0.044-17.22-0.573-25.803-0.288-4.653-3.435-14.27-1.087-18.637,4.426-8.239,14.976-16.008,22.229-21.557,9.917-7.584,19.47-13.581,31.711-7.903,10.542,4.892,20.084,12.553,28.631,20.356,3.439,3.143,9.959,3.95,14.298,4.982,6.051,1.438,12.422,2.333,18.288,4.448,4.621,1.666,1.337,16.483,1.164,20.402-0.4,9.152-0.8,18.312-1.2,27.462"/>
 <path fill="#006B33" d="M122.82,77.203c-10.637-2.228-25.192-1.898-33.801-9.243-9.564-8.161-20.238-16.76-32.152-21.14-12.28-4.512-23.563,4.771-32.831,11.952-4.512,3.498-8.88,7.191-13.104,11.033-1.072,0.977-2.025,1.933-3.017,3.004-3.151,3.396-2.588,4.16-2.078,8.609,7.096-7.871,15.799-14.653,24.673-20.373,11.724-7.558,20.725-9.515,33.411-3.04,9.021,4.604,17.495,10.626,25.259,17.118,3.533,2.955,10.207,3.586,14.521,4.517,6.257,1.354,12.831,2.149,18.912,4.197,0.07-2.212,0.14-4.422,0.21-6.634"/>
 <path fill="#FFF" d="M73.804,114.66c-15.038,0-29.956-2.825-44.911-4.043-6.605-0.539-13.232-0.613-19.756,0.71-3.226,0.655-1.702,5.713-1.702,8.554,0,6.732,3.489,7.364,8.996,7.364h22.182,58.214,17.663c7.682,0,6.578-7.605,6.877-13.522-15.85,0.43-31.713,0.94-47.566,0.94"/>
 <path fill="#FFF" d="M72.669,93.879c0-11.737-13.956-18.127-24.06-17.202-12.98,1.188-18.524,10.995-18.901,22.744-0.185,5.805-0.016,11.641-0.016,17.447v9.222c0,1.419,1.434,0.808,2.695,0.808h40.25c0.708,0,0.032-28.879,0.032-33.021"/>
 <path fill="#C68526" d="M50.836,106.3c0,0.704,0.088,6.454-1.529,6.454-2.258,0-2.258-12.906,0-12.906,1.617,0,1.529,5.746,1.529,6.456"/>
 <path fill="#006B33" d="M66.653,98.995c0-9.056-9.829-13.602-17.758-12.718-10.038,1.117-13.049,8.975-13.129,17.836-0.044,4.921,0,9.845,0,14.764,0,2.921-1.683,8.021,1.816,8.021h16.428c2.087,0,11.184,1.405,12.791,0,1.441-1.262,0-12.475,0-14.435,0.001-4.49-0.148-8.98-0.148-13.465"/>
 <linearGradient id="XMLID_35_" y2="465.84" gradientUnits="userSpaceOnUse" y1="465.84" gradientTransform="matrix(0 -119.3338 -119.3338 0 55641.2695 -28278.8828)" x2="-237.33" x1="-239.01">
  <stop stop-color="#FFFA5F" offset="0"/>
  <stop stop-color="#9F3300" offset="1"/>
 </linearGradient>
 <path fill="url(#XMLID_35_)" d="M64.313,101.5c0-8.649-9.619-13.367-17.235-11.133-7.539,2.212-8.949,9.034-8.949,15.908v13.583c0,2.227-1.367,7.042,1.364,7.042,2.292,0,24.947,0.105,24.947-0.106,0-8.43-0.127-16.87-0.127-25.29"/>
 <path fill="#A85E14" d="M62.457,105.08c0-6.848-6.643-12.185-13.334-10.95-7.14,1.314-8.999,8.114-9.121,14.343-0.052,2.698-0.989,18.425,0.897,18.425,2.05,0,21.666,0.12,21.666-0.122,0-7.24-0.108-14.48-0.108-21.7"/>
 <path fill="#C68526" d="M61.411,105.05c0-6.416-6.033-11.074-12.271-9.869-6.942,1.341-7.988,7.99-8.082,13.877-0.035,2.188-0.493,17.844,0.477,17.844,1.948,0,19.974,0.128,19.974-0.129,0-7.24-0.098-14.49-0.098-21.72"/>
 <path fill="#5A3D1C" d="M51.514,121.57c0,0.567,0.139,5.079-0.566,5.079-2.083,0-0.819-26.225-0.794-29.397,0.018-2.337,1.346,0.848,1.453,1.604,0.295,2.069,0.423,4.064,0.366,6.142-0.155,5.52-0.307,11.05-0.459,16.57"/>
 <path fill="#5E5D5D" d="M55.011,84.38c0,2.038-10.714,0.249-6.238-5.092,3.659-4.368,6.238,1.901,6.238,5.092"/>
 <path fill="#5E5D5D" d="M14.185,120.12c0,2.282-9.231-1.343-3.115-5.583,6.126-4.25,3.115,2.21,3.115,5.58"/>
 <path fill="#5E5D5D" d="M36.821,92.985c0,2.447-7.691-0.993-3.409-4.833,5.832-5.227,3.409,1.484,3.409,4.833"/>
 <path fill="#5E5D5D" d="M63.229,82.223c0.236,0.276-1.899,3.692-1.879,4.897,0.001,0.073-3.321-1.33-2.669-3.536,0.605-2.049,2.943-3.254,4.548-1.361"/>
 <path fill="#5E5D5D" d="M23.05,112.03c3.045,0.986,1.157,3.786,0.703,6.471-4.189-1.34-6.445-8.32-0.703-6.47"/>
 <path fill="#5E5D5D" d="M42.348,83.334c0.555-0.707,3.113,2.045,2.392,2.97-1.575,2.006-3.71-1.285-2.392-2.97"/>
 <path fill="#5E5D5D" d="M116.51,120.34c0.555-0.708,3.114,2.043,2.393,2.971-1.57,2.01-3.71-1.29-2.39-2.97"/>
 <path fill="#5E5D5D" d="M69.624,117.96c0.832-1.067,4.778,3.1,3.655,4.537-2.364,3.03-5.712-1.91-3.655-4.54"/>
 <path fill="#5E5D5D" d="M71.078,103.05c-0.553-0.709-3.112,2.043-2.392,2.968,1.573,2,3.717-1.29,2.392-2.97"/>
 <path fill="#5E5D5D" d="M85.919,124.73c0.071,0.164-6.67,1.465-7.42-0.25-0.941-2.17,6.408-2.1,7.42,0.25"/>
 <path fill="#5E5D5D" d="M28.418,124.13c-2.086,1.601-7.869-6.016-9.023-3.127-1.718,4.3,6.977,4.71,9.023,3.13"/>
 <path fill="#5E5D5D" d="M105.11,118.2c0.411,2.597-9.062,4.002-7.084,6.407,2.944,3.57,7.484-3.87,7.084-6.41"/>
 <path fill="#5E5D5D" d="M98.329,117.84c0.861,1.121-4.006,2.688-5.728,0.284-2.402-3.36,4.55-1.82,5.728-0.28"/>
 <path fill="#5E5D5D" d="M111.6,122.31c-1.038,1.062-3.285-2.869-2.17-4.014,0.96-0.98,1.82-2.656,3.248-3.039,2.41-0.64-0.34,6.29-1.08,7.05"/>
 <path fill="#5E5D5D" d="M71.377,95.266c0.18-0.328-7.931-4.287-6.41-7.061,1.302-2.374,8.399,3.437,6.41,7.061"/>
 <path fill="#5E5D5D" d="M86.95,119.86c0-0.339-8.021,0.117-8.021-2.994,0-2.98,8.021-0.94,8.021,2.99"/>
 <path fill="#5E5D5D" d="M34.532,118c0-0.27-6.792-0.29-6.792-3.215,0.001-3.08,6.792-0.24,6.792,3.22"/>
 <path fill="#5E5D5D" d="M30.6,102.51c0.108-0.068,2.36,2.99,3.843,2.047,1.857-1.18-2.198-3.09-3.843-2.05"/>
 <path fill="#C6C6C6" d="M116.91,125.23h-55.027-36.143c-3.983,0-17.798,2.237-17.798-4.509-1.107,8.494,12.873,6.012,17.798,6.012h38.94,38.938c4.926,0,18.907,2.482,17.801-6.012,0,2.46-2.04,4.51-4.51,4.51"/>
 <path fill="#A85E14" d="M49.645,113.67c0,2.419-3.565,2.419-3.565,0,0-2.42,3.565-2.42,3.565,0"/>
 <radialGradient id="XMLID_36_" gradientUnits="userSpaceOnUse" cy="564.03" cx="-568.76" gradientTransform="matrix(2.4823 0 0 -2.4823 1459.4445 1512.8722)" r="1.6322">
  <stop stop-color="#FFF59E" offset="0"/>
  <stop stop-color="#FF5900" offset="0.25"/>
  <stop stop-color="#B50000" offset="0.5"/>
  <stop stop-color="#610000" offset="0.75"/>
  <stop stop-color="#000" offset="1"/>
 </radialGradient>
 <path fill="url(#XMLID_36_)" d="M49.645,111.55c0,2.417-3.565,2.416-3.565,0,0-2.42,3.565-2.42,3.565,0"/>
 <path fill="#A85E14" d="M56.014,113.67c0,2.419-3.565,2.419-3.565,0,0-2.42,3.565-2.42,3.565,0"/>
 <radialGradient id="XMLID_37_" gradientUnits="userSpaceOnUse" cy="564.02" cx="-567.73" gradientTransform="matrix(2.4823 0 0 -2.4823 1463.2433 1512.8722)" r="1.6338">
  <stop stop-color="#FFF59E" offset="0"/>
  <stop stop-color="#FF5900" offset="0.25"/>
  <stop stop-color="#B50000" offset="0.5"/>
  <stop stop-color="#610000" offset="0.75"/>
  <stop stop-color="#000" offset="1"/>
 </radialGradient>
 <path fill="url(#XMLID_37_)" d="M56.014,111.55c0,2.417-3.565,2.417-3.565,0s3.565-2.42,3.565,0"/>
 <path fill="#A85E14" d="M111.8,108.52c0,3.025-20.145,0.854-22.932,0.762-5.048-0.164-5.321-13.73-6.173-17.863-0.901-4.38,28.563-7.317,31.653-3.498,1.399,1.729-0.626,7.623-0.902,9.493-0.55,3.698-1.1,7.408-1.65,11.108"/>
 <path fill="#C68526" d="M110.49,107.51c0,2.729-17.199,0.794-19.53,0.718-2.497-0.082-3.347-0.037-3.888-2.663-0.869-4.22-1.74-8.44-2.609-12.662-1.14-5.532,23.999-7.126,27.537-4.328,2.26-0.008-1.19,16.77-1.51,18.93"/>
 <path fill="#8B5C29" d="M109.38,106.65c0,2.485-15.996,0.706-18.187,0.634-4.897-0.164-4.672-10.359-5.486-14.331-0.868-4.224,22.372-5.845,25.046-3.444,2.04,0.002-1.09,15.185-1.37,17.145"/>
 <radialGradient id="XMLID_38_" gradientUnits="userSpaceOnUse" cy="485.35" cx="-317.29" gradientTransform="matrix(10.3755 0 0 -10.0185 3389.781 4968.8652)" r="1.6847">
  <stop stop-color="#00F6FF" offset="0"/>
  <stop stop-color="#00A3FF" offset="0.1708"/>
  <stop stop-color="#0081FF" offset="0.25"/>
  <stop stop-color="#0019B5" offset="0.5"/>
  <stop stop-color="#200061" offset="0.75"/>
  <stop stop-color="#000" offset="1"/>
 </radialGradient>
 <path fill="url(#XMLID_38_)" d="M97.576,91.997c-2.476,0.161-8.557,2.187-9.868,1.507,0.927,4.343,0.89,3.819,5.342,3.819,5.28,0,4.526-0.064,4.526-5.326"/>
 <radialGradient id="XMLID_39_" gradientUnits="userSpaceOnUse" cy="485.34" cx="-317.32" gradientTransform="matrix(10.3758 0 0 -10.0188 3389.8 4968.9702)" r="1.6968">
  <stop stop-color="#00F6FF" offset="0"/>
  <stop stop-color="#00A3FF" offset="0.1708"/>
  <stop stop-color="#0081FF" offset="0.25"/>
  <stop stop-color="#0019B5" offset="0.5"/>
  <stop stop-color="#200061" offset="0.75"/>
  <stop stop-color="#000" offset="1"/>
 </radialGradient>
 <path fill="url(#XMLID_39_)" d="M99.749,90.82c0,4.401-1.529,6.593,3.181,6.593,5.869,0,5.76,0.64,6.657-5.176-0.86,0.342-9.838,0.562-9.841-1.417"/>
 <radialGradient id="XMLID_40_" gradientUnits="userSpaceOnUse" cy="485.26" cx="-317.21" gradientTransform="matrix(10.3811 0 0 -10.024 3390.9412 4970.7876)" r="1.73">
  <stop stop-color="#00F6FF" offset="0"/>
  <stop stop-color="#00A3FF" offset="0.1708"/>
  <stop stop-color="#0081FF" offset="0.25"/>
  <stop stop-color="#0019B5" offset="0.5"/>
  <stop stop-color="#200061" offset="0.75"/>
  <stop stop-color="#000" offset="1"/>
 </radialGradient>
 <path fill="url(#XMLID_40_)" d="M88.915,99.148c0.203,0.953,0.631,6.413,1.992,6.413,1.121,0.809,5.221,0.165,6.669,0.211,0-1.755,1.029-5.521-1.063-5.521-2.25,0-6.842,1.09-7.598-1.102"/>
 <radialGradient id="XMLID_41_" gradientUnits="userSpaceOnUse" cy="485.37" cx="-317.26" gradientTransform="matrix(10.3772 0 0 -10.0202 3389.637 4969.7314)" r="1.6956">
  <stop stop-color="#00F6FF" offset="0"/>
  <stop stop-color="#00A3FF" offset="0.1708"/>
  <stop stop-color="#0081FF" offset="0.25"/>
  <stop stop-color="#0019B5" offset="0.5"/>
  <stop stop-color="#200061" offset="0.75"/>
  <stop stop-color="#000" offset="1"/>
 </radialGradient>
 <path fill="url(#XMLID_41_)" d="M99.749,99.238c0,4.737-1.474,6.562,3.522,6.723,4.896,0.157,4.351-0.94,5.071-5.605-2.14,0-8.486,1.15-8.591-1.122"/>
 <linearGradient id="XMLID_45_" y2="474.82" gradientUnits="userSpaceOnUse" y1="474.82" gradientTransform="matrix(0 -49.8209 -49.8209 0 23764.4336 -11613.418)" x2="-233.93" x1="-235.63">
  <stop stop-color="#FFB600" offset="0"/>
  <stop stop-color="#000" offset="1"/>
 </linearGradient>
 <path fill="url(#XMLID_45_)" d="M108.52,99.238c-0.058,0.372-0.117,0.745-0.174,1.117,0.01-0.11,0.15-1.006,0.17-1.122"/>
 <path fill="#E4BC96" d="M99.005,89.372c-4.415,0.19-8.498,1.161-12.736,2.265,3.818-0.987,7.824-1.643,11.775-1.643-0.192,0.544,0.312,5.774,0.68,5.774,0.382,0,1.051-5.284,0.849-5.832,3.931,0,7.95-0.196,11.803,0.737,0-1.656-11.443-1.34-12.375-1.301"/>
 <path fill="#E4BC96" d="M99.657,106.04c-0.129-0.096,8.237,1.229,8.237,0.294,0.01-0.32-7.85-0.28-8.233-0.29m-2.037,0.6c0.13,0.094-8.236-1.23-8.236-0.297,0,0.33,7.858,0.3,8.236,0.3"/>
 <path fill="#E4BC96" d="M97.535,97.735c0,0.521-9.008,0.522-9.008,0,0-0.521,9.008-0.52,9.008,0"/>
 <path fill="#E4BC96" d="M108.74,97.735c0,0.522-9.009,0.521-9.009,0,0.003-0.52,9.009-0.521,9.009,0"/>
 <path fill="#5A3D1C" d="M12.967,65.148c-2.77,3-7.062,6.244-8.256,10.217-1.094,3.637,0.832,9.396,1.141,13.071,0.653,7.765,0.833,15.565,0.904,23.354,0.035,3.748-0.953,8.919,0.265,12.576,1.497,4.495,7.037,3.553,10.708,3.553h20.884,53.564c5.071,0,29.246,3.545,29.413-5.159,0.55-12.557,1.1-25.113,1.651-37.67,0.102-2.345,1.809-8.988-0.894-10.365-9.925-5.057-22.446-3.649-32.363-9.015-5.236-2.833-9.73-8.206-14.54-11.752-7.048-5.195-15.719-11.554-24.747-12.312-13.593-1.139-28.868,14.7-37.733,23.502m-4.854,57.582c0.177-14.918-0.054-29.918-2.012-44.727-0.796-6.021,9.392-13.533,13.808-17.428,7.592-6.699,19.66-18.523,30.716-17.574,11.657,1.005,23.063,10.962,31.684,18.099,2.216,1.834,4.339,4.299,6.872,5.707,7.802,4.338,17.851,5.191,26.416,7.268,4.041,0.98,6.74,0.618,6.558,4.758-0.202,4.638-0.405,9.276-0.609,13.913-0.417,9.565-0.836,19.129-1.254,28.694-0.262,5.989-5.234,5.121-9.672,5.121h-60.288-28.749c-3.335,0-13.48,1.69-13.48-3.83"/>
 <path fill="#5E5D5D" d="M12.074,69.736c7.364-6.562,15.375-12.775,24.063-17.479,12.348-6.687,21.998-3.407,33.542,3.521,7.317,4.391,14.157,12.103,22.065,15.201,10.288,4.029,21.811,5.024,32.422,8.008,5.394,1.516,5.506-3.617,0.954-4.792-5.623-1.453-11.442-2.204-17.138-3.322-9.492-1.866-15.63-3.814-22.707-10.002-8.983-7.852-19.425-16.965-31.123-20.307-10.826-3.091-22.18,6.624-30.116,12.774-5.068,3.929-10.16,8.037-14.74,12.543-1.41,1.524-11.1,10.084-9,12.742,2.163,2.738,10.53-7.636,11.78-8.887"/>
 <path fill="#494848" d="M123.8,76.775c-10.463-5.205-24.701-2.415-34.562-9.134-9.191-5.647-16.865-13.104-26.759-17.886-13.905-6.719-24.064-1.92-36.054,6.518-4.665,3.283-9.157,6.829-13.455,10.579-1.747,1.523-9.965,12.172-12.544,9.807-1.487,3.404,2.418,2.175,3.988,1.114,1.954-2.997,5.081-5.726,7.721-8.089,3.733-3.344,7.669-6.479,11.702-9.45,6.204-4.573,12.998-9.31,20.474-11.51,6.826-2.009,13.553,0.753,19.614,3.846,6.869,3.505,13.293,7.891,19.439,12.531,3.11,2.348,5.744,4.981,9.473,6.278,7.317,2.543,15.131,3.672,22.687,5.268,0.806,0.17,16.963,4.465,12.996-0.537-1.06,1.401-3.28,1.201-4.72,0.665"/>
 <path fill="#5E5D5D" d="M64.308,8.936c2.159,0.18,4.773,2.336,6.551,3.4,4.775,2.859,9.456,5.878,14.124,8.907,10.349,6.712,20.599,13.576,30.838,20.454,2.824,1.896,5.598,3.933,8.508,5.695,5.096,3.086,4.641-2.995,1.536-5.246-5.753-4.171-11.526-8.317-17.311-12.446-9.349-6.67-18.715-13.308-28.202-19.772-3.524-2.402-11.888-10.371-16.555-9.909-8.36,0.826-17.274,9.131-23.613,13.958-9.216,7.013-18.082,14.491-26.79,22.122-2.86,2.507-7.081,5.116-8.684,8.724-2.357,5.305,3.841,1.991,5.454,0.667,3.072-2.523,6.145-5.043,9.241-7.535,7.931-6.385,15.968-12.665,24.343-18.459,5.439-3.763,13.498-10.56,20.554-10.56"/>
 <path fill="#494848" d="M124.02,43.849c-17.89-11.911-35.487-24.427-54-35.366-1.694-1.001-4.231-3.083-6.339-2.866-4.395,0.449-8.747,3.35-12.409,5.592-11.222,6.879-21.624,15.15-31.862,23.393-3.522,2.835-7.011,5.708-10.508,8.574-1.732,1.417-4.597,0.648-4.597,3.176,0,2.983,3.44,1.125,4.597,0.176,8.85-7.248,17.707-14.486,26.894-21.309,7.547-5.608,18.055-15.245,27.884-16.25,2.107-0.216,4.645,1.865,6.339,2.867,4.646,2.746,9.188,5.669,13.72,8.601,10.079,6.518,20.059,13.189,30.024,19.877,3.258,2.188,6.511,4.383,9.775,6.562,0.984,0.657,3.173,2.313,4.359,1.464,3.15-2.258-3.05-3.848-3.88-4.491"/>
</svg>
