<?xml version="1.0" encoding="UTF-8" standalone="no"?>
<svg xmlns:rdf="http://www.w3.org/1999/02/22-rdf-syntax-ns#" style="enable-background:new 0 0 115.018 135.376;" xmlns="http://www.w3.org/2000/svg" space="preserve" sodipodi:docname="coccinella.svg" viewBox="0 0 115.018 135.376" height="135.38" sodipodi:version="0.32" width="115.02" version="1.1" xmlns:cc="http://web.resource.org/cc/" xmlns:dc="http://purl.org/dc/elements/1.1/" sodipodi:docbase="F:\openclip\svg da inviare" xmlns:sodipodi="http://inkscape.sourceforge.net/DTD/sodipodi-0.dtd">
 <defs>
  <radialGradient id="XMLID_3_" gradientUnits="userSpaceOnUse" cy="100.58" cx="47.869" r="67.965">
   <stop stop-color="#D8554C" offset="0"/>
   <stop stop-color="#A10000" offset="1"/>
  </radialGradient>
  <radialGradient id="XMLID_4_" gradientUnits="userSpaceOnUse" cy="26.084" cx="57.637" r="18.771">
   <stop stop-color="#8F8F8F" offset="0"/>
   <stop stop-color="#141414" offset="1"/>
  </radialGradient>
 </defs>
 <sodipodi:namedview bordercolor="#666666" pagecolor="#ffffff" borderopacity="1.0"/>
 <path fill="#494848" d="M40.721,47.768c-0.973,1.073-5.266-0.637-6.25-0.986-4.654-1.656-8.835-4.957-11.471-9.684-3.114-5.588-6.216-10.073-10.912-14.106-0.437-0.375-7.283-5.956-7.327-5.905,0.885-1.005,8.012,3.924,8.837,4.444,4.346,2.738,7.735,5.918,11.182,9.898,1.313,1.516,16.138,16.107,15.941,16.339"/>
 <path fill="#494848" d="M78.897,47.768c0.974,1.073,5.266-0.637,6.251-0.986,4.654-1.656,8.835-4.957,11.47-9.684,3.115-5.586,6.202-10.073,10.902-14.106,0.43-0.373,7.3-5.947,7.34-5.905-0.89-1.005-8.02,3.926-8.84,4.444-4.35,2.738-7.732,5.918-11.183,9.898-1.311,1.514-16.113,16.142-15.94,16.339"/>
 <path fill="#494848" d="M25.681,85.439c-0.202,0.102-1.827,5.689-2.09,6.378-1.897,4.953-3.789,9.973-5.012,15.203-1.173,5.03,0.853,9.24,0.03,13.88-0.258,1.45-6.773,11.28-7.151,10.23-0.289-0.8,3.588-7.61,3.586-9.6-0.007-5.62-2.532-9.7-1.23-15.65,1.359-6.215,6.228-17.605,11.867-20.441"/>
 <path fill="#494848" d="M89.49,85.726c0.2,0.102,1.826,5.688,2.091,6.377,1.896,4.955,3.788,9.977,5.011,15.207,1.174,5.03-0.851,9.24-0.028,13.88,0.255,1.45,6.776,11.27,7.146,10.23,0.29-0.8-3.58-7.61-3.58-9.61,0.01-5.61,2.53-9.69,1.23-15.64-1.363-6.218-6.233-17.608-11.87-20.444"/>
 <path fill="#494848" d="M12.216,64.718c-1.553,1.664-3.788,3.621-4.966,5.625-2.716,3.006-0.37,9.44-0.513,13.258-0.133,3.533-1.742,6.986-3.2,10.021-0.636,1.322-3.879,5.763-3.509,7.358,0.118,0.51,4.279-3.97,4.508-4.251,2.703-3.335,5.474-7.213,6.765-11.572,0.578-1.948,0.463-3.573,0.149-5.581-0.192-1.239-0.43-2.469-0.71-3.686,1.893-1.363,3.75-2.791,5.543-4.319,3.472-2.954,6.942-6.335,9.243-10.581,0.904-1.67,3.622-9.024,1.37-10.903-1.916-1.597-13.093,12.917-14.68,14.631"/>
 <path fill="#494848" d="M102.82,64.718c1.54,1.681,3.77,3.617,4.95,5.625,2.72,2.968,0.38,9.469,0.52,13.258,0.13,3.533,1.74,6.984,3.19,10.021,0.64,1.322,3.88,5.766,3.51,7.358-0.12,0.51-4.27-3.97-4.51-4.251-2.7-3.336-5.46-7.213-6.75-11.572-0.58-1.948-0.46-3.571-0.15-5.581,0.18-1.241,0.42-2.469,0.7-3.686-1.9-1.363-3.76-2.791-5.549-4.319-3.471-2.954-6.941-6.335-9.242-10.581-0.904-1.67-3.621-9.024-1.37-10.903,1.917-1.595,13.111,12.921,14.701,14.631"/>
 <path fill="url(#XMLID_3_)" d="M102.11,82.164c0,27.806-19.62,52.366-44.479,52.366-24.857,0-44.482-24.56-44.482-52.366,0-27.813,19.618-52.38,44.482-52.38,24.867,0,44.479,24.569,44.479,52.38"/>
 <path fill="#b20d0d" d="M12.406,82.164c0,28.236,19.99,53.216,45.224,53.216,25.241,0,45.24-24.97,45.24-53.216,0-28.251-19.993-53.228-45.24-53.228-25.241,0.001-45.224,24.985-45.224,53.228m1.501,0c0-27.313,19.297-51.517,43.723-51.517,24.431,0,43.74,24.194,43.74,51.517,0,27.316-19.316,51.496-43.74,51.496-24.417,0-43.723-24.19-43.723-51.496"/>
 <path fill="#b20d0d" d="M25.624,76.077c3.416-8.237,10.164-15.37,17.559-18.783,8.97-4.14,14.292,0.354,21.973,4.998,6.098,3.685,12.85,5.873,18.755,9.974,7.286,5.063,11.192,13.195,12.83,22.581,8.379-31.909-14.379-66.358-44.241-61.96-13.254,1.953-24.883,11.681-30.985,25.142-3.164,6.978-4.794,14.793-4.794,22.641-0.001,8.54,7.98-2.37,8.903-4.593"/>
 <path fill="#383838" d="M40.328,54.903c0,10.377-15.395,10.382-15.395,0,0-10.384,15.395-10.379,15.395,0"/>
 <path fill="#383838" d="M98.018,82.188c0,12.064-17.913,12.064-17.913,0,0-12.067,17.913-12.067,17.913,0"/>
 <path fill="#383838" d="M53.006,82.157c0,5.148-7.642,5.148-7.642,0s7.642-5.148,7.642,0"/>
 <path fill="#383838" d="M84.622,49.787c0,4.907-7.28,4.912-7.28,0-0.001-4.893,7.28-4.889,7.28,0"/>
 <path fill="#f28366" d="M31.282,111.15c-2.888,0-0.703,5.36,0.05,6.57,1.604,2.59,4,4.5,6.397,6.02,5.553,3.55,12.141,5.78,18.507,6.1v-0.8c0-1.57-8.045-2.33-10-3.1-3.707-1.45-7.337-3.78-9.831-7.3,5.828,4.02,12.896,5.6,19.634,5.78-0.201-5.06,0.417-4.79-3.796-5.25-2.798-0.3-5.529-1.16-8.162-2.25-3.843-1.6-8.63-5.77-12.799-5.77m54.886-15.477c-5.272,0-10.705,7.047-13.893,11.007-2.503,3.12-4.604,6.63-7.694,9.06-1.499,1.18-3.146,2.09-4.892,2.69-0.079,1.98-0.155,3.97-0.235,5.95,6.412-0.31,13.086-1.92,18.631-5.74-2.04,2.83-4.768,4.89-7.69,6.35-1.68,0.84-3.434,1.49-5.22,1.96-1.271,0.34-2.555,0.59-3.852,0.75-1.646-0.6-2.335-0.15-2.069,1.36,0.002,0-0.002-1.15,0-1.16-0.126,0.58-0.014,1.33,0,1.93,9.513-0.43,19.25-4.8,24.509-14.27,1.254-2.25,9.236-19.887,2.405-19.887"/>
 <path fill="#383838" d="M41.085,106.01c0,10.37-15.407,10.37-15.407,0,0-10.384,15.407-10.384,15.407,0"/>
 <path fill="#383838" d="M75.553,111.69c0,6.13-9.11,6.13-9.11,0,0-6.14,9.11-6.14,9.11,0"/>
 <path fill="#fde7dd" d="M36.405,118.64c4.622,6.52,12.716,9.07,19.779,9.31-0.135-3.15,0.75-3.4-2.459-3.65-2.203-0.18-4.397-0.51-6.56-1.03-3.754-0.91-7.466-2.36-10.76-4.63m41.68,0c-3.138,2.16-6.66,3.58-10.23,4.5-2.044,0.52-4.121,0.87-6.211,1.08-3.066,0.3-2.206,0.65-2.334,3.68,6.754-0.44,14.364-3.04,18.775-9.26"/>
 <path fill="#ce6565" d="M24.936,54.677c-1.986,4.113-3.124,8.731-3.21,13.432,1.531-2.777,3.318-5.372,5.313-7.739-1.342-1.463-2.187-3.553-2.103-5.693m14.627-15.253c-3.726,2.05-7.172,4.797-10.043,8.202,3.276-1.492,7.346-0.453,9.493,2.831,3.798-2.087,7.874-3.499,12.049-4.174,7.602-1.229,2.758-1.344-1.804-2.418-3.402-0.799-6.851-2.118-9.695-4.441"/>
 <path fill="#818181" d="M32.631,46.95c-5.461,0-10.023,8.59-5.593,13.42,3.438-4.073,7.505-7.456,11.973-9.914-1.48-2.264-3.927-3.506-6.38-3.506"/>
 <path fill="#ce6565" d="M75.683,39.444c-4.475,3.633-10.333,4.971-15.718,5.295,0.128,2.082,6.41,2.19,8.374,2.787,3.313,1.007,6.526,2.442,9.559,4.263-2.463-4.045,2.954-7.423,5.652-4.65,2.57,2.64,0.049,6.753-2.985,6.382,5.103,3.582,9.643,8.337,12.916,14.08-0.437-12.539-8.194-22.859-17.798-28.157"/>
 <path fill="#818181" d="M80.98,46.042c-4.692,0-4.483,7.504,0,7.504,4.636,0.001,4.639-7.504,0-7.504"/>
 <path fill="#b20d0d" d="M59.254,131.49c0,3.18-3.018,0.61-3.018-1.65v-8.74-30.343-57.124c0-1.396,0.216-5.513,2.576-3.143,0.883,0.884,0.442,3.602,0.442,4.683v24.865,63.652,7.8"/>
 <path fill="#e05757" d="M55.114,56.048c0,4.085,0.052,63.262,1.122,63.142v-31.368c0-3.923,2.097-30.776-1.122-31.774"/>
 <path fill="#c24040" d="M56.236,45.818c-1.281,0.025-2.03,9.804,0,10.634v-10.634"/>
 <path fill="#f58b5f" d="M56.184,127.94c0.017,0.38,0.035,0.75,0.052,1.12,0.006-0.1,0.051-1.12-0.052-1.12m0.052-8.75c-0.917,0.1-0.234,4.31-0.197,5.23,0.412,0.01,0.197-4.49,0.197-5.23"/>
 <path fill="#f9b699" d="M56.039,124.42c0.047,1.17,0.095,2.35,0.145,3.52-0.047,0,0.37-3.51-0.145-3.52"/>
 <path fill="#d88686" d="M55.526,44.751c-0.022,0.363-0.045,0.728-0.067,1.09,1.087-0.041,1.155-1.028,0.067-1.09"/>
 <path fill="#c24040" d="M56.236,44.785v84.125-84.125"/>
 <path fill="#e05757" d="M59.254,58.139v60.431c2.036-0.63,1.123-26.715,1.123-31.239v-19.306c0-2.772,1.148-8.254-1.123-9.886"/>
 <path fill="#c24040" d="M59.254,45.882c0,3.393-1.415,11.14,1.123,13.125,0-2.076,0.566-13.028-1.123-13.125"/>
 <path fill="#f58b5f" d="M59.31,127.9c-0.106,0-0.062,1.06-0.055,1.16,0.017-0.39,0.037-0.78,0.055-1.16m0.38-9.47c-0.947,0.33-0.415,5.96-0.235,5.95,0.08-1.98,0.156-3.97,0.235-5.95"/>
 <path fill="#f9b699" d="M59.455,124.38c-0.519,0.02-0.102,3.52-0.145,3.52,0.049-1.17,0.098-2.35,0.145-3.52"/>
 <path fill="#d88686" d="M59.965,44.74c-1.121,0.064-1,1.109,0.073,1.197-0.025-0.4-0.048-0.797-0.073-1.197"/>
 <path fill="#ae1010" d="M40.271,34.883c-1.098,0.562-2.174,1.175-3.227,1.839,1.732,2.573,2.796,0.483,4.96-0.572-0.579-0.423-1.155-0.844-1.733-1.267"/>
 <path fill="#8f0505" d="M39.593,34.292c-1.014,0.532-2.009,1.104-2.986,1.717,0.799,1.44,2.584-0.575,3.663-1.126-0.226-0.198-0.45-0.393-0.677-0.591"/>
 <path fill="#8f0505" d="M42.004,36.15c-1.276,0.622-2.52,1.317-3.733,2.085,1.879,1.965,3.614-0.063,5.793-0.901-0.686-0.395-1.373-0.79-2.06-1.184"/>
 <path fill="#a62828" d="M44.064,37.334c-1.536,0.59-3.042,1.288-4.502,2.09,4.532,3.699,10.502,5.032,15.964,5.328,0.309-5.051,0.211-4.167-3.993-4.949-2.561-0.477-5.093-1.266-7.469-2.469"/>
 <path fill="#8f0505" d="M59.254,40.317c-1.006,0.049-2.012,0.052-3.018,0.01,0,2.259-0.895,4.482,1.394,4.482,2.562,0,1.624-1.959,1.624-4.492"/>
 <path fill="#ae3535" d="M55.805,40.307c-0.08,1.257-1.067,4.414,0.432,4.478-0.001-0.986,0.481-4.424-0.432-4.478"/>
 <path fill="#9c1919" d="M56.236,40.327v4.458-4.458"/>
 <path fill="#ae1010" d="M75.001,34.884c-0.579,0.423-1.159,0.846-1.737,1.27,2.166,1.057,3.229,3.147,4.964,0.57-1.054-0.666-2.129-1.278-3.227-1.84"/>
 <path fill="#8f0505" d="M75.679,34.294c-0.226,0.197-0.452,0.393-0.678,0.59,1.087,0.556,2.859,2.563,3.667,1.125-0.978-0.612-1.974-1.183-2.989-1.715"/>
 <path fill="#8f0505" d="M73.264,36.153c-0.693,0.398-1.387,0.796-2.082,1.194,2.203,0.849,3.91,2.876,5.814,0.891-1.212-0.767-2.456-1.463-3.732-2.085"/>
 <path fill="#a62828" d="M71.182,37.347c-2.33,1.174-4.808,1.953-7.318,2.43-4.156,0.791-4.207-0.03-3.898,4.963,5.385-0.324,11.243-1.662,15.718-5.295-1.463-0.805-2.965-1.506-4.502-2.098"/>
 <path fill="#ae3535" d="M59.688,40.293c-0.915,0.054-0.433,3.499-0.433,4.481,1.498-0.063,0.51-3.225,0.433-4.481"/>
 <path fill="url(#XMLID_4_)" d="M79.695,26.085c0,19.691-44.115,19.694-44.115,0,0-19.697,44.115-19.694,44.115,0"/>
 <path fill="#383838" d="M57.634,35.456c-6.219,0-13.261-1.274-18.377-5.613,6.911,11.38,29.843,11.38,36.755,0-5.115,4.339-12.158,5.613-18.378,5.613"/>
 <path fill="#383838" d="M53.734,19.66c0,5.308-11.526,5.301-11.526,0s11.526-5.307,11.526,0"/>
 <path fill="#383838" d="M73.054,19.66c0,5.302-11.527,5.302-11.527,0s11.527-5.303,11.527,0"/>
 <path fill="#8c8b8b" d="M57.998,13.449c-4.81,0-18.519,1.246-18.602,9.507,1.952-2.642,3.579-6.249,6.763-6.954,3.545-0.788,8.172-0.411,11.839-0.411,7.941,0,13.446-0.11,18.601,7.365-0.064-8.261-13.805-9.507-18.601-9.507"/>
 <path fill="#818181" d="M47.971,15.807c-1.918,0-5.735,0.87-5.762,3.827,2.277-2.13,5.128-3.06,7.999-3.528-0.746-0.1-1.491-0.199-2.237-0.299"/>
 <path fill="#818181" d="M67.291,15.807c-0.689,0.085-1.379,0.17-2.067,0.256,2.693,0.415,5.437,1.177,7.735,2.896-0.68-2.463-3.769-3.152-5.668-3.152"/>
 <path fill="#494848" d="M42.237,8.63c0-4.646-4.892-2.732-7.336-3.563-0.957-0.326-7.188-4.109-7.188-5.067,0,2.17,3.799,5.6,5.108,6.742,0.888,0.776,2.029,1.65,3.206,1.65,3.439,0,2.944,0.686,4.721,4.137,1.356,2.637,3.121,5.634,5.675,6.919,0.218,0.109,3.289,0.999,3.311,0.33,0.127-4.01-7.497-6.921-7.497-11.148"/>
 <path fill="#494848" d="M72.976,8.63c0-4.646,4.892-2.732,7.337-3.563,0.956-0.326,7.187-4.109,7.187-5.067,0,2.17-3.799,5.6-5.109,6.742-0.888,0.776-2.027,1.65-3.205,1.65-3.438,0-2.945,0.686-4.722,4.137-1.355,2.637-3.12,5.634-5.675,6.919-0.216,0.109-3.287,0.999-3.311,0.33-0.127-4.01,7.498-6.921,7.498-11.148"/>
</svg>
