<?xml version="1.0" encoding="UTF-8" standalone="no"?>
<svg xmlns:rdf="http://www.w3.org/1999/02/22-rdf-syntax-ns#" style="enable-background:new 0 0 381.584 408.239;" xmlns="http://www.w3.org/2000/svg" space="preserve" sodipodi:docname="Orso01.svg" viewBox="0 0 381.584 408.239" height="408.24" sodipodi:version="0.32" width="381.58" version="1.1" xmlns:cc="http://web.resource.org/cc/" xmlns:dc="http://purl.org/dc/elements/1.1/" sodipodi:docbase="F:\openclip\svg da inviare" xmlns:sodipodi="http://inkscape.sourceforge.net/DTD/sodipodi-0.dtd">
 <path fill-rule="evenodd" fill="#815b35" d="M30.156,305.14c0.037-0.55,0.057-1.1,0.066-1.65-0.597,0.94-0.889,1.74-0.066,1.65zm-29.999-94.5c0.542-0.82,1.083-1.63,1.624-2.44-0.9,0.74-1.465,1.55-1.624,2.44zm381.42,23.62c0.13-9.61-2.59-18.4-2.25-28.07h0.11c-0.04-0.05-0.07-0.1-0.11-0.15,0.03-0.61,0.06-1.23,0.11-1.85h-1.19c-1.4-2.98-1.46-6.11-3.1-8.74l2.15,2.15c-0.72-17.93-7.47-32.84-12.86-47.25,1.43,0.71,2.86,1.43,4.28,2.15-3.99-7.29-9.73-13.02-10.71-21.48,0.72,0.71,1.43,1.43,2.15,2.15-0.76-6.24-2.15-11.73-4.29-17.19,1.43,1.44,2.86,2.87,4.29,4.3-0.87-6.07-4.03-11.75-8.58-15.04-0.39-6.313-4.26-7.144-2.14-15.033,1.59-5.915,9.23-12.212,12.86-17.182-1.43,1.432-2.86,2.864-4.29,4.295,1.73-7.95,6.19-14.692,10.71-21.478-1.42,0.716-2.85,1.432-4.28,2.147,2.42-14.838,2.38-26.291-4.28-38.662-19.21-27.314-44.37-8.675-75,2.148,0.71-1.432,1.43-2.863,2.14-4.295h-6.43c0.71-0.716,1.43-1.432,2.14-2.147-14.23-4.123-37.45-4.596-51.42,0,2.14-0.716,4.28-1.432,6.42-2.148-5.11-1.195-9.92-1.195-16.63-0.08,1.26,0.002,2.52,0.024,3.78,0.08h-4.29c0.17-0.03,0.33-0.051,0.51-0.08-10.99-0.02-22.38,1.882-32.65,4.375,0.71-0.716,1.43-1.432,2.14-2.147-8.69,3.618-20.15,3.041-27.85-2.148-2.82,1.904-1.08,0.195-6.43,0,0.71,0.716,1.42,1.432,2.14,2.148-5.67-1.583-11.21-1.47-17.14-2.148,0.71,0.716,1.43,1.432,2.14,2.148-12.32-2.868-15.15-3.836-27.86,0,3.81,1.39,2.03,0.313,4.29,2.147-12.7,0-32.028,5.406-38.572-4.296,0.714,0.716,1.427,1.432,2.141,2.148-1.424-2.003-4.071-4.201-6.565-6.581,0.045,0.046,0.091,0.091,0.137,0.137-7.343-1.354-11.462-3.347-17.146-8.588,0.715,0.716,1.429,1.432,2.144,2.148-4.393-1.428-8.113-1.352-12.857-2.148,0.714,0.716,1.429,1.432,2.144,2.148-4.742-0.554-6.748-0.361-10.716-2.148-0.982,0.36-9.207,3.729-10.728,4.323-0.71,1.423-1.42,2.846-2.13,4.269v-4.296c-1.621,2.887-5.319,9.283-4.285,6.444-6.157,5.633-7.364,13.063-8.421,20.425,0.39,2.069,1.254,4.23-0.151,1.054,0.05-0.351,0.101-0.702,0.151-1.054-0.071-0.379-0.128-0.755-0.151-1.095-2.289,6.321-3.228,13.327-2.142,19.331-0.714-0.716-1.429-1.432-2.144-2.148,0.58,15.748,2.373,37.158,17.142,45.105-1.851,0.858-4.326,1.885-6.429,2.147-0.235-0.15,2.261,2.006,3.562,2.558,0.293-0.089,0.546-0.209,0.726-0.409,0.148,0.598-0.19,0.636-0.726,0.409-1.043,0.317-2.628,0.221-3.562,1.739h4.288c-3.263,3.588-6.272,7.088-9.102,9.478-1.357,2.4-2.497,5.4-3.755,7.7,1.428-0.71,2.856-1.43,4.285-2.14-2.323,4.07-3.01,8.64-4.285,15.03,0.25-0.37,0.5-0.75,0.75-1.13,0.454-1.71,1.407-3.3,3.535-5.31-1.178,1.77-2.356,3.54-3.535,5.31-0.646,2.44-0.27,5.14-0.75,9.72-0.034,0.1-0.063,0.18-0.09,0.24,0.049,0.68,0.088,1.91,0.09,4.06,0.005,4.78-1.197,7.2-4.288,10.74,1.429-0.72,2.858-1.44,4.288-2.15-1.007,10.02-8.482,18.83-12.608,27.41,1.022-0.6,3.646-1.49,4.033-1.63,0.001,0,0.001,0,0.002-0.01,0.077-0.02,0.062-0.01-0.002,0.01-1.825,3.44-2.769,7.54-4.282,10.73,1.428-1.43,2.856-2.86,4.285-4.29-2.635,7.5-2.713,15.66-2.144,23.62h0.814c-0.443,0.67-0.887,1.34-1.331,2.01,0.499-0.42,1.089-0.82,1.798-1.19,0.063-0.26,0.146-0.54,0.222-0.82h1.604c-0.66,0.27-1.283,0.54-1.826,0.82-0.629,2.63-0.684,4.82-1.281,7.92,1.429-2.14,2.859-4.29,4.288-6.44-1.716,5.7-2.853,11.52-4.288,17.18,1.095-3.08,2.304-3.65,4.288-6.44-0.785,4.57-0.125,6.93-0.014,11.21,0.66-1.57,1.387-3.15,2.154-4.77-0.713,2.15-1.427,4.3-2.141,6.45,0.007-0.6,0-1.15-0.014-1.68-2.923,6.93-4.501,13.52-2.13,21.01,0.715-2.87,1.429-5.73,2.144-8.6,1.481,8.98,4.025,15.98,4.285,25.78,0.714-2.15,1.429-4.3,2.144-6.45,0.139,4.32,1.9,8.58,2.142,12.89,0.468-2.51,1.356-3.98,2.143-6.44,2.748,5.74,4.846,13.2,6.429,19.33v-6.44c2.906,5.72,4.175,7.83,4.285,15.03,0.714-1.43,1.429-2.86,2.144-4.29-0.34,3.71,0.129,7.49,0.066,11.23,0.759-1.19,2.009-2.6,2.078-2.64-0.304,3.46-0.158,7.27,0,10.74,1.428-2.87,2.857-5.73,4.285-8.6-0.683,4.91,0.427,10.11,0,15.04,0.865-1.18,4.86-3.84,6.428-6.44,0.3,6.3,2.688,9.69,4.285,15.03,0.711-3.71,3.639-7.02,4.288-10.74,0.751,4.98,3.122,8.44,4.285,12.89,0.194-3.86,1.443-5.64,2.141-8.59,0.731,6.67,2.153,6.97,4.288,12.88v-8.59c1.64,4.87,4.692,10.26,6.411,14.99,0.131-0.46,1.942-3.92,2.159-4.25-0.174,4.57,1.508,7.3,2.143,10.74,0.489-2.94,1.438-5.71,2.144-8.59,0.393,5.26,1.546,9.89,2.141,15.03,0.068-4.39,1.558-7.4,2.144-10.73,0.268,6.48,2.294,9.14,4.285,15.03-0.243-3.56,0.312-7.19,0-10.74,1.135,2.02,5.029,6.82,6.429,10.74,0.333-2.03-0.057-4.39,0-6.44,1.349,3.03,3.046,5.98,4.287,8.59v-4.3c2.143,2.15,4.286,4.3,6.427,6.45-0.71-1.44-1.427-2.87-2.142-4.3,6.262,4.22,12.272,8.84,15.002,8.59,6.64,2.64,11.48,6.43,17.14,10.74-0.71-1.43-1.43-2.86-2.14-4.3,5.03,3.9,10.07,7.5,15,10.74v-4.29c2.87,3.05,5.51,5.47,8.57,8.59-0.72-1.43-1.43-2.86-2.14-4.3,3.43,3.55,10.14,6.81,12.85,6.45,2.41,3.3,4.77,4.03,6.43,10.74v-6.45c1.7,4.47,4.57,8.49,6.43,12.89v-8.59c0.95,3.6,3.23,7.06,4.29,10.74,1.16-2.3,3.75-5.51,4.28-6.45-0.71,2.15-1.43,4.3-2.14,6.45,2.38-4.29,5.75-8.75,8.57-12.89-0.72,2.15-1.43,4.3-2.15,6.44,3.06-4.22,7.08-6.79,10.72-10.74-0.71,1.44-1.43,2.87-2.14,4.3,0.79-1.56,4.62-5.37,6.43-8.59v4.29c2.95-2.62,5.88-4.56,8.57-6.44-0.72,0.72-1.43,1.43-2.15,2.15,3.06-2.24,8.62-5.73,12.86-8.59-0.71,0.71-1.43,1.43-2.14,2.14,3.06-2.68,6.37-3.97,10.71-6.44-0.71,1.43-1.43,2.87-2.14,4.3,3.28-2.86,9.33-6.32,15-8.6-0.72,1.44-1.43,2.87-2.14,4.3,3.69-3.71,6.3-3.64,10.71-6.44-0.71,1.43-1.43,2.86-2.15,4.29,2.29-3.06,4.68-3.54,8.58-6.44-0.72,2.15-1.43,4.3-2.15,6.44,4.61-4.48,8.31-7.04,10.72-10.74-0.78,2.12-1.23,4.41-2.14,6.45,3.23-3.65,5.88-6.74,8.57-10.74-1.16,2.85-1.12,5.62-2.15,8.59,5.99-3.36,8.1-8.69,12.86-12.89-1.16,3.35-1.59,5.15-2.15,8.59,2.92-7.21,6.77-13.54,12.86-15.03-1.64,3-3.01,5.92-4.28,8.59,5.62-4.8,7.71-10.44,12.85-12.88-1.81,2.68-3.07,3.69-4.28,6.44,4.08-4.67,7.67-9.7,10.71-15.04v6.45c1.98-4.1,5.35-9.21,8.3-12.57,1.51-3.01,3.2-6.08,4.56-8.91-0.71,2.86-1.43,5.73-2.14,8.59,5.02-6.93,11.56-14.55,12.85-23.63v6.45c1.71-3.04,3.82-5.77,5.46-8.79-0.39,0.78-0.78,1.56-1.17,2.34,4.09-3.55,10.39-11.84,12.86-15.03-0.72,1.43-1.43,2.86-2.15,4.3,4.14-5.19,9.06-10.08,12.86-17.19v6.44c1.35-8.58,6.94-11.58,10.71-19.33v4.3c0.27-6.68,1.89-13.04,2.35-19.62-0.07,0.1-0.13,0.19-0.2,0.29,0-2.85-0.12-5.74,0-8.59,0.39,2.83,0.39,5.58,0.2,8.3,3.82-5.32,4.86-12.15,4.08-19.04,0.72,2.15,1.44,4.3,2.15,6.44zm-62.14,92.36c-0.09,0.1-0.18,0.22-0.27,0.32-0.68,1.35-1.32,2.68-1.87,3.98,0.71-1.44,1.42-2.87,2.14-4.3zm-250.71,12.89c-0.005-0.02-0.012-0.03-0.018-0.05-0.015,0.05-0.014,0.08,0.018,0.05zm-68.571-161.24c0.079-0.17,0.167-0.34,0.249-0.51-0.392,0.24-0.549,0.42-0.249,0.51zm12.766-40.57zm64.238-129.24c-0.668-0.67-1.336-1.341-2.004-2.011,0.635,0.685,1.315,1.354,2.004,2.011zm-47.019-4.132c0.004-0.009,0.009-0.018,0.014-0.027-0.362,0.157-0.323,0.148-0.014,0.027zm-14.987,105.22c0.531-0.37,1.07-0.8,1.614-1.26,0.173-0.3,0.349-0.6,0.529-0.89-0.714,0.72-1.428,1.43-2.143,2.15z"/>
 <path d="M30.156,305.14c0.037-0.55,0.057-1.1,0.066-1.65-0.597,0.94-0.889,1.74-0.066,1.65zm-29.999-94.5c0.542-0.82,1.083-1.63,1.624-2.44-0.9,0.74-1.465,1.55-1.624,2.44zm381.42,23.62c0.13-9.61-2.59-18.4-2.25-28.07h0.11c-0.04-0.05-0.07-0.1-0.11-0.15,0.03-0.61,0.06-1.23,0.11-1.85h-1.19c-1.4-2.98-1.46-6.11-3.1-8.74l2.15,2.15c-0.72-17.93-7.47-32.84-12.86-47.25,1.43,0.71,2.86,1.43,4.28,2.15-3.99-7.29-9.73-13.02-10.71-21.48,0.72,0.71,1.43,1.43,2.15,2.15-0.76-6.24-2.15-11.73-4.29-17.19,1.43,1.44,2.86,2.87,4.29,4.3-0.87-6.07-4.03-11.75-8.58-15.04-0.39-6.313-4.26-7.144-2.14-15.033,1.59-5.915,9.23-12.212,12.86-17.182-1.43,1.432-2.86,2.864-4.29,4.295,1.73-7.95,6.19-14.692,10.71-21.478-1.42,0.716-2.85,1.432-4.28,2.147,2.42-14.838,2.38-26.291-4.28-38.662-19.21-27.314-44.37-8.675-75,2.148,0.71-1.432,1.43-2.863,2.14-4.295h-6.43c0.71-0.716,1.43-1.432,2.14-2.147-14.23-4.123-37.45-4.596-51.42,0,2.14-0.716,4.28-1.432,6.42-2.148-5.11-1.195-9.92-1.195-16.63-0.08,1.26,0.002,2.52,0.024,3.78,0.08h-4.29c0.17-0.03,0.33-0.051,0.51-0.08-10.99-0.02-22.38,1.882-32.65,4.375,0.71-0.716,1.43-1.432,2.14-2.147-8.69,3.618-20.15,3.041-27.85-2.148-2.82,1.904-1.08,0.195-6.43,0,0.71,0.716,1.42,1.432,2.14,2.148-5.67-1.583-11.21-1.47-17.14-2.148,0.71,0.716,1.43,1.432,2.14,2.148-12.32-2.868-15.15-3.836-27.86,0,3.81,1.39,2.03,0.313,4.29,2.147-12.7,0-32.028,5.406-38.572-4.296,0.714,0.716,1.427,1.432,2.141,2.148-1.424-2.003-4.071-4.201-6.565-6.581,0.045,0.046,0.091,0.091,0.137,0.137-7.343-1.354-11.462-3.347-17.146-8.588,0.715,0.716,1.429,1.432,2.144,2.148-4.393-1.428-8.113-1.352-12.857-2.148,0.714,0.716,1.429,1.432,2.144,2.148-4.742-0.554-6.748-0.361-10.716-2.148-0.982,0.36-9.207,3.729-10.728,4.323-0.71,1.423-1.42,2.846-2.13,4.269v-4.296c-1.621,2.887-5.319,9.283-4.285,6.444-6.157,5.633-7.364,13.063-8.421,20.425,0.39,2.069,1.254,4.23-0.151,1.054,0.05-0.351,0.101-0.702,0.151-1.054-0.071-0.379-0.128-0.755-0.151-1.095-2.289,6.321-3.228,13.327-2.142,19.331-0.714-0.716-1.429-1.432-2.144-2.148,0.58,15.748,2.373,37.158,17.142,45.105-1.851,0.858-4.326,1.885-6.429,2.147-0.235-0.15,2.261,2.006,3.562,2.558,0.293-0.089,0.546-0.209,0.726-0.409,0.148,0.598-0.19,0.636-0.726,0.409-1.043,0.317-2.628,0.221-3.562,1.739h4.288c-3.263,3.588-6.272,7.088-9.102,9.478-1.357,2.4-2.497,5.4-3.755,7.7,1.428-0.71,2.856-1.43,4.285-2.14-2.323,4.07-3.01,8.64-4.285,15.03,0.25-0.37,0.5-0.75,0.75-1.13,0.454-1.71,1.407-3.3,3.535-5.31-1.178,1.77-2.356,3.54-3.535,5.31-0.646,2.44-0.27,5.14-0.75,9.72-0.034,0.1-0.063,0.18-0.09,0.24,0.049,0.68,0.088,1.91,0.09,4.06,0.005,4.78-1.197,7.2-4.288,10.74,1.429-0.72,2.858-1.44,4.288-2.15-1.007,10.02-8.482,18.83-12.608,27.41,1.022-0.6,3.646-1.49,4.033-1.63,0.001,0,0.001,0,0.002-0.01,0.077-0.02,0.062-0.01-0.002,0.01-1.825,3.44-2.769,7.54-4.282,10.73,1.428-1.43,2.856-2.86,4.285-4.29-2.635,7.5-2.713,15.66-2.144,23.62h0.814c-0.443,0.67-0.887,1.34-1.331,2.01,0.499-0.42,1.089-0.82,1.798-1.19,0.063-0.26,0.146-0.54,0.222-0.82h1.604c-0.66,0.27-1.283,0.54-1.826,0.82-0.629,2.63-0.684,4.82-1.281,7.92,1.429-2.14,2.859-4.29,4.288-6.44-1.716,5.7-2.853,11.52-4.288,17.18,1.095-3.08,2.304-3.65,4.288-6.44-0.785,4.57-0.125,6.93-0.014,11.21,0.66-1.57,1.387-3.15,2.154-4.77-0.713,2.15-1.427,4.3-2.141,6.45,0.007-0.6,0-1.15-0.014-1.68-2.923,6.93-4.501,13.52-2.13,21.01,0.715-2.87,1.429-5.73,2.144-8.6,1.481,8.98,4.025,15.98,4.285,25.78,0.714-2.15,1.429-4.3,2.144-6.45,0.139,4.32,1.9,8.58,2.142,12.89,0.468-2.51,1.356-3.98,2.143-6.44,2.748,5.74,4.846,13.2,6.429,19.33v-6.44c2.906,5.72,4.175,7.83,4.285,15.03,0.714-1.43,1.429-2.86,2.144-4.29-0.34,3.71,0.129,7.49,0.066,11.23,0.759-1.19,2.009-2.6,2.078-2.64-0.304,3.46-0.158,7.27,0,10.74,1.428-2.87,2.857-5.73,4.285-8.6-0.683,4.91,0.427,10.11,0,15.04,0.865-1.18,4.86-3.84,6.428-6.44,0.3,6.3,2.688,9.69,4.285,15.03,0.711-3.71,3.639-7.02,4.288-10.74,0.751,4.98,3.122,8.44,4.285,12.89,0.194-3.86,1.443-5.64,2.141-8.59,0.731,6.67,2.153,6.97,4.288,12.88v-8.59c1.64,4.87,4.692,10.26,6.411,14.99,0.131-0.46,1.942-3.92,2.159-4.25-0.174,4.57,1.508,7.3,2.143,10.74,0.489-2.94,1.438-5.71,2.144-8.59,0.393,5.26,1.546,9.89,2.141,15.03,0.068-4.39,1.558-7.4,2.144-10.73,0.268,6.48,2.294,9.14,4.285,15.03-0.243-3.56,0.312-7.19,0-10.74,1.135,2.02,5.029,6.82,6.429,10.74,0.333-2.03-0.057-4.39,0-6.44,1.349,3.03,3.046,5.98,4.287,8.59v-4.3c2.143,2.15,4.286,4.3,6.427,6.45-0.71-1.44-1.427-2.87-2.142-4.3,6.262,4.22,12.272,8.84,15.002,8.59,6.64,2.64,11.48,6.43,17.14,10.74-0.71-1.43-1.43-2.86-2.14-4.3,5.03,3.9,10.07,7.5,15,10.74v-4.29c2.87,3.05,5.51,5.47,8.57,8.59-0.72-1.43-1.43-2.86-2.14-4.3,3.43,3.55,10.14,6.81,12.85,6.45,2.41,3.3,4.77,4.03,6.43,10.74v-6.45c1.7,4.47,4.57,8.49,6.43,12.89v-8.59c0.95,3.6,3.23,7.06,4.29,10.74,1.16-2.3,3.75-5.51,4.28-6.45-0.71,2.15-1.43,4.3-2.14,6.45,2.38-4.29,5.75-8.75,8.57-12.89-0.72,2.15-1.43,4.3-2.15,6.44,3.06-4.22,7.08-6.79,10.72-10.74-0.71,1.44-1.43,2.87-2.14,4.3,0.79-1.56,4.62-5.37,6.43-8.59v4.29c2.95-2.62,5.88-4.56,8.57-6.44-0.72,0.72-1.43,1.43-2.15,2.15,3.06-2.24,8.62-5.73,12.86-8.59-0.71,0.71-1.43,1.43-2.14,2.14,3.06-2.68,6.37-3.97,10.71-6.44-0.71,1.43-1.43,2.87-2.14,4.3,3.28-2.86,9.33-6.32,15-8.6-0.72,1.44-1.43,2.87-2.14,4.3,3.69-3.71,6.3-3.64,10.71-6.44-0.71,1.43-1.43,2.86-2.15,4.29,2.29-3.06,4.68-3.54,8.58-6.44-0.72,2.15-1.43,4.3-2.15,6.44,4.61-4.48,8.31-7.04,10.72-10.74-0.78,2.12-1.23,4.41-2.14,6.45,3.23-3.65,5.88-6.74,8.57-10.74-1.16,2.85-1.12,5.62-2.15,8.59,5.99-3.36,8.1-8.69,12.86-12.89-1.16,3.35-1.59,5.15-2.15,8.59,2.92-7.21,6.77-13.54,12.86-15.03-1.64,3-3.01,5.92-4.28,8.59,5.62-4.8,7.71-10.44,12.85-12.88-1.81,2.68-3.07,3.69-4.28,6.44,4.08-4.67,7.67-9.7,10.71-15.04v6.45c1.98-4.1,5.35-9.21,8.3-12.57,1.51-3.01,3.2-6.08,4.56-8.91-0.71,2.86-1.43,5.73-2.14,8.59,5.02-6.93,11.56-14.55,12.85-23.63v6.45c1.71-3.04,3.82-5.77,5.46-8.79-0.39,0.78-0.78,1.56-1.17,2.34,4.09-3.55,10.39-11.84,12.86-15.03-0.72,1.43-1.43,2.86-2.15,4.3,4.14-5.19,9.06-10.08,12.86-17.19v6.44c1.35-8.58,6.94-11.58,10.71-19.33v4.3c0.27-6.68,1.89-13.04,2.35-19.62-0.07,0.1-0.13,0.19-0.2,0.29,0-2.85-0.12-5.74,0-8.59,0.39,2.83,0.39,5.58,0.2,8.3,3.82-5.32,4.86-12.15,4.08-19.04,0.72,2.15,1.44,4.3,2.15,6.44zm-62.14,92.36c-0.09,0.1-0.18,0.22-0.27,0.32-0.68,1.35-1.32,2.68-1.87,3.98,0.71-1.44,1.42-2.87,2.14-4.3zm-250.71,12.89c-0.005-0.02-0.012-0.03-0.018-0.05-0.015,0.05-0.014,0.08,0.018,0.05zm-68.571-161.24c0.079-0.17,0.167-0.34,0.249-0.51-0.392,0.24-0.549,0.42-0.249,0.51zm12.766-40.57zm64.238-129.24c-0.668-0.67-1.336-1.341-2.004-2.011,0.635,0.685,1.315,1.354,2.004,2.011zm-47.019-4.132c0.004-0.009,0.009-0.018,0.014-0.027-0.362,0.157-0.323,0.148-0.014,0.027zm-14.987,105.22c0.531-0.37,1.07-0.8,1.614-1.26,0.173-0.3,0.349-0.6,0.529-0.89-0.714,0.72-1.428,1.43-2.143,2.15z" stroke-miterlimit="10.000000" stroke-width="0.00000000" fill="none"/>
 <line stroke-width="0" y2="205.19" y1="205.19" stroke-miterlimit="10" x2="2.297" x1="377.3" fill="none"/>
 <path fill-rule="evenodd" fill="#916b4a" d="M92.299,39.809c4.32-0.921,8.401-1.877,12.861-2.148-10.707,1.272-13.564,10.554-19.29,17.185,2.143-1.432,4.286-2.864,6.429-4.296-4.286,7.558-10.985,13.154-17.143,19.331,2.143-0.716,4.286-1.432,6.429-2.147-7.232,8.632-18.449,13.763-25.714,19.33,1.428-2.148,2.856-4.296,4.285-6.444-9.416,10.212-20.956,15.417-30,25.77,2.143-0.71,4.286-1.43,6.429-2.14-3.984,3.79-7.193,6.26-10.714,10.74,1.067-9.47,5.02-14.01,12.857-19.335h-6.428c9.27-9.295,18.29-18.938,27.855-27.923,8.539-8.021,20.46-25.978,32.144-27.923"/>
 <path fill-rule="evenodd" fill="#491c02" d="M96.583,37.661c-7.111,2.879-12.599,8.253-14.999,15.036,1.428-0.716,2.856-1.432,4.285-2.148-12.408,10.355-18.946,20.826-34.284,27.923h6.426c-8.423,2.11-14.278,8.208-21.426,10.738h4.285c-9.306,6.102-15.618-0.987-19.286-8.592,1.429,0.716,2.858,1.432,4.288,2.148-5.25-5.007-7.611-13.762-10.716-21.479,2.079,3.212,3.475,3.448,6.428,6.445-3.572-4.982-2.673-7.478-4.285-12.887,0.715,0.716,1.429,1.432,2.144,2.147-1.107-3.707-1-7.047-2.144-10.74,1.428,2.148,2.857,4.296,4.285,6.444-2.192-3.417-2.792-8.813-4.285-12.888h4.285c-0.526-1.637-1.402-6.596-2.141-10.739-1.029-4.757,1.774,4.91,2.141,6.444-0.43-3.493,0.101-7.212,0-10.74,1.659,3.655,4.478,7.098,6.429,10.74-0.714-1.432-1.427-2.864-2.141-4.296,2.122,1.503,3.64,3.684,6.429,4.296-1.201-4.973-2.311-10.626-4.288-15.036,2.51,6.425,2.827,3.521,8.573,6.444,2.941-4.176,0.658-0.974,2.143-2.148-1.92-3.286-3.302-8.341-4.287-12.887,1.429,1.432,2.858,2.864,4.287,4.296-1.406-3.581-0.536-3.717-2.143-6.444,1.428,1.432,2.856,2.864,4.285,4.296v-4.296c1.508,1.702,4.861,4.859,6.428,6.444v-4.296c1.839,4.194,2.667,4.537,4.288,8.591-0.275-4.26,0.449-8.643,0-12.886,2.257,7.298,4.227,13.378,8.57,17.182-0.324-2.792,0.055-5.779,0-8.591,0.42,3.269,1.708,6.126,2.144,8.591-0.276-4.272,0.124-8.606,0-12.887,0.997,3.508,3.79,7.489,4.285,8.591-0.234-2.818,0.006-5.762,0-8.591,1.675,3.709,5.3,8.721,6.428,10.739-0.714-2.147-1.429-4.295-2.143-6.443,1.75,3.238,5.533,7.081,6.428,8.591v-8.591c0.792,6.099,1.811,5.831,4.288,10.739v-6.444c1.446,3.841,5.357,8.717,6.429,10.74v-6.444c1.416,3.375,1.9,4.376,2.141,8.592-0.626,0.924,5.301-1.317,4.287-2.147-2.145,0.714-2.859-0.002-2.143-2.148,0.765,3.342,3.867,7.606,4.282,8.591"/>
 <path fill-rule="evenodd" fill="#96704f" d="M317.3,56.993c5.12,17.262,9.33,42.237,21.42,51.547-1.42-0.72-2.85-1.43-4.28-2.15,5.38,5.42,7.87,11.88,8.57,19.33-2.04-0.75-4.5-1.2-6.43-2.14,4.46,3.24,8.4,7.56,12.86,10.74-1.43-0.72-2.86-1.44-4.29-2.15,3.05,6.64,7.96,13.39,15,17.18-6.98-7.15-12.31-22.55-10.71-27.92-3.89-4.45-3.87-1.35-2.14-6.44-2.94-2.39-2.76-5.06-6.43-8.59h6.43c-12.31-1.51-11.8-27.236-14.88-37.55-5.4-18.046-26.35-33.491-45.12-35.481,5.24,3.729,9.38,6.113,15,8.591h-4.29c5.96,1.812,8.8,4.581,12.86,8.592-2.77,1.628,2.46,4.048,6.43,6.441"/>
 <path fill-rule="evenodd" fill="#491c02" d="M291.58,35.515c-0.04-2.863,0-5.729,0-8.592,1.18,0.994,3.58,3.187,4.29,4.296,0.43-3.678,1.22-5.33,2.14-8.592v4.296c1.44-1.941,4.67-5.26,6.43-8.592v6.444c4.79-3.336,12.69-7.286,17.14-12.887-1.57,1.999-3.23,4.893-4.28,6.443,2.44-1.723,6.71-3.648,10.71-6.443-0.71,1.432-1.43,2.864-2.14,4.296,3.74-3.276,4.12-2.877,8.57-4.296-1.43,1.432-2.86,2.864-4.28,4.296,3.96-1.745,4.9-1.09,8.57-4.296-1.43,1.432-2.86,2.864-4.29,4.296,1.44-0.1,6.12-2.186,6.43-2.147-1.43,1.432-2.86,2.863-4.28,4.294,2.83-0.537,4.15-1.495,6.42-2.147-1.43,1.432-2.85,2.863-4.28,4.295,3.02-0.834,5.92-1.342,8.57-2.148-2.48,1.543-5.34,5.658-6.43,6.444,3.67-1,6.96-1.428,8.57-2.148-1.43,0.716-2.86,1.432-4.29,2.148,1.47,0.086,7.07,1.618,8.58,2.148-1.27,0.295-5.2,0.407-6.43,0v4.296c2.76,0.459,5.77-0.232,8.57,0-2.15,2.027-4.06,4.664-6.43,6.442,2.14-0.715,4.28-1.431,6.43-2.146-2.98,2.974-3.04,3.813-6.43,6.442,2.39-0.769,4.26-1.37,6.43-2.148-2,6.774-2.67,13.587,0,15.036-2.85,1.833-2.05,3.614-4.29,6.442,0.72-0.716,1.43-1.432,2.15-2.147-1.54,5.663-0.87,8.008-4.29,12.888,2.57,0.742,2.66-0.928,4.29-2.148-2.29,2.944-2.89,5.423-4.29,8.592,1.24-1.25,1.9-2.579,4.29-4.296-2.07,3.391-3.67,7.566-6.43,10.738,1.43-1.432,2.85-2.864,4.28-4.296-3.15,6.08-7.66,11.116-12.85,15.036-4.84-6.654-4.95-13.826-8.57-21.479-1.55-0.325-7.96-18.341-8.58-19.331-5.91-1.666-11.15-5.473-15-10.74h4.29c-3.63-1.811-12.39-7.8-10.71-6.445-2.86-0.714-5.72-1.429-8.58-2.144"/>
 <path fill-rule="evenodd" fill="#230000" d="M289.44,20.479c-1.26,1.492-5.53,5.255-6.43,6.444,0.72-2.146,0-2.861-2.14-2.148,2.74-4.573,5.01-2.729,8.57-4.296"/>
 <path fill-rule="evenodd" fill="#815b35" d="M278.72,179.42c-6.28,16.23-14.93,34-17.69,50.59-3.57,21.47-1.66,45.91-12.3,65.39-8.79,16.09-24.53,25.72-34.29,40.81-10.13,15.67-12.48,40.22-27.86,51.55-13.22-18.03-17.3-40.97-34.28-57.99-13.99-14.02-33.2-46.06-36.99-65.07-8.09-40.63-74.635-132.12-8.01-158.31,24.24-9.523,42.95,12.89,66.51,12.89,21.55,0,69.13-28.918,86.7-17.18,29.59,19.77,40.18,47.16,18.21,77.32"/>
 <path fill-rule="evenodd" fill="#7a542f" d="M259.44,224.52c-4.19,27.51-2.78,62.94-23.65,83.85-11.86,11.89-20.71,18.56-27.78,34.29-6.16,13.71-9.09,28.85-21.43,38.66-6.7-9.32-9.57-20.73-15-30.07-6.16-10.61-18.71-19.77-22.5-31.15-6.93-20.85-28.07-39.77-32.66-62.72-6.26-31.38-26.965-59.17-32.694-90.85-3.879-21.45,8.592-60.14,36.434-60.14,27.71,0,45.28,21.18,75.87,14.37,27.09-6.04,56.28-30.42,80.55-3.63,11.15,12.3,12.93,27.72,8.58,42.96-1.93,6.75-5.32,11.04-8.58,17.18-7.92,14.95-9.89,31.82-17.14,47.25"/>
 <path fill-rule="evenodd" fill="#734c29" d="M257.3,224.52c-5.96,30.56-3.14,61.13-26.79,84.84-20.12,20.18-25.4,47.37-43.93,67.66-12.15-21.82-22.33-40.02-36.42-61.21-12.92-19.42-24.33-41.65-32.15-63.36-9.48-26.35-26.746-56.61-32.141-83.77-4.083-20.56,11.479-57.99,35.361-57.99,25.63,0,44.07,18.06,71.78,15.03,27.05-2.95,52.18-33.607,77.14-8.59,13.73,13.76,17.67,29.33,10.72,47.25-7.05,18.2-14.26,39.98-23.57,60.14"/>
 <path fill-rule="evenodd" fill="#6c4522" d="M255.16,224.52c-5.35,29.14-4.81,52.96-23.1,77.41-7.16,9.56-20.65,17.16-25.16,28.47-4.86,12.19-10.04,29.58-20.32,38.03-12.93-17.81-17.6-36.98-34.28-53.7-13.53-13.56-25.5-44.55-32.15-62.29-11.6-30.97-63.406-137.19,8.58-137.46,21.73-0.08,40.81,22.88,66.29,14.37,23.78-7.95,53.18-29.929,75.14-7.92,29.8,29.87-10.66,71.49-15,103.09"/>
 <path fill-rule="evenodd" fill="#643d1c" d="M253.01,224.52c-5.71,29.79-7.7,52.53-26.19,77.25-7.71,10.31-16.85,16.63-21.98,29.51-4.19,10.5-10.58,24.45-18.26,32.86-13.2-18.36-17.4-41.08-34.28-58-12.87-12.9-26.34-41.15-30.67-58.53-7.36-29.52-27.058-56.74-27.188-87.52-0.102-24.11,17.938-47.6,44.998-40.81,22.95,5.76,37.32,19.8,64.28,9.66,21.98-8.26,45.41-23.12,64.29-3.22,25.37,26.74-11.08,70.36-15,98.8"/>
 <path fill-rule="evenodd" fill="#5d3515" d="M250.87,222.38c-5.63,24.23-3.15,50.36-19.29,70.88-8.05,10.24-17.31,17.4-25.24,28-8.49,11.35-8.43,27.12-19.76,36.43-11.89-16.55-20.17-36.26-32.14-53.69-11.29-16.45-22.26-36.77-30-55.85-9.42-23.21-21.4-49.25-26.268-73.66-3.995-20.01,5.398-53.06,31.628-53.06,21.27,0,39.82,12.89,63.12,12.89,21.03,0,46.95-28.2,66.52-8.6,28.4,28.45-0.4,63.93-8.57,96.66"/>
 <path fill-rule="evenodd" fill="#562e0f" d="M261.58,183.72c-16.89,27.38-11.24,59.3-22.46,87.42-6.21,15.57-19.17,24.41-28.97,37.15-9.65,12.55-11.24,33.51-23.57,42.96-9.46-11.97-16.63-30.39-25.71-44.03-11.27-16.94-19.11-30.79-27.86-48.33-14.41-28.9-55.694-109.55-12.85-131.02,17.69-8.87,28.88,3.64,45.63,7,11.86,2.38,23.81,2.02,35.79,0.52,13.64-1.71,25.33-13.96,38.57-13.96,35,0,32.17,41.89,21.43,62.29"/>
 <path fill-rule="evenodd" fill="#815b35" d="M175.87,31.219c8.81-1.106,56.02-7.222,29.92,12.409-25.06,18.845,26.42,36.273-10.64,52.027-16.94,7.205-16.54,2.347-33.21-3.222-18.86-6.3-1.55-15.922,1.07-26.849,3.51-14.631-8.33-18.615-11.78-28.996-3.58-10.767,19.24-8.692,24.64-5.369"/>
 <path fill-rule="evenodd" fill="#79522e" d="M184.44,31.219c8.25-0.328,21.28-6.864,24.64,3.221,1.32,3.947-11.78,16.519-11.78,25.774,0,10.895,13.19,13.479,10.71,24.7-1.67,7.577-25.52,16.596-31.07,12.887-9.29-6.209-21.02-6.078-22.5-17.183-1.12-8.438,14.72-15.734,9.6-28.557-1.11-2.787-15.78-20.842-7.46-20.842,8.68,0,18.47,0.443,27.86,0"/>
 <path fill-rule="evenodd" fill="#704926" d="M184.44,33.366c6.56-2.607,18.66-5.552,22.5,2.147,0.8,1.609-12.7,17.444-11.79,25.774,0.94,8.582,15.76,17.123,10.72,24.701-6.47,9.733-21.87,12.521-32.14,9.667-29.54-8.207-1.29-27.921-9.61-48.765-1.88-4.723-16.74-15.671-2.18-15.671,9.19,0,15.14,5.588,22.5,2.147"/>
 <path fill-rule="evenodd" fill="#67401e" d="M184.44,35.515c30.3-20.305,7.57,16.239,8.57,25.772,0.58,5.492,13.35,18.973,12.86,21.479-1.67,8.487-21.35,14.004-27.86,10.74-30.65-15.365-6.18-9.977-8.57-36.514-0.38-4.3-16.07-23.626-8.57-23.626,7.99,0,15.48,2.546,23.57,2.149"/>
 <path fill-rule="evenodd" fill="#5f3717" d="M184.44,37.661c3.4-2.691,14.48-7.857,17.14-2.146,3.15,6.758-15.44,11.551-11.78,22.551,2.91,8.749,5.28,13.881,11.78,20.405,8.08,8.095-16.89,15.635-23.57,13.961-31.62-7.925-2.48-14.905-6.43-35.439-1.03-5.386-14.83-15.206-9.64-20.405,3.3-3.298,16.92,1.346,22.5,1.073"/>
 <path fill-rule="evenodd" fill="#562e0f" d="M175.87,39.809c5.97,0.33,12.39-5.107,17.14-4.294,10.92,1.866,2.6-0.925,2.14,6.442-0.44,7.189-9.75,12.898-6.42,23.626,1.81,5.86,14.83,13.054,10.71,17.183-11.23,11.26-47.23,8.684-30.08-8.511,7.25-7.266,4.78-16.221,1.19-25.218-1.9-4.769-12.24-23.883,5.32-9.228"/>
 <path fill-rule="evenodd" fill="#815b35" d="M83.726,220.23c13.533,3.55,31.794,50.68,37.544,65.07,9.54,23.9,22.04,53.54,26.74,78.84-49.684-16.68-85.968-95-64.284-143.91"/>
 <path fill-rule="evenodd" fill="#79522e" d="M107.3,331.92c-4.69-21.86-18.118-41.66-26.855-62.09-6.914-16.17,8.41-64.73,14.552-33.93,4.365,21.89,19.843,36.7,27.303,57.36,7.6,21.06,17.17,43.14,23.57,64.43-16.28,0.44-30.73-14.63-38.57-25.77"/>
 <path fill-rule="evenodd" fill="#704926" d="M107.3,327.62c-15.009-29.99-33.705-63.84-21.431-96.65,14.017,9.67,23.251,41.7,32.621,57.35,10.39,17.36,16.82,45.66,23.09,65.08-12.75,0.68-31.3-15.04-34.28-25.78"/>
 <path fill-rule="evenodd" fill="#67401e" d="M109.44,325.47c-13.759-24.71-35.06-62.01-23.571-90.21,21.551,12.9,30.381,61.23,38.571,83.77,0.86,2.36,18.01,41.68,6.43,30.07-7.66-7.68-18.59-12.3-21.43-23.63"/>
 <path fill-rule="evenodd" fill="#5f3717" d="M109.44,323.32c-9.836-30.49-28.237-50.18-21.427-83.76,13.657,19,28.727,50.75,34.287,73.03,1.54,6.19,14.71,36.37,8.57,33.29-8.13-4.08-18.19-14.1-21.43-22.56"/>
 <path fill-rule="evenodd" fill="#562e0f" d="M90.155,243.85c6.247,18.77,14.775,32.25,23.575,49.41,6.11,11.92,18.82,38.01,15,49.4-20.52-14.52-52.491-74.88-38.575-98.81"/>
 <path fill-rule="evenodd" fill="#815b35" d="M306.58,226.67c-9.74-0.6-34.74,50.54-39.68,62.93-9.97,24.98-23.52,51.4-31.03,76.68,25.57-0.15,40.89-22.27,49.29-42.96,14.58-35.92,33.71-55.59,21.42-96.65"/>
 <path fill-rule="evenodd" fill="#79522e" d="M280.87,336.21c1.57-20.98,20.08-37.16,25.71-56.92,3.58-12.55,1.84-71.17-11.82-36.95-16.11,40.36-45.6,76.67-54.6,119.65,14.4-1.55,32-13.81,40.71-25.78"/>
 <path fill-rule="evenodd" fill="#704926" d="M278.72,334.06c6.12-18.91,17.11-34.99,24.65-52.62,5.7-13.33,9.86-60.36-9.64-33.29-22.41,31.1-36.93,73.05-49.29,109.54,14.67-4.93,23.29-12.6,34.28-23.63"/>
 <path fill-rule="evenodd" fill="#67401e" d="M278.72,331.92c10.69-33.1,32.7-55.34,25.72-92.36-12.94,11.24-26.33,39.89-34.28,55.84-8.62,17.27-15.4,39.28-21.43,58,13.07-1.94,21.03-12.5,29.99-21.48"/>
 <path fill-rule="evenodd" fill="#5f3717" d="M276.58,327.62c12.58-23.43,33.6-54.19,25.72-81.62-13.74,10.53-22.07,39.62-32.14,54.77-7.07,10.63-17.54,35.43-17.15,48.33,10.31-1.49,20.68-13.05,23.57-21.48"/>
 <path fill-rule="evenodd" fill="#562e0f" d="M300.16,250.3c-7.35,7-46.92,93.38-42.86,94.5,21.52,5.98,46.82-81.23,42.86-94.5"/>
 <path fill-rule="evenodd" fill="#815b35" d="M212.3,46.253c17.66-6.585,96.25-3.383,62.14,25.775-22.04,18.842-97.26-1.171-62.14-25.775"/>
 <path fill-rule="evenodd" fill="#815b35" d="M96.583,52.697c15.117-4.904,86.447-11.485,55.717,19.331-11.02,11.052-26.8,12.886-41.67,12.886-18.172,0-33.535-20.813-14.047-32.217"/>
 <path fill-rule="evenodd" fill="#815b35" d="M169.44,104.24c11.77-7.922,47.06-2.3,30,15.04-10.21,10.38-48.43,1.78-30-15.04"/>
 <path fill-rule="evenodd" fill="#856039" d="M257.3,76.323c-15.48,0-29.79,0.518-44.37-5.33-23.44-9.401,1.35-26.089,14.37-29.036,13.17-2.981,40.7-0.014,50.36,9.666,12.48,12.513-12.6,20.217-20.36,24.7"/>
 <path fill-rule="evenodd" fill="#89643d" d="M257.3,72.028c-23.44,6.999-76-11.631-32.78-28.957,25.37-10.171,82.49,19.796,32.78,28.957"/>
 <path fill-rule="evenodd" fill="#8d6841" d="M255.16,67.732c-14.73,3.386-65.24-1.678-36.43-21.479,15.77-10.843,49.21-4.778,57.85,12.887-6.71,3.758-14,6.563-21.42,8.592"/>
 <path fill-rule="evenodd" fill="#926c46" d="M253.01,63.436c-22.81,5.821-59.24-8.232-21.43-19.33,10.55-3.095,28.48-3.093,36.43,6.443,11.91,14.279-2.83,9.506-15,12.887"/>
 <path fill-rule="evenodd" fill="#96704a" d="M220.87,46.253c17.82-4.162,41.52-7.92,51.43,10.74-19.27,2.002-36.34,8.037-55.72,0,1.33-3.325,2.13-7.926,4.29-10.74"/>
 <path fill-rule="evenodd" fill="#855f39" d="M171.58,104.24c11.02-5.1,37.21-5.692,27.86,10.74-8.5,14.96-46.54,3.64-27.86-10.74"/>
 <path fill-rule="evenodd" fill="#88623c" d="M173.73,104.24c6.85-3.29,29.48-4.394,26.78,6.45-4.1,16.45-28.04,11.17-35.36,0,2.69-2.02,5.5-5.18,8.58-6.45"/>
 <path fill-rule="evenodd" fill="#8b663f" d="M173.73,104.24c10.44,0,31.32-5.204,21.43,9.67-7.74,11.63-36.3,3.7-21.43-9.67"/>
 <path fill-rule="evenodd" fill="#8f6943" d="M175.87,104.24c5.34,0,30.06-2.2,19.29,8.6-10.86,10.88-36.37,0.14-19.29-8.6"/>
 <path fill-rule="evenodd" fill="#926d46" d="M175.87,104.24c4.62,1.79,27.59-1.5,17.14,8.6-8.31,8.02-29.17,0.32-17.14-8.6"/>
 <path fill-rule="evenodd" fill="#96704a" d="M178.01,104.24c4.77,0.45,8.86,2.98,15,0-3.81,15.62-28.72,12.5-15,0"/>
 <path fill-rule="evenodd" fill="#856039" d="M130.87,78.472c-8.45,2.532-35.701,3.886-40.715-6.444-7.61-15.677,17.045-22.064,27.655-25.104,35.24-10.093,56,21.542,13.06,31.548"/>
 <path fill-rule="evenodd" fill="#89643d" d="M130.87,76.323c-16.05,0-25.78-0.829-40.715-6.444,9.048-18.136,24.845-29.397,47.345-22.955,33.28,9.532,10.22,19.334-6.63,29.399"/>
 <path fill-rule="evenodd" fill="#8d6841" d="M128.73,72.028c-14.75,1.643-24.08,1.081-38.575-2.148,11.405-16.001,25.485-29.215,47.345-22.955,27.23,7.799,11.84,22.443-8.77,25.103"/>
 <path fill-rule="evenodd" fill="#926c46" d="M128.73,67.732c-12.77,1.422-23.7,2.436-36.431,0,7.155-16.257,27.991-25.735,45.201-20.808,29.11,8.337,9.46,17.15-8.77,20.808"/>
 <path fill-rule="evenodd" fill="#96704a" d="M103.01,54.845c13.23-10.506,40.63-12.718,49.29,4.294-16.28,5.276-40.72,10.776-57.857,6.444,2.719-3.408,5.187-8.026,8.567-10.738"/>
 <path fill-rule="evenodd" fill="#9b704f" d="M225.16,276.07c-16.38,20.2-63.56,33.85-77.15,2.15,26.01-7.48,50.83-6.54,77.15-2.15"/>
 <path fill-rule="evenodd" fill="#896142" d="M214.44,286.81c-20.68,5.1-26.2,2.15-45,2.15h4.29c-5.54-1.31-11.43-1.63-17.15-2.15,20.05,16.88,37.1,9.88,57.86,0"/>
 <path fill-rule="evenodd" fill="#351c1c" d="M208.01,278.22c-10.1,7.15-34.53,7.04-45,0,15.89-5.66,28.78-2.96,45,0"/>
 <path d="M197.3,278.22h-19.29c5.75-3.14,12.64-2.67,19.29,0" fill-rule="evenodd" stroke-miterlimit="10.000000" stroke-width="0.00000000" fill="#230a0a"/>
 <path fill-rule="evenodd" fill="#8e6342" d="M184.44,136.46c15.6,0.71,28.99,3.97,38.57,17.18,10.44,14.4,5.53,30.74,9.65,47.26,3.78,15.2,8.33,35.92,5.35,51.54-5.08,26.63-18.91,25.78-40.71,25.78-12.28,0-39.13,6.15-49.29,0-18.26-11.06-10.71-38.34-10.71-54.89,0-33.24,2.12-86.89,47.14-86.87"/>
 <path fill-rule="evenodd" fill="#8e6342" d="M184.44,138.61c29.37,6.58,43.36,12.95,40.72,45.11-1.97,23.83,5.64,58.4-24.45,65.1-40.99,9.13-50.21-5.88-54.84-43.63-4.3-35,1.75-58.38,38.57-66.58"/>
 <path fill-rule="evenodd" fill="#956a49" d="M220.87,188.01c0,25.83,6.73,57.49-26.79,61.21-39.64,4.42-46.07-15.34-46.07-50.47,0-26.78,3.1-55.4,36.43-57.99,25.86-2.01,46.82,21.74,36.43,47.25"/>
 <path fill-rule="evenodd" fill="#9d704f" d="M218.73,188.01c0,25.59,8.16,55.41-24.65,59.07-39.08,4.35-43.92-12.42-43.92-48.33,0-25.32,3.49-55.42,34.28-57.99,30.13-2.52,35.6,22.4,34.29,47.25"/>
 <path fill-rule="evenodd" fill="#a47655" d="M216.58,190.16c0,26.12,6.52,48.3-23.57,55.84-37.05,9.29-38.57-18.75-38.57-47.25,0-23.77-0.1-51.53,27.66-55.51,32.88-4.71,34.48,21.18,34.48,46.92"/>
 <path fill-rule="evenodd" fill="#ab7d5c" d="M214.44,190.16c-0.93,15.58,9.38,50.91-15.54,54.03-35.94,4.5-44.14-6.93-42.32-41.14,1.24-23.22-2.06-53.71,25.52-57.66,36.6-5.24,24.59,20.52,32.34,44.77"/>
 <path fill-rule="evenodd" fill="#b28362" d="M212.3,190.16c0,17.5,7.16,48.68-15.2,51.88-38.47,5.51-38.38-9.48-38.38-43.29,0-18.4,2.84-49.87,22.39-53.14,32.24-5.39,25.21,21.81,31.19,44.55"/>
 <path fill-rule="evenodd" fill="#b98968" d="M184.44,147.2c26.67-10.74,20.7,27.86,23.57,42.96,3.78,19.86,11.06,48.74-16.07,52.62-29.4,4.21-36.92-16.29-30-44.03,4.71-18.87-2.58-50.19,22.5-51.55"/>
 <path d="M139.44,205.19c-2-24.86,7.66-56.59,32.14-64.43,37.49-12.01,49.93,16.96,60,47.25" stroke="#9b704f" stroke-linecap="square" stroke-miterlimit="10.000000" stroke-width="0.75139999" fill="none"/>
 <path d="M139.44,198.75c-1.74-16.05,11.37-60.14,32.14-60.14,37.34,0,47.76,10.75,60,45.11" stroke="#906544" stroke-linecap="square" stroke-miterlimit="10.000000" stroke-width="0.75139999" fill="none"/>
 <path d="M139.44,194.46c-2.18-15.82,12.03-55.85,32.14-55.85,34.92,0,45.04,10.46,60,42.96" stroke="#845a3a" stroke-linecap="square" stroke-miterlimit="10.000000" stroke-width="0.75139999" fill="none"/>
 <path d="M139.44,190.16c-2.9-21.07,13.51-45.4,32.14-51.55,31.92-10.52,46.52,13.88,60,38.66" stroke="#784f2f" stroke-linecap="square" stroke-miterlimit="10.000000" stroke-width="0.75139999" fill="none"/>
 <path d="M139.44,183.72c15.35-58.4,62.29-63.46,92.14-8.6" stroke="#6d4424" stroke-linecap="square" stroke-miterlimit="10.000000" stroke-width="0.75139999" fill="none"/>
 <path d="M139.44,179.42c10.38-57.2,68.02-55.55,92.14-8.59" stroke="#62391a" stroke-linecap="square" stroke-miterlimit="10.000000" stroke-width="0.75139999" fill="none"/>
 <path d="M139.44,175.12c2.57-14.13,19.09-40.8,36.43-40.8,28.96,0,42.2,8.04,55.71,34.36" stroke="#562e0f" stroke-linecap="square" stroke-miterlimit="10.000000" stroke-width="0.75139999" fill="none"/>
 <path fill-rule="evenodd" fill="#8e6342" d="M233.72,237.41c0,15.44-9.74,57.77-24.64,27.92-1.54-3.09,19.73-26.83,24.64-27.92"/>
 <path fill-rule="evenodd" fill="#8e6342" d="M148.01,248.15c4.66,2.78,13.32,8.89,11.79,15.03-2,8-7.51,15.65-16.07,10.74-7.35-4.21-8.25-45.58,4.28-25.77"/>
 <path fill-rule="evenodd" fill="#956a49" d="M225.16,243.85c1.27-2.48,2.18-4.56,4.28-6.44,5.98,8.4,2.59,45.33-12.86,37.59-16.55-8.3,5.57-22.3,8.58-31.15"/>
 <path fill-rule="evenodd" fill="#9c7150" d="M225.16,246c1.7-3.57,2.48-5.99,6.42-6.44,3.36,9.1-6.73,46.79-17.14,31.14-7.88-11.84,6.29-14.92,10.72-24.7"/>
 <path fill-rule="evenodd" fill="#a37857" d="M227.3,246c0.82-2.16,0.54-4.28,2.14-6.44,3.82,8.31,2.01,39.59-12.86,32.22-11.15-5.54,7.32-20.45,10.72-25.78"/>
 <path fill-rule="evenodd" fill="#aa7f5e" d="M231.58,243.85c0.88,6.5,1.4,19.07-4.28,23.63-6.66,5.34-16.78-0.37-11.79-5.37,6.76-6.77,11.54-17.26,16.07-18.26"/>
 <path fill-rule="evenodd" fill="#956a49" d="M148.01,248.15c3.35,3.31,10.93,9.89,9.65,15.03-1.54,6.16-5.22,16.16-13.93,10.74-2.62-1.62-11.73-39.4,4.28-25.77"/>
 <path fill-rule="evenodd" fill="#9c7150" d="M148.01,250.3c9.65,6.9,9.78,32.52-4.28,21.48-3.92-3.08-9.76-40.2,4.28-21.48"/>
 <path fill-rule="evenodd" fill="#a37857" d="M145.87,252.45c9.75,5.98,7.74,24.93,1.07,18.25-5.27-5.27-9.04-18.29-5.36-24.7,1.43,2.15,2.86,4.3,4.29,6.45"/>
 <path fill-rule="evenodd" fill="#aa7f5e" d="M145.87,252.45c18,14.81-3.34,27.21-4.29-4.3,1.43,1.43,2.86,2.86,4.29,4.3"/>
 <path fill-rule="evenodd" fill="#9b704f" d="M212.3,278.22c-15.89,2.33-37.18,1.15-53.58,0,10.17-24.87,53.76-35.86,53.58,0"/>
 <path fill-rule="evenodd" fill="#86634a" d="M165.15,269.63c12.68-23.12,39.09-12.42,47.15,8.59-15.4,2.21-35.72,1.14-51.43,0,1.35-2.71,2.49-6.15,4.28-8.59"/>
 <path fill-rule="evenodd" fill="#725545" d="M167.3,269.63c9.04-23.34,36.96-9.31,40.71,8.59-10.54-1.14-51.57,4.74-40.71-8.59"/>
 <path fill-rule="evenodd" fill="#644539" d="M169.44,269.63c9.74-19.15,30.48-7.32,38.57,6.44-8.53,2.79-52.53,5.68-38.57-6.44"/>
 <path fill-rule="evenodd" fill="#503533" d="M171.58,269.63c11.02-16.23,29.71-8.98,32.15,8.59-10.13-1.56-41.09,3.72-32.15-8.59"/>
 <path fill-rule="evenodd" fill="#3c262c" d="M201.58,276.07c-11.79-0.83-23.39-1.94-32.14,2.15,1.69-17.31,26.68-21.24,32.14-2.15"/>
 <path fill-rule="evenodd" fill="#231c23" d="M186.58,267.48c0.4,3.59-1.56,5.72,2.14,6.44h-4.28c0.46-4.69,1.76-4.64,2.14-6.44"/>
 <path fill-rule="evenodd" fill="#422929" d="M186.58,220.23c-40.95-4.28-33.67,46.1-4.28,47.25,33.26,1.3,48.71-39.14,4.28-47.25"/>
 <path d="M180.16,254.59c5.52-2.27,9.5-3.69,12.85,2.15-5.61-1.24-11.73-1.74-12.85-2.15" fill-rule="evenodd" stroke-miterlimit="10.000000" stroke-width="0.00000000" fill="#351c1c"/>
 <path d="M212.3,248.15c-4.55-1.76-14.05-13.82-19.29-8.59-9.84,9.83,12.43,13.82,19.29,8.59" fill-rule="evenodd" stroke-miterlimit="10.000000" stroke-width="0.00000000" fill="#280f0f"/>
 <path d="M163.01,228.82c-3.06,4.31-4.7,7.56-4.29,12.89,18.79-11.95,33.73-2.65,53.58-2.15,0.71-22.26-37.52-25.02-49.29-10.74" fill-rule="evenodd" stroke-miterlimit="10.000000" stroke-width="0.00000000" fill="#533a3a"/>
 <path d="M163.01,248.15c2.27-3.74,12.25-12.89,19.29-8.59,6.58,4.02-11.67,18.24-19.29,8.59" fill-rule="evenodd" stroke-miterlimit="10.000000" stroke-width="0.00000000" fill="#280f0f"/>
 <path fill-rule="evenodd" fill="#533a3a" d="M158.73,239.56c-6.84,3.94-3.45,6.72,4.28,8.59-6.26-1.05-2.6-4.04-4.28-8.59"/>
 <path fill-rule="evenodd" fill="#533a3a" d="M214.44,239.56c-0.28,3.8,0.72,5.81-2.14,8.59h4.28c0.9-4.12-1.99-7.77-2.14-8.59"/>
 <path fill-rule="evenodd" fill="#533a3a" d="M184.44,256.74c-2.65,2.66-4.74,4.17,0,10.74,0-3.57,0.1-7.16,0-10.74"/>
 <path fill-rule="evenodd" fill="#533a3a" d="M188.72,256.74c-1.18,4.68-3.05,6.8,0,10.74,5.55-6.29,1.97-6.77,0-10.74"/>
 <path fill-rule="evenodd" fill="#493030" d="M182.3,239.56c0.7,10.13-7.81,12.65-17.15,10.74,8.96,6.01,19.14,0.79,17.15-10.74"/>
 <path fill-rule="evenodd" fill="#493030" d="M190.87,241.71c-0.83,9.8,6.81,12.63,15,8.59-5.65,0.99-13.58-0.29-15-8.59"/>
 <path fill-rule="evenodd" fill="#251e26" d="M218.73,278.22c-22.58,1.47-42.48-2.56-64.29,2.15,10.85-0.09,25.48-6.53,35.36-3.22,8.04,2.68,21.51,3.83,28.93,1.07"/>
 <path d="M182.3,278.22c3.38,0.11,9.86,2.18,12.85,2.15-4.29,2.18-9.54,3.11-14.99,2.15-0.55-3.45,1.52-1.86,2.14-4.3" fill-rule="evenodd" stroke-miterlimit="10.000000" stroke-width="0.00000000" fill="#5b4242"/>
 <path d="M223.01,142.91c2.36-7.08,5.89-15.49,10.71-19.33-0.71,1.43-1.42,2.86-2.14,4.29,6.55-3.59,12.42-9.27,19.29-6.44h-4.29c11.58-0.31,12.84,11.43,21.43,17.18-2.14-0.71-4.28-1.43-6.43-2.15,4.13,3.64,6.02,6.5,8.57,8.59-1.43-0.71-2.85-1.43-4.28-2.15,1.43,2.15,2.85,4.3,4.28,6.45-1.43-1.43-2.85-2.87-4.28-4.3,1.8,3.35,1.25,4.77,2.14,8.59-3.16-2.84-3.3-2.3-6.43-4.29,2.17,2.08,4.44,4.2,6.43,6.44-2.17-1.39-5.38-2.5-8.57-4.29,1.18,2.74,1.82,1.76,4.28,4.29-2.22-0.85-4.15-1.41-6.42-2.15,3.33,2.61,3.63,3.56,6.42,6.45-2.45-2.04-4.1-2.94-6.42-4.3,1.42,1.43,2.85,2.87,4.28,4.3-4.64-3.31-5.21-1.46-8.57-2.15,3.12,2.3,3.74,2.92,6.43,6.44-2.52-1.96-3.97-2.97-6.43-4.29,1.49,1.55,2.78,2.79,4.29,4.29-3.97-0.41-3.96-0.44-6.43-2.14,0.48,1.3,1.92,5.33,2.14,6.44-0.71-1.43-1.43-2.86-2.14-4.3v4.3c-0.06,0-3.99-2.06-4.29-2.15,0,3.73,1.77,3.21,2.15,4.3-3.29,0.13-0.31-2.37-4.29,0,1.54,2.03,2.14-0.19,2.14,4.29-0.71-1.43-1.43-2.86-2.14-4.29,0.71,2.15,1.43,4.29,2.14,6.44-1.43-2.15-2.85-4.29-4.28-6.44v6.44c-1.32-3.01-3.17-5.72-4.29-8.59,0.21,2.83-0.35,5.78,0,8.59-0.71-2.15-1.43-4.29-2.14-6.44-0.71,2.15-1.43,4.29-2.15,6.44,1.64-13.7-14.6-21.99-10.71-34.36" fill-rule="evenodd" stroke-miterlimit="10.000000" stroke-width="0.00000000" fill="#371200"/>
 <path d="M148.01,145.05c-4.24-4.91-6.16-13.89-12.85-19.33,0.71,1.44,1.42,2.87,2.14,4.3-5.93-3.48-12.26-8.52-19.29-6.44,2.15-0.72,2.86,0,2.14,2.14-6.7,1.01-10.07,5.3-14.99,8.6h4.28c-2.63,2.15-6.19,4.24-8.57,6.44h6.43c-3.24,2.84-5.12,5.58-8.573,8.59,1.433-1.43,2.853-2.86,4.283-4.3-0.71,2.15-1.43,4.3-2.14,6.45,0.71-0.72,1.43-1.43,2.14-2.15-0.69,3.04-1.1,3.86-2.14,6.44,2.71-1.63,5.95-2.53,8.57-4.29-3.87,3.35-3.6,4.78-6.43,8.59,2.3-2.71,4.54-4.58,6.43-6.44,0.57,2.39-1.26,2.23-2.14,4.29,2.29-0.15,0.85-3.02,4.28-2.14-1.72,1.95-3.21,3.64-4.28,6.44,1.83-1.38,3.51-2.29,6.43-4.3-1.43,1.44-2.86,2.87-4.29,4.3,2.48-0.16,3.58-2.94,6.43-2.15-2.17,2.69-3.11,4.51-4.29,6.44,1.13-0.37,3.56-3.32,4.29-4.29-0.64,2.03-2.32,4.24-2.14,6.44,2.58-1.81,3.89-3.03,6.43-4.29-0.8,2.17-1.9,4.08-2.15,6.44,1.26,0.49,2.45-1.39,4.29-2.15,0.64,1.94-0.54,4.48,0,6.45,0.71-2.15,1.43-4.3,2.14-6.45,0.79,1.8-0.62,4.57,0,6.45,0.72-1.43,1.43-2.87,2.14-4.3-0.71,2.87-1.42,5.73-2.14,8.59,1.43-2.14,2.86-4.29,4.29-6.44v6.44c1.16-3.48,2.74-5.65,4.28-8.59-0.03,2.86,0.1,5.73,0,8.59,0.72-2.14,1.43-4.29,2.15-6.44v6.44c3.44-10.41,12.42-22.64,12.85-34.37" fill-rule="evenodd" stroke-miterlimit="10.000000" stroke-width="0.00000000" fill="#371200"/>
 <path d="M223.01,142.91c9.63-4.92,23.06-19.11,32.15-8.59-5.09-1.94-6.03-1.51-10.72-2.15,8.23,2.58,11.2,6.69,17.14,12.88-10.6,3.06-12.26,10.74-25.71,10.74-4.54,0-10.55-10.68-12.86-12.88" fill-rule="evenodd" stroke-miterlimit="10.000000" stroke-width="0.00000000" fill="#160000"/>
 <path fill-rule="evenodd" fill="#732001" d="M246.58,134.32c10.87,4.55,7.82,18.57-4.28,19.33-22.13,1.38-7.38-15.12,4.28-19.33"/>
 <path d="M246.58,134.32c14.36,3.7-2.36,21.75-19.28,10.73,5.04-5.53,12.01-8.96,19.28-10.73" fill-rule="evenodd" stroke-miterlimit="10.000000" stroke-width="0.00000000" fill="#732001"/>
 <path fill-rule="evenodd" fill="#5b281c" d="M242.3,147.2c3.29-0.77,5.45,0.05,8.57-2.15-4.89,6.69-12.53,7.91-17.15,2.15h8.58"/>
 <path fill-rule="evenodd" fill="#100" d="M246.58,134.32c4.26,7.21-4.73,14.25-12.85,6.44,4.01-2.01,8.53-5.26,12.85-6.44"/>
 <path fill-rule="evenodd" fill="#c1a8a8" d="M242.3,140.76"/>
 <path d="M250.87,149.35c-4.03,5.09-9.23,5.62-15,2.15" stroke-miterlimit="10.000000" stroke-width="0.00000000" fill="none"/>
 <path d="M143.73,145.05c-8.9-5.82-25.5-18.1-32.15-6.44,2.63-1.72,5.98-2.62,8.58-4.29-4.28,5.64-8.84,10.8-12.86,15.03,16.27,4.38,28.22,17.61,36.43-4.3" fill-rule="evenodd" stroke-miterlimit="10.000000" stroke-width="0.00000000" fill="#160000"/>
 <path fill-rule="evenodd" fill="#3f1902" d="M120.15,138.61c-8,6.16-4.9,22.01,8.58,19.33,22.34-4.45,1.95-16.6-8.58-19.33"/>
 <path d="M122.3,138.61c-11.38,2.71-7.39,16.92,4.28,17.18,21.33,0.49,8.1-13.7-4.28-17.18" fill-rule="evenodd" stroke-miterlimit="10.000000" stroke-width="0.00000000" fill="#732001"/>
 <path fill-rule="evenodd" fill="#5b281c" d="M126.58,149.35c-2.85-0.02-5.71,0-8.57,0,5.27,5.55,11.88,5.55,17.15,0h-8.58"/>
 <path fill-rule="evenodd" fill="#100" d="M122.3,138.61"/>
 <path fill-rule="evenodd" fill="#c1a8a8" d="M128.73,145.05"/>
 <path d="M120.15,153.65c3.71,3.01,8.41,2.77,12.86,0" stroke-miterlimit="10.000000" stroke-width="0.00000000" fill="none"/>
 <path fill-rule="evenodd" fill="#96704f" d="M43.013,200.9c0,13.2-2.197,25.79-2.144,38.66,0.714-1.43,1.429-2.86,2.144-4.3-7.519,13.23,4.699,25.93,8.572,38.66v-8.59c3.531,15.49,23.46,36.61,23.571,49.4-4.239-8.93-13.333-15.84-17.145-25.77-0.438,3.59-1.945,7.14-2.141,10.74-0.312-5.04-1.814-10-2.144-15.04-0.714,2.87-1.427,5.73-2.141,8.6,1.324-6.74-0.996-14.23-4.288-19.34-0.549,8.41-0.239,8.72-6.428,12.89,1.367-2.77,3.616-11.4,4.287-17.18-1.429,2.86-2.858,5.73-4.287,8.59,0-10.4,1.343-20.78-4.285-30.07-1.566,4.77-3.112,5.81-4.285,10.74-1.977-13.17,5.607-21.9,6.428-34.37-1.429,1.44-2.858,2.87-4.287,4.3,6.751-8.58,5.132-19.01,8.573-27.92"/>
 <path fill-rule="evenodd" fill="#230000" d="M90.155,20.479c3.925,2.292,5.163,7.082,6.429,4.296,3.916,6.55,1.606,5.461,10.716,6.444-4.93-3.164-6.82-5.685-10.716-10.74-1.609,4.556-2.543,0.008-6.429,0"/>
 <path fill-rule="evenodd" fill="#0f0000" d="M77.297,52.697c-0.032-3.509-1.452-7.284-2.141-10.74-1.429,1.432-2.858,2.864-4.287,4.296-3.445-4.818-6.351-5.647-8.57-10.738-0.268,10.405-10.301,6.327-17.143,2.146,3.244,2.327,5.344,6.237,8.57,8.592h-8.57c1.428,1.432,2.857,2.864,4.285,4.296-6.975,2.559-7.889,4.141-15.001,0,3.575,3.67,7.455,8.755,10.716,10.738h-4.287c3.476,3.912,2.946,4.197,4.287,8.592-3.817-0.738-5.317-0.804-8.572-2.147,2.143,1.432,4.286,2.864,6.428,4.296h-6.428c1.653,2.879,4.192,3.117,6.428,4.295-1.564,3.129-2.365,5.044-2.144,8.591,7.248-5.791,6.24-1.215,6.428-8.591,10.128-1.023,19.582-7.63,23.571-15.036-1.428,0.716-2.857,1.432-4.285,2.148,4.693-2.82,7.209-7.257,10.715-10.738"/>
 <path fill-rule="evenodd" fill="#0f0000" d="M306.58,39.809c1.43-2.863,2.86-5.727,4.29-8.59,1.43,1.432,2.86,2.864,4.29,4.296,3.25-3.886,8-8.607,10.71-10.74-1.67,10.968,6.84,10.466,15,6.444-3.24,2.32-5.54,5.997-8.57,8.59h8.57c-2.15,1.432-4.29,2.864-6.43,4.296,7.05,2.961,7.64,4.67,15,2.147-4.69,3.103-7.82,6.558-12.86,8.592,1.43,0.716,2.86,1.432,4.29,2.147-6.25,3.053-4.13,1.243-6.43,6.443,2.72-0.383,5.82-0.008,8.57,0-2.14,0.716-4.28,1.432-6.43,2.148,1.43,1.432,2.86,2.864,4.29,4.296-5.11,4.118-3.25-0.401-6.43,6.444-0.44-8.965-5.1-16.857-10.71-23.626,2.07,0.314,4.33-0.141,6.42,0-4.25-0.881-7.09-2.833-10.71-4.296,1.43-0.716,2.86-1.432,4.29-2.148-6.02-0.605-11.98-2.888-17.15-6.443"/>
 <path d="M208.01,136.46c-1.02-19.69,10.43-36.976,30-41.88,15.1-3.783,43.01,1.045,51.43-13.962" stroke-miterlimit="10.000000" stroke-width="0.00000000" fill="none"/>
 <path d="M212.3,138.61c4.48-22.05,18.41-38.662,41.11-38.662,20.36,0,37.57,15.592,57.46,4.292" stroke-miterlimit="10.000000" stroke-width="0.00000000" fill="none"/>
 <path d="M216.58,114.98c15.28-15.377,25.94-16.289,47.15-19.326" stroke-miterlimit="10.000000" stroke-width="0.00000000" fill="none"/>
 <path d="M216.58,138.61c-1.17-28.39,27.61-34.37,49.29-34.37" stroke-miterlimit="10.000000" stroke-width="0.00000000" fill="none"/>
 <path d="M223.01,136.46c3.83-11.45,7.93-23.64,19.29-30.07" stroke-miterlimit="10.000000" stroke-width="0.00000000" fill="none"/>
 <path d="M229.44,134.32c-0.19-16.22,15.49-30.17,32.14-27.93,17.9,2.42,25.74,23.5,45,25.78" stroke-miterlimit="10.000000" stroke-width="0.00000000" fill="none"/>
 <path d="M276.58,119.28c7.48,7.82,19.57,15.85,32.15,17.18" stroke-miterlimit="10.000000" stroke-width="0.00000000" fill="none"/>
 <path d="M291.58,121.43c4.71,3.93,10.87,5.39,17.15,4.29" stroke-miterlimit="10.000000" stroke-width="0.00000000" fill="none"/>
 <path d="M248.73,114.98c9.51,0.59,18.7,3.71,27.85,6.45" stroke-miterlimit="10.000000" stroke-width="0.00000000" fill="none"/>
 <path d="M240.16,117.13c10.1-10.06,20.6-3.85,32.14,0" stroke-miterlimit="10.000000" stroke-width="0.00000000" fill="none"/>
 <path d="M201.58,130.02c-2.85-42.275,42.8-40.746,64.29-62.288" stroke-miterlimit="10.000000" stroke-width="0.00000000" fill="none"/>
 <path d="M250.87,41.957c-12.73,11.11-15.33,27.429-28.93,36.514-16.94,11.321-27.05,28.259-24.64,49.399" stroke-miterlimit="10.000000" stroke-width="0.00000000" fill="none"/>
 <path d="M233.72,37.661c-29.86,14.393-45,59.584-45,90.209" stroke-miterlimit="10.000000" stroke-width="0.00000000" fill="none"/>
 <path d="M188.72,52.697c14.29-7.475,24.73-12.813,40.72-17.182" stroke-miterlimit="10.000000" stroke-width="0.00000000" fill="none"/>
 <path d="M227.3,22.626c-5.38,8.884-19.58,13.423-30,17.183" stroke-miterlimit="10.000000" stroke-width="0.00000000" fill="none"/>
 <path d="M186.58,46.253c15.01-5.012,37.93-8.169,49.29-19.331" stroke-miterlimit="10.000000" stroke-width="0.00000000" fill="none"/>
 <path d="M253.01,29.07c-6.93,12.958-23.9,13.889-28.93,28.996-6.23,18.721-24.92,28.898-28.93,50.474" stroke-miterlimit="10.000000" stroke-width="0.00000000" fill="none"/>
 <path d="M199.44,132.17c-0.14-10.41,1.8-20.69,6.43-30.07" stroke-miterlimit="10.000000" stroke-width="0.00000000" fill="none"/>
 <path d="M203.73,134.32c0.71-7.57,4.06-14.18,6.43-21.48" stroke-miterlimit="10.000000" stroke-width="0.00000000" fill="none"/>
 <path d="M250.87,89.21c15.85-9.347,24.26-13.571,36.43-27.923" stroke-miterlimit="10.000000" stroke-width="0.00000000" fill="none"/>
 <line stroke-width="0" y2="114.98" y1="130.02" stroke-miterlimit="10" x2="193.01" x1="193.01" fill="none"/>
 <path d="M184.44,112.84c-0.12-9.46,1.78-18.823,4.28-27.926" stroke-miterlimit="10.000000" stroke-width="0.00000000" fill="none"/>
 <line stroke-width="0" y2="84.914" y1="97.802" stroke-miterlimit="10" x2="184.44" x1="184.44" fill="none"/>
 <line stroke-width="0" y2="16.184" y1="22.626" stroke-miterlimit="10" x2="253.01" x1="248.73" fill="none"/>
 <path d="M255.16,20.479c3.65-2.87,7.71-4.325,12.85-4.295" stroke-miterlimit="10.000000" stroke-width="0.00000000" fill="none"/>
 <line stroke-width="0" y2="16.184" y1="20.479" stroke-miterlimit="10" x2="246.58" x1="242.3" fill="none"/>
 <path d="M295.87,67.732c4.8-4.438,8.38-9.494,10.71-15.035" stroke-miterlimit="10.000000" stroke-width="0.00000000" fill="none"/>
 <path d="M304.44,67.732c2.54-4.63,5.64-7.161,10.72-8.592" stroke-miterlimit="10.000000" stroke-width="0.00000000" fill="none"/>
 <path d="M315.16,65.583h6.42" stroke-miterlimit="10.000000" stroke-width="0.00000000" fill="none"/>
 <path d="M315.16,80.618c3.46-1.221,6.94-1.928,10.71-2.146" stroke-miterlimit="10.000000" stroke-width="0.00000000" fill="none"/>
 <path d="M295.87,119.28c15.06,5.26,33-1.02,47.14,4.3" stroke-miterlimit="10.000000" stroke-width="0.00000000" fill="none"/>
 <path d="M285.16,112.84c15.07,0,30.04-3.16,45-2.15" stroke-miterlimit="10.000000" stroke-width="0.00000000" fill="none"/>
 <path d="M287.3,99.949c13.06,1.941,21.77-7.949,34.28-6.443" stroke-miterlimit="10.000000" stroke-width="0.00000000" fill="none"/>
 <path d="M334.44,149.35c8.52,0.75,15.83,6.31,21.43,12.89" stroke-miterlimit="10.000000" stroke-width="0.00000000" fill="none"/>
 <path d="M334.44,164.38c7.04,0.76,12.69,4.8,17.14,10.74" stroke-miterlimit="10.000000" stroke-width="0.00000000" fill="none"/>
 <path d="M338.72,175.12c1.1,5.43,4.19,10.69,8.58,15.04" stroke-miterlimit="10.000000" stroke-width="0.00000000" fill="none"/>
 <path d="M334.44,188.01c2.75,3.11,4.94,6.79,6.43,10.74" stroke-miterlimit="10.000000" stroke-width="0.00000000" fill="none"/>
 <path d="M289.44,226.67c2.75,3.11,4.94,6.79,6.43,10.74" stroke-miterlimit="10.000000" stroke-width="0.00000000" fill="none"/>
 <path d="M287.3,235.26c0.63,3.69,2.15,7.47,4.28,10.74" stroke-miterlimit="10.000000" stroke-width="0.00000000" fill="none"/>
 <path d="M285.16,246c1.22,3.48,1.92,6.96,2.14,10.74" stroke-miterlimit="10.000000" stroke-width="0.00000000" fill="none"/>
 <path d="M291.58,218.08c1.33,2.66,2.96,5.94,4.29,8.59" stroke-miterlimit="10.000000" stroke-width="0.00000000" fill="none"/>
 <path d="M358.01,192.31c2.88,2.16,5.7,4.28,8.57,6.44" stroke-miterlimit="10.000000" stroke-width="0.00000000" fill="none"/>
 <path d="M360.16,188.01c1.08,2.48,3.45,4.75,6.42,6.45" stroke-miterlimit="10.000000" stroke-width="0.00000000" fill="none"/>
 <line stroke-width="0" y2="188.01" y1="181.57" stroke-miterlimit="10" x2="364.44" x1="360.16" fill="none"/>
 <line stroke-width="0" y2="179.42" y1="175.12" stroke-miterlimit="10" x2="366.58" x1="362.3" fill="none"/>
 <line stroke-width="0" y2="170.83" y1="168.68" stroke-miterlimit="10" x2="366.58" x1="362.3" fill="none"/>
 <path d="M358.01,200.9c1.9,3.27,3.62,5.59,6.43,8.59" stroke-miterlimit="10.000000" stroke-width="0.00000000" fill="none"/>
 <path d="M334.44,194.46v12.88" stroke-miterlimit="10.000000" stroke-width="0.00000000" fill="none"/>
 <path d="M330.16,155.79c3.41,3.27,8.05,4.79,12.85,4.3" stroke-miterlimit="10.000000" stroke-width="0.00000000" fill="none"/>
 <line stroke-width="0" y2="170.83" y1="168.68" stroke-miterlimit="10" x2="338.73" x1="330.16" fill="none"/>
 <path d="M330.16,145.05c5.01,0.85,10.18,2.33,14.99,4.3" stroke-miterlimit="10.000000" stroke-width="0.00000000" fill="none"/>
 <path d="M285.16,166.53c9.2,11.06,17.98,12.84,21.42,27.92" stroke-miterlimit="10.000000" stroke-width="0.00000000" fill="none"/>
 <path d="M287.3,179.42c8.16,5.51,15.68,15.57,17.14,25.77" stroke-miterlimit="10.000000" stroke-width="0.00000000" fill="none"/>
 <path d="M298.01,183.72c7.44,12.72,9.45,23.02,12.86,36.51" stroke-miterlimit="10.000000" stroke-width="0.00000000" fill="none"/>
 <path d="M295.87,170.83c11.84,11.86,13.78,27.34,23.57,38.66" stroke-miterlimit="10.000000" stroke-width="0.00000000" fill="none"/>
 <path d="M291.58,164.38c13.38,5.63,22.88,13.1,30,25.78" stroke-miterlimit="10.000000" stroke-width="0.00000000" fill="none"/>
 <path d="M250.87,273.92c3.37,11.85,4.44,24.28,2.14,36.52" stroke-miterlimit="10.000000" stroke-width="0.00000000" fill="none"/>
 <path d="M253.01,269.63c0.72,7.15,3.94,13.57,8.57,19.33" stroke-miterlimit="10.000000" stroke-width="0.00000000" fill="none"/>
 <line stroke-width="0" y2="273.92" y1="263.18" stroke-miterlimit="10" x2="259.44" x1="255.16" fill="none"/>
 <path d="M257.3,254.59c2.28,3.09,3.77,6.64,4.28,10.74" stroke-miterlimit="10.000000" stroke-width="0.00000000" fill="none"/>
 <path d="M261.58,248.15c1.32,5.78,3.52,11.61,6.43,17.18" stroke-miterlimit="10.000000" stroke-width="0.00000000" fill="none"/>
 <path d="M259.44,239.56c3.58,3.72,6.5,8.13,8.57,12.89" stroke-miterlimit="10.000000" stroke-width="0.00000000" fill="none"/>
 <path d="M160.87,138.61c-4.45-20.36-13.77-34.6-34.29-39.735-18.23-4.566-35.93,1.855-51.424-11.813" stroke-miterlimit="10.000000" stroke-width="0.00000000" fill="none"/>
 <path d="M156.58,140.76c-11.13-23.48-18.27-36.52-45.39-36.52-20.647,0-33.365,14.79-55.319,8.6" stroke-miterlimit="10.000000" stroke-width="0.00000000" fill="none"/>
 <path d="M150.16,117.13c-14.72-16.05-26.35-15.03-47.15-15.03" stroke-miterlimit="10.000000" stroke-width="0.00000000" fill="none"/>
 <path d="M150.16,138.61c0.31-22.01-30.93-38.42-49.29-27.92" stroke-miterlimit="10.000000" stroke-width="0.00000000" fill="none"/>
 <path d="M148.01,138.61c-7.25-10.76-13.3-19.4-23.57-27.92" stroke-miterlimit="10.000000" stroke-width="0.00000000" fill="none"/>
 <path d="M139.44,134.32c-6.03-12.98-18.66-23.63-33.65-23.63-18.354,0-23.845,31.37-43.491,27.92" stroke-miterlimit="10.000000" stroke-width="0.00000000" fill="none"/>
 <path d="M90.155,125.72c-9.44,8.07-17.03,13.76-30,19.33" stroke-miterlimit="10.000000" stroke-width="0.00000000" fill="none"/>
 <path d="M77.297,130.02c-5.297,2.62-11.092,4.11-17.142,4.3" stroke-miterlimit="10.000000" stroke-width="0.00000000" fill="none"/>
 <path d="M118.01,119.28c-9.25-0.4-18.488,2.8-25.711,8.59" stroke-miterlimit="10.000000" stroke-width="0.00000000" fill="none"/>
 <path d="M128.73,121.43c-14.17-6.94-19.8-5.45-34.288,0" stroke-miterlimit="10.000000" stroke-width="0.00000000" fill="none"/>
 <path d="M165.15,130.02c1.04-45.267-49.33-32.371-68.567-57.992" stroke-miterlimit="10.000000" stroke-width="0.00000000" fill="none"/>
 <path d="M113.73,46.253c16.63,29.333,53.87,44.955,57.85,81.617" stroke-miterlimit="10.000000" stroke-width="0.00000000" fill="none"/>
 <path d="M128.73,39.809c28.15,20.684,49.28,53.038,49.28,88.061" stroke-miterlimit="10.000000" stroke-width="0.00000000" fill="none"/>
 <path d="M173.73,52.697c-13.51-6.698-25.98-9.932-40.72-12.888" stroke-miterlimit="10.000000" stroke-width="0.00000000" fill="none"/>
 <path d="M133.01,24.774c6.04,9.823,21.31,13.275,32.14,17.183" stroke-miterlimit="10.000000" stroke-width="0.00000000" fill="none"/>
 <path d="M175.87,48.401c-16.5-5.392-35.98-9.467-51.43-17.182" stroke-miterlimit="10.000000" stroke-width="0.00000000" fill="none"/>
 <path d="M109.44,35.515c20.15,20.215,53.12,40.482,62.14,73.025" stroke-miterlimit="10.000000" stroke-width="0.00000000" fill="none"/>
 <path d="M169.44,132.17c-3.06-9.49-7.02-18.67-10.72-27.93" stroke-miterlimit="10.000000" stroke-width="0.00000000" fill="none"/>
 <path d="M165.15,136.46c-3.45-6.9-6.2-14.13-8.57-21.48" stroke-miterlimit="10.000000" stroke-width="0.00000000" fill="none"/>
 <path d="M115.87,91.358c-13.88,0.644-33.863-12.079-40.714-23.626" stroke-miterlimit="10.000000" stroke-width="0.00000000" fill="none"/>
 <line stroke-width="0" y2="114.98" y1="130.02" stroke-miterlimit="10" x2="173.73" x1="175.87" fill="none"/>
 <path d="M182.3,112.84c-3.18-9.08-3.88-18.659-6.43-27.926" stroke-miterlimit="10.000000" stroke-width="0.00000000" fill="none"/>
 <line stroke-width="0" y2="84.914" y1="97.802" stroke-miterlimit="10" x2="182.3" x1="182.3" fill="none"/>
 <line stroke-width="0" y2="20.479" y1="24.774" stroke-miterlimit="10" x2="109.44" x1="115.87" fill="none"/>
 <path d="M107.3,24.774c-3.08-2.288-6.62-3.783-10.717-4.296" stroke-miterlimit="10.000000" stroke-width="0.00000000" fill="none"/>
 <line stroke-width="0" y2="20.479" y1="24.774" stroke-miterlimit="10" x2="115.87" x1="120.15" fill="none"/>
 <path d="M75.156,93.506c-7.566-2.667-9.943-8.459-12.857-15.034" stroke-miterlimit="10.000000" stroke-width="0.00000000" fill="none"/>
 <path d="M66.584,93.506c-3.899-2.803-7.143-4.773-10.713-6.444" stroke-miterlimit="10.000000" stroke-width="0.00000000" fill="none"/>
 <path d="M55.871,93.506c-2.587-1.826-5.446-2.547-8.573-2.147" stroke-miterlimit="10.000000" stroke-width="0.00000000" fill="none"/>
 <path d="M49.442,89.21c-3.695-1.903-7.086-2.073-10.714,0" stroke-miterlimit="10.000000" stroke-width="0.00000000" fill="none"/>
 <path d="M70.869,125.72c-13.922,3.86-33.621,0.46-44.998,8.6" stroke-miterlimit="10.000000" stroke-width="0.00000000" fill="none"/>
 <path d="M81.585,119.28c-15.16,5.3-30.647-3.39-45,2.15" stroke-miterlimit="10.000000" stroke-width="0.00000000" fill="none"/>
 <path d="M77.297,106.39c-12.228,1.38-22.342-5.24-34.284-4.29" stroke-miterlimit="10.000000" stroke-width="0.00000000" fill="none"/>
 <path d="M36.585,157.94c-9.341,2.31-17.6,7.47-23.571,15.04" stroke-miterlimit="10.000000" stroke-width="0.00000000" fill="none"/>
 <path d="M34.441,172.98c-5.831,3.83-11.485,8.85-14.999,15.03" stroke-miterlimit="10.000000" stroke-width="0.00000000" fill="none"/>
 <path d="M32.3,185.86c-3.474,4.84-5.742,11.01-6.429,17.19" stroke-miterlimit="10.000000" stroke-width="0.00000000" fill="none"/>
 <path d="M36.585,196.6c-3.694,3.38-5.153,7.88-4.285,12.89" stroke-miterlimit="10.000000" stroke-width="0.00000000" fill="none"/>
 <path d="M83.726,233.12c-3.232,2.75-4.745,6.52-4.285,10.73" stroke-miterlimit="10.000000" stroke-width="0.00000000" fill="none"/>
 <path d="M88.014,241.71c-1.825,3.3-3.19,6.74-4.288,10.74" stroke-miterlimit="10.000000" stroke-width="0.00000000" fill="none"/>
 <path d="M90.155,252.45c-3.021,3.18-2.824,7.05,0,10.73" stroke-miterlimit="10.000000" stroke-width="0.00000000" fill="none"/>
 <path d="M81.585,224.52c-1.324,2.66-2.963,5.94-4.288,8.6" stroke-miterlimit="10.000000" stroke-width="0.00000000" fill="none"/>
 <path d="M13.014,203.05c-2.144,2.14-4.287,4.29-6.428,6.44" stroke-miterlimit="10.000000" stroke-width="0.00000000" fill="none"/>
 <path d="M10.87,198.75c-2.435,1.59-3.992,3.82-4.285,6.44" stroke-miterlimit="10.000000" stroke-width="0.00000000" fill="none"/>
 <line stroke-width="0" y2="198.75" y1="192.31" stroke-miterlimit="10" x2="6.585" x1="8.726" fill="none"/>
 <line stroke-width="0" y2="190.16" y1="185.86" stroke-miterlimit="10" x2="6.585" x1="8.726" fill="none"/>
 <line stroke-width="0" y2="181.57" y1="179.42" stroke-miterlimit="10" x2="4.441" x1="8.726" fill="none"/>
 <path d="M13.014,211.64c-0.091,3.34-1.641,6.42-4.288,8.59" stroke-miterlimit="10.000000" stroke-width="0.00000000" fill="none"/>
 <path d="M36.585,203.05c-0.571,5.2,0.138,10.22,2.143,15.03" stroke-miterlimit="10.000000" stroke-width="0.00000000" fill="none"/>
 <path d="M40.87,166.53c-4.451,1.49-8.405,2.81-12.857,4.3" stroke-miterlimit="10.000000" stroke-width="0.00000000" fill="none"/>
 <line stroke-width="0" y2="181.57" y1="179.42" stroke-miterlimit="10" x2="32.3" x1="40.87" fill="none"/>
 <path d="M40.87,153.65c-5.979-0.49-11.26,1.77-14.999,6.44" stroke-miterlimit="10.000000" stroke-width="0.00000000" fill="none"/>
 <path d="M85.87,170.83c-6.517,11.26-17.286,17.64-21.43,30.07" stroke-miterlimit="10.000000" stroke-width="0.00000000" fill="none"/>
 <path d="M81.585,185.86c-6.736,7.46-10.545,16.84-15.001,25.78" stroke-miterlimit="10.000000" stroke-width="0.00000000" fill="none"/>
 <path d="M73.012,190.16c-7.377,11.7-11.824,22.51-10.713,36.51" stroke-miterlimit="10.000000" stroke-width="0.00000000" fill="none"/>
 <path d="M75.156,177.27c-10.591,9.51-19.436,26.9-21.43,40.81" stroke-miterlimit="10.000000" stroke-width="0.00000000" fill="none"/>
 <path d="M77.297,170.83c-12.969,8.87-20.016,18.29-30,30.07" stroke-miterlimit="10.000000" stroke-width="0.00000000" fill="none"/>
 <path d="M124.44,278.22c-2.98,12.36,0.85,23.93,0,36.52" stroke-miterlimit="10.000000" stroke-width="0.00000000" fill="none"/>
 <path d="M124.44,273.92c-5.17,5.11-7.04,12.18-8.57,19.34" stroke-miterlimit="10.000000" stroke-width="0.00000000" fill="none"/>
 <line stroke-width="0" y2="278.22" y1="267.48" stroke-miterlimit="10" x2="115.87" x1="120.15" fill="none"/>
 <path d="M118.01,258.89c-1.82,3.3-3.19,6.74-4.28,10.74" stroke-miterlimit="10.000000" stroke-width="0.00000000" fill="none"/>
 <path d="M115.87,254.59c-4.74,3.86-7.03,9.06-6.43,15.04" stroke-miterlimit="10.000000" stroke-width="0.00000000" fill="none"/>
 <path d="M115.87,243.85c-4.1,3.27-6.46,7.83-6.43,12.89" stroke-miterlimit="10.000000" stroke-width="0.00000000" fill="none"/>
 <path d="M186.58,61.287c3.79-6.071,10.65-9.338,17.15-12.886" stroke-miterlimit="10.000000" stroke-width="0.00000000" fill="none"/>
 <path d="M188.72,72.028c6.09-9.067,14.61-15.702,23.58-21.479" stroke-miterlimit="10.000000" stroke-width="0.00000000" fill="none"/>
 <path d="M193.01,76.323c2.5-3.369,4.64-6.955,6.43-10.74" stroke-miterlimit="10.000000" stroke-width="0.00000000" fill="none"/>
 <path d="M175.87,63.436c-5.31-4.82-11.12-8.97-17.14-12.887" stroke-miterlimit="10.000000" stroke-width="0.00000000" fill="none"/>
 <path d="M173.73,72.028c-8.17-6.213-17.39-16.647-23.57-23.627" stroke-miterlimit="10.000000" stroke-width="0.00000000" fill="none"/>
 <path d="M197.3,35.515c4.69-9.042,10.42-12.082,17.14-19.331" stroke-miterlimit="10.000000" stroke-width="0.00000000" fill="none"/>
 <path d="M216.58,22.626c2.93-3.676,6.53-6.577,10.72-8.59" stroke-miterlimit="10.000000" stroke-width="0.00000000" fill="none"/>
 <path d="M188.72,37.661c3.22-7.688,7.46-15.123,12.86-21.477" stroke-miterlimit="10.000000" stroke-width="0.00000000" fill="none"/>
 <path d="M208.01,16.184c-2.85,2.864-5.71,5.728-8.57,8.591" stroke-miterlimit="10.000000" stroke-width="0.00000000" fill="none"/>
 <line stroke-width="0" y2="20.479" y1="39.809" stroke-miterlimit="10" x2="182.3" x1="182.3" fill="none"/>
 <path d="M186.58,31.219c0.43-4.476,1.93-8.965,4.29-12.888" stroke-miterlimit="10.000000" stroke-width="0.00000000" fill="none"/>
 <path d="M175.87,31.219c-3.08-4.298-5.34-9.625-6.43-15.035" stroke-miterlimit="10.000000" stroke-width="0.00000000" fill="none"/>
 <path d="M173.73,35.515c-5.78-6.397-10.8-13.451-17.15-19.331" stroke-miterlimit="10.000000" stroke-width="0.00000000" fill="none"/>
 <path d="M158.73,22.626c-4.77-2.691-9.77-4.841-15-6.443" stroke-miterlimit="10.000000" stroke-width="0.00000000" fill="none"/>
 <path d="M165.15,35.515c-9.03-9.331-21.62-9.365-32.14-17.184" stroke-miterlimit="10.000000" stroke-width="0.00000000" fill="none"/>
 <path d="M169.44,80.618c-0.75-4.003-3.13-7.945-6.43-10.739" stroke-miterlimit="10.000000" stroke-width="0.00000000" fill="none"/>
 <path d="M216.58,368.43c-5.74,3.6-8.82,8.62-8.57,15.03" stroke-miterlimit="10.000000" stroke-width="0.00000000" fill="none"/>
 <path d="M216.58,351.25c-0.45,13.25-10.95,26.69-19.28,36.51" stroke-miterlimit="10.000000" stroke-width="0.00000000" fill="none"/>
 <path d="M233.72,342.66c0.47,15.62-8.95,25.53-17.14,36.51" stroke-miterlimit="10.000000" stroke-width="0.00000000" fill="none"/>
 <path d="M231.58,334.06c-2.86,9.37-4.58,19.33-8.57,27.93" stroke-miterlimit="10.000000" stroke-width="0.00000000" fill="none"/>
 <path d="M212.3,340.51c-2.16,12.82-3.94,26.35-12.86,36.51" stroke-miterlimit="10.000000" stroke-width="0.00000000" fill="none"/>
 <path d="M186.58,394.2c9.7-16.51,14.58-42.98,17.15-62.28" stroke-miterlimit="10.000000" stroke-width="0.00000000" fill="none"/>
 <path d="M188.72,370.58c-2.68,8.48-4.16,17.16-6.42,25.77" stroke-miterlimit="10.000000" stroke-width="0.00000000" fill="none"/>
 <path d="M178.01,398.5c0-16.84,0.19-32.99-4.28-49.4" stroke-miterlimit="10.000000" stroke-width="0.00000000" fill="none"/>
 <path d="M165.15,338.36c-0.24,11.8,3.98,41.54,8.58,51.55" stroke-miterlimit="10.000000" stroke-width="0.00000000" fill="none"/>
 <path d="M167.3,387.76c-5.58-15.6-8.8-38.39-12.86-55.84" stroke-miterlimit="10.000000" stroke-width="0.00000000" fill="none"/>
 <path d="M154.44,346.95c0.42,13.35,5.68,25.89,8.57,38.66" stroke-miterlimit="10.000000" stroke-width="0.00000000" fill="none"/>
 <path d="M145.87,340.51c8.89,11.85,4.75,31.51,12.86,45.1" stroke-miterlimit="10.000000" stroke-width="0.00000000" fill="none"/>
 <path d="M152.3,381.32c-5.98-7.53-9.53-15.88-15-23.63" stroke-miterlimit="10.000000" stroke-width="0.00000000" fill="none"/>
 <path d="M351.58,286.81c3.01-11.32,4.46-22.67,2.15-34.36" stroke-miterlimit="10.000000" stroke-width="0.00000000" fill="none"/>
 <path d="M349.44,280.37c-1.57,6.5-4.37,12.22-8.57,17.18" stroke-miterlimit="10.000000" stroke-width="0.00000000" fill="none"/>
 <path d="M358.01,278.22c1.03-5.1,1.7-9.74,2.15-15.04" stroke-miterlimit="10.000000" stroke-width="0.00000000" fill="none"/>
 <path d="M310.87,331.92c3.36-5.72,5.16-12.47,6.43-19.33" stroke-miterlimit="10.000000" stroke-width="0.00000000" fill="none"/>
 <path d="M319.44,304c2.09,5.75,2.13,11.3,0,17.18" stroke-miterlimit="10.000000" stroke-width="0.00000000" fill="none"/>
 <path d="M83.726,342.66c0.901-8.2-1.307-15.42,0-21.48" stroke-miterlimit="10.000000" stroke-width="0.00000000" fill="none"/>
 <path d="M77.297,338.36v-17.18" stroke-miterlimit="10.000000" stroke-width="0.00000000" fill="none"/>
 <path d="M88.014,329.77c-0.886,5.93-0.191,11.86,2.141,17.18" stroke-miterlimit="10.000000" stroke-width="0.00000000" fill="none"/>
 <path d="M94.442,338.36c-0.543,5.2,0.164,10.22,2.142,15.04" stroke-miterlimit="10.000000" stroke-width="0.00000000" fill="none"/>
 <path d="M73.012,334.06c-0.718-9.18-3.637-17.86-6.428-25.77" stroke-miterlimit="10.000000" stroke-width="0.00000000" fill="none"/>
 <path d="M60.155,301.85c-1.213,8-0.068,17.71,6.429,21.47" stroke-miterlimit="10.000000" stroke-width="0.00000000" fill="none"/>
 <path d="M240.16,168.68c4.46,14.02,6,34.62,17.14,47.25" stroke-miterlimit="10.000000" stroke-width="0.00000000" fill="none"/>
 <path d="M253.01,196.6c1.81,6.62,5.77,12.15,10.71,17.19" stroke-miterlimit="10.000000" stroke-width="0.00000000" fill="none"/>
 <path d="M255.16,170.83c3.74,4.59,9.7,13.53,17.14,17.18" stroke-miterlimit="10.000000" stroke-width="0.00000000" fill="none"/>
 <path d="M268.01,179.42c2.84,0.86,5.83,2.36,8.57,4.29" stroke-miterlimit="10.000000" stroke-width="0.00000000" fill="none"/>
 <path d="M265.87,155.79c5.46,5.24,11.01,5.95,17.14,10.74" stroke-miterlimit="10.000000" stroke-width="0.00000000" fill="none"/>
 <path d="M268.01,164.38c3.76,3.72,7.98,5.78,12.86,6.45" stroke-miterlimit="10.000000" stroke-width="0.00000000" fill="none"/>
 <path d="M268.01,145.05c6.52,6.59,13.54,2.33,19.29,8.6" stroke-miterlimit="10.000000" stroke-width="0.00000000" fill="none"/>
 <path d="M276.58,142.91c4.33,0.41,8.12,2.75,10.72,6.44" stroke-miterlimit="10.000000" stroke-width="0.00000000" fill="none"/>
 <path d="M280.87,138.61c-5.28,0.05-10.47-1.45-15-4.29" stroke-miterlimit="10.000000" stroke-width="0.00000000" fill="none"/>
 <path d="M276.58,134.32c-5.27,1.17-9.6-0.15-12.85-4.3" stroke-miterlimit="10.000000" stroke-width="0.00000000" fill="none"/>
 <path d="M246.58,123.58c7.63-3.49,14.32-0.33,21.43,2.14" stroke-miterlimit="10.000000" stroke-width="0.00000000" fill="none"/>
 <path d="M242.3,123.58c5.9-4.41,12.02-3.67,19.28-2.15" stroke-miterlimit="10.000000" stroke-width="0.00000000" fill="none"/>
 <path d="M276.58,252.45c5.46,13.1-3.73,29.53,2.15,38.66" stroke-miterlimit="10.000000" stroke-width="0.00000000" fill="none"/>
 <path d="M274.44,282.52c-2.09,5.75-2.13,11.3,0,17.18" stroke-miterlimit="10.000000" stroke-width="0.00000000" fill="none"/>
 <path d="M285.16,271.78v19.33" stroke-miterlimit="10.000000" stroke-width="0.00000000" fill="none"/>
 <path d="M265.87,286.81c3.43,10.59-1.22,21.14,2.14,30.07" stroke-miterlimit="10.000000" stroke-width="0.00000000" fill="none"/>
 <path d="M223.01,293.26c2.1,15.76-7.04,32.09-10.71,47.25" stroke-miterlimit="10.000000" stroke-width="0.00000000" fill="none"/>
 <path d="M227.3,286.81c0,19.39-9.03,37.4-8.57,55.85" stroke-miterlimit="10.000000" stroke-width="0.00000000" fill="none"/>
 <path d="M214.44,293.26c0.53,17.98-6.95,35.46-6.43,53.69" stroke-miterlimit="10.000000" stroke-width="0.00000000" fill="none"/>
 <path d="M203.73,308.29c-3.3,9.95-1,20.12-4.29,30.07" stroke-miterlimit="10.000000" stroke-width="0.00000000" fill="none"/>
 <path d="M195.15,323.32c0.25,13-2.8,25.63-2.14,38.67" stroke-miterlimit="10.000000" stroke-width="0.00000000" fill="none"/>
 <path d="M190.87,312.59c-3.88,14.12-0.95,28.67-4.29,42.95" stroke-miterlimit="10.000000" stroke-width="0.00000000" fill="none"/>
 <path d="M178.01,319.03c-1.2,13.24,1.47,39.98,6.43,51.55" stroke-miterlimit="10.000000" stroke-width="0.00000000" fill="none"/>
 <line stroke-width="0" y2="325.47" y1="304" stroke-miterlimit="10" x2="184.44" x1="184.44" fill="none"/>
 <path d="M169.44,306.14c-0.22,10.45,4.84,19.5,4.29,30.07" stroke-miterlimit="10.000000" stroke-width="0.00000000" fill="none"/>
 <path d="M163.01,297.55c-0.04,9.48,2.43,18.64,4.29,27.92" stroke-miterlimit="10.000000" stroke-width="0.00000000" fill="none"/>
 <path d="M154.44,293.26c-5.95,12.25,3.65,27.49,6.43,38.66" stroke-miterlimit="10.000000" stroke-width="0.00000000" fill="none"/>
 <path d="M148.01,288.96v10.74" stroke-miterlimit="10.000000" stroke-width="0.00000000" fill="none"/>
 <path d="M120.15,200.9c-2.75,7.29-7.4,13.96-10.71,21.48" stroke-miterlimit="10.000000" stroke-width="0.00000000" fill="none"/>
 <path d="M120.15,179.42c-6.18,11.88-14.54,20.32-21.423,32.22" stroke-miterlimit="10.000000" stroke-width="0.00000000" fill="none"/>
 <path d="M109.44,192.31c-4.48,3.34-8.75,6.91-12.857,10.74" stroke-miterlimit="10.000000" stroke-width="0.00000000" fill="none"/>
 <path d="M103.01,183.72c-5.181,3.71-12.826,9.21-17.14,12.88" stroke-miterlimit="10.000000" stroke-width="0.00000000" fill="none"/>
 <path d="M105.16,160.09c-3.27,3.68-9.385,8.08-15.005,10.74" stroke-miterlimit="10.000000" stroke-width="0.00000000" fill="none"/>
 <path d="M105.16,168.68c-5.363,3.4-11.611,6.7-17.146,10.74" stroke-miterlimit="10.000000" stroke-width="0.00000000" fill="none"/>
 <path d="M103.01,145.05c-7.143-1.34-13.653,0.03-19.284,4.3" stroke-miterlimit="10.000000" stroke-width="0.00000000" fill="none"/>
 <path d="M100.87,149.35c-6.042,4.42-11.945,5.37-19.285,8.59" stroke-miterlimit="10.000000" stroke-width="0.00000000" fill="none"/>
 <path d="M94.442,149.35c-4.942-0.7-9.237,0.75-12.857,4.3" stroke-miterlimit="10.000000" stroke-width="0.00000000" fill="none"/>
 <path d="M94.442,138.61c3.854,0.59,7.438-0.11,10.718-2.15" stroke-miterlimit="10.000000" stroke-width="0.00000000" fill="none"/>
 <path d="M100.87,134.32c4.53,0.93,8.11-0.46,10.71-4.3" stroke-miterlimit="10.000000" stroke-width="0.00000000" fill="none"/>
 <path d="M122.3,125.72c-8.25-1.01-15.5,2.11-21.43,6.45" stroke-miterlimit="10.000000" stroke-width="0.00000000" fill="none"/>
 <path d="M126.58,127.87c-5.9-4.4-12.02-3.67-19.28-2.15" stroke-miterlimit="10.000000" stroke-width="0.00000000" fill="none"/>
 <path d="M100.87,256.74c-6.012,14.39,0.67,25.78,0,40.81" stroke-miterlimit="10.000000" stroke-width="0.00000000" fill="none"/>
 <path d="M105.16,286.81v17.19" stroke-miterlimit="10.000000" stroke-width="0.00000000" fill="none"/>
 <path d="M92.299,278.22c1.201,6.44,1.899,12.69,2.143,19.33" stroke-miterlimit="10.000000" stroke-width="0.00000000" fill="none"/>
 <path d="M113.73,288.96c-4.67,9.26,0.09,19.98,0,30.07" stroke-miterlimit="10.000000" stroke-width="0.00000000" fill="none"/>
 <path d="M208.01,153.65c3.27,1.9,5.58,3.62,8.57,6.44" stroke-miterlimit="10.000000" stroke-width="0.00000000" fill="none"/>
 <path d="M210.16,160.09h6.42" stroke-miterlimit="10.000000" stroke-width="0.00000000" fill="none"/>
 <path d="M212.3,162.24h4.28" stroke-miterlimit="10.000000" stroke-width="0.00000000" fill="none"/>
 <path d="M212.3,164.38h4.28" stroke-miterlimit="10.000000" stroke-width="0.00000000" fill="none"/>
 <path d="M212.3,166.53h4.28" stroke-miterlimit="10.000000" stroke-width="0.00000000" fill="none"/>
 <path d="M212.3,168.68c2.65-0.66,4.84,0.01,6.43,2.15" stroke-miterlimit="10.000000" stroke-width="0.00000000" fill="none"/>
 <path d="M212.3,170.83h6.43" stroke-miterlimit="10.000000" stroke-width="0.00000000" fill="none"/>
 <path d="M212.3,172.98c2.65-0.66,4.84,0,6.43,2.14" stroke-miterlimit="10.000000" stroke-width="0.00000000" fill="none"/>
 <path d="M212.3,175.12c3.82-0.79,6.24,0.53,6.43,4.3" stroke-miterlimit="10.000000" stroke-width="0.00000000" fill="none"/>
 <path d="M214.44,179.42h4.29" stroke-miterlimit="10.000000" stroke-width="0.00000000" fill="none"/>
 <path d="M216.58,188.01h2.15" stroke-miterlimit="10.000000" stroke-width="0.00000000" fill="none"/>
 <path d="M214.44,188.01c0.98,1.67,2.37,2.45,4.29,2.15" stroke-miterlimit="10.000000" stroke-width="0.00000000" fill="none"/>
 <path d="M216.58,192.31c-0.71,2.14,0,2.86,2.15,2.14" stroke-miterlimit="10.000000" stroke-width="0.00000000" fill="none"/>
 <path d="M212.3,183.72h4.28" stroke-miterlimit="10.000000" stroke-width="0.00000000" fill="none"/>
 <path d="M216.58,237.41v-6.44" stroke-miterlimit="10.000000" stroke-width="0.00000000" fill="none"/>
 <path d="M214.44,228.82c0.98,1.67,2.37,2.45,4.29,2.15" stroke-miterlimit="10.000000" stroke-width="0.00000000" fill="none"/>
 <line stroke-width="0" y2="230.97" y1="226.67" stroke-miterlimit="10" x2="218.73" x1="216.58" fill="none"/>
 <line stroke-width="0" y2="228.82" y1="224.52" stroke-miterlimit="10" x2="218.73" x1="216.58" fill="none"/>
 <path d="M235.87,233.12v6.44" stroke-miterlimit="10.000000" stroke-width="0.00000000" fill="none"/>
 <line stroke-width="0" y2="243.85" y1="237.41" stroke-miterlimit="10" x2="233.73" x1="233.73" fill="none"/>
 <line stroke-width="0" y2="246" y1="241.71" stroke-miterlimit="10" x2="233.73" x1="233.73" fill="none"/>
 <path d="M231.58,246c-0.71,2.15,0,2.86,2.14,2.15" stroke-miterlimit="10.000000" stroke-width="0.00000000" fill="none"/>
 <line stroke-width="0" y2="252.45" y1="248.15" stroke-miterlimit="10" x2="231.58" x1="231.58" fill="none"/>
 <line stroke-width="0" y2="233.12" y1="228.82" stroke-miterlimit="10" x2="223.01" x1="223.01" fill="none"/>
 <line stroke-width="0" y2="228.82" y1="228.82" stroke-miterlimit="10" x2="227.3" x1="223.01" fill="none"/>
 <line stroke-width="0" y2="226.67" y1="224.52" stroke-miterlimit="10" x2="227.3" x1="227.3" fill="none"/>
 <line stroke-width="0" y2="224.52" y1="224.52" stroke-miterlimit="10" x2="229.44" x1="227.3" fill="none"/>
 <path d="M156.58,237.41c-0.3-1.91,0.48-3.31,2.14-4.29" stroke-miterlimit="10.000000" stroke-width="0.00000000" fill="none"/>
 <path d="M158.73,228.82c-1.43,1.43-2.86,2.86-4.29,4.3" stroke-miterlimit="10.000000" stroke-width="0.00000000" fill="none"/>
 <line stroke-width="0" y2="233.12" y1="228.82" stroke-miterlimit="10" x2="154.44" x1="156.58" fill="none"/>
 <line stroke-width="0" y2="228.82" y1="226.67" stroke-miterlimit="10" x2="152.3" x1="154.44" fill="none"/>
 <line stroke-width="0" y2="233.12" y1="233.12" stroke-miterlimit="10" x2="150.16" x1="150.16" fill="none"/>
 <line stroke-width="0" y2="233.12" y1="228.82" stroke-miterlimit="10" x2="148.01" x1="148.01" fill="none"/>
 <line stroke-width="0" y2="228.82" y1="228.82" stroke-miterlimit="10" x2="145.87" x1="148.01" fill="none"/>
 <line stroke-width="0" y2="228.82" y1="224.52" stroke-miterlimit="10" x2="143.73" x1="143.73" fill="none"/>
 <path d="M163.01,157.94c-1.35,1.8-4.71,3.41-8.57,4.3" stroke-miterlimit="10.000000" stroke-width="0.00000000" fill="none"/>
 <path d="M163.01,164.38h-6.43" stroke-miterlimit="10.000000" stroke-width="0.00000000" fill="none"/>
 <path d="M158.73,166.53h-4.29" stroke-miterlimit="10.000000" stroke-width="0.00000000" fill="none"/>
 <path d="M158.73,168.68h-4.29" stroke-miterlimit="10.000000" stroke-width="0.00000000" fill="none"/>
 <path d="M158.73,170.83h-4.29" stroke-miterlimit="10.000000" stroke-width="0.00000000" fill="none"/>
 <path d="M158.73,170.83c-2.66-0.66-4.85,0.01-6.43,2.15" stroke-miterlimit="10.000000" stroke-width="0.00000000" fill="none"/>
 <path d="M156.58,175.12h-6.42" stroke-miterlimit="10.000000" stroke-width="0.00000000" fill="none"/>
 <path d="M158.73,177.27c-2.48-1.34-4.64,2.34-4.29-2.15-1.43,1.44-2.86,2.87-4.28,4.3" stroke-miterlimit="10.000000" stroke-width="0.00000000" fill="none"/>
 <path d="M158.73,179.42c-3.13-0.4-5.99,0.32-8.57,2.15" stroke-miterlimit="10.000000" stroke-width="0.00000000" fill="none"/>
 <path d="M154.44,183.72h-4.28" stroke-miterlimit="10.000000" stroke-width="0.00000000" fill="none"/>
 <path d="M154.44,190.16h-4.28" stroke-miterlimit="10.000000" stroke-width="0.00000000" fill="none"/>
 <path d="M154.44,192.31c-2.52-0.74-4.5-0.68-4.28,2.14" stroke-miterlimit="10.000000" stroke-width="0.00000000" fill="none"/>
 <path d="M154.44,196.6c-2.65-0.66-4.84,0.01-6.43,2.15" stroke-miterlimit="10.000000" stroke-width="0.00000000" fill="none"/>
 <path d="M156.58,188.01h-4.28" stroke-miterlimit="10.000000" stroke-width="0.00000000" fill="none"/>
 <line stroke-width="0" y2="130.02" y1="140.76" stroke-miterlimit="10" x2="186.58" x1="186.58" fill="none"/>
 <path d="M184.44,138.61c-0.71-2.84-1.44-5.75-2.14-8.59" stroke-miterlimit="10.000000" stroke-width="0.00000000" fill="none"/>
 <line stroke-width="0" y2="134.32" y1="138.61" stroke-miterlimit="10" x2="193.01" x1="190.87" fill="none"/>
 <line stroke-width="0" y2="132.17" y1="138.61" stroke-miterlimit="10" x2="197.3" x1="195.15" fill="none"/>
 <line stroke-width="0" y2="132.17" y1="138.61" stroke-miterlimit="10" x2="178.01" x1="178.01" fill="none"/>
 <path d="M175.87,140.76c-2.14-1.6-2.81-3.79-2.14-6.44" stroke-miterlimit="10.000000" stroke-width="0.00000000" fill="none"/>
 <line stroke-width="0" y2="134.32" y1="140.76" stroke-miterlimit="10" x2="199.44" x1="199.44" fill="none"/>
 <path d="M203.73,140.76c0.98-1.67,2.37-2.45,4.28-2.15" stroke-miterlimit="10.000000" stroke-width="0.00000000" fill="none"/>
 <path d="M212.3,140.76c-1.43,0.71-2.86,1.43-4.29,2.15" stroke-miterlimit="10.000000" stroke-width="0.00000000" fill="none"/>
 <path d="M169.44,140.76c-0.71-0.72-1.43-1.43-2.14-2.15" stroke-miterlimit="10.000000" stroke-width="0.00000000" fill="none"/>
 <path d="M167.3,145.05c-2.9-1.85-5.42-2.04-8.58,0" stroke-miterlimit="10.000000" stroke-width="0.00000000" fill="none"/>
 <line stroke-width="0" y2="145.05" y1="142.91" stroke-miterlimit="10" x2="178.01" x1="178.01" fill="none"/>
 <line stroke-width="0" y2="138.61" y1="142.91" stroke-miterlimit="10" x2="188.73" x1="188.73" fill="none"/>
 <line stroke-width="0" y2="140.76" y1="140.76" stroke-miterlimit="10" x2="195.15" x1="195.15" fill="none"/>
 <line stroke-width="0" y2="203.05" y1="207.34" stroke-miterlimit="10" x2="193.01" x1="190.87" fill="none"/>
 <line stroke-width="0" y2="205.19" y1="207.34" stroke-miterlimit="10" x2="195.15" x1="193.01" fill="none"/>
 <line stroke-width="0" y2="203.05" y1="205.19" stroke-miterlimit="10" x2="188.73" x1="188.73" fill="none"/>
 <line stroke-width="0" y2="205.19" y1="205.19" stroke-miterlimit="10" x2="184.44" x1="186.58" fill="none"/>
 <line stroke-width="0" y2="205.19" y1="207.34" stroke-miterlimit="10" x2="182.3" x1="182.3" fill="none"/>
 <line stroke-width="0" y2="205.19" y1="207.34" stroke-miterlimit="10" x2="180.16" x1="182.3" fill="none"/>
 <line stroke-width="0" y2="205.19" y1="209.49" stroke-miterlimit="10" x2="178.01" x1="178.01" fill="none"/>
 <line stroke-width="0" y2="207.34" y1="209.49" stroke-miterlimit="10" x2="197.3" x1="197.3" fill="none"/>
 <line stroke-width="0" y2="207.34" y1="209.49" stroke-miterlimit="10" x2="173.73" x1="175.87" fill="none"/>
 <path d="M319.44,263.18c4.86,7.4,10.4,14.34,10.72,23.63" stroke-miterlimit="10.000000" stroke-width="0.00000000" fill="none"/>
 <path d="M328.01,267.48c4.32,5.15,8.57,10.74,10.71,17.18" stroke-miterlimit="10.000000" stroke-width="0.00000000" fill="none"/>
 <path d="M325.87,248.15c5.01,2.15,9.99,4.29,15,6.44" stroke-miterlimit="10.000000" stroke-width="0.00000000" fill="none"/>
 <path d="M336.58,248.15c4.89,1.21,9.57,4.37,12.86,8.59" stroke-miterlimit="10.000000" stroke-width="0.00000000" fill="none"/>
 <path d="M306.58,291.11c3.51,6.6,4.97,14,4.29,21.48" stroke-miterlimit="10.000000" stroke-width="0.00000000" fill="none"/>
 <line stroke-width="0" y2="293.26" y1="284.66" stroke-miterlimit="10" x2="313.01" x1="310.87" fill="none"/>
 <path d="M315.16,269.63c1.16,7.26,3.47,12.34,6.42,19.33" stroke-miterlimit="10.000000" stroke-width="0.00000000" fill="none"/>
 <path d="M77.297,207.34c-10.244,10.09-4.133,24.22-8.57,36.51" stroke-miterlimit="10.000000" stroke-width="0.00000000" fill="none"/>
 <path d="M68.728,168.68c-12.424,0.97-13.896,13.45-21.43,21.48" stroke-miterlimit="10.000000" stroke-width="0.00000000" fill="none"/>
 <path d="M62.299,188.01c-8.625,8.6-8.246,23.14-12.857,34.37" stroke-miterlimit="10.000000" stroke-width="0.00000000" fill="none"/>
 <path d="M58.011,220.23c-4.671,8.1-10.468,18.17-10.713,27.92" stroke-miterlimit="10.000000" stroke-width="0.00000000" fill="none"/>
 <path d="M70.869,153.65c-10.805,1.24-15.497,12.25-19.284,21.47" stroke-miterlimit="10.000000" stroke-width="0.00000000" fill="none"/>
 <path d="M75.156,160.09c-6.882-0.68-12.118,2.3-15.001,8.59" stroke-miterlimit="10.000000" stroke-width="0.00000000" fill="none"/>
 <path d="M291.58,200.9c11.58,6.4,12.09,18.67,15,30.07" stroke-miterlimit="10.000000" stroke-width="0.00000000" fill="none"/>
 <path d="M295.87,211.64c5.41,10.88,6.12,24.14,10.71,34.36" stroke-miterlimit="10.000000" stroke-width="0.00000000" fill="none"/>
 <path d="M285.16,160.09c15.8,0.06,25.55,10.05,36.42,19.33" stroke-miterlimit="10.000000" stroke-width="0.00000000" fill="none"/>
 <path d="M295.87,153.65c8.94,1.8,14.85,8.13,23.57,10.73" stroke-miterlimit="10.000000" stroke-width="0.00000000" fill="none"/>
 <path d="M88.014,102.1c-8.362,3.33-17.219,2.73-25.714,0" stroke-miterlimit="10.000000" stroke-width="0.00000000" fill="none"/>
 <path d="M66.584,110.69c-7.838-0.36-13.589-3.94-21.427-4.3" stroke-miterlimit="10.000000" stroke-width="0.00000000" fill="none"/>
 <path d="M274.44,95.654c8.16,1.111,16.68,0.347,23.57-4.296" stroke-miterlimit="10.000000" stroke-width="0.00000000" fill="none"/>
 <path d="M268.01,87.062c7.27-2.814,14.31-6.828,19.29-12.886" stroke-miterlimit="10.000000" stroke-width="0.00000000" fill="none"/>
 <path d="M291.58,89.21c4.04,0.082,7.94-1.446,10.72-4.296" stroke-miterlimit="10.000000" stroke-width="0.00000000" fill="none"/>
 <path d="M306.58,102.1c4.88-1.42,9.84-2.14,15-2.151" stroke-miterlimit="10.000000" stroke-width="0.00000000" fill="none"/>
 <line stroke-width="0" y2="271.78" y1="269.63" stroke-miterlimit="10" x2="163.01" x1="167.3" fill="none"/>
 <line stroke-width="0" y2="267.48" y1="265.33" stroke-miterlimit="10" x2="163.01" x1="169.44" fill="none"/>
 <line stroke-width="0" y2="278.22" y1="273.92" stroke-miterlimit="10" x2="158.73" x1="163.01" fill="none"/>
 <line stroke-width="0" y2="273.92" y1="269.63" stroke-miterlimit="10" x2="158.73" x1="163.01" fill="none"/>
 <line stroke-width="0" y2="269.63" y1="267.48" stroke-miterlimit="10" x2="201.58" x1="197.3" fill="none"/>
 <line stroke-width="0" y2="267.48" y1="267.48" stroke-miterlimit="10" x2="205.87" x1="199.44" fill="none"/>
 <line stroke-width="0" y2="271.78" y1="269.63" stroke-miterlimit="10" x2="210.16" x1="205.87" fill="none"/>
 <line stroke-width="0" y2="278.22" y1="273.92" stroke-miterlimit="10" x2="216.58" x1="210.16" fill="none"/>
 <line stroke-width="0" y2="269.63" y1="267.48" stroke-miterlimit="10" x2="197.3" x1="193.01" fill="none"/>
 <line stroke-width="0" y2="273.92" y1="273.92" stroke-miterlimit="10" x2="199.44" x1="197.3" fill="none"/>
 <line stroke-width="0" y2="273.92" y1="269.63" stroke-miterlimit="10" x2="193.01" x1="193.01" fill="none"/>
 <line stroke-width="0" y2="271.78" y1="269.63" stroke-miterlimit="10" x2="182.3" x1="182.3" fill="none"/>
 <line stroke-width="0" y2="267.48" y1="267.48" stroke-miterlimit="10" x2="175.87" x1="180.16" fill="none"/>
 <line stroke-width="0" y2="271.78" y1="269.63" stroke-miterlimit="10" x2="178.01" x1="180.16" fill="none"/>
 <line stroke-width="0" y2="273.92" y1="269.63" stroke-miterlimit="10" x2="169.44" x1="173.73" fill="none"/>
 <line stroke-width="0" y2="276.07" y1="273.92" stroke-miterlimit="10" x2="169.44" x1="173.73" fill="none"/>
 <line stroke-width="0" y2="267.48" y1="267.48" stroke-miterlimit="10" x2="197.3" x1="193.01" fill="none"/>
 <line stroke-width="0" y2="267.48" y1="265.33" stroke-miterlimit="10" x2="173.73" x1="178.01" fill="none"/>
 <line stroke-width="0" y2="273.92" y1="269.63" stroke-miterlimit="10" x2="190.87" x1="188.73" fill="none"/>
 <path fill-rule="evenodd" fill="#c14f4f" d="M231.58,142.91"/>
</svg>
