<?xml version="1.0" encoding="UTF-8" standalone="no"?>
<svg xmlns:rdf="http://www.w3.org/1999/02/22-rdf-syntax-ns#" xmlns:xml="http://www.w3.org/XML/1998/namespace" xmlns="http://www.w3.org/2000/svg" sodipodi:docname="Pesca.svg" xml:space="preserve" style="enable-background:new 0 0 266.398 251.79;" sodipodi:version="0.32" viewBox="0 0 266.398 251.79" version="1.0" xmlns:cc="http://web.resource.org/cc/" xmlns:dc="http://purl.org/dc/elements/1.1/" sodipodi:docbase="F:\openclip\svg temporanei" xmlns:sodipodi="http://inkscape.sourceforge.net/DTD/sodipodi-0.dtd"><metadata><rdf:RDF xmlns:rdf="http://www.w3.org/1999/02/22-rdf-syntax-ns#" xmlns:cc="http://web.resource.org/cc/" xmlns:dc="http://purl.org/dc/elements/1.1/"><cc:Work rdf:about=""><dc:title>Pesca</dc:title><dc:description/><dc:subject><rdf:Bag><rdf:li>food</rdf:li><rdf:li>fruit</rdf:li></rdf:Bag></dc:subject><dc:publisher><cc:Agent rdf:about="http://www.openclipart.org"><dc:title>Architetto Francesco Rollandin</dc:title></cc:Agent></dc:publisher><dc:creator><cc:Agent><dc:title>Architetto Francesco Rollandin</dc:title></cc:Agent></dc:creator><dc:rights><cc:Agent><dc:title>Architetto Francesco Rollandin</dc:title></cc:Agent></dc:rights><dc:date/><dc:format>image/svg+xml</dc:format><dc:type rdf:resource="http://purl.org/dc/dcmitype/StillImage"/><cc:license rdf:resource="http://web.resource.org/cc/PublicDomain"/><dc:language>en</dc:language></cc:Work><cc:License rdf:about="http://web.resource.org/cc/PublicDomain"><cc:permits rdf:resource="http://web.resource.org/cc/Reproduction"/><cc:permits rdf:resource="http://web.resource.org/cc/Distribution"/><cc:permits rdf:resource="http://web.resource.org/cc/DerivativeWorks"/></cc:License></rdf:RDF></metadata>
<path fill="#0a192e" d="M146.46,0c11.75,3.427,23.15,9.789,32.47,17.555,4.49,3.741,9.45,7.271,13.66,11.384,4.14,4.044,7.61,8.679,11.75,12.78,0.83-3.184,3.28-7.988,5.29-10.577,0.4-0.517,2.26-1.784,2.94-2.498,1.18-1.239,1.11-2.478,3.23-2.791-2.84-0.807-0.35-6.122,3.23-4.334,2.56,1.279,2.84,1.643,5.58,1.689,1.83,0.031,3.61-0.203,5.44,0-2.32,5.879-3.21,13.921-7.54,18.744-3.53,3.92-6.95,8.138-11.27,11.225-2.82,2.022-10.46,3.337-6.31,6.463,2.12,1.602,5.56,0.924,8.08,0.441,5.57-1.069,10.53-5.371,16.1-7.064,3.29-1.004,6.64-1.94,10.05-2.484,2.84-0.454,9.29,0.115,11.47-1.703,1.77-1.476,13.72-10.702,15.56-8.433,0.9,1.11-1.34,3.641-1.77,4.554-1.27,2.75-1.81,5.744-3.23,8.52-2.69,5.271-8.1,12.357-13.83,14.146-6.91,2.16-14.36,1.57-21.28,3.776,7.92,12.176,16.71,22.587,22.16,36.317,5.6,14.11,8.55,27.45,8.55,42.58,0,3.53,0.66,7.05,0.58,10.57-0.06,3.16-0.99,5.86-2.05,8.96-2.04,5.94-3.12,12.16-5.57,17.94-5.84,13.82-15.8,20.9-26.48,30.6-10.29,9.34-21.59,18.14-20.1,33.43-2.45-0.14-7.24-3.13-8.74-4.63-3.6-3.58-3.69-4.06-8.6-3.74-1.97,0.12-3.91-0.54-6.02-0.44-3.43,0.14-6.9-0.16-10.33-0.32-3.06-0.15-6.16-0.42-9.23-0.42-2.97,0-6.95,1.03-9.66-0.1-3.13-1.31-6.48-0.86-9.76-1.11-3.08-0.24-5.3-1.34-8.1-2.46-3.13-1.25-6.19-2.27-9.18-3.67-9.59-4.49-19.64-11.76-26.827-19.66-2.866-3.16-6.232-6.21-9.903-8.4-2.558,6.77-10.387,12.62-11.165,19.98-0.695,6.57,2.676,15.51,4.849,21.59-0.03-0.83-0.155-1.76-0.294-2.49-2.32,14.55-21.057-13.72-24.141-16.8-4.682-4.68-7.48-7.59-7.59-14.64-0.118-7.55,2.666-14.91,2.938-22.48-5.917,1.74-11.399,2.2-14.836,7.94-1.904,3.17-4.366,5.75-7.492,7.49-3.487,1.93-7.673,1.77-11.606,2.79-6.313,1.63-12.117,4.56-17.483,8.22,0.231-2.95,2.686-4.27,4.407-6.31,2.301-2.74,1.835-5.17,3.122-8.23,2.543-6.03,7.871-10.08,10.761-15.86,2.895-5.8,2.602-12.02,6.139-17.81,2.93-4.79,8.601-10.79,13.767-13.19,2.849-1.33,12.128-1.25,11.092-6.39-0.545-2.71-1.684-7.46-3.012-9.63-2.023-3.29-7.805-5.9-10.651-8.74-2.829-2.82-9.434-3.25-13.146-3.45-2.692-0.14-7.355-0.9-8.815-3.82-1.716-3.42,7.407-11.34,9.048-14.44,3.006-5.68,2.557-12.707,2.557-18.903,0-6.567,1.232-13.646,2.428-20.098,2.577-13.911,9.771-24.653,17.85-35.844,8.456-11.713,19.548-21.946,33.047-27.499,22.056-9.071,45.046-7.939,67.866-8.226"/>
<path fill="#ffcc23" d="M145.43,4.701c6.47,1.363,11.89,4.485,17.46,7.891,2.55,1.561,5.29,3.47,8.12,4.462,3.01,1.052,2.56,1.894,4.39,3.512,3.35,2.961,7.13,5.422,10.43,9.402,2.89,3.481,9.76,9.595,10.8,13.809,0.56,2.262,0.68,7.015-2.57,4.554-1.23-0.928-0.87-3.396-1.47-4.554-1.37-2.659-3.68-5.182-5.58-7.638-4.35-5.612-7.88-8.066-14.37-10.876-5.91-2.563-11.97-4.943-18.24-6.459-11.5-2.779-24.47-3.312-36-2.938-1.3,0.042-4.09,0.194-4.99,1.323-0.33,0.415-1.04,2.23,0.68,1.817,7.12-1.711,13.55-0.779,20.71-0.156,6.48,0.564,12.92,0.444,19.16,2.305,2.25,0.673,4.62,2.498,6.85,2.498,3.41,0,6.72,1.237,9.58,3.058,2.5,1.592,4.47,3.833,7.49,4.211,3.18,0.399,5.66,3.313,7.36,5.805,1.72,2.513,3.44,5.606,4.71,8.375,0.89,1.954,1.17,2.193,1.17,4.453,0,4.122,0.56,3.015-2.64,4.066-5.76,1.888-12.39,1.193-18.22,2.938-6.93,2.075-11.84,7.426-17.9,11.066-2.14,1.284-4.54,0.717-6.93,1.714-2.61,1.094-4.23,2.307-7.05,3.011-3.26,0.815-5.78,2.76-8.81,4.04-2.77,1.171-4.58,1.036-7.81,1.198-6.33,0.318-12.4,1.696-18.63,2.548-6.783,0.926-12.03,6.327-16.9,10.684-4.436,3.969-8.357,9.36-11.465,14.42-3.589,5.83-1.694,11.53-4.206,17.56-2.967,7.12-3.784,13.93-4.892,21.61-3.68-1.22-7.848,1.8-11.458-0.15-4.023-2.18-5.984-8.18-9.869-10.95-3.902-2.79-7.74-4.73-12.35-6.08-3.68-1.07-9.265,0.59-12.303-0.89,7.773-8.04,22.095-17.1,16.306-30.558-2.776,6.018-3.375,12.788-6.903,18.508,1.897-13.65-1.126-28.141,2.487-41.508,0.8-2.961,1.693-6.295,3.428-8.861,0.954-1.41,2.653-3.11,3.191-4.718,0.479-1.429,0.05-3.38,0.588-4.995,0.879-2.636,2.719-4.886,4.249-7.182,1.763-2.646,2.514-5.606,4.358-8.188,4.061-5.684,9.079-11.188,15.501-14.184,0.938-0.438,1.008-3.411,3.436-4.453,2.651-1.139,4.209-2.91,6.684-4.334,5.494-3.163,12.019-4.155,17.917-6.33,6.749-2.488,11.721-4.667,19.101-5.128,11.8-0.74,23.6,0.672,35.4,0.292"/>
<path fill="#0a192e" d="M101.95,20.125c-0.81,5.235-8.431,3.291-10.871,7.345-4.67-1.568-0.14-3.904,3.159-4.848,2.407-0.688,5.723-2.137,7.712-2.497"/>
<path fill="#d18434" d="M223.14,36.431c-0.17-2.035,1.06-4.64,2.35-6.316,0.03,2.254-1.41,4.51-2.35,6.316"/>
<path fill="#0a192e" d="M70.221,39.076c-0.612,2.581-2.874,2.806-4.849,3.966-3.046,1.789-2.134,2.782-3.819,5.142-1.24,1.737-4.375,3.64-6.022,5.289,2.378-10.345,16.876-17.818,25.414-22.77-0.521,4.878-7.521,5.776-10.724,8.373"/>
<path fill="#d18434" d="M214.77,31.583c0.69-0.132,1.37-0.293,2.06-0.44-0.67,0.636-1.17,0.337-2.06,0.44"/>
<path fill="#d18434" d="M218.3,43.336c-2.92-0.144-3.09,3.912-5.58,4.847,0.85-3.331,3.81-5.866,4.99-9.107,0.99-2.733,1.83-4.237,2.94-6.757-1.16,3.593-0.67,7.707-2.35,11.017"/>
<path fill="#d18434" d="M215.21,35.991c-1.7,0.599-1.49,3.019-2.5,4.701-2.35,3.915-5.82,6.483-10.13,7.932,2.94-2.537,4.19-6.022,6.75-8.814,1.21-1.308,2.7-3.46,3.83-4.407,0.8-0.673,3.72-3.221,2.05,0.588"/>
<path fill="#3F0" d="M243.86,65.958c-6.39,1.63-9.35-1.604-14.25-4.554,1.69-0.795,0.92-1.755-1.03-1.615,2.83-6.472,9.17-7.492,15.43-7.492-0.84,1.842-7.28,7.124-6.47,9.107,0.87,2.11,5.51,0.77,6.91,0.441,0.06-0.149,0.33-0.861,0.44-1.176-1.18-0.146-2.35-0.293-3.53-0.44,1.65-1.809,2.5-6.203,4.11-7.492,1.53-1.225,6.14-1.646,8.23-2.791,2.58-1.411,5.04-3.036,7.64-4.407-2.47,8.31-7.69,19.31-17.48,20.419"/>
<path fill="#d18434" d="M210.36,48.624c-1.8,1.95-4.44,3.165-7.05,3.599-1.82,0.305-1.76,3.266-0.14,4.334-7.41-2.913-2.02-1.838-1.47-6.464,3.34,1.14,6.81,0.783,7.93-3.085,0.17,0.26,0.75,1.667,0.73,1.616"/>
<path fill="#0a192e" d="M248.12,59.789h-1.47c2.64-2.498,5.29-4.995,7.93-7.492,0.56,4.417-5.43,3.853-6.46,7.492"/>
<path fill="#0a192e" d="M51.71,60.669c0.367-2.356,1.57-4.166,3.378-5.729-1.239,1.838-1.573,4.385-3.378,5.729"/>
<path fill="#3F0" d="M227.4,56.116c-2.63,2.473-6.86,10.199-10.57,5.288,2.9-2.684,6.99-3.822,10.57-5.288"/>
<path fill="#ffee4b" d="M204.64,63.314c10.8,7.333,25.72,14.521,31.38,27.036,1.49,3.311,1.9,6.926,3.5,10.13,1.58,3.15,3.24,6.24,4.76,9.42,3.04,6.35,5.84,12.53,7.07,19.52,2.37,13.47,2.46,27.44-0.63,40.68-1.6,6.86-3.8,13.57-6.86,19.92-3.55,7.35-8.01,11.98-14.29,17.06-12.73,10.27-25.42,19.9-30.52,36.04-1.13-1.89-2.38-0.44-3.96-1.17-3.59-1.65-3.33-4.05-7.73-4.62-7.23-0.95-14.54-0.76-21.76-1.6-3.2-0.37-7.66-0.13-10.62-1.42-2.65-1.15-3.31-2.52-6.83-2.13-3.03,0.34-4.81-1.32-7.64-1.84-3.48-0.63-5.93-0.7-9.03-2.5-0.64-0.36-0.14-1.71-1.11-1.32-0.39,0.16-0.65,0.25-1.02,0-0.56-0.37-0.74-0.99-1.11-1.54-1.2-1.81-5.8-2.34-7.81-3.46-6.42-3.6-10.91-9.51-15.54-15.06-7.851-9.42-21.01-20.48-21.01-33.92,0-1.88,0.084-3.69,0.248-5.57,0.07-0.81-2.329-2.59-2.892-3.61-1.533-2.8-1.639-7.02-1.911-10.14-0.511-5.86-2.305-13.56,0.734-18.95-4.453-0.63,1.289-4.8-0.072-6.61-2.669-3.56,1.542-11.89,2.718-15.87,0.958-3.24,2.062-6.42,3.672-9.4,1.837-3.395,4.719-5.271,6.903-8.225,0.279-0.377-0.201-1.545,0.294-2.204,0.718-0.956,1.441-0.125,1.984-1.102,1.589-2.86,4.147-2.073,6.682-3.158,3.17-1.355,4.19-3.59,8.08-3.672,3.79-0.08,7.15,1.42,10.58,2.791,1.98,0.792,3.58-0.499,5.87,1.029,0.94,0.625,1.78,1.408,2.65,2.13,1.05,0.877,0.8,1.72,1.47,2.424,2.6,2.717,8.2,1.672,10.28,5.582,1.43,2.695,0.41,2.045-1.17,3.525-1.7,1.58-2.62,1.83-3.53,4.55-0.49,1.5-0.91,2.85-2.06,3.97,1.26-2.72,2.06-5.99,1.18-8.96-1.02,1.34-1.94,6-4.19,3.75-2.11-2.12-5.53-4.4-8.59-3.31,1.76,1.37,3.52,2.74,5.29,4.11-0.9-0.01-1.6,0.58-2.21,0.74,1.65,1.29,2.86,4.13,5.29,3.08,1.03,4.56-4.09,4.38-3.52,8.96-0.59-0.14-1.18-0.29-1.77-0.44-0.14,1.57-0.29,3.14-0.44,4.7-3.38-1.97-17.5-9.62-20.71-7.34,5.11,5.45,13.68,6.65,20.27,9.55-1.71,1.61-0.18,2.95-0.15,4.85,0.02,0.75,0.53,1.34,0.37,2.13-0.21,1.04-2.36,0.7-2.42,0.95-0.27,1.14,1.39,3.72,2.2,5.29-1.65-0.23-2.65,0.95-1.76,2.64-3.86-1.31-2.82,6.13,1.76,1.91,3.18,3.75,2.72,7.37-2.11,8.41-5.81,1.25-11.49,0.95-16.4,4.81,4.19,0.12,8.29-0.6,12.34-1.61,1.56-0.39,8.59-3.71,8.82-1.47,0.02,0.2-22.25,6.05-18.37,8.96,4.49,3.36,18.34-12.6,21.75-4.11,0.72,1.81,0.84,4.03,0.98,5.97,0.32,4.07,2.24,3.07,4.45,5.05,1.35,1.2,2.55,4,2.2,5.73-1.01-1.62-2.5-2.78-3.82-4.12-0.59,2.15,0.82,3.52,1.84,5.22,2.03,3.38-2.57,5.39-4.92,7.12-1.13,0.84-7.63,6.47-3.38,6.47,1.39,0,3.01-1.98,3.82-2.94-0.73,2.98-0.23,3.54,2.57,1.54,2.33-1.66,4.57-3.33,6.1-5.8-1.51,3.8-6.15,6.48-5.29,11.01,1.72-2.96,7.99-10.24,11.16-10.28,1.34-0.01,2.56,1.26,3.53,1.98,1.58,1.2,0.72,2.36,1.17,3.31,0.72,1.5,0.2,1.22,1.77,2.5,1.18,0.96,2.4,0.41,3.23,2.05,1.4,2.8-3.09,5.91-1.91,9.11,2.6-1.69,3.98-6.85,7.49-6.46-1.63,2.04-3.23,4.17-2.65,6.9,1.76-1.75,3.91-3.88,4.12-6.46,0.33,1.71-0.59,3.1-0.59,4.77,0,0.73,0.85,1.97,1.76,1.69,0.65-0.2,1.64-4.51,1.91-5.29,3.44,1.82,7.68,1.59,11.37,2.64,4.34,1.24,3.93,4.29,6.7,6.77,0.93,0.82,2.07,0.35,3.09,0.73,2.08,0.78,3.75,3.1,4.18-0.81,0.19-1.67-0.22-3.26-0.22-4.92,0-2.12,1.84-2.89,1.91-4.55,0.1-2.09-2.56-3.48-1.76-5.88,0.31-0.95,2.57-1.98,3.31-3.01,0.78-1.1,1.64-3.79,3.01-4.34,2.75-1.1,6.96,3.57,9.31,5.01,3.54,2.18,6.94,4.61,10.52,6.75,0.14-0.15,0.29-0.3,0.44-0.44-3.88-3.18-8.02-5.77-12.14-8.62-5.63-3.9-7.43-6.53-3.58-12.32,2.05-3.08,1.3-9.19,6.1-6.31,1.64,0.99,5.93,2.42,7.56,1.25-1.19-1.83-3.18-2.77-5.29-3.09,2.88-0.64,5.58,1.63,8.38,0.44-3.98-1.15-7.7-4.1-12.05-3.08,0.72,0.53,1.42,1.2,2.2,1.61-1.33-0.96-0.71-0.47-2.2,0.44,0.31-1.77,0.26-8.99,1.47-9.99,1.62-1.34,4.85,0.96,6.9-1.02-0.9-0.72-1.57-1.4-2.64-1.62,1.96-0.19,4.19-2.67,1.32-3.53-2.3-0.69-3.62,3.03-5.58,3.53,1.59-5.63-1.31-11.17-0.29-16.6,0.41-2.22-0.39-1.22,1.46-2.65,1.25-0.95,3.8-1.22,5.29-1.76,3.46-1.25,6.57-2.53,8.96-5.43-4.35,0.56-8.12,1.48-12.04,3.52,3.02-2.27,6.37-3.72,8.81-6.76-2.35,0.85-2.31-2.11-4.26-2.05-2.24,0.06-2.13,3.82-3.67,5.29-1.05,1-5.41,3.39-6.91,3.23-1.21-0.13-3.33-4.53-3.08-0.15-3.14-1.55-3.45-4.6-2.72-8.96,0.4-2.4-0.14-3.9-0.81-6.24-0.79-2.8,1.93-2.55,3.23-4.04,3.51-4-1.44-1.31-2.64-3.24-2.44-3.92,7.11-5.86,6.02-10.719-1.68,1.48-11.11,11.199-12.48,10.279-2.38-1.58-4.54-6.258-7.94-4.99,0.53,0.82,0.84,1.9,1.47,2.64-1.09-0.92-2.84-1.16-3.82-2.05-1.52-1.39-0.76-1.63-1.47-3.234-1.18-2.671-1.53-2.956-1.02-6.023,0.33-2.038,1.56-3.661-0.44-5.289-0.44,0.811-1.37,1.375-1.77,2.203-0.13-0.901-0.78-1.74-0.88-2.644-2.55,3.499-2.53,9.119-7.93,9.108-2.36-0.005-4.53-1.345-7.05-1.176,0.31-2.495-0.05-5.822-3.09-6.316,0.52-1.898-0.18-4.03,0.44-5.876,0.77-2.302,2.82-4.266,4.14-6.338,2.53-3.974,6.68-9.616,10.85-12.024,9.14-5.275,20.6-2.938,29.39-0.737"/>
<path fill="#3F0" d="M233.72,67.134c-2.52,0.433-5.51,1.656-8.08,0.881-2.94-0.891-5.38-3.559-1.76-5.288,3.36-1.605,8.11,2.26,9.84,4.407"/>
<path fill="#0a192e" d="M51.27,62.874c0.632,2.842-4.019,10.771-6.316,12.193,1.752-4.167,2.793-9.594,6.316-12.193"/>
<path fill="#ff9e99" d="M168.06,64.049c-2.39,1.787-4.14,4.274-6.76,5.729,1.66-2.18,4.24-5.605,6.76-5.729"/>
<path fill="#ffc225" d="M159.24,71.247c-0.86,2.395-2.56,4.527-2.64,7.198-0.04,1.313,1.14,2.612,0.81,3.6-0.55,1.648-0.73,3.313-1.11,4.994-0.4,1.847,1.12,7.713-0.88,7.713-1.57,0-2.95-0.338-3.96,1.028-0.63-4.284-6.71-5.299-9.7-7.492-2.68-1.96-6.11-4.03-9.55-3.084,2.59,0.998,17.17,8.964,15.43,11.017-1-2.394-2.76-2.595-4.85-3.525-1.78-0.791-3.33-2.8-4.55-3.379-0.98-0.458-3.03,0.175-4.27-0.293-1.1-0.418-2.35-1.583-3.23-2.35,2.54-1.508-0.03-1.923,1.03-3.085,2.2-2.413,8.13-2.877,11.02-4.554,1.47-0.855,2.71-1.834,3.92-3.036,0.59-0.594,1.57,0.533,2.54,0.097,1.83-0.82,2.65-2.643,4.85-2.644-2.79,4.086-2.44,8.99-3.49,13.569-1.15,4.984-1.49,6.147,3.64,4.867,2.48-0.621-0.07-4.971-0.26-7.364-0.38-4.974,0.83-11.043,5.25-13.277"/>
<path fill="#0a192e" d="M147.64,86.672c-1.83-3.082-0.63-6.277,0.44-9.402-0.15,3.134-0.3,6.268-0.44,9.402"/>
<path fill="#0a192e" d="M42.309,84.028c-2.413,4.934-4.033-0.358-1.469-2.645,0.94,0.707,1.381,1.598,1.469,2.645"/>
<path fill="#0a192e" d="M200.96,96.808c-1.62,3.121-3.94,5.812-6.76,7.932,1.12-3.47,3.59-6.222,6.76-7.932"/>
<path fill="#ff9e99" d="M81.531,102.98c-0.428-1.8,1.104-2.77,2.057-4.116-0.386,1.486-1.186,2.896-2.057,4.116"/>
<path fill="#d18434" d="M180.4,106.65c5.3,2.56,6.81,10.6,12.72,11.87,1.14,0.24,2.52,1.94,2.41,3.41-0.05,0.56-1.37,1.05-1.32,1.76,0.09,1.55,1.01,2.07,1.76,3.53,2.24,4.36,2.47,9.72,4.41,13.95,2.01,4.41,2.16,9.54,1.32,14.69-1.32-0.58-1.87-2.01-2.94-3.08-1.27-1.27-2.89,0.54-2.2,1.91,0.78,1.57,2.34,5.84,4.4,3.82,0,3.05-0.95,3.85-1.32,6.17-0.26,1.62,0.57,2.54-0.29,4.26-0.74,1.48-0.87,2.75-2.06,3.96-0.44,0.46-2.14-0.4-2.65,0-0.48,0.4-0.33,1.56-0.73,2.06-0.95,1.17-1.64,2.98-2.51,4.28-3.57,5.36-4.99,9.05-5.72,15.26-0.15,1.31,0.35,2.27-0.44,3.45-0.18,0.28-6.06-3.77-6.9-4.19-5.95-2.95-12.68-4.59-18.7-7.74-2.97-1.56-6.14-3.2-8.4-5.74-1.18-1.32-4.99-8.99-5.76-8.99-5.94,0-3.38-11.89-6.22-15.13-1.88-2.16-3.22-0.16-3.6-4.34-0.29-3.24-0.73-6.52-1.1-9.77-1.02-9.06,1.96-14.77,4.86-23.08,2.21-6.31,4.06-15.23,12.48-15.99,0.26,3.79,5.68-1.38,7.73-1.69,3.55-0.55,7.36-0.41,10.92-0.08,5.1,0.48,7.72,1.29,9.85,5.44"/>
<path fill="#0a192e" d="M183.48,118.4c3.07,2.71,4.77,6.62,5.87,10.49,0.58,2.01,1.19,4.01,1.77,6.02,0.59,2.08,2.27,2.21,2.79,3.76,0.97,2.91,1.13,7.57,1.47,10.58,0.58,5.16-1.51,10.68-2.35,15.72-0.7-0.84-1.93-1.23-2.65-2.06-2.99,4.65-3.8,21.83-9.84,22.77-0.17-0.2-0.61-0.89-0.73-1.17,4.71-2.82,2.74-8.7,4.63-12.86,1.94-4.26,4.23-14.31,7.56-16.52,1.65-1.1,1.25-4.2,1.03-5.88-0.41-3.04-1.59-3.45-2.94-6.02-1.43-2.73-0.64-5.95-1.17-8.89-0.54-2.96-3.79-5.46-5.73-7.56,4.96-1.73-1.58-8.76-3.11-10.51-4.85-5.53-11.19-11.8-19.22-11.09,6.57-7.008,18.67,9.8,22.62,13.22"/>
<path fill="#ff9e99" d="M132.21,107.38c-0.86-0.38-1.76-0.68-2.64-1.02,0.85,0.83,1.6,0.88,2.64,1.02"/>
<path fill="#ff9e99" d="M195.67,108.85c0.71-0.85,1.47-1.66,2.21-2.49-0.46,1.29-1.15,2.66-2.21,2.49"/>
<path fill="#0a192e" d="M153.95,109.44c0.05,0.49,0.1,0.98,0.15,1.47-5.52-1.07-8.41,6.75-9.4,10.73-0.73,2.93,1.04,12.16-2.94,9.54-1.53,5.15,0.02,13.04,2.65,17.78,1.11,2.01,4.58,2.44,4.92,3.82,0.27,1.08-0.97,1.84-0.96,2.79,0.02,1.39,0.14,1.56,0.59,2.94,0.76,2.31,2.44,4.17,3.23,6.46,0.96,2.76,2.73,6.56,5.36,8.81,2.95,2.52,4.54,6.12,7.72,8.52,2.65,2.01,6.09,1.54,5.58,5.29-3.68-1.56-6.86-4.8-9.85-7.41-2.23-1.96-5.05-1.85-5.76-5.13-0.89-4.17-4.52-7.23-6.6-10.8-0.99-1.69-0.94-5.04-2.01-6.2-1.55-1.69-2.62-3.72-3.07-5.99-0.88-4.37-1.28-8.05-3.27-12.06-2.51-5.07-1.65-7.72,1.32-12.64,2.58-4.24,2.68-7.8,4.04-12.34,0.79-2.6,5.88-10.77,8.3-5.58"/>
<path fill="#0a192e" d="M175.11,126.34c5.18,8.53,8.43,18.39,7.12,28.41-0.43,3.22-0.21,6.68-1.25,9.78-1.31,3.95-2.23,2.41-5.28,2.64-0.06-0.81-0.5-3.21,0.14-3.81,0.96-0.91,1.59,1.05,2.5,0.58,2.83-1.46,1.26-4.31,1.69-7.27,0.26-1.83,1.43-2.92,1.1-4.92s-2.31-3.23-2.79-5.14c-0.55-2.21,2.45-3.22,1.98-4.63-0.81-2.44-1.22-4.91-2.49-7.2-0.88-1.58-4.87-3.24-5.22-4.18-0.4-1.08,1.13-2.2,1.03-3.24-0.32-3.12-4.87-7.35-7.2-9.1-0.86-0.65-4.28-1.77-3.52-3.09,0.94-1.66,3.07,0.37,3.67,0.74,3.33,2.04,7.12,7.23,8.52,10.43"/>
<path fill="#0a192e" d="M165.41,123.25c-1.97,3.62-6.24-0.48-5.58-3.23,2.04,0.53,4.81,1.52,5.58,3.23"/>
<path fill="#0a192e" d="M149.55,139.56c2.98-0.65,2.51,3.67,2.86,5.87,0.54,3.46,1.19,6.99,2.43,10.29,1.18,3.14,2.88,5.63,5.06,8.15,1.7,1.96,3.38,1.8,4.92,4.48,1.19,2.05,1.64,4.52,3.97,5.73,0.98,0.5,3.18-0.1,3.97,0.73,3.11,3.3-1.87,4.48-3.97,4.85-0.26-1.41-1.39-1.61-1.91-2.79-0.94-2.12-0.23-3.74-2.5-5.44-1.96-1.47-4.99-2.21-6.17-4.55-0.85-1.7,0.39-2.66-1.09-4.28-0.96-1.06-1.61-2.31-2.2-3.6-2.61-5.64-13.61-28.52-6.11-32.67-2.2,4.45-0.67,9.2,0.74,13.23"/>
<path fill="#ff9e99" d="M72.865,136.47c0.301-2.87,0.653-5.88,1.909-8.52-0.574,2.77-1.011,6.04-1.909,8.52"/>
<path fill="#0a192e" d="M168.06,134.27c-2.32,2.79-3.59-3.83-4.12-5.29,2.88,0.47,3.06,3.59,4.12,5.29"/>
<path fill="#ff9e99" d="M74.039,147.05c0.146-3.12-2.679-5.42-1.028-8.52-0.441,2.96,1.771,5.51,1.028,8.52"/>
<path fill="#0a192e" d="M171.44,144.84c-2.96,1.41-4.57-3.66-4.12-5.72,2.08,1.32,3.82,3.19,4.12,5.72"/>
<path fill="#3F0" d="M66.106,158.51c-3.51,0.81-6.691,1.85-8.961,4.85-1.781-2.36-4.191-3.5-6.831-4.63-3.733-1.6-2.342-1.48-0.515-3.75,1.194-1.48,2.889-3.94,4.701-4.85,3.041-1.52,6.509-0.61,9.695-1.47-0.105,3.52,3.083,6.17,1.911,9.85"/>
<path fill="#ff9e99" d="M76.683,164.97c-0.886-5.48-3.146-11.47-1.909-17.04,0.92,5.7,1.451,11.29,1.909,17.04"/>
<path fill="#0a192e" d="M175.55,152.78c-1.89,0.39-3.66-1.71-4.11-3.09,1.9,0.14,3.63,1.63,4.11,3.09"/>
<path fill="#0a192e" d="M166.59,160.27c0.39-0.34,0.78-0.69,1.17-1.03-3.96-4.11,9.72-3.88,3.68,0-2.71-2.32-2.3,2.74-5.88,1.32-4.27-1.69-4.26-6.78-4.26-10.43,2.14,3.28,1.72,7.76,5.29,10.14"/>
<path fill="#0a192e" d="M59.203,154.39c-0.686-1.03-1.372-2.05-2.058-3.08,1.343,0.75,2.392,1.81,2.058,3.08"/>
<path fill="#3F0" d="M53.914,162.33c2.348,1.59,0.854,2.95-0.587,4.26-2.504,2.27-4.462,1.02-7.199-0.15,1.259,3.06-2.581,5.92-5.288,6.46-2.208,0.45-5.368-0.69-7.787-0.44-2.789,0.29-5.45,1-8.08,1.91,0.687-3.76,4.964-5.54,7.787-7.49,1.685-1.16,2.205-1.35,3.819-1.76,1.191-0.3,1.784,0.76,3.084-0.15-0.515-0.32-3.083-0.92-3.23-1.17-0.791-1.35,2.511-2.1,4.259-2.8,4.988-1.98,9.443-2.59,13.222,1.33"/>
<path fill="#3F0" d="M67.575,166.44c-6.514,3.52-11.896,8.56-14.69,15.57-1.317,3.31-0.977,5.19-4.259,6.83-1.97,0.99-4.289,1.23-6.316,2.13,4.374-7.42-5.899-17.95,7.491-18.51,0.152,2.92-4.001,11.85-2.203,13.22,7.16-6.84,0.695-17.14,11.752-21.15,1.986-0.72,3.618-1.61,5.803-1.61,2.119,0,1.572,2.32,2.422,3.52"/>
<path fill="#0a192e" d="M174.08,163.79c-0.71,0.11-1.48,0-2.2,0,1.27-1.21,1.43-0.6,2.2,0"/>
<path fill="#0a192e" d="M129.13,163.79c-1,1.31-2.58,1.69-4.11,2.21,0.9-1.44,2.64-1.51,4.11-2.21"/>
<path fill="#0a192e" d="M221.68,164.97h3.08-3.08"/>
<path fill="#0a192e" d="M45.54,166.44c-1.13,0.01-1.788,0.24-2.496-0.88,0.751,0.23,2.277,0.77,2.496,0.88"/>
<path fill="#0a192e" d="M196.26,170.85c-1.52,1.43-3.67,1.15-5.14,2.64-1.28-3.47,2.11-5.67,4.11-7.93,1.55,1.29,1.31,3.68,1.03,5.29"/>
<path fill="#0a192e" d="M178.63,176.58c0.8-1.96,0.87-4.14,2.35-5.73,0.16,2.06-0.12,4.99-2.35,5.73"/>
<path fill="#3F0" d="M68.751,184.07c-3.563-2.14-6.248-4.5-10.578-4.85,2.26-3.42,5.81-5.63,9.109-7.93,0.592,3.62,6.591,10.05,1.469,12.78"/>
<path fill="#3F0" d="M37.608,174.37c-1.729,3.39-7.379,5.19-9.095,7.21-0.927,1.09-6.9,6.64-6.624,7.78,0.332,1.37,2.559,0.03,3.084-0.59-1.44,6.52-8.304,10.81-12.193,15.86,3.122,0,3.059,0.09,5.142-1.76,1.623-1.44,2.958-3.56,4.261-5.29,2.712-3.59,5.57-7.12,8.08-10.87,0,6.27,0.327,13.94-4.847,18.51,0.342,0.3,0.685,0.59,1.027,0.88-6.272,1.86-12.729,2.14-18.95,4.41,1.841-5.06,5.207-8.69,8.374-12.93,3.653-4.88,4.582-8.67,5.288-14.54,0.761-6.33,11.005-11.37,16.453-8.67"/>
<path fill="#3F0" d="M41.133,187.15c0.408,3.88-2.47,6.73-4.995,9.26-1.524,1.52-1.655,3.57-2.791,5.14-1.012,1.4-2.945,2.54-4.259,3.67,1.118-5.21,4.069-11.77,3.302-17.13-0.474-3.32-0.387-3.94,1.765-6.52,1.713-2.06,3.723-3.63,6.244-4.55,0.975,3.08,1.913,7.16,0.734,10.13"/>
<path fill="#0a192e" d="M207.28,182.3c0.05,0.59,0.1,1.18,0.15,1.77-1.62-0.88-3.23-1.77-4.85-2.65,1.53-1.58,6.46-2.53,4.7,0.88"/>
<path fill="#3F0" d="M67.135,185.98c0.201,6.46-7.154,5.8-9.989,10.06-0.797,1.2-4.771,1.9-2.644,4.33,2.189-2.89,5.353-4.21,8.52-5.73,1.908,7.68-4.58,14.27-4.151,21.94,0.393,7.03,6.793,15.13,9.881,21.25-1.056-8.42-6.458-15.26-7.786-23.57-0.941-5.9,2.019-7.89,4.114-12.71,0.716-1.65,0.011-3.33,1.761-4.85,2.868,5.32,6.752,10.77,7.569,16.88,0.398,2.98-1.294,8.88-4.483,10.59-0.27-0.87-1.575-2.34-2.204-1.03-0.622,1.3,2.41,5.58,3.232,6.32,1.197,1.08,2.633,1.01,3.819,2.64,1.659,2.29,1.519,9.57-1.175,11.02,1.746,1.97,3.959,0.46,3.819,4.41-2.743-0.19-8.275-3.94-9.695-6.32-0.2-0.33-0.372-2.58-0.734-3.37-0.339-0.74-1.504-2.52-1.909-3.09-1.18-1.65-2.884-3.31-4.261-4.85-0.833-0.93-2.439-3.6-3.451-4.4-2.743-2.2-6.391-2.38-6.391-6.7,0-5.9,0.511-11.81,1.244-17.65,0.403-3.22,0.776-6.43,1.309-9.63,0.328-1.96-0.075-6.4,0.974-8.04,3.019-4.71,11.16-0.69,12.631,2.5"/>
<path fill="#ff9e99" d="M82.56,184.51c-1.121-0.89-2.409-2.09-2.498-3.67,1.919,0.16,2.133,2.52,2.498,3.67"/>
<path fill="#3F0" d="M78.152,193.91c2.057,2.64,2.976,6.02,4.995,8.67-2.45,1.28-2.43,2.78-3.086,5.14-0.283,1.02-0.197,1.98-0.734,2.94-0.576,1.03-1.881,0.49-2.644,2.5-0.836-3.28-1.915-6.31-3.128-9.46-0.977-2.54-1.263-7.86-2.894-9.49-1.632-1.64-4.532-0.18-2.571-3.46,1.132-1.89,3.673-2.93,5.51-4.04,1.186,2.64,2.516,5.93,4.552,7.2"/>
<path fill="#0a192e" d="M180.4,187.59c1.23,0.55,0.65,3.66,0.14,4.41,0-1.41,0.04-3.26-0.14-4.41"/>
<path fill="#ff9e99" d="M95.194,206.1c-2.161-2.09-3.98-4.89-4.115-7.93,1.533,1.88,6.514,5.29,4.115,7.93"/>
<path fill="#0a192e" d="M64.931,218.44c-0.637-1.47-1.273-2.94-1.91-4.4,0.871,1.42,2.232,2.93,1.91,4.4"/>
<path fill="#ff9e99" d="M117.38,224.61c-4.34-0.48-9.86-4.46-10.88-8.81,3.35,0.52,8.94,6.52,10.88,8.81"/>
<path fill="#3F0" d="M72.865,225.79c-0.245,0.49-0.49,0.98-0.735,1.47,0.048-0.07,0.871-1.76,0.735-1.47"/>
<path fill="#ff9e99" d="M142.35,235.78c-2.77-0.64-6.4-0.36-8.52-2.5,3.06,0.51,6.23,0.9,8.52,2.5"/>
<path fill="#ffae0a" d="M67.723,70.218c10.242-10.438,21.769-19.109,36.547-21.893,14.89-2.805,29.5-2.989,44.55-1.316,6.05,0.672,14.33,0.476,19.53,3.671,3.31,2.033,6.74,5.961,11.16,3.746,4.25-2.126,6.35-10.043,3.97-14.176-2.78-4.828-12.25-8.222-17.17-10.157-25.31-9.948-56.66-9.548-80.857,3.479-11.148,6.003-20.855,16.334-27.366,27.059-2.436,4.012-5.294,8.874-0.647,12.524,3.408,2.678,8.846,1.273,10.283-2.937"/>
</svg>
