<?xml version="1.0" encoding="UTF-8" standalone="no"?>
<svg xmlns:rdf="http://www.w3.org/1999/02/22-rdf-syntax-ns#" xmlns:xml="http://www.w3.org/XML/1998/namespace" xmlns="http://www.w3.org/2000/svg" width="277.61" sodipodi:docname="quattro farfalle.svg" xml:space="preserve" style="enable-background:new 0 0 277.61 263.331;" height="263.33" sodipodi:version="0.32" viewBox="0 0 277.61 263.331" version="1.1" xmlns:cc="http://web.resource.org/cc/" xmlns:dc="http://purl.org/dc/elements/1.1/" sodipodi:docbase="F:\openclip\svg da inviare" xmlns:sodipodi="http://inkscape.sourceforge.net/DTD/sodipodi-0.dtd"><metadata><rdf:RDF xmlns:rdf="http://www.w3.org/1999/02/22-rdf-syntax-ns#" xmlns:cc="http://web.resource.org/cc/" xmlns:dc="http://purl.org/dc/elements/1.1/"><cc:Work rdf:about=""><dc:title>Quattro farfalle</dc:title><dc:description/><dc:subject><rdf:Bag><rdf:li>insect</rdf:li></rdf:Bag></dc:subject><dc:publisher><cc:Agent rdf:about="http://www.openclipart.org/"><dc:title>Open Clip Art Library</dc:title></cc:Agent></dc:publisher><dc:creator><cc:Agent><dc:title>Architetto Francesco Rollandin</dc:title></cc:Agent></dc:creator><dc:rights><cc:Agent><dc:title>Architetto Francesco Rollandin</dc:title></cc:Agent></dc:rights><dc:date/><dc:format>image/svg+xml</dc:format><dc:type rdf:resource="http://purl.org/dc/dcmitype/StillImage"/><cc:license rdf:resource="http://web.resource.org/cc/PublicDomain"/><dc:language>en</dc:language></cc:Work><cc:License rdf:about="http://web.resource.org/cc/PublicDomain"><cc:permits rdf:resource="http://web.resource.org/cc/Reproduction"/><cc:permits rdf:resource="http://web.resource.org/cc/Distribution"/><cc:permits rdf:resource="http://web.resource.org/cc/DerivativeWorks"/></cc:License></rdf:RDF></metadata>
<path d="M213.51,105.95c6.42-0.754,11.97-1.815,18.17-3.636,5.418-1.592,10.396-5.877,14.807-9.265,8.612-6.615,14.383-19.048,15.628-29.62,1.422-12.071-0.619-24.466-7.714-34.628-7.489-10.728-17.822-17.049-30.097-20.654-21.748-6.388-50.846,8.397-57.359,30.507-1.607,5.457-4.076,12.301-3.396,18.083,0.774,6.583,1.928,12.252,3.802,18.612,3.322,11.278,14.228,19.905,24.038,25.131,7.01,3.74,14.35,4.61,22.12,5.47" stroke="#D966FF" stroke-linecap="square" stroke-miterlimit="10" stroke-width="2.2495" fill="none"/>
<path d="M208.4,35.611c-1.984-11.882-16.57-15.316-26.941-15.316-5.822,0-10.892,0.796-16.538,2.206-3.74,0.934-10.988,5.966-11.669,10.061-0.85,5.102,0.523,9.409,5.045,12.42,4.204,2.8,7.49,5.611,10.916,9.35,2.693,2.939,5.638,6.204,8.236,8.792,2.293,2.286-3.782,5.911-0.285,8.792" stroke="#FFF" stroke-linecap="square" stroke-miterlimit="10" stroke-width="5.9986" fill="none"/>
<path d="M177.16,71.917c2.445,1.182,5.873,0.568,8.52,0.568,4.381,0,0.151,4.342-0.568,6.24-1.364,3.596-0.13,4.443,2.84,5.672,2.458,1.017,4.52,2.414,4.544,5.673,0.013,1.72-2.272,3.826-2.272,5.389,0,0.557-2.119,4.102-2.555,4.538-2.976,2.975-2.712,14.788,3.123,14.465" stroke="#FFF" stroke-linecap="square" stroke-miterlimit="10" stroke-width="5.9986" fill="none"/>
<path d="M190.79,114.46c4.606-1.93,6.357-8.047,6.815-12.479,0.416-4.019-0.664-9.98,3.976-11.913,1.43,3.32,5.987-6.313,6.246-7.942,0.77-4.847,0.523-10.244,0.936-15.188,0.454-5.446,0.288-10.916,0.709-16.378,0.2-2.607-0.293-5.332-0.493-7.935-0.172-2.234,0.667-5.04-0.583-7.014" stroke="#FFF" stroke-linecap="square" stroke-miterlimit="10" stroke-width="5.9986" fill="none"/>
<path d="M213.51,29.372c3.858-1.054,4.329-8.72,0-9.076-5.17-0.425-4.49,9.61,0,9.076" fill-rule="evenodd" clip-rule="evenodd" fill="#BF00BF"/>
<path d="M211.24,60.004c-0.145,1.208,0.485,8.281,1.704,8.509,2.107,0.394,2.271-6.032,2.271-7.249,0-8.824,1.1-17.742,1.688-26.546,0.339-5.092-6.355-5.726-6.799-0.241-0.67,8.286,0.77,17.211,1.14,25.527" fill-rule="evenodd" clip-rule="evenodd" fill="#BF00BF"/>
<path d="M218.62,35.611c0-11.91,17.593-15.316,26.941-15.316,9.392,0,26.581,2.519,28.516,14.118,0.784,4.708-3.152,8.642-6.615,11.409-3.465,2.768-7.01,5.001-10.224,8.509-1.327,1.449-2.89,4.564-4.543,5.389-0.813,0.406-3.976,2.975-3.976,3.971,0,2.735,4.382,6.747,0.567,8.225" stroke="#FFF" stroke-linecap="square" stroke-miterlimit="10" stroke-width="5.9986" fill="none"/>
<path d="M249.29,71.917c-2.734,1.323-6.631-0.699-9.085,0.568-2.742,1.415,0.349,4.096,1.135,6.24,1.154,3.148,0.771,5.672-3.124,5.672-2.936,0-3.691,3.883-3.691,5.957,0,1.966,0.658,4.345,1.988,5.672,0.844,0.842,2.556,2.649,2.556,3.971,0,1.177,0.884,1.883,1.137,3.121,0.266,1.299,0,2.99,0,4.325,0,3.268-0.171,6.397-3.977,7.02" stroke="#FFF" stroke-linecap="square" stroke-miterlimit="10" stroke-width="5.9986" fill="none"/>
<path d="M236.23,114.46c-11.102-4.65-3.104-17.917-10.791-24.393-1.721,4.365-6.021-6.601-6.246-7.942-0.83-4.937-1.136-10.108-1.136-15.188,0-5.467-0.569-10.898-0.569-16.378,0-4.141-1.104-11.246,1.137-14.949" stroke="#FFF" stroke-linecap="square" stroke-miterlimit="10" stroke-width="5.9986" fill="none"/>
<path d="M208.4,35.611c-2.038-12.205-17.062-15.316-27.585-15.316-9.549,0-25.915,2.36-27.872,14.118-0.964,5.793,3.371,8.167,6.898,11.692,1.65,1.648,3.98,2.275,5.669,3.96,1.635,1.631,3.282,3.639,4.839,5.399,2.056,2.325,7.384,6.187,7.384,9.077,0,2.137-4.479,7.942,1.489,7.942,2.691,0,10.014-1.416,7.881,2.835-1.657,3.303-5.107,9.076,1.42,9.076,3.463,0,3.845,5.271,3.406,7.376-0.601,2.879-2.777,4.986-3.975,7.374-1.558,3.109-1.703,6.105-1.703,9.855,0,2.483,0.611,4.063,2.838,5.176,1.664,0.831,4.672-0.665,5.26-2.427,1.381-4.14,3.261-6.994,3.261-11.471,0-3.531,0.166-8.624,3.976-10.211,1.43,3.32,5.987-6.313,6.246-7.942,0.77-4.847,0.523-10.244,0.936-15.188,0.454-5.446,0.288-10.916,0.709-16.378,0.2-2.607-0.293-5.332-0.493-7.935-0.2-2.234,0.64-5.041-0.61-7.015" fill-rule="evenodd" clip-rule="evenodd" fill="#4736FF"/>
<path d="M218.62,35.611c0-12.229,18.128-15.316,27.585-15.316,10.068,0,26.027,3.053,28.013,14.962,0.434,2.606-3.967,10.565-7.039,10.565-1.16,0-3.883,2.635-4.828,3.404-1.997,1.625-3.55,3.544-5.406,5.399-1.723,1.722-3.189,3.759-4.817,5.378-1.051,1.045-3.189,2.539-3.407,3.971-0.459,3.016,5.046,6.448,0.126,8.089-2.436,0.812-9.78-1.105-9.78,2.122,0,2.24,6.841,10.21-0.001,10.21-4.091,0-4.543,3.91-4.543,7.092,0,3.037,2.982,5.107,3.976,7.091,1.453,2.904,1.705,6.113,1.705,9.643,0,4.865-4.127,8.844-7.679,3.529-2.692-4.03-3.113-7.025-3.113-11.755,0-0.263-0.384-3.708-0.714-4.696-0.688-2.055-1.587-3.821-3.262-5.231-1.721,4.365-6.021-6.601-6.246-7.942-0.83-4.937-1.136-10.108-1.136-15.188,0-5.467-0.569-10.898-0.569-16.378,0-4.141-1.1-11.246,1.14-14.949" fill-rule="evenodd" clip-rule="evenodd" fill="#4736FF"/>
<path d="M203.29,0.441c0,2.653,0.091,5.859,1.313,8.296,1.682,3.357,2.902,4.747,6.07,6.453" stroke="#D966FF" stroke-linecap="square" stroke-miterlimit="10" stroke-width="0.7498" fill="none"/>
<path d="M203.29,1.576c0,3.081,0.303,6.281,1.703,9.076,1.665,3.324,2.529,3.977,5.68,5.673" stroke="#D966FF" stroke-linecap="square" stroke-miterlimit="10" stroke-width="0.7498" fill="none"/>
<path d="M210.67,16.892c0.733-0.748,0.874-1.406,0-1.701" stroke="#D966FF" stroke-linecap="square" stroke-miterlimit="10" stroke-width="0.7498" fill="none"/>
<path d="M205.56,11.219c2.038,2.741,2.119,3.827,5.68,4.538" stroke="#D966FF" stroke-linecap="square" stroke-miterlimit="10" stroke-width="0.7498" fill="none"/>
<path d="M223.16,0.441c0,5.316-1.487,13.139-7.384,14.749" stroke="#D966FF" stroke-linecap="square" stroke-miterlimit="10" stroke-width="0.7498" fill="none"/>
<path d="M223.16,1.576c0,5.429-1.374,13.107-7.384,14.749" stroke="#D966FF" stroke-linecap="square" stroke-miterlimit="10" stroke-width="0.7498" fill="none"/>
<path d="M215.78,16.892c-0.41-0.658-0.541-1.153,0-1.701" stroke="#D966FF" stroke-linecap="square" stroke-miterlimit="10" stroke-width="0.7498" fill="none"/>
<path d="M220.89,11.219c-0.363,2.424-2.793,4.29-5.112,4.538" stroke="#D966FF" stroke-linecap="square" stroke-miterlimit="10" stroke-width="0.7498" fill="none"/>
<path d="M191.36,41.851c-3.372,0.397-2.914,5.673,0.853,5.673,1.561,0,3.444-0.245,4.543,0.851,1.29,1.288-0.021,1.979,0.853,3.687,1.122,2.196,9.087,0.517,9.087,5.105,0,4.835,2.035,9.239,0.566,14.182-1.604,5.398-9.221,6.451-11.925,1.135-0.766-1.505,0.196-4.909-0.853-5.957-1.926-1.924-2.456-1.511-5.395-1.985-1.429-0.231-4.341-1.185-4.544-2.837-0.239-1.941,1.579-2.147,2.556-3.12,3.801-3.788-2.602-4.146-4.828-4.254-2.959-0.144-8.179-3.183-4.826-6.524,2.058-2.051,6.212-2.198,2.556-4.821-1.944-1.395-3.838-1.242-6.035-1.791-1.784-0.445-4.631-2.18-6.177-2.18-1.476,0-2.203-3.404-0.566-3.404,1.31,0,2.681-2.097,1.986-3.403-1.168-2.197-10.342-0.331-8.234-4.538,1.965-3.923,9.467-5.401,13.346-5.673,1.808-0.126,5.212,0.101,6.531,1.418,1.636,1.632-0.609,3.58-1.987,4.822-0.539,0.486-2.046,0.916-1.704,2.269,0.549,2.173,4.262,2.413,5.68,3.12,2.85,1.432,17.73,3.205,8.5,8.225" fill-rule="evenodd" stroke="#4736FF" stroke-linecap="square" clip-rule="evenodd" stroke-miterlimit="10" stroke-width="0.7498" fill="#FFE859"/>
<path d="M235.09,41.851c3.204,0.88,3.026,3.773,0.567,5.105-1.444,0.782-5.991,0.088-6.814,1.702-0.579,1.134,1.168,2.06,0.566,3.403-0.524,1.171-2.793,1.135-3.849,1.135-4.458,0-6.373,4.956-6.373,8.722,0,3.867-1.602,7.318,0.862,11.007,2.196,3.29,7.65,4.671,10.223,0.819,1.247-1.869,1.977-3.269,1.977-5.516,0-1.516-0.373-2.649,1.136-3.403,3.535-1.766,6.817,0.473,9.087-3.688-1.351-2.972-5.894-3.206-2.556-6.524,2.381-2.366,7.032,1.699,9.37-2.553,2.473-4.496-2.303-4.568-4.259-6.523-2.768-2.768,8.26-4.495,9.371-4.822,3.454-1.017,7.306-1.81,4.544-5.672-0.717-1.002-3.03-1.451-1.136-3.404,1.424-1.467,4.641-0.191,6.247-1.134,4.954-2.909-3.211-6.757-6.035-7.463-2.427-0.606-13.095-2.681-13.274,1.791-0.043,1.059,3.817,4.538,4.258,4.538,1.197,0-0.607,2.008-0.851,2.269-1.332,1.431-3.017,1.223-4.543,1.986-2.692,1.345-6.96,0.58-9.655,2.552-2.34,1.706-1.22,4.8,1.13,5.673" fill-rule="evenodd" stroke="#4736FF" stroke-linecap="square" clip-rule="evenodd" stroke-miterlimit="10" stroke-width="0.7498" fill="#FFE859"/>
<path d="M63.578,105.95c6.7-0.744,12.303-1.784,18.73-3.79,5.717-1.784,10.819-6.041,15.483-9.624,4.208-3.233,7.229-9.566,10.102-14.03,3.037-4.719,4.32-10.516,4.973-16.06,1.411-11.966-1.041-24.09-8.494-33.768-3.896-5.059-7.591-9.848-12.966-13.49-5.363-3.634-11.359-5.425-17.453-7.327-11.601-3.619-25.166,0.385-35.39,5.832-11.065,5.895-18.047,16.344-22.121,27.875-8.357,23.652,5.048,50.902,27.829,60.412,6.272,2.62,12.642,3.23,19.309,3.97" stroke="#FF1900" stroke-linecap="square" stroke-miterlimit="10" stroke-width="2.2495" fill="none"/>
<path d="M58.467,35.611c-1.982-11.882-16.572-15.316-26.941-15.316-8.651,0-26.491,1.996-28.348,13.11-0.951,5.697,2.006,9.195,6.447,12.417,3.308,2.4,7.024,5.018,10.223,8.509,1.505,1.643,2.533,4.385,4.543,5.389,1.252,0.625,3.408,2.539,3.408,3.971,0,2.442-3.668,7.15,0,8.225" stroke="#FFF" stroke-linecap="square" stroke-miterlimit="10" stroke-width="5.9986" fill="none"/>
<path d="M27.799,71.917c2.663,1.288,6.009-0.501,8.519,0.568,3.225,1.375,0.523,3.948-0.568,6.24-1.541,3.236-1.041,5.672,3.124,5.672,2.951,0,3.896,4.08,3.692,6.241-0.366,3.863-3.206,5.831-4.544,9.075-1.478,3.585-3.604,14.52,2.84,14.749" stroke="#FFF" stroke-linecap="square" stroke-miterlimit="10" stroke-width="5.9986" fill="none"/>
<path d="M40.861,114.46c10.908-4.561,3.121-18.643,10.791-24.393,0.8,1.857,3.29-1.017,4.249-1.975,1.577-1.575,1.786-3.927,1.999-5.967,0.526-5.047,0.512-10.111,0.936-15.188,0.457-5.483,0.768-10.876,0.768-16.378,0-4.14,1.104-11.246-1.136-14.949" stroke="#FFF" stroke-linecap="square" stroke-miterlimit="10" stroke-width="5.9986" fill="none"/>
<path d="M63.578,29.372c4.106-1.123,4.962-9.077,0-9.076-4.962,0-4.105,7.952,0,9.076" fill-rule="evenodd" clip-rule="evenodd" fill="#FFB900"/>
<path d="M61.874,60.004c0,1.43-0.389,7.778,1.136,8.509,2.503,1.2,2.138-5.634,2.272-6.807,1.002-8.778,1.283-17.785,1.68-26.698,0.244-5.491-6.06-5.821-6.792-0.53-0.522,3.779,0.562,8.424,0.815,12.217,0.297,4.435,0.593,8.872,0.889,13.309" fill-rule="evenodd" clip-rule="evenodd" fill="#FF1900"/>
<path d="M68.688,35.611c2.004-12.003,16.513-15.316,26.941-15.316,8.648,0,26.497,1.996,28.348,13.11,0.949,5.698-2.005,9.194-6.447,12.417-3.186,2.311-7.202,5.097-10.223,8.509-1.501,1.695-2.24,3.488-3.975,5.105-1.188,1.106-3.976,2.36-3.976,4.254,0,2.377,3.766,7.121,0,8.225" stroke="#FFF" stroke-linecap="square" stroke-miterlimit="10" stroke-width="5.9986" fill="none"/>
<path d="M99.357,71.917c-2,1.361-5.846,0.568-8.234,0.568-3.896,0-0.428,4.107,0.136,5.798,1.273,3.815,1.827,4.681-2.125,6.113-2.796,1.014-4.665,2.173-4.543,5.673,0.057,1.624,0.864,4.266,1.988,5.389,1.419,1.419,1.622,3.323,2.84,4.538,2.513,2.509,2.445,15.187-3.124,14.465" stroke="#FFF" stroke-linecap="square" stroke-miterlimit="10" stroke-width="5.9986" fill="none"/>
<path d="M86.295,114.46c-10.469-4.38-3.254-18.741-10.791-24.393-0.923,2.141-3.244-1.295-3.976-2.27-1.391-1.852-1.962-3.3-2.272-5.672-0.657-5.028-0.513-10.118-0.936-15.188-0.457-5.483-0.768-10.876-0.768-16.378,0-4.142-1.104-11.245,1.135-14.949" stroke="#FFF" stroke-linecap="square" stroke-miterlimit="10" stroke-width="5.9986" fill="none"/>
<path d="M58.467,35.611c-2.036-12.204-17.063-15.316-27.584-15.316-9.497,0-25.938,2.529-27.873,14.118-0.393,2.351,0.146,4.842,1.504,6.871,0.741,1.105,4.205,4.538,5.395,4.538,0.705,0,3.854,2.612,4.827,3.404,1.997,1.624,3.548,3.544,5.406,5.399,1.814,1.812,2.907,3.723,4.816,5.378,1.393,1.207,2.595,2.248,2.84,3.971,0.437,3.074-4.283,6.514,0.442,8.089,1.957,0.652,9.78-0.932,9.78,2.122,0,2.409-7.438,10.21,0,10.21,3.751,0,5.231,4.14,4.544,7.376-0.38,1.791-2.525,5.356-3.692,6.523-1.92,1.92-2.967,7.148-2.272,9.927,0.55,2.198,0.259,4.525,2.556,5.672,1.962,0.98,4.119-0.215,5.406-2.143,2.477-3.71,3.113-7.368,3.113-11.755,0-3.034,0.924-7.64,3.975-9.927,0.8,1.857,3.29-1.017,4.249-1.975,1.577-1.575,1.786-3.927,1.999-5.967,0.526-5.047,0.512-10.111,0.936-15.188,0.457-5.483,0.768-10.876,0.768-16.378,0.001-4.14,1.105-11.246-1.135-14.949" fill-rule="evenodd" clip-rule="evenodd" fill="#0091FF"/>
<path d="M68.688,35.611c2.004-12.003,16.513-15.316,26.941-15.316,8.648,0,26.497,1.996,28.348,13.11,0.949,5.698-2.005,9.194-6.447,12.417-3.186,2.311-7.202,5.097-10.223,8.509-1.501,1.695-2.24,3.488-3.975,5.105-1.188,1.106-3.976,2.36-3.976,4.254,0,3.219,3.678,6.109,0,8.225-1.949,1.121-9.34-0.948-10.223,1.702-0.911,2.734,6.798,7.953,1.704,10.494-1.823,0.91-3.579,0.059-5.111,1.986-0.977,1.229-1.136,3.179-1.136,4.821,0,2.472,2.953,5.616,3.976,7.658,1.517,3.03,2.272,5.806,2.272,9.643,0,4.957-4.14,8.288-7.951,3.97-5.57-6.31-0.779-17.171-7.383-22.123-0.923,2.141-3.244-1.295-3.976-2.27-1.391-1.852-1.962-3.3-2.272-5.672-0.657-5.028-0.513-10.118-0.936-15.188-0.457-5.483-0.768-10.876-0.768-16.378-0.007-4.141-1.11-11.244,1.128-14.948" fill-rule="evenodd" clip-rule="evenodd" fill="#0091FF"/>
<path d="M53.923,0.441c0,2.654,0.092,5.858,1.313,8.296,1.73,3.454,2.111,4.625,5.502,6.453" stroke="#FF1900" stroke-linecap="square" stroke-miterlimit="10" stroke-width="0.7498" fill="none"/>
<path d="M53.923,1.576c0,3.082,0.303,6.28,1.703,9.076,1.717,3.428,1.664,3.815,5.112,5.673" stroke="#FF1900" stroke-linecap="square" stroke-miterlimit="10" stroke-width="0.7498" fill="none"/>
<path d="M60.738,16.892c0.414-0.269,0.786-0.784,1.136-1.134-0.333-0.553-0.624-0.466-1.136-0.567" stroke="#FF1900" stroke-linecap="square" stroke-miterlimit="10" stroke-width="0.7498" fill="none"/>
<path d="M56.195,11.219c0.86,3.151,2.017,3.92,5.111,4.538" stroke="#FF1900" stroke-linecap="square" stroke-miterlimit="10" stroke-width="0.7498" fill="none"/>
<path d="M73.8,0.441c-0.586,2.929-1.089,5.491-1.792,8.296-0.907,3.622-2.545,4.811-5.59,6.453" stroke="#FF1900" stroke-linecap="square" stroke-miterlimit="10" stroke-width="0.7498" fill="none"/>
<path d="M73.8,1.576c-0.642,3.207-1.208,5.968-1.987,9.076-0.89,3.553-2.479,4.101-5.395,5.673" stroke="#FF1900" stroke-linecap="square" stroke-miterlimit="10" stroke-width="0.7498" fill="none"/>
<path d="M66.418,16.892c-0.733-0.748-0.875-1.406,0-1.701" stroke="#FF1900" stroke-linecap="square" stroke-miterlimit="10" stroke-width="0.7498" fill="none"/>
<path d="M71.529,11.219c-1.749,2.358-2.461,4.09-5.679,4.538" stroke="#FF1900" stroke-linecap="square" stroke-miterlimit="10" stroke-width="0.7498" fill="none"/>
<path d="M41.997,41.851c-3.708,0.739-3.335,5.673,0.568,5.673,1.457,0,3.136,0.567,4.259,0.567,2.524,0,0.372,2.899,0.852,3.971,0.755,1.686,3.765,0.746,5.111,1.418,2.793,1.396,3.817,2.448,4.543,5.389,0.969,3.929,2.015,10.596-0.294,14.056-1.236,1.852-4.465,3.835-6.646,3.109-3.239-1.078-3.845-2.408-5.27-5.252-0.71-1.417,0.473-3.857-0.284-5.105-0.907-1.496-5.842-1.702-7.383-1.702-1.21,0-2.839-1.974-2.839-3.12,0-2.005,3.693-1.519,3.975-3.688,0.43-3.306-4.372-2.836-6.531-2.836-3.616,0-6.659-3.461-4.259-6.808,0.676-0.943,3.642-1.168,3.975-1.702,1.009-1.616-0.731-2.634-1.704-3.12-2.261-1.129-4.469-1.116-6.815-1.702-1.681-0.42-3.858-1.985-5.396-1.985-0.742,0-1.908-3.404-0.567-3.404,1.808,0,2.875-1.843,1.987-3.403-1.179-2.071-8.974-0.353-8.519-3.971,0.536-4.255,10.018-5.196,13.062-5.957,3.931-0.982,10.208,0.667,6.815,4.822-0.885,1.084-2.682,1.618-2.839,2.836-0.198,1.532,2.527,3.404,3.975,3.404,4.26,0.002,18.27,3.965,10.224,8.51" fill-rule="evenodd" stroke="#0091FF" stroke-linecap="square" clip-rule="evenodd" stroke-miterlimit="10" stroke-width="0.7498" fill="#FFF"/>
<path d="M85.727,41.851c3.611,1.972,2.05,5.673-1.704,5.673-1.035,0-4.543-0.085-4.543,1.418,0,1.487,0.206,2.968-0.568,3.687-1.295,1.204-3.925,0.542-5.679,1.418-2.662,1.33-2.869,3.281-3.407,5.956-0.749,3.724-2.029,11.28,1.136,14.182,3.972,3.641,11.359,1.385,11.359-4.412,0-1.863-0.411-3.399,1.136-4.664,1.747-1.428,5.425,0.255,7.099-1.418,4.484-4.484-1.742-3.114-1.42-7.091,0.264-3.271,5.012-2.269,7.667-2.269,4.536,0,3.533-5.867,1.42-7.375-1.394-0.994-2.684-0.755-2.84-2.269-0.196-1.906,2.375-2.374,3.975-2.837,1.683-0.487,10.791-1.542,10.791-3.687,0-2.293,0.748-2.179-1.704-3.404-2.737-1.368,0.214-3.256,1.704-3.688,3.354-0.971,10.08-1.67,3.408-5.672-3.702-2.221-10.041-4.41-14.325-2.983-1.894,0.63-4.998,0.691-3.565,3.551,0.457,0.911,2.758,2.094,3.123,2.836,2.246,4.565-4.883,4.48-7.738,5.194-1.889,0.472-6.353,1.122-7.596,2.748-1.513,1.975,0.218,4.254,2.268,5.106" fill-rule="evenodd" stroke="#0091FF" stroke-linecap="square" clip-rule="evenodd" stroke-miterlimit="10" stroke-width="0.7498" fill="#FFF"/>
<path d="M213.94,250.9c6.42-0.754,11.969-1.814,18.17-3.635,5.418-1.592,10.396-5.877,14.807-9.266,8.611-6.615,14.383-19.047,15.627-29.619,1.422-12.071-0.619-24.466-7.713-34.628-7.49-10.728-17.822-17.049-30.098-20.653-21.748-6.389-50.846,8.396-57.359,30.506-1.607,5.457-4.076,12.301-3.395,18.084,0.773,6.582,1.928,12.252,3.801,18.611,3.322,11.277,14.229,19.904,24.039,25.131,7.01,3.74,14.35,4.61,22.12,5.48" stroke="#AB10D2" stroke-linecap="square" stroke-miterlimit="10" stroke-width="2.2495" fill="none"/>
<path d="M208.83,180.56c-1.984-11.882-16.57-15.315-26.941-15.315-5.822,0-10.893,0.795-16.539,2.205-3.74,0.935-10.988,5.967-11.668,10.061-0.85,5.103,0.523,9.409,5.045,12.42,4.203,2.801,7.49,5.611,10.916,9.35,2.693,2.939,5.637,6.204,8.236,8.793,2.293,2.285-3.783,5.91-0.285,8.793" stroke="#FFF" stroke-linecap="square" stroke-miterlimit="10" stroke-width="5.9986" fill="none"/>
<path d="M177.59,216.86c2.445,1.182,5.873,0.566,8.52,0.566,4.381,0,0.15,4.344-0.568,6.24-1.365,3.596-0.131,4.443,2.84,5.672,2.457,1.018,4.52,2.414,4.543,5.674,0.014,1.719-2.271,3.826-2.271,5.389,0,0.557-2.119,4.102-2.555,4.537-2.977,2.975-2.713,14.789,3.123,14.467" stroke="#FFF" stroke-linecap="square" stroke-miterlimit="10" stroke-width="5.9986" fill="none"/>
<path d="M191.22,259.41c4.605-1.93,6.357-8.047,6.814-12.48,0.416-4.02-0.664-9.98,3.977-11.912,1.43,3.318,5.986-6.314,6.246-7.943,0.77-4.846,0.523-10.244,0.936-15.188,0.453-5.447,0.287-10.916,0.709-16.379,0.199-2.607-0.293-5.332-0.494-7.934-0.172-2.234,0.668-5.041-0.582-7.015" stroke="#FFF" stroke-linecap="square" stroke-miterlimit="10" stroke-width="5.9986" fill="none"/>
<path d="M213.94,174.32c3.857-1.055,4.328-8.721,0-9.076-5.17-0.43-4.48,9.61,0,9.08" fill-rule="evenodd" clip-rule="evenodd" fill="#8210D2"/>
<path d="M211.67,204.95c-0.145,1.208,0.484,8.28,1.703,8.509,2.107,0.395,2.271-6.031,2.271-7.248,0-8.824,1.1-17.742,1.688-26.547,0.34-5.092-6.355-5.727-6.799-0.24-0.66,8.29,0.77,17.21,1.14,25.53" fill-rule="evenodd" clip-rule="evenodd" fill="#8210D2"/>
<path d="M219.05,180.56c0-11.91,17.592-15.315,26.941-15.315,9.391,0,26.58,2.519,28.516,14.117,0.783,4.709-3.152,8.643-6.615,11.409-3.465,2.769-7.01,5.001-10.225,8.509-1.326,1.449-2.889,4.564-4.543,5.389-0.813,0.406-3.975,2.975-3.975,3.971,0,2.736,4.381,6.748,0.566,8.227" stroke="#FFF" stroke-linecap="square" stroke-miterlimit="10" stroke-width="5.9986" fill="none"/>
<path d="M249.72,216.86c-2.734,1.322-6.631-0.699-9.084,0.566-2.742,1.416,0.348,4.098,1.135,6.24,1.154,3.148,0.771,5.672-3.125,5.672-2.936,0-3.691,3.883-3.691,5.957,0,1.967,0.658,4.346,1.988,5.672,0.844,0.844,2.557,2.65,2.557,3.971,0,1.178,0.883,1.883,1.137,3.121,0.266,1.299,0,2.99,0,4.326,0,3.268-0.172,6.396-3.977,7.02" stroke="#FFF" stroke-linecap="square" stroke-miterlimit="10" stroke-width="5.9986" fill="none"/>
<path d="M236.66,259.41c-11.102-4.65-3.104-17.918-10.791-24.393-1.721,4.365-6.021-6.602-6.246-7.943-0.83-4.936-1.137-10.107-1.137-15.188,0-5.467-0.568-10.898-0.568-16.379,0-4.141-1.104-11.245,1.137-14.948" stroke="#FFF" stroke-linecap="square" stroke-miterlimit="10" stroke-width="5.9986" fill="none"/>
<path d="M208.83,180.56c-2.039-12.204-17.063-15.315-27.586-15.315-9.549,0-25.914,2.359-27.871,14.117-0.965,5.793,3.371,8.168,6.898,11.693,1.65,1.647,3.98,2.274,5.668,3.96,1.635,1.631,3.283,3.639,4.84,5.399,2.055,2.324,7.383,6.186,7.383,9.076,0,2.137-4.479,7.941,1.49,7.941,2.691,0,10.014-1.416,7.881,2.836-1.658,3.303-5.107,9.076,1.42,9.076,3.463,0,3.844,5.271,3.406,7.377-0.602,2.879-2.777,4.984-3.975,7.373-1.559,3.109-1.703,6.105-1.703,9.855,0,2.482,0.611,4.064,2.838,5.176,1.664,0.832,4.672-0.664,5.26-2.426,1.381-4.141,3.26-6.994,3.26-11.471,0-3.531,0.166-8.625,3.977-10.211,1.43,3.318,5.986-6.314,6.246-7.943,0.77-4.846,0.523-10.244,0.936-15.188,0.453-5.447,0.287-10.916,0.709-16.379,0.199-2.607-0.293-5.332-0.494-7.934-0.19-2.25,0.65-5.06-0.6-7.03" fill-rule="evenodd" clip-rule="evenodd" fill="#8210D2"/>
<path d="M219.05,180.56c0-12.229,18.127-15.315,27.584-15.315,10.068,0,26.027,3.053,28.014,14.961,0.434,2.606-3.967,10.565-7.039,10.565-1.16,0-3.883,2.635-4.828,3.403-1.998,1.625-3.551,3.545-5.406,5.4-1.723,1.722-3.189,3.759-4.818,5.378-1.051,1.044-3.189,2.538-3.406,3.972-0.459,3.016,5.045,6.447,0.125,8.088-2.436,0.813-9.779-1.105-9.779,2.121,0,2.24,6.84,10.211-0.002,10.211-4.09,0-4.543,3.91-4.543,7.092,0,3.037,2.982,5.107,3.977,7.092,1.453,2.902,1.705,6.113,1.705,9.643,0,4.865-4.127,8.844-7.68,3.529-2.691-4.031-3.113-7.025-3.113-11.756,0-0.262-0.383-3.707-0.713-4.695-0.688-2.055-1.588-3.82-3.262-5.23-1.721,4.365-6.021-6.602-6.246-7.943-0.83-4.936-1.137-10.107-1.137-15.188,0-5.467-0.568-10.898-0.568-16.379,0.02-4.12-1.09-11.22,1.15-14.92" fill-rule="evenodd" clip-rule="evenodd" fill="#8210D2"/>
<path d="M203.72,145.38c0,2.653,0.09,5.859,1.313,8.296,1.682,3.357,2.902,4.748,6.07,6.453" stroke="#AB10D2" stroke-linecap="square" stroke-miterlimit="10" stroke-width="0.7498" fill="none"/>
<path d="M203.72,146.52c0,3.082,0.303,6.281,1.703,9.076,1.664,3.324,2.529,3.977,5.68,5.674" stroke="#AB10D2" stroke-linecap="square" stroke-miterlimit="10" stroke-width="0.7498" fill="none"/>
<path d="M211.1,161.84c0.732-0.748,0.873-1.406,0-1.701" stroke="#D966FF" stroke-linecap="square" stroke-miterlimit="10" stroke-width="0.7498" fill="none"/>
<path d="M205.99,156.16c2.037,2.74,2.119,3.826,5.68,4.537" stroke="#AB10D2" stroke-linecap="square" stroke-miterlimit="10" stroke-width="0.7498" fill="none"/>
<path d="M223.6,145.38c0,5.316-1.488,13.14-7.385,14.749" stroke="#AB10D2" stroke-linecap="square" stroke-miterlimit="10" stroke-width="0.7498" fill="none"/>
<path d="M223.6,146.52c0,5.43-1.375,13.107-7.385,14.75" stroke="#AB10D2" stroke-linecap="square" stroke-miterlimit="10" stroke-width="0.7498" fill="none"/>
<path d="M216.21,161.84c-0.41-0.658-0.541-1.152,0-1.701" stroke="#D966FF" stroke-linecap="square" stroke-miterlimit="10" stroke-width="0.7498" fill="none"/>
<path d="M221.32,156.16c-0.363,2.424-2.793,4.289-5.113,4.537" stroke="#AB10D2" stroke-linecap="square" stroke-miterlimit="10" stroke-width="0.7498" fill="none"/>
<path d="M191.79,186.79c-3.371,0.398-2.914,5.674,0.854,5.674,1.561,0,3.443-0.246,4.543,0.851,1.289,1.288-0.021,1.979,0.852,3.687,1.123,2.196,9.088,0.518,9.088,5.105,0,4.836,2.035,9.238,0.566,14.182-1.604,5.398-9.221,6.451-11.926,1.135-0.766-1.504,0.197-4.908-0.852-5.955-1.926-1.926-2.457-1.512-5.395-1.986-1.43-0.23-4.342-1.184-4.545-2.836-0.238-1.941,1.58-2.148,2.557-3.12,3.801-3.788-2.602-4.146-4.828-4.255-2.959-0.143-8.18-3.183-4.826-6.523,2.057-2.051,6.211-2.198,2.555-4.821-1.943-1.395-3.838-1.241-6.035-1.791-1.783-0.445-4.631-2.181-6.176-2.181-1.477,0-2.203-3.403-0.566-3.403,1.309,0,2.68-2.097,1.986-3.403-1.168-2.197-10.342-0.331-8.234-4.538,1.965-3.923,9.467-5.401,13.346-5.673,1.807-0.127,5.211,0.102,6.531,1.418,1.635,1.633-0.609,3.58-1.988,4.822-0.539,0.486-2.045,0.916-1.703,2.27,0.549,2.173,4.262,2.412,5.68,3.119,2.86,1.43,17.74,3.21,8.51,8.22" fill-rule="evenodd" stroke="#D010B1" stroke-linecap="square" clip-rule="evenodd" stroke-miterlimit="10" stroke-width="0.7498" fill="#D010B1"/>
<path d="M235.52,186.79c3.203,0.881,3.025,3.773,0.566,5.105-1.443,0.783-5.99,0.089-6.814,1.703-0.578,1.134,1.168,2.06,0.566,3.402-0.523,1.172-2.793,1.135-3.848,1.135-4.459,0-6.373,4.956-6.373,8.723,0,3.867-1.602,7.316,0.861,11.006,2.197,3.291,7.65,4.672,10.223,0.82,1.248-1.869,1.977-3.27,1.977-5.516,0-1.516-0.373-2.65,1.137-3.404,3.535-1.766,6.816,0.473,9.086-3.688-1.35-2.971-5.893-3.205-2.555-6.523,2.381-2.365,7.031,1.699,9.369-2.553,2.473-4.495-2.303-4.567-4.258-6.523-2.768-2.768,8.26-4.494,9.371-4.821,3.453-1.017,7.305-1.81,4.543-5.673-0.717-1.002-3.029-1.451-1.135-3.403,1.424-1.467,4.641-0.19,6.246-1.134,4.955-2.91-3.211-6.758-6.035-7.464-2.426-0.606-13.094-2.681-13.273,1.79-0.043,1.06,3.816,4.539,4.258,4.539,1.197,0-0.607,2.008-0.852,2.269-1.332,1.431-3.016,1.224-4.543,1.985-2.691,1.346-6.959,0.58-9.654,2.553-2.35,1.68-1.24,4.77,1.11,5.64" fill-rule="evenodd" stroke="#D010B1" stroke-linecap="square" clip-rule="evenodd" stroke-miterlimit="10" stroke-width="0.7498" fill="#D010B1"/>
<path d="M64.009,250.9c6.7-0.744,12.303-1.783,18.73-3.789,5.717-1.785,10.819-6.041,15.483-9.625,4.208-3.232,7.229-9.566,10.102-14.029,3.037-4.719,4.32-10.518,4.973-16.061,1.411-11.967-1.041-24.09-8.493-33.768-3.896-5.059-7.591-9.848-12.966-13.49-5.363-3.634-11.359-5.425-17.453-7.326-11.603-3.622-25.168,0.381-35.393,5.828-11.065,5.896-18.046,16.344-22.121,27.875-8.357,23.652,5.048,50.902,27.829,60.414,6.276,2.63,12.646,3.25,19.313,3.99" stroke="#BF0000" stroke-linecap="square" stroke-miterlimit="10" stroke-width="2.2495" fill="none"/>
<path d="M58.898,180.56c-1.982-11.882-16.572-15.315-26.941-15.315-8.651,0-26.491,1.995-28.348,13.109-0.951,5.697,2.006,9.195,6.447,12.417,3.308,2.399,7.024,5.019,10.223,8.509,1.505,1.644,2.533,4.385,4.543,5.389,1.252,0.626,3.408,2.539,3.408,3.971,0,2.443-3.668,7.15,0,8.227" stroke="#FFF" stroke-linecap="square" stroke-miterlimit="10" stroke-width="5.9986" fill="none"/>
<path d="M28.23,216.86c2.663,1.287,6.009-0.502,8.519,0.566,3.225,1.375,0.523,3.949-0.568,6.24-1.541,3.236-1.041,5.672,3.124,5.672,2.951,0,3.896,4.08,3.692,6.242-0.366,3.863-3.206,5.83-4.544,9.074-1.478,3.586-3.604,14.52,2.84,14.75" stroke="#FFF" stroke-linecap="square" stroke-miterlimit="10" stroke-width="5.9986" fill="none"/>
<path d="M41.292,259.41c10.908-4.563,3.121-18.645,10.791-24.393,0.8,1.855,3.29-1.018,4.249-1.977,1.577-1.574,1.786-3.926,1.999-5.967,0.526-5.047,0.512-10.111,0.936-15.188,0.457-5.482,0.768-10.877,0.768-16.379,0-4.14,1.104-11.246-1.136-14.948" stroke="#FFF" stroke-linecap="square" stroke-miterlimit="10" stroke-width="5.9986" fill="none"/>
<path d="M64.009,174.32c4.106-1.123,4.962-9.077,0-9.076-4.962,0-4.105,7.95,0,9.08" fill-rule="evenodd" clip-rule="evenodd" fill="#FFB900"/>
<path d="M62.305,204.95c0,1.429-0.389,7.778,1.136,8.509,2.503,1.199,2.138-5.635,2.272-6.807,1.002-8.778,1.283-17.785,1.68-26.699,0.244-5.49-6.06-5.82-6.792-0.529-0.522,3.779,0.562,8.424,0.815,12.217,0.297,4.43,0.593,8.87,0.889,13.31" fill-rule="evenodd" clip-rule="evenodd" fill="#FF1900"/>
<path d="M69.12,180.56c2.004-12.003,16.513-15.315,26.941-15.315,8.648,0,26.497,1.995,28.348,13.109,0.948,5.699-2.005,9.195-6.447,12.417-3.187,2.312-7.202,5.097-10.223,8.509-1.501,1.695-2.24,3.488-3.975,5.105-1.188,1.107-3.976,2.359-3.976,4.254,0,2.379,3.766,7.121,0,8.227" stroke="#FFF" stroke-linecap="square" stroke-miterlimit="10" stroke-width="5.9986" fill="none"/>
<path d="M99.788,216.86c-2,1.361-5.846,0.566-8.234,0.566-3.896,0-0.428,4.107,0.136,5.799,1.273,3.814,1.827,4.682-2.125,6.113-2.796,1.014-4.665,2.174-4.543,5.674,0.057,1.623,0.864,4.266,1.988,5.389,1.419,1.418,1.622,3.322,2.84,4.537,2.513,2.51,2.445,15.188-3.124,14.467" stroke="#FFF" stroke-linecap="square" stroke-miterlimit="10" stroke-width="5.9986" fill="none"/>
<path d="M86.726,259.41c-10.469-4.381-3.254-18.742-10.791-24.393-0.923,2.141-3.244-1.297-3.976-2.27-1.391-1.854-1.962-3.301-2.272-5.674-0.657-5.027-0.513-10.117-0.936-15.188-0.457-5.482-0.768-10.877-0.768-16.379,0-4.141-1.104-11.244,1.135-14.948" stroke="#FFF" stroke-linecap="square" stroke-miterlimit="10" stroke-width="5.9986" fill="none"/>
<path d="M58.898,180.56c-2.036-12.204-17.063-15.315-27.584-15.315-9.497,0-25.938,2.528-27.873,14.117-0.393,2.352,0.146,4.843,1.504,6.871,0.741,1.105,4.205,4.538,5.395,4.538,0.705,0,3.854,2.612,4.827,3.403,1.997,1.625,3.548,3.545,5.406,5.4,1.814,1.811,2.907,3.723,4.816,5.378,1.393,1.206,2.595,2.247,2.84,3.972,0.437,3.072-4.283,6.514,0.442,8.088,1.957,0.652,9.78-0.932,9.78,2.121,0,2.41-7.438,10.211,0,10.211,3.751,0,5.231,4.141,4.544,7.377-0.38,1.791-2.525,5.355-3.692,6.521-1.92,1.92-2.967,7.148-2.272,9.928,0.55,2.197,0.259,4.525,2.556,5.672,1.962,0.98,4.119-0.215,5.406-2.143,2.477-3.711,3.113-7.369,3.113-11.756,0-3.033,0.924-7.639,3.975-9.926,0.8,1.855,3.29-1.018,4.249-1.977,1.577-1.574,1.786-3.926,1.999-5.967,0.526-5.047,0.512-10.111,0.936-15.188,0.457-5.482,0.768-10.877,0.768-16.379,0.001-4.13,1.105-11.23-1.135-14.93" fill-rule="evenodd" clip-rule="evenodd" fill="#FFBF00"/>
<path d="M69.12,180.56c2.004-12.003,16.513-15.315,26.941-15.315,8.648,0,26.497,1.995,28.348,13.109,0.948,5.699-2.005,9.195-6.447,12.417-3.187,2.312-7.202,5.097-10.223,8.509-1.501,1.695-2.24,3.488-3.975,5.105-1.188,1.107-3.976,2.359-3.976,4.254,0,3.219,3.678,6.109,0,8.227-1.949,1.121-9.34-0.949-10.223,1.701-0.911,2.734,6.798,7.953,1.704,10.494-1.823,0.91-3.579,0.059-5.111,1.986-0.977,1.229-1.136,3.18-1.136,4.822,0,2.471,2.953,5.615,3.976,7.658,1.517,3.029,2.272,5.805,2.272,9.643,0,4.957-4.14,8.287-7.951,3.971-5.57-6.311-0.779-17.172-7.383-22.123-0.923,2.141-3.244-1.297-3.976-2.27-1.391-1.854-1.962-3.301-2.272-5.674-0.657-5.027-0.513-10.117-0.936-15.188-0.457-5.482-0.768-10.877-0.768-16.379,0.004-4.14-1.099-11.24,1.14-14.94" fill-rule="evenodd" clip-rule="evenodd" fill="#FFBF00"/>
<path d="M54.354,145.38c0,2.654,0.092,5.858,1.313,8.296,1.73,3.455,2.111,4.626,5.502,6.453" stroke="#FF1900" stroke-linecap="square" stroke-miterlimit="10" stroke-width="0.7498" fill="none"/>
<path d="M54.354,146.52c0,3.082,0.303,6.281,1.703,9.076,1.717,3.429,1.664,3.815,5.112,5.674" stroke="#FF1900" stroke-linecap="square" stroke-miterlimit="10" stroke-width="0.7498" fill="none"/>
<path d="M61.169,161.84c0.414-0.27,0.786-0.784,1.136-1.135-0.333-0.553-0.624-0.465-1.136-0.566" stroke="#FF1900" stroke-linecap="square" stroke-miterlimit="10" stroke-width="0.7498" fill="none"/>
<path d="M56.626,156.16c0.86,3.15,2.017,3.92,5.111,4.537" stroke="#FF1900" stroke-linecap="square" stroke-miterlimit="10" stroke-width="0.7498" fill="none"/>
<path d="M74.231,145.38c-0.586,2.929-1.089,5.491-1.792,8.296-0.907,3.623-2.545,4.812-5.59,6.453" stroke="#FF1900" stroke-linecap="square" stroke-miterlimit="10" stroke-width="0.7498" fill="none"/>
<path d="M74.231,146.52c-0.642,3.207-1.208,5.969-1.987,9.076-0.89,3.553-2.479,4.102-5.395,5.674" stroke="#FF1900" stroke-linecap="square" stroke-miterlimit="10" stroke-width="0.7498" fill="none"/>
<path d="M66.849,161.84c-0.733-0.748-0.875-1.406,0-1.701" stroke="#FF1900" stroke-linecap="square" stroke-miterlimit="10" stroke-width="0.7498" fill="none"/>
<path d="M71.96,156.16c-1.749,2.357-2.461,4.09-5.679,4.537" stroke="#FF1900" stroke-linecap="square" stroke-miterlimit="10" stroke-width="0.7498" fill="none"/>
<path d="M42.428,186.79c-3.708,0.739-3.335,5.674,0.568,5.674,1.457,0,3.136,0.566,4.259,0.566,2.524,0,0.372,2.899,0.852,3.971,0.755,1.686,3.765,0.746,5.111,1.419,2.793,1.396,3.817,2.448,4.543,5.39,0.969,3.928,2.015,10.596-0.294,14.055-1.236,1.852-4.465,3.836-6.646,3.109-3.239-1.078-3.845-2.408-5.27-5.252-0.71-1.418,0.473-3.857-0.284-5.105-0.907-1.496-5.842-1.701-7.383-1.701-1.21,0-2.839-1.975-2.839-3.121,0-2.005,3.693-1.519,3.975-3.688,0.43-3.305-4.372-2.836-6.531-2.836-3.616,0-6.659-3.461-4.259-6.807,0.676-0.943,3.642-1.168,3.975-1.702,1.009-1.616-0.731-2.634-1.704-3.12-2.261-1.129-4.469-1.115-6.815-1.701-1.681-0.42-3.858-1.986-5.396-1.986-0.742,0-1.908-3.403-0.567-3.403,1.808,0,2.875-1.843,1.987-3.403-1.179-2.07-8.974-0.353-8.519-3.971,0.536-4.255,10.018-5.195,13.062-5.957,3.931-0.981,10.208,0.667,6.815,4.822-0.885,1.084-2.682,1.617-2.839,2.836-0.198,1.532,2.527,3.404,3.975,3.404,4.26,0.01,18.271,3.97,10.224,8.51" fill-rule="evenodd" stroke="#FF7F00" stroke-linecap="square" clip-rule="evenodd" stroke-miterlimit="10" stroke-width="0.7498" fill="#FF7F00"/>
<path d="M86.158,186.79c3.611,1.973,2.05,5.674-1.704,5.674-1.035,0-4.543-0.086-4.543,1.418,0,1.487,0.206,2.968-0.568,3.688-1.295,1.203-3.925,0.541-5.679,1.418-2.662,1.33-2.869,3.281-3.407,5.956-0.749,3.724-2.029,11.28,1.136,14.181,3.972,3.643,11.359,1.387,11.359-4.412,0-1.863-0.411-3.398,1.136-4.662,1.747-1.43,5.425,0.254,7.099-1.42,4.484-4.483-1.742-3.113-1.42-7.09,0.264-3.271,5.012-2.27,7.667-2.27,4.536,0,3.533-5.867,1.42-7.375-1.394-0.994-2.684-0.755-2.84-2.268-0.196-1.906,2.375-2.374,3.975-2.838,1.683-0.486,10.791-1.541,10.791-3.686,0-2.293,0.747-2.18-1.704-3.404-2.737-1.368,0.214-3.256,1.704-3.688,3.354-0.971,10.08-1.67,3.407-5.672-3.702-2.221-10.041-4.41-14.324-2.984-1.894,0.631-4.998,0.691-3.565,3.551,0.457,0.912,2.758,2.094,3.123,2.837,2.246,4.565-4.883,4.48-7.738,5.194-1.889,0.471-6.353,1.121-7.596,2.747-1.513,1.97,0.218,4.25,2.268,5.1" fill-rule="evenodd" stroke="#FF7F00" stroke-linecap="square" clip-rule="evenodd" stroke-miterlimit="10" stroke-width="0.7498" fill="#FF7F00"/>
</svg>
