<?xml version="1.0" encoding="UTF-8" standalone="no"?>
<svg viewBox="0 0 390 390" xmlns="http://www.w3.org/2000/svg" space="preserve" enable-background="new 0 0 387.721 298.804" overflow="visible" xmlns:xlink="http://www.w3.org/1999/xlink">
 <path fill-rule="evenodd" clip-rule="evenodd" d="M193.86,215.79c107.01,0,193.86,18.595,193.86,41.508,0,22.912-86.85,41.508-193.86,41.508s-193.86-18.6-193.86-41.51c0-22.92,86.85-41.51,193.86-41.51" fill="#80C2FF"/>
 <path fill-rule="evenodd" clip-rule="evenodd" d="M145.14,121.86c-9.648-2.304-18.144-5.58-26.316-10.26-8.208-4.752-15.948-12.6-21.96-17.568-5.868-5.112-9.036-10.98-13.68-12.204-4.86-1.188-9.576-2.52-15.12,4.896-5.724,7.416-13.896,25.416-18.54,39.024-4.824,13.356-8.928,26.532-9.252,41.472-0.216,15.048-0.108,33.479,7.812,47.808,7.956,14.112,24.012,28.296,39.024,36.576,14.904,8.208,26.028,9.828,49.752,12.204,23.76,2.088,66.349,1.764,91.224,0.972,24.588-0.792,40.248,1.116,56.125-5.363,15.84-6.696,29.844-21.708,38.555-33.66,8.568-12.061,12.744-24.948,12.672-37.548-0.359-12.708-6.768-27.36-13.68-37.584-6.984-10.261-21.096-16.165-27.324-23.4-6.299-7.344-9.828-12.168-9.756-20.016,0.037-7.92,3.457-16.668,10.26-26.82v-43.92c-1.08-2.016-3.131-4.68-6.695-8.28-3.6-3.672-6.191-8.712-14.293-13.176-8.314-4.572-22.428-11.628-34.162-13.68-11.773-2.124-24.518-1.908-35.605,1.476-11.268,3.312-23.399,10.656-30.708,18.54-7.128,7.848-10.548,19.368-12.204,28.296-1.872,8.712-1.116,15.912,1.44,24.372,2.484,8.496,9.036,19.692,13.68,26.352,4.644,6.48,10.764,8.82,13.644,12.708,2.664,3.816,4.14,7.452,2.916,10.224-1.332,2.628-4.932,5.508-10.224,5.868-5.364,0.216-15.12-2.772-21.348-3.96-6.3-1.27-11.67-2.38-16.24-3.35z" fill="#F2C802"/>
 <path fill-rule="evenodd" clip-rule="evenodd" d="M53.016,121.5c0.18-4.068,6.408-16.524,9.648-22.644,3.132-6.264,5.76-11.34,9.252-13.716,3.384-2.304,5.58-3.42,11.16,0,5.508,3.42,14.148,14.04,21.888,20.052,7.74,5.904,14.112,10.62,24.12,14.832,9.936,4.068,30.78,7.38,34.884,9.648,3.816,2.232-3.816,4.392-11.52,3.708-7.92-0.864-25.056-7.596-34.884-8.532-9.684-0.936-17.1,5.508-23.364,2.952-6.48-2.772-10.872-15.229-14.832-18.9-3.96-3.744-6.012-5.652-8.928-3.348-3.096,2.196-6.012,13.968-8.892,16.704-2.984,2.59-8.744,3.13-8.528-0.75z" fill="#D8A202"/>
 <path fill-rule="evenodd" clip-rule="evenodd" d="M119.8,145.98c3.06-0.504,24.516,5.148,42.3,7.813,17.784,2.447,47.736,4.067,63.468,7.775,15.408,3.672,23.688,6.876,29.305,14.473,5.508,7.56,6.73,21.348,4.066,30.815-2.807,9.324-9.898,19.729-20.016,25.236-10.26,5.544-23.939,8.208-40.068,7.416-16.271-1.08-51.983-11.736-56.051-13.356-3.888-1.728,18.36,3.276,32.292,3.349,13.86,0.035,38.052,1.836,50.076-3.349,11.881-5.436,19.188-20.376,20.809-28.584,1.295-8.28-3.672-15.084-12.275-20.412-8.748-5.399-24.301-8.063-39.313-11.483-15.156-3.528-37.944-5.58-50.472-8.929-12.62-3.38-27.1-10.26-24.14-10.76z" fill="#D8A202"/>
 <path fill-rule="evenodd" clip-rule="evenodd" d="M224.81,1.832c7.992-0.108,15.732,1.008,23.363,3.348,7.633,2.304,15.012,5.076,22.285,10.404,7.234,5.22,17.172,13.572,20.771,20.772,3.313,7.236-0.072,14.4,0,21.888,0.107,7.344,0.359,14.508,0.756,21.888-3.672,3.564-6.264,7.848-8.172,12.996-1.943,5.112-3.781,12.204-2.988,17.784,0.756,5.472,2.016,8.928,7.813,15.228,5.795,6.264,26.82,19.98,26.711,22.248-0.395,2.088-20.34-3.168-28.188-9.252-7.885-6.264-12.133-21.852-18.576-27.468-6.516-5.688-19.477-0.036-20.016-5.94-0.576-6.12,12.564-18.972,16.668-29.664,4.141-10.728,8.711-24.624,7.451-33.768-1.619-9.324-9.936-17.496-16.344-20.772-6.551-3.204-14.543,2.772-21.887,1.836-7.453-1.116-19.766-4.176-21.529-7.776-1.61-3.638,2.35-8.174,11.89-13.754z" fill="#D8A202"/>
 <path fill-rule="evenodd" clip-rule="evenodd" d="M289.36,53.78c-0.576-4.644-2.951-10.368-2.951-13.716,0-3.42,0.973-5.796,3.348-6.3,2.34-0.468,7.092,2.124,10.764,3.312,3.637,1.044,6.301,3.78,10.764,3.348,4.357-0.432,11.557-6.48,15.193-5.94,3.527,0.432,5.652,3.924,5.939,8.532,0.145,4.464,2.053,11.448-4.824,18.18-7.02,6.552-30.275,20.484-36.719,21.528-6.48,0.9-1.693-10.728-1.873-15.588-0.29-4.969,0.75-8.821,0.36-13.356z" fill="#CD3204"/>
 <path fill-rule="evenodd" clip-rule="evenodd" d="M301.24,45.248c2.268-0.792,5.76,0.828,9.648,0,3.779-1.008,10.332-6.12,12.996-5.184,2.555,1.044,6.516,5.544,2.592,11.124-4.176,5.58-21.133,18.396-26.713,21.528-5.58,2.808-7.199-1.62-6.66-4.104,0.469-2.592,8.857-7.524,9.613-10.764,0.576-3.348-5.293-6.372-5.545-8.496-0.23-2.196,1.64-3.42,4.06-4.104z" fill="#DA4100"/>
 <path fill-rule="evenodd" clip-rule="evenodd" d="M250.62,24.088c8.088,0,14.65,7.064,14.65,15.768s-6.563,15.768-14.65,15.768-14.652-7.064-14.652-15.768c0-8.704,6.56-15.768,14.65-15.768" fill="#FFF"/>
 <path clip-rule="evenodd" d="M251.94,28.528c4.75,0,8.605,4.161,8.605,9.288s-3.855,9.288-8.605,9.288c-4.748,0-8.604-4.161-8.604-9.288s3.85-9.288,8.6-9.288" fill-rule="evenodd"/>
 <path fill-rule="evenodd" clip-rule="evenodd" d="M253.02,34.828c1.709,0,3.098,1.5,3.098,3.348s-1.389,3.348-3.098,3.348-3.096-1.5-3.096-3.348,1.39-3.348,3.1-3.348" fill="#FFF"/>
 <path fill-rule="evenodd" clip-rule="evenodd" d="M185.1,32.251c-6.12,3.636-8.136,12.024-8.532,18.936-0.468,6.84,0.036,22.356,5.94,22.248,5.904-0.36,23.652-15.876,28.945-23.364,5.074-7.596,5.76-18.108,1.475-21.132-4.66-2.951-21.61-0.503-27.84,3.312z" fill="#FFE42E"/>
 <path fill-rule="evenodd" clip-rule="evenodd" d="M195.5,108.14c3.095,0.072,9.72,4.896,17.785,6.3,7.811,1.296,27.035-0.072,29.34,1.872,2.16,1.944-6.77,6.408-15.949,9.648-9.359,3.168-34.235,8.676-39.348,8.892-5.04-0.072,7.416-5.004,8.893-8.532,1.223-3.564-1.044-9.612-1.116-12.6-0.2-3.13-2.61-5.69,0.41-5.58z" fill="#FFE42E"/>
 <path fill-rule="evenodd" clip-rule="evenodd" d="M61.548,150.08c-1.008,2.916,3.852,20.628,8.172,27.468,4.32,6.804,13.068,13.896,17.064,13.355,3.816-0.756,7.236-11.916,5.544-17.1-1.944-5.292-11.52-10.116-16.668-14.076-5.256-3.99-13.104-12.66-14.112-9.64z" fill="#FFE42E"/>
 <path fill-rule="evenodd" clip-rule="evenodd" d="M154.68,169.38c-1.116-1.801-9.792-0.9-16.704-2.593-7.128-1.8-20.412-8.424-24.84-7.812-4.392,0.684-6.336,8.316-1.116,11.52,5.292,3.024,24.984,6.732,32.256,6.66,7.12-0.37,11.34-6.02,10.4-7.78z" fill="#FFE42E"/>
 <path fill-rule="evenodd" clip-rule="evenodd" d="M151.01,185.58c-1.188-1.476-8.1,0.217-14.076-0.611-6.048-0.864-17.748-5.112-21.348-4.141-3.636,0.864-4.464,7.597,0.144,9.648,4.68,2.016,21.312,3.276,27.396,2.52,5.8-0.94,8.9-6.06,7.89-7.42z" fill="#FFE42E"/>
 <path fill-rule="evenodd" clip-rule="evenodd" d="M153.02,203.04c-1.152-1.297-7.812,0.323-13.464-0.288-5.76-0.685-17.064-4.572-20.448-3.601-3.42,0.9-4.14,7.309,0.324,9.216,4.5,1.872,20.412,2.7,26.208,1.908,5.69-0.98,8.25-5.98,7.38-7.24z" fill="#FFE42E"/>
 <path fill-rule="evenodd" clip-rule="evenodd" d="M257.82,261.03c5.939-0.54,14.615-1.476,22.283-4.464,7.598-3.204,16.057-7.92,23.004-13.716,6.732-5.868,13.141-13.032,17.82-20.808,4.68-7.956,8.713-17.137,10.008-25.597,1.08-8.495,0.217-18.504-2.988-24.479-3.238-5.94-10.043-8.424-15.947-10.764-6.084-2.448-19.439-7.2-19.656-3.708-0.215,3.563,17.029,16.775,18.541,24.479,1.332,7.488-9.504,14.04-10.008,20.772-0.541,6.624,9.324,12.456,6.66,19.296-2.881,6.84-14.365,17.855-23.365,21.527-9.145,3.42-26.279-1.836-30.42-0.359-4.031,1.439,7.74,6.479,6.301,9.288-1.656,2.699-15.229,5.508-15.588,7.02-0.45,1.4,7.43,1.91,13.37,1.51z" fill="#D8A202"/>
 <rect x="0" y="0" width="390" height="390" style="fill:none;stroke:black;"/>
</svg>
