<?xml version="1.0" encoding="UTF-8" standalone="no"?>
<svg xmlns="http://www.w3.org/2000/svg" space="preserve" height="471.82" width="380.59" enable-background="new 0 0 380.592 471.816" overflow="visible" xmlns:xlink="http://www.w3.org/1999/xlink" viewBox="0 0 380.592 471.816">
 <linearGradient id="XMLID_1_" y2="0.00048828" gradientUnits="userSpaceOnUse" y1="471.53" x2="190.24" x1="190.24">
  <stop stop-color="#E2DFFF" offset="0"/>
  <stop stop-color="#1200BF" offset="1"/>
 </linearGradient>
 <path fill-rule="evenodd" clip-rule="evenodd" d="M0,0h380.48v471.53h-380.48v-471.53z" fill="url(#XMLID_1_)"/>
 <linearGradient id="XMLID_2_" y2="0.0723" gradientUnits="userSpaceOnUse" y1="471.82" x2="190.4" x1="190.4">
  <stop stop-color="#A7A7A7" offset="0"/>
  <stop stop-color="#ECECEC" offset="1"/>
 </linearGradient>
 <path fill-rule="evenodd" clip-rule="evenodd" d="M238.79,0.216c-2.016,1.62-3.275,3.276-4.066,4.968-0.828,1.584-3.025,4.176-0.469,5.004,2.592,0.684,13.68-2.052,15.912-0.432,2.123,1.512-3.924,7.884-3.168,9.972,0.721,1.98,4.248,2.556,7.271,2.304,2.881-0.324,6.156-1.692,9.973-4.104-1.008,1.944-0.504,2.952,1.367,3.168,1.908,0.144,5.148-0.612,10.008-2.268-1.764,3.348-3.131,6.12-4.104,8.172-1.043,2.088-4.607,2.664-1.799,4.104,2.844,1.296,14.975,4.356,18.611,3.636,3.492-0.864-0.469-8.28,2.268-8.64,2.592-0.432,12.924,4.176,13.645,5.904,0.648,1.584-7.992,2.196-9.541,3.636-1.656,1.26-2.123,2.628,0,4.536,2.16,1.872,6.264,4.104,12.744,6.84-2.16-1.152-3.023-0.396-2.736,2.268,0.252,2.592,1.584,9.684,4.537,13.644,2.879,3.96,11.809,7.56,12.744,9.972,0.756,2.268-5.293,2.16-7.74,4.104-2.592,1.8-6.768,4.176-7.271,7.272-0.541,3.132,0.828,6.876,4.104,11.376-4.068-1.008-5.832,0.252-5.004,3.636s8.352,12.42,9.539,16.812c1.08,4.284-0.035,7.308-3.203,9.072-5.184-3.996-8.641-5.004-10.908-3.168-2.195,1.872,0.469,10.872-2.268,14.076-3.025,3.024-13.717,4.86-14.977,4.104-1.225-0.9,1.297-3.888,7.703-9.108-4.68,1.008-7.307,0.36-8.172-1.8-0.791-2.34,4.068-8.676,3.205-11.376-1.117-2.736-6.84-1.8-9.107-4.536-2.27-2.808-1.514-11.412-4.105-11.808-2.699-0.288-7.416,6.228-11.807,9.54-4.537,3.204-9.396,9.432-14.977,9.54-5.652-0.108-15.695-6.336-18.18-9.54-2.412-3.348,3.527-7.308,3.635-9.54-0.107-2.16-2.482-0.828-3.635-3.636-1.189-3.168-1.98-10.656-3.205-14.112-1.367-3.384-4.5-5.256-4.535-5.904-0.107-0.648,1.729,2.232,4.104,1.836,2.232-0.54,9.107-3.456,9.541-5.004,0.215-1.692-7.85-3.204-7.273-4.536,0.648-1.296,8.496-0.972,10.908-3.204,2.34-2.376,3.852-9.792,2.736-10.44-1.404-0.756-6.84,6.696-10.477,6.372-3.672-0.468-9.898-6.12-10.908-8.64-1.043-2.52,3.313-4.644,5.006-6.372,1.654-1.728,6.516-2.448,5.004-4.104-1.801-1.908-13.178-4.356-14.545-6.804-1.26-2.592,8.604-4.86,6.805-8.172-2.018-3.456-17.244-8.64-18.613-11.808-1.475-3.168,8.389-4.104,10.008-6.84,1.549-2.844,1.441-6.12-0.467-9.972h-44.532c-3.708,1.116-5.184,2.448-4.572,4.536,0.648,1.908,6.48,4.464,8.208,7.272,1.584,2.736-0.36,6.984,1.368,9.54,1.62,2.484,9.072,5.076,8.604,5.436-0.54,0.216-9.144-1.188-11.808-3.636-2.844-2.628-3.204-10.656-4.536-10.908-1.44-0.144-4.824,6.48-3.636,10.008,1.152,3.42,9.864,8.244,10.44,10.44,0.396,2.052-4.896,2.448-7.704,2.304-2.88-0.288-6.192-3.492-9.108-3.204-2.952,0.252-6.228,3.96-8.172,5.004-2.088,0.936-2.556,0.036-3.636,0.9-1.08,0.792-1.944,2.16-2.736,4.104-3.996,0.612-6.876,1.476-8.64,2.736-1.908,1.224-0.072,3.06-2.268,4.536-2.304,1.296-10.8-0.036-10.908,3.636-0.108,3.708,3.384,9.576,10.476,18.18l-11.376,128.84c-6.372,7.02-12.744,12.924-19.548,17.712-6.84,4.752-17.1,7.236-20.916,10.908-3.96,3.528,0.468,7.704-2.268,10.44-2.772,2.557-12.096,3.455-14.076,5.473-2.124,1.943,1.584,1.152,1.836,6.371,0.144,5.184-3.024,16.92-0.468,24.516,2.592,7.525,7.848,13.969,15.912,20.018-4.284,5.615-9.288,12.348-15.012,20.34-5.904,7.92-13.536,22.318-19.548,27.252-6.228,4.787-13.392,0.215-16.344,1.836-2.808,1.512,0.648,6.156-0.468,7.703-1.368,1.404-5.256,0.469-6.804,1.369-1.476,1.008-0.936,2.23-2.268,4.104-1.44,1.619-4.716,6.084-6.372,5.904-1.728-0.324-2.268-5.617-4.104-7.273-1.98-1.619-4.5-2.664-7.704-2.734v64.547c4.14-2.988,7.632-4.176,10.908-3.42,3.096,0.721,5.22,6.119,8.172,7.74,2.844,1.512,5.328,3.816,9.54,1.367,4.248-2.555,12.42-16.344,15.912-16.379,3.276,0,2.34,11.412,4.536,15.912,2.196,4.428,6.696,9.252,8.64,10.439,1.764,1.008,0.396-5.58,2.268-4.068,1.728,1.549,4.428,12.744,8.64,13.176,4.248,0.18,12.384-10.512,16.344-11.375,3.708-0.828,1.944,5.363,6.372,6.371,4.428,0.865,16.884-2.447,20.016-0.9,2.916,1.477-3.996,7.488-1.836,9.973,2.232,2.305,11.124,3.133,15.012,4.572,3.78,1.332,10.044,2.268,7.704,4.068-2.628,1.764-16.704,8.387-22.248,6.84-5.58-1.691-6.804-15.301-10.476-16.381-3.744-1.043-8.928,7.344-11.808,10.008-3.06,2.484-5.58,2.953-5.904,5.438-0.324,2.52,1.044,5.615,4.104,9.576h130.86c0.467-6.84,2.088-10.477,5.004-10.908,2.879-0.469,8.963,7.631,12.275,8.172,3.133,0.359,3.096-4.428,6.84-5.473,3.779-1.08,11.34-1.332,15.443-0.9,3.889,0.252,8.281,3.385,8.172,2.736-0.252-0.721-7.451-4.896-9.107-6.84-1.656-2.053-0.467-2.268-0.9-4.969-0.576-2.844-4.066-10.619-2.268-11.375,1.801-0.828,9.432,6.768,12.744,6.805,3.133-0.037,3.816-6.518,6.336-6.805,2.484-0.469,4.537,5.111,8.641,4.535,4.031-0.756,12.42-8.531,15.443-8.172,2.736,0.396-1.188,8.605,1.836,10.441,2.988,1.691,14.725-1.045,16.344,0,1.477,1.08-8.244,3.6-6.803,5.902,1.439,2.053,12.275,3.961,15.443,6.84,3.168,2.916,4.104,6.301,3.203,10.441h54.973v-70.453c-5.725,2.305-9.936,2.16-13.176-0.432-3.168-2.736-1.943-13.068-5.904-15.443-4.176-2.377-13.428,0.432-18.18,1.332-4.752,0.863-7.992,5.039-10.008,3.635-2.088-1.547-0.9-10.871-2.268-12.707-1.441-1.873-3.42,2.34-6.373,1.367-3.131-1.188-7.02-6.912-11.809-7.74-4.967-0.826-13.391,3.422-16.811,2.736-3.348-0.828,0.828-7.416-3.168-7.271-4.248,0.035-18.18,5.076-21.385,7.74-3.168,2.557,4.393,5.725,2.268,7.703-2.412,1.836-17.1,1.404-15.875,4.105,1.26,2.734,19.799,6.371,23.148,12.275,3.059,5.832-0.613,18.359-4.068,22.717-3.6,4.176-12.492,4.715-16.381,2.734-3.816-2.16-5.471-10.402-6.336-15.012-0.863-4.535,2.953-10.619,0.9-12.275-2.34-1.729-10.045,2.916-14.076,1.836-4.068-1.367-6.336-8.1-9.576-9.107s-5.904,3.203-9.539,3.203c-3.889-0.215-9.145-3.096-12.709-3.637-3.6-0.646-7.668,2.916-8.172,0.434-0.469-2.629,6.156-12.492,5.436-15.445-0.828-2.951-8.566-0.143-10.008-2.268-1.439-2.412,0.361-6.48,1.369-11.375,0.863-5.004,1.26-13.357,4.104-17.713,2.809-4.248,11.16-3.455,12.707-8.172,1.369-4.932,0.145-11.809-4.066-20.916,5.328-5.725,9.719-13.283,13.176-23.076,3.383-9.936,9-24.516,7.271-35.424-1.943-10.908-21.779-17.713-17.713-29.556,4.285-11.988,30.781-34.344,42.697-41.364,11.664-6.912,19.691-0.252,27.287-0.432,7.488-0.324,13.717,0.324,17.713-1.368,3.744-1.8,3.24-7.884,5.436-9.108,2.305-1.404,5.58,0.072,7.74,1.368,1.943,1.296,0.072,5.04,4.104,6.372,3.961,1.152,14.725,2.7,19.512,0.9,4.789-1.908,9.938-8.532,8.641-11.808-1.619-3.348-14.473-7.776-17.713-7.74-3.238,0.108,1.332,7.56-1.836,8.208-3.42,0.36-16.775-1.908-18.143-5.004-1.297-3.06,8.314-9.252,9.971-13.176,1.369-4.104-3.6-9.036-0.898-10.908,2.699-1.944,14.146-1.584,17.279-0.468,2.916,1.116-1.512,4.032,0.9,6.804,2.482,2.628,9.252,9.036,13.643,9.108,4.248-0.144,9.9-3.276,11.809-9.108,1.801-5.94,3.637-20.196-0.9-25.56-4.752-5.364-23.363-4.284-26.82-6.336-3.348-2.196,2.664-5.472,6.373-6.372,3.527-1.008,10.836-0.756,14.977,0.9,4.066,1.692,7.199,9.9,9.539,9.072,2.305-1.08,5.939-11.448,4.104-14.976-2.088-3.6-14.291-4.428-15.912-6.372-1.584-1.944,3.781-2.736,6.373-5.436,2.375-2.952,10.008-9.288,8.172-11.376-2.053-2.052-16.668,2.088-19.549-0.9-2.844-3.24,1.117-15.264,2.736-17.748,1.656-2.556,4.572,3.313,6.805,2.736,2.16-0.756,4.031-5.472,5.904-6.372,1.799-0.936,5.039,3.132,5.004,0.936-0.217-2.376-4.176-11.016-5.904-14.544-1.873-3.492-4.176-3.024-4.537-6.372-0.252-3.456,5.006-11.196,2.736-14.076-2.484-3.06-14.398-5.148-17.279-3.636-2.844,1.512,1.691,10.98,0,12.708-1.836,1.548-9.035,0.216-10.908-2.736-1.871-3.024,1.26-12.096-0.9-14.976-2.412-2.88-10.871,0.396-13.176-2.268-2.34-2.772-2.699-7.38-0.936-14.112-26.13,0.042-52.33,0.078-78.54,0.15zm-108.15,240.62c-10.728,3.023-18.108,4.789-22.284,5.436-4.212,0.504-0.756-2.879-2.7-1.799-2.124,1.08-6.264,7.416-9.108,8.172-2.88,0.467-5.328-4.932-7.74-4.537-2.556,0.396-6.444,4.393-6.804,7.273-0.36,2.844,2.412,6.299,5.004,9.539,2.556,3.023,8.352,4.535,10.44,9.107,1.944,4.537-1.188,8.748,1.836,18.182,3.096,9.395,15.156,26.459,16.344,38.158,0.936,11.664-9,23.365-9.972,31.357-1.008,7.775,5.04,12.744,4.536,15.443-0.612,2.629-4.86-1.008-7.74,0.469-2.988,1.475-5.148,7.811-9.54,8.172-4.608,0.143-13.968-8.785-16.812-6.805-2.736,1.908-1.98,14.545,0.468,18.611,2.34,3.854,10.44,2.484,13.608,5.473,2.952,3.096,1.188,11.736,4.572,12.709,3.384,0.719,11.448-9.252,15.444-7.705,3.78,1.621,4.212,11.629,7.704,17.244,3.528,5.508,8.208,14.041,13.212,15.48,5.004,1.225,10.548-8.029,16.344-7.74,5.508,0.287,11.124,9.432,17.28,9.539,6.156-0.07,14.976-8.207,19.512-9.539,4.356-1.404,5.292,0.721,6.84,1.367,1.439,0.576-1.368,1.008,2.268,2.27,3.672,1.15,16.525,3.42,19.549,5.004,2.736,1.512-2.557,2.592-2.268,4.066,0.252,1.441,1.654,2.916,4.066,4.572-1.475-3.563-0.107-5.436,4.105-5.471,4.211-0.072,11.051,1.547,20.916,5.004-3.602-8.209-4.357-14.113-2.27-17.713,2.125-3.707,14.797-1.188,14.545-4.104-0.611-2.988-11.557-11.053-17.279-13.645-5.725-2.664-11.232-3.42-16.813-2.268-18.721-2.916-29.052-6.805-31.824-11.809-2.664-5.148,15.553-14.58,15.912-18.18,0.145-3.6-12.852,0.9-14.544-3.168-1.8-4.248,5.399-15.912,4.104-21.385-1.476-5.436-6.084-8.063-12.276-11.34-6.264-3.383-21.348-4.57-24.552-9.107-3.24-4.752,5.184-12.203,5.436-18.611,0.144-6.445-9.216-14.725-4.068-19.549,5.22-4.859,16.704-7.992,34.992-9.539l31.355-19.117c-7.703-7.811-14.939-15.084-22.283-22.248-7.416-7.271-9.72-19.223-21.348-20.447-11.77-1.23-27.5,3.17-48.17,13.21z" fill="url(#XMLID_2_)"/>
 <linearGradient id="XMLID_3_" y2="232.67" gradientUnits="userSpaceOnUse" y1="346.72" x2="314.93" x1="314.93">
  <stop stop-color="#A7A7A7" offset="0"/>
  <stop stop-color="#ECECEC" offset="1"/>
 </linearGradient>
 <path fill-rule="evenodd" clip-rule="evenodd" d="M380.59,232.67c-0.863,3.24-3.24,5.184-7.271,5.436-4.104,0.18-13.176-4.644-16.813-3.636-3.672,1.116-5.291,4.319-5.004,10.009-7.488-3.457-11.809-3.709-13.645-0.9-1.656,2.844,6.264,13.463,3.205,17.711-3.385,3.961-19.152,3.961-22.717,6.805-3.455,2.881,6.732,5.221,1.801,10.477-5.184,5.184-25.885,14.543-31.824,20.447-5.832,5.797-1.152,14.76-3.168,14.545-2.232-0.396-6.984-16.129-9.541-16.381-2.734-0.215-4.607,10.152-5.902,15.012-1.225,4.752,1.979,8.965-1.369,13.176-3.564,4.033-19.225,9.9-19.08,11.377,0.252,1.332,16.596-4.393,20.449-2.736,3.672,1.729-1.189,12.023,1.799,12.709,3.023,0.467,12.492-9.145,15.912-9.541,3.24-0.504,1.439,6.443,3.637,6.84,2.16,0.252,5.291-3.996,9.107-4.572,3.779-0.539,9.611,2.412,13.176,1.369,3.42-1.117,5.797-3.889,7.271-8.172,5.365,3.383,8.713,4.752,10.441,4.104,1.547-0.721-2.125-7.02-0.469-8.209,1.619-1.332,7.885,2.846,10.477,0.469,2.412-2.557,1.152-15.984,4.535-15.012,3.348,1.008,12.709,20.34,15.443,20.916,2.629,0.359,3.709-11.664,0.469-18.18-3.385-6.66-14.221-17.424-20.016-20.916-5.904-3.529-15.805,2.627-14.545,0,1.297-2.881,14.508-15.877,22.285-16.344,7.74-0.361,20.844,14.65,23.615,14.076,2.484-0.721-9.504-14.51-8.172-18.182,1.297-3.707,6.553-5.111,15.912-4.066,0.01-12.89,0.01-25.77,0.01-38.66z" fill="url(#XMLID_3_)"/>
 <path fill-rule="evenodd" clip-rule="evenodd" d="M162.76,359.1l2.124,61.848c-6.084-10.115-10.116-18.898-12.24-27.18-2.16-8.352-2.34-16.02-0.54-21.887,1.66-5.83,5.26-10.04,10.66-12.78zm24.44,112.21l0.072-10.908c5.652,0.828,9.828,0.828,12.816,0,2.916-0.936,2.053-1.836,4.787-5.328,2.629-3.672,9.506-11.916,11.197-15.984,1.619-4.031,1.043-6.66-1.584-8.027-1.477,3.383-3.385,5.832-5.869,7.488-2.555,1.547-5.902,1.836-9.07,2.123-3.277,0.217-6.553,0.037-10.117-0.539-0.9-17.102-1.62-30.061-2.16-39.457-0.54-9.359-0.936-14.867-1.044-16.523,5.364-2.809,8.604-6.805,10.116-12.275,1.332-5.545-1.836-14.438-1.584-20.27,0.18-5.939,0-11.016,3.205-14.398,3.311-3.24,9.287-3.025,15.982-5.328,6.553-2.377,15.588-2.377,22.934-9.037,7.234-6.875,13.859-17.172,20.268-31.463,7.02-2.881,14.471-8.209,22.932-16.561,8.389-8.461,17.352-19.152,27.18-33.049-11.627-1.547-23.58-0.072-36.252,4.285-12.779,4.391-28.152,17.135-39.455,21.852-11.305,4.463-19.801,2.627-27.721,5.328-7.992,2.557-16.092,5.039-19.728,10.656-3.672,5.688-4.392,13.104-2.16,22.932l-3.708-2.125c-1.224-10.943-2.016-22.355-2.664-35.207-0.648-12.889-1.008-26.244-1.08-41.04l-16.524-1.08,0.54,62.929c-2.124-0.072-3.816-0.469-5.364-1.584-1.584-1.152-2.772-2.629-3.708-4.824-1.224,1.223-3.132,1.404-5.868,0.539-2.808-0.936-6.264-2.844-10.656-5.867-0.432,2.375-2.52,2.736-6.408,1.08-3.924-1.764-9.612-5.365-17.064-11.197,1.044,2.34-1.44,2.916-7.452,1.584-6.12-1.332-15.588-4.57-28.8-9.576-1.116,2.305-4.14,3.492-9.072,3.709-5.004,0.072-11.016-2.484-20.808-2.664-10.008-0.18-22.572,0.359-38.376,1.619,2.268,15.336,7.596,29.809,15.984,44.244,8.496,14.365,19.224,31.32,34.128,41.58,14.868,9.973,41.616,14.438,53.856,18.686,12.024,4.139,13.032,3.527,18.144,6.371,4.968,2.771,8.46,3.385,11.736,10.152,3.168,6.695,3.528,19.332,7.452,29.844,3.888,10.512,8.856,21.133,15.444,32.545l-1.188,24.768h26.71zm-4.72-102.63c1.836-4.824,3.132-10.332,3.744-16.523,0.612-6.336,0.612-13.068,0-20.771l-5.328,8.531c0.51,9.57,1.05,19.14,1.59,28.76z" fill="#5F8736"/>
 <path fill-rule="evenodd" clip-rule="evenodd" d="M190.22,328.79l5.077-5.939c-3.708,0.145-5.941-1.08-6.553-3.275-0.684-2.412,0.252-5.652,2.664-10.404l-6.552-2.088c-1.944-4.104-2.772-7.848-2.088-11.916,0.504-4.104,1.692-8.352,5.652-11.916,4.031-3.779,12.313-7.775,18.18-9.504,5.652-1.691,10.404,1.08,16.057-0.289,5.58-1.512,10.332-4.391,17.568-8.352,7.271-4.104,17.783-12.131,25.307-15.48,7.273-3.383,11.988-3.852,18.434-4.752,6.406-1.008,12.814-1.402,19.654-1.188-4.715,5.545-8.242,9.756-11.016,12.781-2.736,2.951-4.572,4.643-5.363,5.074-2.053-0.539-5.725,0.9-11.305,4.465-5.652,3.527-12.816,9.035-22.031,16.668,0.9-8.352,1.295-12.924,1.188-14.004-0.18-0.936-1.477,4.932-2.088,7.74-0.721,2.664-1.404,5.291-2.053,8.027-6.371,4.717-11.482,8.352-15.479,11.34-4.033,2.881-6.912,4.861-8.641,5.941,3.133-6.373,5.111-11.484,5.939-15.48,0.756-4.033-0.936-8.855-1.188-8.641-0.324,0.145,0.396,4.896-0.9,9.541-1.512,4.57-3.996,10.475-7.74,17.855l-8.314,7.127c2.34-6.227,3.779-12.023,4.176-17.531,0.287-5.543-1.332-16.02-1.801-15.48-0.539,0.576,0.035,11.773-1.188,18.432-1.297,6.445-3.529,13.141-6.553,20.232l-6.229,5.652c-0.107-4.32,0.289-8.676,1.189-13.068,0.863-4.428,2.195-8.891,4.139-13.391-3.383,5.688-5.615,10.512-6.84,15.154-1.295,4.609-1.439,8.354-0.576,11.916-1.871,2.34-3.563,4.717-5.076,7.129-1.619,2.375-2.916,4.717-4.175,7.164,0.252-2.592,0.252-4.68,0-6.264-0.25-1.66-0.79-2.71-1.48-3.28z" fill="#C7FF3F"/>
 <path fill-rule="evenodd" clip-rule="evenodd" d="M206.32,328.79c2.807,0.793,5.975,0.793,9.791,0,3.781-0.756,7.777-1.367,12.816-4.752,4.969-3.635,12.564-10.619,16.957-16.379,4.246-5.76,7.127-11.664,8.639-17.855,1.152,0.504,3.781-0.434,7.74-2.953,4.031-2.627,11.699-8.316,16.057-12.203,4.211-3.961,7.055-7.488,8.928-11.016-3.348,0.756-7.164,2.592-11.592,5.363-4.5,2.771-10.621,8.064-14.904,11.305-4.283,3.096-5.76,3.779-10.691,7.738-5.113,3.996-16.561,12.961-19.369,16.057-2.736,2.916-0.215,2.736,2.701,1.801,2.807-0.973,7.416-3.602,13.967-7.74-2.375,3.42-5.004,5.904-7.74,7.74-2.771,1.764-6.443,2.051-8.928,2.951-2.627,0.756-4.752,1.404-6.516,1.801-3.168,0.611-5.4,1.799-6.553,3.852-1.295,1.98-2.699,8.1-0.611,8.064,2.125-0.217,9.863-6.805,13.104-8.641,3.061-1.836,5.041-2.484,5.652-2.088-2.771,1.549-5.148,3.133-7.127,4.752-1.98,1.619-2.736,3.348-4.789,4.787-2.305,1.225-6.229,2.809-8.316,2.953-2.16,0-3.455-0.648-4.176-2.377-1.66,2.28-3.35,4.54-5.04,6.85z" fill="#C7FF3F"/>
 <path fill-rule="evenodd" clip-rule="evenodd" d="M157.79,294.59l4.464,59.797c-3.384,1.836-5.616,3.275-6.84,4.463-1.296,1.08-1.44,1.873-0.576,2.377,1.476-5.508,1.476-11.557,0-18.434-1.584-7.02-6.552-16.416-8.928-22.643-2.376-6.193-4.068-10.945-5.076-14.256,1.116,7.883,2.412,14.58,3.888,20.52,1.44,5.867,3.672,8.928,4.752,14.58,0.936,5.543,1.332,12.816,0.9,18.756-0.504,5.867-1.8,11.232-3.888,16.379-1.944-2.699-5.76-6.479-11.592-11.627-5.904-5.221-13.644-11.377-23.508-19.045,2.304-4.391,3.528-10.295,3.276-17.855-0.288-7.561-1.656-16.631-4.5-27.359,1.188,6.66,1.692,13.355,1.512,20.232-0.216,6.875-1.116,13.68-2.7,20.807-1.764-0.611-3.852-1.764-6.552-3.852-2.7-2.053-5.868-4.824-9.504-8.316,1.332-4.643,1.836-9.756,1.8-15.479-0.108-5.904-2.016-17.713-2.412-18.758-0.432-0.971,0.072,7.598-0.288,13.068-0.504,5.365-1.296,11.629-2.376,19.08-8.892-3.492-15.984-6.875-21.42-10.439-5.508-3.527-9.18-7.092-11.304-10.691,0.108-6.084-0.396-11.197-1.512-15.48-1.26-4.355-4.428-8.424-5.328-10.115,2.016,3.059,3.348,6.479,4.14,10.402,0.72,3.854,0.828,8.064,0.324,12.781-8.604-4.789-15.66-9.469-21.744-14.58-6.12-5.184-10.692-10.26-14.292-15.768,1.8,4.428,5.724,9.756,11.916,16.379,6.156,6.66,14.436,14.076,24.984,22.932-2.412,0.973-5.58,1.117-9.792,0.576-4.212-0.611-9.18-2.051-15.192-4.176,4.176,3.527,8.604,6.121,13.68,8.064,5.112,1.764,10.944,1.547,16.38,3.24,5.184,1.727,9.396,4.068,15.156,7.164,5.688,3.168,15.84,9.252,19.08,11.303-1.584,1.514-4.716,2.557-9.252,2.988-4.716,0.361-12.06,0.396-18.144-0.324-6.192-0.863-19.512-4.932-18.144-4.139,1.44,0.791,18.648,8.027,26.784,8.928,8.028,0.791,15.12-0.648,21.42-4.176l10.404,8.928c0.072,0.648-1.476,1.115-5.04,1.799-3.564,0.504-8.928,1.225-16.092,1.766,3.276,0.756,7.2,1.223,12.204,1.799,4.968,0.469,10.584,0.865,17.28,1.188,6.048,2.412,10.656,5.041,13.968,8.316,3.276,3.168,5.112,6.697,5.652,10.729-8.928-5.4-18.504-10.008-29.16-13.68-10.764-3.781-24.768-5.184-34.524-8.641-9.756-3.455-15.048-3.779-23.508-12.203-8.64-8.748-20.484-25.957-27.36-38.988-6.788-13.04-11.252-25.6-13.376-38.38,11.34-0.898,21.168-1.332,30.06-0.898,8.82,0.322,16.308,3.023,22.608,2.951,6.156-0.145,10.872-1.332,14.292-3.564,9.936,5.076,17.928,8.352,24.408,10.117,6.408,1.654,11.016,1.654,13.968,0,2.88,4.57,6.012,7.703,9.54,9.252,3.42,1.547,7.236,1.547,11.304,0,0.792,1.871,2.52,3.023,5.04,3.852,2.556,0.791,5.796,0.863,10.116,0.611,0.504,2.809,1.548,4.932,2.988,6.229,1.44,1.29,3.27,1.8,5.65,1.51z" fill="#C7FF3F"/>
 <path fill-rule="evenodd" clip-rule="evenodd" d="M187.56,360.25c-0.18,3.313-0.72,5.939-1.476,7.74-0.828,1.619-2.196,1.871-3.276,2.988-1.116,1.115-3.6,3.023-3.276,4.176,0.324,1.043,3.348,2.771,5.04,2.664,1.512-0.145,3.924-0.865,4.464-3.275,0.504-2.521-0.036-6.338-1.476-11.594v-2.698z" fill="#C7FF3F"/>
 <path fill-rule="evenodd" clip-rule="evenodd" d="M164.95,425.16c0.72,2.412,6.084,7.561,8.028,10.98,1.872,3.348,2.916,10.26,3.276,8.928,0.288-1.549-0.72-6.84-1.512-17.533-0.972-10.979-2.808-35.207-3.852-46.439-1.116-11.268-2.052-19.584-2.664-19.943-0.684-0.18-1.692,11.051-1.224,18.145,0.36,6.947,3.6,15.982,3.888,23.219,0.108,7.092-1.332,15.156-2.376,19.045-1.06,3.71-4.37,1.15-3.58,3.6z" fill="#C7FF3F"/>
 <path fill-rule="evenodd" clip-rule="evenodd" d="M188.75,443.52l-0.612,12.205c2.448,1.619,4.608,2.268,6.876,1.799,2.125-0.504,3.6-1.871,6.229-4.5,2.627-2.699,5.76-6.371,9.539-11.303-4.32,1.871-8.244,2.916-11.916,3.275-3.68,0.28-7.1-0.26-10.12-1.48z" fill="#C7FF3F"/>
 <path fill-rule="evenodd" clip-rule="evenodd" d="M141.73,384.44c-0.576,0.361,2.412,7.668,3.564,12.492,0.972,4.645,1.26,11.557,2.664,15.48,1.224,3.816,5.004,8.064,5.364,7.451,0.18-0.828-2.484-7.486-3.276-11.627-0.684-4.213,0.036-9.072-1.188-13.068-1.53-4.06-6.5-11-7.11-10.72z" fill="#C7FF3F"/>
 <path fill-rule="evenodd" clip-rule="evenodd" d="M72.468,146.2c-2.7-0.72-6.012-0.936-9.936-0.648-4.068,0.252-10.656,0.504-13.788,2.268-3.132,1.692-4.68,4.212-4.788,7.704,5.184-1.764,11.052-2.304,17.604-1.62,6.48,0.648,13.644,2.412,21.492,5.436,1.152,2.088-1.368,3.888-7.704,5.796-6.408,1.836-16.272,3.492-30.132,5.112,2.916,4.752,7.272,7.956,13.464,9.612,6.156,1.656,13.716,1.764,23.112,0.324-0.792,2.124,0.864,4.536,5.112,7.38,4.284,2.808,10.836,6.012,20.196,9.612-4.248,2.592-7.236,6.12-8.964,10.584-1.872,4.536,1.008,10.908-1.62,16.056-2.7,5.004-7.452,9.504-14.4,13.788,8.856-6.192,16.02-9.9,21.78-11.556,5.652-1.692,6.444,2.376,12.528,1.908,6.156-0.54,13.788-2.088,23.724-4.788-2.628,2.448-5.688,4.788-9.324,6.732-3.708,1.908-7.74,3.708-12.492,5.112l34.956-2.88c3.096,1.692,4.212,4.104,3.204,7.38-1.116,3.24-7.128,6.012-9.288,12.205-2.232,6.084-3.276,14.146-3.528,24.336,2.376-6.59,5.796-12.313,10.26-17.605,4.464-5.363,10.656-10.656,16.344-13.787,5.652-3.205,13.356-8.892,16.992-4.824,3.42,4.141,4.751,13.68,3.852,29.195,3.528-2.412,5.616-6.982,6.407-14.111,0.756-7.092,0.072-16.451-1.908-28.224-17.567-4.536-34.451-13.068-51.335-25.992-16.956-13.068-33.084-29.844-49.356-51.3-7.48-1.04-14.968-2.12-22.456-3.2z" fill="#5F8736"/>
 <path fill-rule="evenodd" clip-rule="evenodd" d="M69.696,125.6c-4.68-3.132-8.82-6.588-12.816-10.8-3.96-4.176-7.56-8.964-10.8-14.22l13.608,0.792c-4.068-3.744-6.948-7.128-8.784-10.008-1.872-2.988-2.448-5.472-2.016-7.596,4.248-0.144,7.452,0.036,10.008,0.396,2.484,0.324,4.032,0.972,4.788,1.8-1.512-1.044-2.376-2.7-2.988-4.968-0.648-2.34-0.648-5.22-0.396-8.784,3.312,0.324,6.336,1.116,9.216,2.376,2.844,1.224,5.4,2.844,7.812,5.004-1.62-1.62-3.024-3.816-4.608-6.588-1.62-2.88-3.024-6.192-4.608-10.224,4.356-0.468,8.676,0,12.816,1.404,4.176,1.404,8.028,3.744,11.988,7.02-2.052-4.572-3.132-8.532-3.384-12.024-0.216-3.564,0.396-6.372,1.98-8.82,1.98,0.504,3.744,1.332,5.832,3.024,1.98,1.584,3.924,3.672,5.976,6.408-0.936-4.14-1.584-7.2-1.8-9.612-0.252-2.376-0.072-3.96,0.396-4.608,4.896,1.8,9.504,4.932,14.22,9.396,4.608,4.5,9.144,10.116,13.608,17.244-0.072-2.304,0.576-4.284,1.8-6.228,1.188-1.908,3.06-3.636,5.616-5.184-0.36-1.152,0-2.556,1.224-4.212,1.224-1.692,3.168-3.636,5.976-5.832,1.836-0.432,3.528,0.18,5.22,1.836,1.692,1.62,3.096,4.284,4.608,7.992-0.504-5.616,0.288-10.26,1.98-14.22s4.5-7.092,8.424-9.396c1.98-1.08,4.464,1.584,7.596,7.992,3.168,6.444,6.66,16.344,11.016,30.24,3.78-1.656,7.38-2.196,10.8-1.62,3.348,0.504,6.588-0.108,9.432,4.824,2.809,4.932,5.221,12.888,7.381,24.408,3.023-1.044,5.111-0.972,6.408,0.216,1.223,1.152,1.512,3.42,1.008,6.804,2.16-1.008,3.779-1.728,5.4-2.016,1.512-0.36,2.664-0.36,3.6,0-0.145,1.404-0.072,2.556-0.18,3.6-0.109,1.008-0.182,1.764-0.217,2.412,1.98-2.916,4.787-5.436,8.424-7.416,3.564-2.052,9.396-2.664,13.213-4.608,3.744-2.052,6.875-4.536,9.395-7.596,2.125,5.256,3.133,9.684,3.025,13.428-0.145,3.708-1.369,6.48-3.816,8.604,10.477-1.26,19.225-1.152,26.82,0.18,7.488,1.332,13.391,3.888,18,7.812-2.664,2.628-5.545,4.896-8.785,6.804-3.275,1.836-6.768,3.312-10.619,4.428,0.611-0.612,4.031-0.216,10.799,1.188,6.697,1.332,16.201,3.672,29.053,7.02-1.043,4.14-4.355,8.352-10.225,12.78-5.939,4.428-14.039,8.928-24.84,13.644,5.4-1.08,11.701-0.288,19.045,2.376,7.344,2.628,15.48,7.056,24.803,13.428-2.555,2.304-5.688,4.212-9.395,6.012-3.816,1.764-8.064,3.132-13.033,4.392,2.916,0.792,5.508,2.412,7.633,5.004,2.195,2.592,3.744,5.868,5.184,10.224-3.42-0.936-7.092-1.728-11.016-2.232-3.996-0.576-8.1-0.972-12.6-1.188,1.691,0.684,4.211,4.104,7.416,10.404,3.203,6.336,7.092,15.264,11.807,27.216-2.951,0.648-6.443,0.791-10.619,0.576-4.213-0.289-8.965-1.08-14.4-2.232,2.52,2.809,4.5,5.904,5.797,9.432,1.26,3.527,1.98,7.344,2.016,11.592-5.363-0.035-10.943-0.971-17.027-2.807-6.156-1.838-12.529-4.572-19.404-8.209,1.008,2.125,1.404,5.904,1.188,11.629-0.252,5.723-1.115,13.104-2.592,22.428-7.164-1.764-14.797-4.68-23.041-8.605-8.496-4.139-18.971-9.539-26.424-15.227-7.307-5.689-12.996-11.844-17.207-18.613-1.873,5.617-4.824,10.549-9,14.797-4.212,4.211-9.504,7.703-16.02,10.619-2.484-2.879-4.032-7.02-4.788-12.42-0.828-5.471-0.72-12.203,0.18-20.195-3.852,4.717-7.272,8.604-10.404,11.809-3.132,3.168-5.868,5.398-8.208,6.982-0.9-1.439-1.548-4.391-1.8-9.395-0.36-4.969-0.36-11.665,0-20.232-5.004,0.684-10.188,0.864-15.408,0.828-5.364-0.108-10.62-0.576-16.2-1.404-1.08-4.968-0.072-9.576,3.168-13.824,3.204-4.32,8.496-8.208,16.02-11.808-3.096-0.36-6.156-1.008-9.18-1.656-3.096-0.72-6.12-1.584-9.216-2.592-0.144-2.376,0.036-4.248,0.396-5.616,0.324-1.44,0.972-2.376,1.8-2.808-7.236-0.252-12.96-1.044-17.604-2.772-4.608-1.692-7.992-4.104-10.008-7.236,0.828-2.088,1.872-3.816,2.988-5.184,1.152-1.476,2.376-2.412,3.816-3.204-2.844-0.036-7.164-1.332-12.816-3.744-5.76-2.556-12.852-6.084-21.42-11.016,1.296-2.7,2.628-4.86,4.392-6.624,1.62-1.8,3.492-3.132,5.616-3.996-3.096,1.116-6.372,0.252-9.828-2.592-3.6-2.88-7.2-7.704-11.196-14.616,5.004-1.368,8.928-2.232,12.204-2.592,3.166-0.4,5.434-0.22,6.802,0.42z" fill="#FF0"/>
 <path fill-rule="evenodd" clip-rule="evenodd" d="M71.46,107.71c-3.384-4.464-6.336-8.28-9-11.592-2.772-3.456-6.624-7.344-6.84-8.316s0.468-1.944,6.084,2.771c5.688,4.716,14.724,12.888,27.648,25.056l5.508-6.264c-9.216-8.892-15.804-15.479-20.448-20.448-4.68-4.932-7.92-9.18-6.804-8.856,1.08,0.18,8.64,5.832,13.644,10.152,4.932,4.284,10.332,9.252,16.2,15.3-2.34-5.76-4.932-11.52-7.92-17.712-3.096-6.229-11.808-18.396-10.152-19.152,1.656-0.648,13.68,9.324,20.088,14.76,6.372,5.22,12.096,10.8,17.712,16.74l8.28-3.132c-0.72-3.636-3.312-8.208-7.92-13.716-4.752-5.724-18.18-16.956-19.728-19.512-1.476-2.484,8.856,5.436,10.872,4.608,1.8-1.008-1.836-11.088,0.756-9.972,2.736,1.26,9.612,9.936,15.084,17.136,5.292,7.092,10.836,15.156,16.776,24.876l7.2,1.836c0-5.148-0.36-9.576-0.936-13.428-0.72-3.924-1.872-6.012-2.772-9.576-0.972-3.708-3.024-9.792-2.556-11.988,0.396-2.34,3.6-4.428,5.328-1.116,1.692,3.42,3.672,16.236,4.968,21.384,1.152,5.076,1.944,7.776,2.232,8.64,1.152-5.148,1.908-10.548,2.556-16.2,0.612-5.796,0.828-11.556,0.936-17.856,3.456,4.068,5.976,9.036,7.56,14.904,1.548,5.796,2.052,12.492,1.656,20.088,4.068-0.252,7.02-1.548,9-3.888,1.908-2.52,1.008-10.116,2.592-10.296,1.548-0.108,4.5,6.192,6.624,9.576,2.088,3.384,3.888,8.82,5.544,10.332,1.405,1.296,2.233-4.104,3.311-2.052,0.973,2.016,1.945,6.552,2.773,14.004,4.283-5.76,7.523-8.712,10.115-9.288,2.377-0.54,2.592,4.86,4.969,6.084,2.412,1.044,7.416-0.612,9.611,0.72,2.088,1.368,3.061,3.636,2.916,7.2,3.348-3.564,6.805-6.336,11.053-8.316,4.211-2.052,10.152-2.592,13.643-3.852,3.313-1.368,5.869-4.896,6.266-4.068,0.215,0.72-2.053,6.156-4.43,8.676-2.41,2.376-6.227,2.088-9.936,6.084-3.816,3.996-8.064,9.9-12.887,17.856,7.99-4.068,15.119-7.272,21.924-9.756,6.66-2.592,11.627-4.428,18.215-4.968,6.48-0.468,19.584,0.9,20.844,2.016,1.045,0.972-8.604,2.34-13.822,4.248-5.293,1.872-10.369,2.232-17.316,7.344-6.984,5.076-14.941,12.708-24.156,23.04,5.148-2.412,11.557-4.932,19.367-8.1,7.777-3.24,20.844-8.964,27.252-10.512,6.229-1.404,10.98,0.396,10.512,1.656-0.574,1.152-16.883,3.78-13.643,4.968,3.24,1.008,29.303-0.396,32.795,1.476,3.24,1.764-1.26,5.112-12.527,9.216-11.34,4.104-29.305,9.108-54.721,15.3,11.016,0.072,21.133,0.504,31.32,1.296,10.08,0.72,21.457,1.548,28.729,3.312,7.127,1.692,15.084,6.228,14.004,6.804-1.297,0.432-13.248-3.78-20.988-4.032-7.885-0.324-27.18,0-25.416,2.376,1.98,2.268,36.721,9.36,36.469,11.412-0.686,1.908-35.713-1.008-39.42,0.396-3.529,1.332,12.959,5.076,17.676,7.74,4.572,2.628,13.5,7.344,9.576,7.74-4.141,0.216-15.193-1.764-33.697-6.084l-1.115,0.108c18.18,7.488,27.863,12.816,30.023,16.416,1.908,3.456-4.068,5.04-18.215,4.608,13.68,11.268,19.295,17.713,17.135,19.332-2.268,1.549-12.313-1.656-30.42-9.756,1.045,6.805,0.828,13.141-0.359,19.152-1.297,6.047-2.592,14.184-7.201,16.775-4.787,2.447-10.115,5.939-20.986-2.305-10.98-8.531-25.381-24.119-44.029-47.735,2.556,9.504,2.916,17.424,1.08,24.155-1.98,6.66-10.296,20.594-12.312,15.842-2.088-4.969-2.088-19.514,0-44.605-3.852,8.208-7.74,14.58-11.808,19.548-4.212,4.897-12.924,13.645-12.528,9.577,0.432-4.32,5.364-15.588,14.94-34.632-9.504,3.6-17.244,5.976-23.796,6.984-6.552,0.936-18.432,2.772-15.084-0.9,3.384-3.744,14.868-10.764,34.992-21.204-18.288,2.34-29.952,2.16-35.568-0.396-5.58-2.7-0.108-10.8,2.232-15.12,2.34-4.392,6.012-7.812,11.412-10.692-15.084,5.544-25.776,8.856-32.22,10.332-6.552,1.296-9.216,0.9-6.48-2.016,2.664-3.024,10.224-8.208,22.68-15.84-9.036,1.98-17.64,2.592-26.352,1.836-8.784-0.828-23.148-2.844-25.596-6.444s1.08-8.64,10.872-15.12c-7.956,0.612-13.608,0.072-16.956-1.476-3.456-1.764-7.848-6.084-3.312-8.1,4.608-2.016,14.4-3.312,30.204-3.888-3.168,0.396-7.848-1.08-14.184-4.572-6.426-3.72-23.094-14.7-23.706-16.46-0.54-1.728,6.228,0.144,20.448,5.904-0.792-0.9-1.584-1.836-2.412-2.772l-1.476-1.66z" fill="#C2C200"/>
 <path fill-rule="evenodd" clip-rule="evenodd" d="M78.66,123.73c-0.54,0.288-2.16-0.648-5.148-2.952-3.06-2.412-12.096-9-12.528-10.872-0.36-1.908,6.12-1.224,10.116-0.18,3.78,0.936,11.88,6.804,13.068,6.084,1.08-0.828-6.444-9-6.048-10.476,0.432-1.476,3.06-0.972,8.28,1.656-7.02-7.38-12.096-13.14-15.66-17.712-3.6-4.68-6.84-9.576-5.544-9.396,1.224,0.18,7.524,6.192,12.924,10.692,5.328,4.464,11.556,9.612,18.972,15.84-3.636-5.148-7.272-10.62-11.052-16.56-3.888-6.12-12.24-17.532-11.448-18.972,0.828-1.44,10.944,6.66,16.596,10.836,5.616,4.104,11.34,8.82,16.776,14.004,5.328,5.148,10.26,10.692,15.084,16.776,0.936-3.996,0.216-8.856-2.016-14.724-2.304-6.012-8.388-14.292-11.592-20.268-3.42-5.94-7.632-13.248-7.92-14.976-0.36-1.836,5.256,4.824,6.444,4.428,1.152-0.54-1.476-8.388,0.72-7.02,2.16,1.296,8.856,11.088,12.168,14.94,3.204,3.852,5.328,8.028,7.2,8.1,1.8-0.144,2.124-9.54,4.032-8.46,1.908,1.116,5.148,10.728,7.2,15.084,1.872,4.104,3.24,8.964,4.392,10.152,1.08,1.152,1.944,1.404,2.052-3.132-0.108-4.752-2.412-20.196-2.052-24.516,0.432-4.392,2.7-2.592,4.428-1.116,1.548,1.512,3.744,6.516,5.184,10.152,1.332,3.492,2.052,9.792,3.132,10.692,0.972,0.72,2.052-2.16,2.952-5.724,0.756-3.6,0.792-14.22,2.196-15.48,1.44-1.26,4.932,4.824,6.444,8.1,1.368,3.168,1.26,11.556,2.016,10.872,0.72-0.864,2.052-10.62,2.052-15.66-0.288-5.184-3.528-14.904-2.772-14.724,0.828,0.252,6.192,10.728,7.92,16.02,1.512,5.112,0.504,13.392,1.836,15.12,1.296,1.548,4.536-5.436,6.264-4.968,1.62,0.468,2.412,4.5,3.492,7.92,0.9,3.42,0.396,10.98,2.232,12.132,1.837,0.972,6.337-3.96,8.64-6.048,2.088-2.304,3.313-8.388,4.248-7.02,0.9,1.404,1.332,6.408,1.297,15.3,1.115-1.116,2.088-1.224,2.771-0.18,0.611,0.936-0.539,4.86,1.26,6.084,1.691,1.152,6.66-0.612,9.217,1.08,2.555,1.62,4.391,4.356,5.904,8.496,1.367-2.304,3.42-4.176,6.443-5.904,2.951-1.8,8.316-3.168,11.232-4.248,2.807-1.224,6.227-2.88,5.543-2.196-0.863,0.792-6.732,3.528-9.971,6.804-3.385,3.06-9.686,10.296-9.576,11.988,0.072,1.584,3.887-0.756,10.332-2.016,6.443-1.332,24.047-5.256,27.828-5.364,3.563-0.108-3.098,1.656-6.084,4.608-3.061,2.916-13.213,10.692-11.988,12.348,1.115,1.404,16.271-3.78,18.791-3.312,2.377,0.432-4.607,4.644-4.428,6.408-0.035,1.692-0.035,2.556,5.004,3.852,5.076,1.188,18.611,2.808,25.057,3.492,6.371,0.504,13.752-0.504,12.707,0.576-1.367,1.116-12.814,3.132-19.908,6.444-7.055,3.384-21.887,9.756-22.283,13.428-0.432,3.492,17.1,6.228,19.691,7.92,2.305,1.584-5.508,1.368-4.967,2.412,0.539,0.936,9.646,2.124,8.279,3.852-1.512,1.584-15.301,3.744-16.92,6.48-1.619,2.808,4.141,7.524,6.984,10.116,2.771,2.376,11.916,3.528,9.396,4.572-2.773,1.008-21.926-0.792-25.236,1.836-3.385,2.52,6.551,10.656,5.508,13.428-1.188,2.736-14.617-0.036-11.953,2.952,2.773,2.88,29.664,13.644,28.189,14.364-1.836,0.504-33.732-10.944-38.34-10.872-4.609,0.072,10.691,9.648,11.051,11.089,0.217,1.223-9.287-5.725-9.215-2.953,0.035,2.953,12.635,19.98,9.611,19.98-3.385-0.396-19.836-15.625-28.367-21.384-8.496-5.868-18.938-13.032-21.744-12.888-2.664,0.288,8.244,14.508,5.508,14.184-2.916-0.54-19.26-17.496-22.645-17.136-3.384,0.36,3.888,18.36,2.376,19.152-1.692,0.576-8.856-14.616-11.772-14.904-3.024-0.18-4.284,13.464-5.724,13.428-1.548-0.324-0.504-13.284-3.132-14.724-2.7-1.368-8.604,5.364-12.708,6.444-4.248,1.044-13.212,1.296-12.168-0.36,1.044-1.908,15.444-7.164,18.072-10.332,2.376-3.204,0.54-7.632-3.132-8.28-3.672-0.72-16.164,5.184-18.612,4.248-2.52-1.188,3.6-7.596,3.492-10.332-0.252-2.628-1.692-3.456-4.608-5.544-3.096-2.196-10.692-4.608-13.068-7.524-2.34-3.024-2.7-6.372-0.936-10.332-9.9,2.808-16.668,3.708-20.448,2.7-3.888-1.044-2.448-5.436-2.196-8.856,0.252-3.6,1.584-7.524,3.852-12.168-12.924-1.224-21.42-3.06-25.776-5.508-4.464-2.628-1.152-6.876-0.18-9.396,1.044-2.52,8.46-3.348,6.264-5.544-2.448-2.376-18.54-5.148-20.088-7.92-1.464-2.77,2.28-5.61,11.28-8.53z" fill="#FF8000"/>
 <path clip-rule="evenodd" d="M140.54,191.12c-8.964-6.012-12.348-9.9-17.1-17.496-4.968-7.812-10.8-19.62-11.808-28.188-1.08-8.532-0.432-16.308,6.264-22.5,6.768-6.372,20.448-13.068,34.092-14.544,13.68-1.44,32.904,1.332,46.981,6.084,13.895,4.716,26.928,11.916,35.748,22.284,8.711,10.404,17.566,27.18,16.02,39.24-1.764,11.916-13.859,26.208-26.172,31.896-12.564,5.508-33.552,4.248-47.7,1.476-14.21-2.91-27.24-12.23-36.32-18.25z" fill-rule="evenodd"/>
 <path fill-rule="evenodd" clip-rule="evenodd" d="M114.95,141.95c-0.756,8.424,1.512,17.928,10.152,27.972,8.676,10.044,25.452,25.596,41.436,31.536,16.02,5.688,39.528,7.812,53.423,2.916,13.682-5.22,27.469-20.16,28.189-32.58,0.359-12.456-12.672-30.852-25.057-40.896-12.637-10.188-33.228-16.776-48.996-18.792-15.768-1.944-34.668,2.268-44.604,7.344-10.01,5.11-13.75,13.86-14.54,22.5z" fill="#593B21"/>
 <path fill-rule="evenodd" clip-rule="evenodd" d="M142.42,133.81c1.152,2.196,7.38,5.76,5.508,7.92-2.052,1.98-18.468,0.792-17.316,4.068,1.224,3.24,20.628,9.576,24.336,15.12,3.456,5.364-8.1,15.012-3.132,17.136,4.968,1.98,23.904-6.12,32.796-5.004,8.748,1.08,15.263,12.24,19.693,11.268,4.176-1.188,2.734-13.5,6.084-17.892,3.42-4.536,14.723-5.292,14.184-8.64-0.793-3.456-14.76-7.704-18.037-11.628-3.275-3.996,3.096-9.54-1.295-11.772-4.609-2.34-20.232,0.396-25.632-1.656-5.364-2.124-3.672-9.936-6.444-10.512-2.952-0.54-5.472,5.976-10.872,7.2-5.508,1.152-18.144-1.44-21.528-0.576-3.36,0.64,0.39,2.8,1.65,4.96z" fill="#804000"/>
 <path fill-rule="evenodd" clip-rule="evenodd" d="M156.78,140.29c3.132-2.772,6.516-6.552,10.296-6.48,3.708,0.108,7.236,5.652,12.528,7.2,5.328,1.404,14.832-1.296,18.792,1.476,3.744,2.736,2.016,11.16,3.707,14.724,1.621,3.456,6.301,3.528,5.688,5.904-0.791,2.232-4.859,7.344-10.115,7.56-5.473-0.036-15.948-5.544-21.564-6.804-5.544-1.368-9.252,1.296-11.412-0.756-2.088-2.124,1.368-9.612-1.296-11.772-2.988-2.304-14.508,0.108-15.66-1.656-1.01-1.97,5.61-6.72,9.03-9.39z" fill="#593B21"/>
</svg>
