<?xml version="1.0" encoding="UTF-8" standalone="no"?>
<svg xmlns:rdf="http://www.w3.org/1999/02/22-rdf-syntax-ns#" xmlns:xml="http://www.w3.org/XML/1998/namespace" xmlns="http://www.w3.org/2000/svg" width="259.59" sodipodi:docname="Tacchino.svg" xml:space="preserve" style="enable-background:new 0 0 259.592 277.061;" height="277.06" sodipodi:version="0.32" viewBox="0 0 259.592 277.061" version="1.0" xmlns:cc="http://web.resource.org/cc/" xmlns:dc="http://purl.org/dc/elements/1.1/" sodipodi:docbase="F:\openclip\svg2" xmlns:sodipodi="http://inkscape.sourceforge.net/DTD/sodipodi-0.dtd"><metadata><rdf:RDF xmlns:rdf="http://www.w3.org/1999/02/22-rdf-syntax-ns#" xmlns:cc="http://web.resource.org/cc/" xmlns:dc="http://purl.org/dc/elements/1.1/"><cc:Work rdf:about=""><dc:title>Tacchino</dc:title><dc:description/><dc:subject><rdf:Bag><rdf:li>bird</rdf:li></rdf:Bag></dc:subject><dc:publisher><cc:Agent rdf:about="http://www.openclipart.org"><dc:title>Architetto Francesco Rollandin</dc:title></cc:Agent></dc:publisher><dc:creator><cc:Agent><dc:title>Architetto Francesco Rollandin</dc:title></cc:Agent></dc:creator><dc:rights><cc:Agent><dc:title>Architetto Francesco Rollandin</dc:title></cc:Agent></dc:rights><dc:date/><dc:format>image/svg+xml</dc:format><dc:type rdf:resource="http://purl.org/dc/dcmitype/StillImage"/><cc:license rdf:resource="http://web.resource.org/cc/PublicDomain"/><dc:language>en</dc:language></cc:Work><cc:License rdf:about="http://web.resource.org/cc/PublicDomain"><cc:permits rdf:resource="http://web.resource.org/cc/Reproduction"/><cc:permits rdf:resource="http://web.resource.org/cc/Distribution"/><cc:permits rdf:resource="http://web.resource.org/cc/DerivativeWorks"/></cc:License></rdf:RDF></metadata>
<path fill="#FF7F00" d="M171.55,217.46c1.282,5.818,2.161,13.706,5.251,18.858,4.238,7.067,4.904,3.694,12.445,3.694,4.801,0,5.535,3.461,9.137,4.667,6.224,2.084,8.896-1.886,13.61,6.22-4.321-3.622-7.172-0.471-11.666-1.554-4.44-1.07-6.101-5.368-11.278-4.278,4.985,6.162,16.497,6.06,17.889,14.001-6.106-4.414-14.046-5.054-20.607-9.335,0.926,4.45,4.53,10.19,3.889,15.556-0.524-3.445-2.865-4.513-4.28-7-0.17-0.298-3.146-7.036-3.11-6.999-4.239-4.387-9.167-6.227-15.553-2.335,2.146-3.561,5.126-6.591,9.333-5.832-7.102-5.427-13.422-14.882-16.722-23.135-1.77-4.45,8.25-2.64,11.67-2.54"/>
<path d="M171.55,217.46c1.282,5.818,2.161,13.706,5.251,18.858,4.238,7.067,4.904,3.694,12.445,3.694,4.801,0,5.535,3.461,9.137,4.667,6.224,2.084,8.896-1.886,13.61,6.22-4.321-3.622-7.172-0.471-11.666-1.554-4.44-1.07-6.101-5.368-11.278-4.278,4.985,6.162,16.497,6.06,17.889,14.001-6.106-4.414-14.046-5.054-20.607-9.335,0.926,4.45,4.53,10.19,3.889,15.556-0.524-3.445-2.865-4.513-4.28-7-0.17-0.298-3.146-7.036-3.11-6.999-4.239-4.387-9.167-6.227-15.553-2.335,2.146-3.561,5.126-6.591,9.333-5.832-7.102-5.427-13.422-14.882-16.722-23.135-1.77-4.45,8.25-2.64,11.67-2.54" stroke="#000" stroke-linecap="square" stroke-miterlimit="10" stroke-width="0.7" fill="none"/>
<path fill="#FF7F00" d="M154.83,225.24c0.767,6.354,1.077,12.954,3.11,19.055,2.747,8.238,4.96,4.068,12.056,5.248,4.443,0.739,6.105,3.997,9.331,5.64,5.156,2.626,9.133-0.844,11.665,7.778-3.376-4.159-6.74-1.523-10.887-3.11-3.95-1.512-5.992-5.626-10.888-5.446,3.947,6.792,16.059,8.226,15.941,15.942-6.008-5.106-13.339-5.758-19.051-11.666-0.172,4.651,3.466,10.519,1.553,15.945,0.266-4.693-3.036-4.873-4.276-8.169-0.073-0.194-1.35-7.556-1.166-7.385-4.379-4.082-14.368-1.16-19.833,1.165,4.187-3.589,8.36-10.104,14.389-8.943-4.19-4.688-14.059-17.512-13.219-24.108,0.7-5.41,4.75-3.22,11.28-1.93"/>
<path d="M154.83,225.24c0.767,6.354,1.077,12.954,3.11,19.055,2.747,8.238,4.96,4.068,12.056,5.248,4.443,0.739,6.105,3.997,9.331,5.64,5.156,2.626,9.133-0.844,11.665,7.778-3.376-4.159-6.74-1.523-10.887-3.11-3.95-1.512-5.992-5.626-10.888-5.446,3.947,6.792,16.059,8.226,15.941,15.942-6.008-5.106-13.339-5.758-19.051-11.666-0.172,4.651,3.466,10.519,1.553,15.945,0.266-4.693-3.036-4.873-4.276-8.169-0.073-0.194-1.35-7.556-1.166-7.385-4.379-4.082-14.368-1.16-19.833,1.165,4.187-3.589,8.36-10.104,14.389-8.943-4.19-4.688-14.059-17.512-13.219-24.108,0.7-5.41,4.75-3.22,11.28-1.93" stroke="#000" stroke-linecap="square" stroke-miterlimit="10" stroke-width="0.7" fill="none"/>
<path fill="#FF7F00" d="M192.94,41.309c5.936-11.918-3.88-31.116-16.525-18.47-11.366,11.366-16.215,31.128-21.407,45.847-3.418,9.689-15.696,38.602,3.714,21.617,14.02-12.266,27.56-31.638,34.22-48.994"/>
<path d="M192.94,41.309c5.936-11.918-3.88-31.116-16.525-18.47-11.366,11.366-16.215,31.128-21.407,45.847-3.418,9.689-15.696,38.602,3.714,21.617,14.02-12.266,27.56-31.638,34.22-48.994" stroke="#000" stroke-linecap="square" stroke-miterlimit="10" stroke-width="0.7" fill="none"/>
<path fill="#CCC" d="M166.5,38.586c2.822-6.276,8.548-19.26,16.72-20.221,11.387-1.338,13.583,15.191,9.722,22.944,0.292-7.739-9.177-8.225-5.833-16.722-2.773,6.66-7.284,3.15-12.053,5.444-4.22,2.027-6.65,4.912-8.56,8.555"/>
<path d="M166.5,38.586c2.822-6.276,8.548-19.26,16.72-20.221,11.387-1.338,13.583,15.191,9.722,22.944,0.292-7.739-9.177-8.225-5.833-16.722-2.497,5.996-6.351,3.491-10.887,5.444-5.071,2.184-7.058,2.949-9.722,8.944" stroke="#000" stroke-linecap="square" stroke-miterlimit="10" stroke-width="0.7" fill="none"/>
<path fill="#FF7F00" d="M177.78,31.587c2.234-13.413-10.321-28.849-20.222-14-8.795,13.193-9.013,34.044-10.701,49.255-1.22,10.979-6.882,40.62,8.37,19.961,11.4-15.45,18.63-36.458,22.55-55.216"/>
<path d="M177.78,31.587c2.234-13.413-10.321-28.849-20.222-14-8.795,13.193-9.013,34.044-10.701,49.255-0.94,8.469-6.666,41.012,7.398,21.322,11.769-16.477,18.705-36.554,23.524-56.19" stroke="#000" stroke-linecap="square" stroke-miterlimit="10" stroke-width="0.7" fill="none"/>
<path fill="#CCC" d="M151.34,35.087c0.744-6.283,4.604-21.141,11.666-23.72,11.102-4.055,16.104,12.423,14.775,20.608-1.542-7.117-10.205-6.284-9.722-14.387-0.62,6.417-14.6,6.626-16.72,17.499"/>
<path d="M151.34,35.087c0.744-6.283,4.604-21.141,11.666-23.72,11.102-4.055,16.104,12.423,14.775,20.608-1.542-7.117-10.205-6.284-9.722-14.387-0.62,6.417-14.6,6.626-16.72,17.499" stroke="#000" stroke-linecap="square" stroke-miterlimit="10" stroke-width="0.7" fill="none"/>
<path fill="#FF7F00" d="M156.39,25.755c-0.634-11.892-12.961-34.624-19.835-13.999-5.042,15.129-0.289,36.219,0.452,51.827,0.447,9.43-0.365,45.188,10.827,22.833,7.92-15.838,11.16-43.827,8.55-60.661"/>
<path d="M156.39,25.755c-0.634-11.892-12.961-34.624-19.835-13.999-5.042,15.129-0.289,36.219,0.452,51.827,0.447,9.43-0.365,45.188,10.827,22.833,8.696-17.372,8.943-41.624,8.943-60.661" stroke="#000" stroke-linecap="square" stroke-miterlimit="10" stroke-width="0.7" fill="none"/>
<path fill="#CCC" d="M135,29.254c-0.146-5.639-0.998-22.36,5.445-25.666,10.057-5.158,15.258,15.426,16.333,22.166-2.367-7.846-8.998-9.781-9.723-18.277,0.457,6.615-4.447,5.63-7.386,9.332-3.44,4.341-4.14,6.992-4.66,12.445"/>
<path d="M135,29.254c-0.146-5.639-0.998-22.36,5.445-25.666,10.057-5.158,15.258,15.426,16.333,22.166-2.367-7.846-8.998-9.781-9.723-18.277,0.706,10.216-12.813,9.194-11.665,21.776" stroke="#000" stroke-linecap="square" stroke-miterlimit="10" stroke-width="0.7" fill="none"/>
<path fill="#FF7F00" d="M138.5,20.698c-3.655-10.949-19.131-31.958-22.163-10.11-2.264,16.319,6.795,35.136,9.964,50.99,1.572,7.863,7.654,43.633,14.534,21.727,5.64-17.938,2.49-44.701-2.33-62.607"/>
<path d="M138.5,20.698c-3.655-10.949-19.131-31.958-22.163-10.11-2.264,16.319,6.795,35.136,9.964,50.99,1.572,7.863,7.654,43.633,14.534,21.727,5.64-17.938,2.49-44.701-2.33-62.607" stroke="#000" stroke-linecap="square" stroke-miterlimit="10" stroke-width="0.7" fill="none"/>
<path fill="#CCC" d="M117.89,28.087c-1.007-5.458-5.204-22.149,0.778-26.442,8.937-6.413,17.724,12.747,19.829,19.053-3.742-7.603-10.269-7.864-12.831-16.33,1.857,6.463-3.242,6.628-5.443,10.887-2.47,4.76-2.67,7.533-2.34,12.832"/>
<path d="M117.89,28.087c-1.007-5.458-5.204-22.149,0.778-26.442,8.937-6.413,17.724,12.747,19.829,19.053-3.742-7.603-10.269-7.864-12.831-16.33,2.69,9.362-10.431,11.98-7.388,23.719" stroke="#000" stroke-linecap="square" stroke-miterlimit="10" stroke-width="0.7" fill="none"/>
<path fill="#FF7F00" d="M119.45,18.754c-5.28-10.673-24.94-27.244-23.335-5.443,1.266,17.192,13.589,34.993,20.222,50.746,4.095,9.726,14.356,38.021,17.304,14.582,2.21-17.588-6.02-44.472-14.19-59.885"/>
<path d="M119.45,18.754c-5.28-10.673-24.94-27.244-23.335-5.443,1.21,16.43,12.824,33.174,19.152,48.206,3.229,7.67,15.233,41.172,18.178,18.678,2.494-19.051-6.098-43.747-13.609-61.051" stroke="#000" stroke-linecap="square" stroke-miterlimit="10" stroke-width="0.7" fill="none"/>
<path fill="#CCC" d="M101.17,30.031c-2.931-4.685-9.12-20.737-4.667-26.053,7.171-8.562,20.355,9.657,23.332,15.166-4.685-6.816-12.541-5.625-15.555-14,3.58,9.71-8.019,13.572-3.11,24.887"/>
<path d="M101.17,30.031c-2.931-4.685-9.12-20.737-4.667-26.053,7.171-8.562,20.355,9.657,23.332,15.166-4.685-6.816-12.541-5.625-15.555-14,3.58,9.71-8.019,13.572-3.11,24.887" stroke="#000" stroke-linecap="square" stroke-miterlimit="10" stroke-width="0.7" fill="none"/>
<path fill="#FF7F00" d="M100.78,20.698c-7.093-8.923-29.771-22.465-24.11-1.166,4.146,15.601,18.382,30.801,27.562,43.807,4.232,5.997,27.07,38.881,21.435,13.548-4.19-18.883-12.58-40.959-24.88-56.189"/>
<path d="M100.78,20.698c-7.093-8.923-29.771-22.465-24.11-1.166,4.146,15.601,18.382,30.801,27.562,43.807,4.232,5.997,27.07,38.881,21.435,13.548-4.19-18.883-12.58-40.959-24.88-56.189" stroke="#000" stroke-linecap="square" stroke-miterlimit="10" stroke-width="0.7" fill="none"/>
<path fill="#CCC" d="M84.45,35.087c-3.058-4.574-12.671-18.832-8.943-24.886,5.668-9.205,21.407,5.631,25.276,10.498-5.708-5.762-12.904-3.318-17.499-10.498,3.782,6.056-1.415,7.821-1.944,12.831-0.523,4.971,1.346,8.142,3.113,12.055"/>
<path d="M84.45,35.087c-3.058-4.574-12.671-18.832-8.943-24.886,5.668-9.205,21.407,5.631,25.276,10.498-5.708-5.762-12.904-3.318-17.499-10.498,5.524,8.847-5.778,14.563,1.555,24.886" stroke="#000" stroke-linecap="square" stroke-miterlimit="10" stroke-width="0.7" fill="none"/>
<path fill="#FF7F00" d="M82.895,26.142c-8.895-7.442-33.556-17.016-24.108,3.112,6.798,14.483,23.093,25.672,34.219,36.941,4.489,4.547,15.652,19.868,22.166,20.609,7.238,0.824,3.52-4.953,2.333-10.304-3.95-17.813-21.878-37.958-34.605-50.358"/>
<path d="M82.895,26.142c-8.895-7.442-33.556-17.016-24.108,3.112,6.798,14.483,23.093,25.672,34.219,36.941,4.489,4.547,15.652,19.868,22.166,20.609,7.238,0.824,3.52-4.953,2.333-10.304-3.95-17.813-21.878-37.958-34.605-50.358" stroke="#000" stroke-linecap="square" stroke-miterlimit="10" stroke-width="0.7" fill="none"/>
<path fill="#CCC" d="M69.285,42.864c-4.13-3.418-15.969-16.126-13.61-22.555,3.803-10.367,22.572,1.944,27.22,5.833-6.946-4.564-13.81-0.807-19.443-7.388,6.76,7.267-1.844,17.039,5.833,24.11"/>
<path d="M69.285,42.864c-4.13-3.418-15.969-16.126-13.61-22.555,3.803-10.367,22.572,1.944,27.22,5.833-6.946-4.564-13.81-0.807-19.443-7.388,7.109,7.642-2.918,15.957,6.223,24.499" stroke="#000" stroke-linecap="square" stroke-miterlimit="10" stroke-width="0.7" fill="none"/>
<path fill="#FF7F00" d="M65.786,34.309c-10.15-6.237-35.768-9.66-22.942,8.167,9.247,12.852,28.761,22.134,41.863,30.61,8.663,5.604,37.514,26.801,23.854,3.221-9.718-16.775-27.394-30.721-42.774-41.998"/>
<path d="M65.786,34.309c-10.15-6.237-35.768-9.66-22.942,8.167,9.171,12.748,28.026,21.25,40.83,29.942,7.051,4.787,38.387,27.519,25.664,5.25-9.7-16.974-27.23-32.022-43.165-42.97" stroke="#000" stroke-linecap="square" stroke-miterlimit="10" stroke-width="0.7" fill="none"/>
<path fill="#CCC" d="M56.064,53.751c-4.9-2.726-18.812-12.833-17.499-19.832,1.964-10.467,22.054-2.993,27.609,0.778-7.357-3.021-13.697,1.313-20.611-3.5,8.236,5.56,0.607,15.698,10.501,22.554"/>
<path d="M56.064,53.751c-4.9-2.726-18.812-12.833-17.499-19.832,1.964-10.467,22.054-2.993,27.609,0.778-7.357-3.021-13.697,1.313-20.611-3.5,8.236,5.56,0.607,15.698,10.501,22.554" stroke="#000" stroke-linecap="square" stroke-miterlimit="10" stroke-width="0.7" fill="none"/>
<path fill="#FF7F00" d="M51.01,45.975c-10.879-3.749-37.661-3.15-21.387,12.054,11.78,11.006,32.446,16.121,47.038,22.263,9.049,3.809,39.313,20.004,25.094,0.097-11.222-15.705-33.968-26.022-50.75-34.414"/>
<path d="M51.01,45.975c-10.879-3.749-37.661-3.15-21.387,12.054,11.78,11.006,32.446,16.121,47.038,22.263,9.049,3.809,39.313,20.004,25.094,0.097-11.222-15.705-33.968-26.022-50.75-34.414" stroke="#000" stroke-linecap="square" stroke-miterlimit="10" stroke-width="0.7" fill="none"/>
<path fill="#CCC" d="M44.788,66.584c-5.258-1.686-20.817-8.908-20.999-15.943-0.275-10.694,21.109-6.772,27.22-4.667-7.872-1.549-13.063,4.701-20.61,0.389,9.441,4.864,2.633,15.851,14.389,20.221"/>
<path d="M44.788,66.584c-5.258-1.686-20.817-8.908-20.999-15.943-0.275-10.694,21.109-6.772,27.22-4.667-7.872-1.549-13.063,4.701-20.61,0.389,9.441,4.864,2.633,15.851,14.389,20.221" stroke="#000" stroke-linecap="square" stroke-miterlimit="10" stroke-width="0.7" fill="none"/>
<path fill="#FF7F00" d="M38.565,59.974c-11.295-1.494-37.898,4.003-18.664,15.943,13.937,8.651,34.188,9.397,49.882,13.135,8.632,2.056,43.99,11.731,24.971-4.58-15.595-13.377-37.9-17.85-56.189-24.498"/>
<path d="M38.565,59.974c-11.295-1.494-37.898,4.003-18.664,15.943,13.604,8.444,33.287,9.232,48.607,12.831,7.714,1.813,43.451,12.71,27.607-3.11-13.617-13.596-39.201-21.342-57.55-25.275" stroke="#000" stroke-linecap="square" stroke-miterlimit="10" stroke-width="0.7" fill="none"/>
<path fill="#CCC" d="M36.232,81.36c-5.326-0.612-22.348-4.761-23.721-11.666-2.121-10.661,19.911-10.808,26.054-9.332-8.288-0.79-11.884,6.769-20.221,3.888,10.238,3.127,5.512,15.865,17.888,17.11"/>
<path d="M36.232,81.36c-5.326-0.612-22.348-4.761-23.721-11.666-2.121-10.661,19.911-10.808,26.054-9.332-8.288-0.79-11.884,6.769-20.221,3.888,10.026,3.062,5.669,14.73,17.888,17.5" stroke="#000" stroke-linecap="square" stroke-miterlimit="10" stroke-width="0.7" fill="none"/>
<path fill="#FF7F00" d="M28.845,76.306c-11.317,0.407-36.486,10.515-15.554,19.054,14.561,5.939,35.109,2.822,50.551,3.499,8.498,0.373,46.835,3.704,24.692-8.944-17.343-9.906-40.163-12.06-59.689-13.609"/>
<path d="M28.845,76.306c-11.317,0.407-36.486,10.515-15.554,19.054,14.561,5.939,35.109,2.822,50.551,3.499,8.498,0.373,46.835,3.704,24.692-8.944-17.343-9.906-40.163-12.06-59.689-13.609" stroke="#000" stroke-linecap="square" stroke-miterlimit="10" stroke-width="0.7" fill="none"/>
<path fill="#CCC" d="M30.399,97.693c-5.652,0.257-22.664-0.454-25.276-7.39-3.913-10.39,17.228-13.763,23.722-13.997-8.504,0.944-10.305,8.985-19.443,7.777,10.718,0.854,8.3,14.33,20.997,13.61"/>
<path d="M30.399,97.693c-5.652,0.257-22.664-0.454-25.276-7.39-3.913-10.39,17.228-13.763,23.722-13.997-8.504,0.944-10.305,8.985-19.443,7.777,10.718,0.854,8.3,14.33,20.997,13.61" stroke="#000" stroke-linecap="square" stroke-miterlimit="10" stroke-width="0.7" fill="none"/>
<path fill="#FF7F00" d="M22.233,93.805c-11.295,2.412-33.649,17.38-11.666,21.774,15.587,3.115,35.892-3.693,51.38-6.015,7.798-1.169,46.497-7.143,21.337-13.426-20.345-5.078-40.372-3.493-61.051-2.329"/>
<path d="M22.233,93.805c-11.295,2.412-33.649,17.38-11.666,21.774,15.587,3.115,35.892-3.693,51.38-6.015,7.798-1.169,46.497-7.143,21.337-13.426-20.345-5.078-40.372-3.493-61.051-2.329" stroke="#000" stroke-linecap="square" stroke-miterlimit="10" stroke-width="0.7" fill="none"/>
<path fill="#CCC" d="M27.679,114.41c-5.409,1.568-22.148,3.92-26.054-2.334-5.577-8.929,14.049-16.874,20.608-18.274-7.586,2.958-8.717,11.09-17.499,11.276,10.815-0.61,11.517,13.21,22.945,9.33"/>
<path d="M27.679,114.41c-5.409,1.568-22.148,3.92-26.054-2.334-5.577-8.929,14.049-16.874,20.608-18.274-7.586,2.958-8.717,11.09-17.499,11.276,10.544-0.592,11.005,11.168,23.331,9.722" stroke="#000" stroke-linecap="square" stroke-miterlimit="10" stroke-width="0.7" fill="none"/>
<path fill="#FF7F00" d="M18.734,112.47c-9.973,4.739-29.705,23.109-7.388,23.331,16.642,0.166,33.74-10.821,49.433-15.53,8.112-2.434,44.005-14.138,18.811-16.939-19.899-2.21-41.972,3.27-60.856,9.14"/>
<path d="M18.734,112.47c-9.973,4.739-29.705,23.109-7.388,23.331,16.044,0.16,33.243-10.155,48.217-15.165,7.555-2.528,43.817-12.133,21.776-17.109-18.599-4.199-44.649,2.769-62.217,8.943" stroke="#000" stroke-linecap="square" stroke-miterlimit="10" stroke-width="0.7" fill="none"/>
<path fill="#CCC" d="M28.455,131.91c-5.27,2.09-21.37,7.862-26.441,2.333-7.271-7.926,11.304-19.354,17.109-21.776-7.596,3.914-6.478,11.7-15.166,14.388,10.08-2.87,12.8,9.38,24.498,5.06"/>
<path d="M28.455,131.91c-5.27,2.09-21.37,7.862-26.441,2.333-7.271-7.926,11.304-19.354,17.109-21.776-7.596,3.914-6.478,11.7-15.166,14.388,10.08-2.87,12.8,9.38,24.498,5.06" stroke="#000" stroke-linecap="square" stroke-miterlimit="10" stroke-width="0.7" fill="none"/>
<path fill="#FF7F00" d="M23.4,126.47c-10.271,4.854-30.177,23.613-7.388,23.721,16.093,0.076,34.562-10.137,49.372-15.592,9.438-3.477,44.456-14.371,16.733-17.073-19.955-1.95-40.282,5.31-58.717,8.94"/>
<path d="M23.4,126.47c-10.271,4.854-30.177,23.613-7.388,23.721,16.093,0.076,34.562-10.137,49.372-15.592,7.648-2.817,43.976-14.044,18.483-16.879-19.584-2.178-42,2.637-60.467,9.14" stroke="#000" stroke-linecap="square" stroke-miterlimit="10" stroke-width="0.7" fill="none"/>
<path fill="#CCC" d="M32.733,145.91c-4.724,2.802-21.211,7.64-26.054,2.722-7.803-7.925,10.44-19.507,16.722-21.773-7.106,4.148-6.793,11.889-15.165,14.389,10.188-3.82,13.046,10.55,24.497,4.66"/>
<path d="M32.733,145.91c-4.724,2.802-21.211,7.64-26.054,2.722-7.803-7.925,10.44-19.507,16.722-21.773-7.106,4.148-6.793,11.889-15.165,14.389,9.62-3.602,13,8.965,24.497,5.054" stroke="#000" stroke-linecap="square" stroke-miterlimit="10" stroke-width="0.7" fill="none"/>
<path fill="#FF7F00" d="M30.01,139.3c-9.697,5.965-28.713,25.148-5.833,23.719,16.011-1,33.552-11.814,48.206-17.984,6.865-2.89,43.756-18.178,17.706-18.178-21.39,0-40.22,7.97-60.079,12.44"/>
<path d="M30.01,139.3c-9.697,5.965-28.713,25.148-5.833,23.719,15.695-0.98,32.668-11.514,47.052-17.498,7.273-3.026,43.098-15.083,20.61-18.664-18.967-3.021-44.288,5.382-61.44,12.831" stroke="#000" stroke-linecap="square" stroke-miterlimit="10" stroke-width="0.7" fill="none"/>
<path fill="#CCC" d="M40.51,157.96c-4.552,3.018-20.984,9.169-26.054,4.276-7.859-7.584,10.007-20.004,15.943-22.553-7.438,3.738-6.11,11.879-14.387,15.167,9.566-4.48,14.36,9.78,24.498,3.1"/>
<path d="M40.51,157.96c-4.552,3.018-20.984,9.169-26.054,4.276-7.859-7.584,10.007-20.004,15.943-22.553-7.438,3.738-6.11,11.879-14.387,15.167,9.174-4.288,13.718,8.503,24.886,3.497" stroke="#000" stroke-linecap="square" stroke-miterlimit="10" stroke-width="0.7" fill="none"/>
<path fill="#FF7F00" d="M33.899,154.86c-8.855,7.312-23.173,30.471-1.166,24.497,15.413-4.184,30.917-18.461,43.807-27.562,7.389-5.217,38.618-24.026,13.549-21.239-19.385,2.15-40.084,13.92-56.19,24.3"/>
<path d="M33.899,154.86c-8.855,7.312-23.173,30.471-1.166,24.497,15.413-4.184,30.917-18.461,43.807-27.562,7.389-5.217,38.618-24.026,13.549-21.239-19.385,2.15-40.084,13.92-56.19,24.3" stroke="#000" stroke-linecap="square" stroke-miterlimit="10" stroke-width="0.7" fill="none"/>
<path fill="#CCC" d="M47.898,171.18c-4.339,3.61-18.233,12.812-24.498,9.334-10.076-5.594,5.513-21.547,10.499-25.663-6.064,5.862-3.365,13.064-10.888,17.886,8.862-5.89,14.752,6.42,24.887-1.56"/>
<path d="M47.898,171.18c-4.339,3.61-18.233,12.812-24.498,9.334-10.076-5.594,5.513-21.547,10.499-25.663-6.064,5.862-3.365,13.064-10.888,17.886,8.862-5.89,14.752,6.42,24.887-1.56" stroke="#000" stroke-linecap="square" stroke-miterlimit="10" stroke-width="0.7" fill="none"/>
<path fill="#FF7F00" d="M40.51,169.24c-6.121,7.377-16.875,34.292,2.333,24.692,14.838-7.416,26.639-23.397,38.108-35.188,7.12-7.319,34.348-33.582,8.167-23.722-18.526,6.98-33.939,21.78-48.608,34.22"/>
<path d="M40.51,169.24c-6.121,7.377-16.875,34.292,2.333,24.692,14.838-7.416,26.639-23.397,38.108-35.188,6.111-6.282,34.007-32.332,9.917-24.305-18.317,6.103-36.657,21.137-49.968,34.801" stroke="#000" stroke-linecap="square" stroke-miterlimit="10" stroke-width="0.7" fill="none"/>
<path fill="#CCC" d="M57.619,182.46c-3.68,4.183-15.775,16.421-22.553,13.997-10.387-3.714,1.434-22.736,5.833-27.22-5.148,6.659-0.638,13.526-7.388,19.442,7.658-7.11,15.722,3.13,24.108-6.22"/>
<path d="M57.619,182.46c-3.68,4.183-15.775,16.421-22.553,13.997-10.387-3.714,1.434-22.736,5.833-27.22-5.148,6.659-0.638,13.526-7.388,19.442,7.658-7.11,15.722,3.13,24.108-6.22" stroke="#000" stroke-linecap="square" stroke-miterlimit="10" stroke-width="0.7" fill="none"/>
<path fill="#FF7F00" d="M49.842,182.08c-4.341,10.131-9.6,36.947,8.555,22.94,12.66-9.767,21.636-28.9,29.833-42.311,3.813-6.239,25.345-39.873,4.192-24.767-17.052,12.18-30.067,27.87-42.58,44.14"/>
<path d="M49.842,182.08c-4.341,10.131-9.6,36.947,8.555,22.94,12.66-9.767,21.636-28.9,29.833-42.311,3.813-6.239,25.345-39.873,4.192-24.767-16.29,11.633-31.75,26.9-42.191,44.137" stroke="#000" stroke-linecap="square" stroke-miterlimit="10" stroke-width="0.7" fill="none"/>
<path fill="#CCC" d="M69.285,191.4c-2.167,5.041-12.026,19.166-19.054,18.277-11.168-1.413-3.099-21.978,0-27.607-3.184,7.62,1.417,13.184-3.11,20.608,5.371-8.93,17.125,0.05,22.164-11.28"/>
<path d="M69.285,191.4c-2.167,5.041-12.026,19.166-19.054,18.277-11.168-1.413-3.099-21.978,0-27.607-3.184,7.62,1.417,13.184-3.11,20.608,5.023-8.355,15.981-1.093,22.553-10.888" stroke="#000" stroke-linecap="square" stroke-miterlimit="10" stroke-width="0.7" fill="none"/>
<path fill="#FF7F00" d="M61.896,189.07c-3.811,11.131-1.863,37.88,12.832,20.996,10.468-12.027,15.218-32.697,20.646-47.426,3.254-8.831,18.012-43.271-1.98-24.122-13.918,13.33-24.125,34.4-31.498,50.55"/>
<path d="M61.896,189.07c-3.811,11.131-1.863,37.88,12.832,20.996,10.34-11.881,14.618-31.816,20.221-46.271,3.223-8.315,19.216-42.575-0.388-26.248-14.555,12.122-25.926,34.527-32.665,51.911" stroke="#000" stroke-linecap="square" stroke-miterlimit="10" stroke-width="0.7" fill="none"/>
<path fill="#CCC" d="M82.505,194.52c-1.284,5.479-7.807,21.549-15.165,21.778-10.63,0.332-7.709-20.736-5.444-26.832-1.789,8.06,4.39,12.45,1.166,20.608,3.742-9.96,16.808-2.97,19.443-15.56"/>
<path d="M82.505,194.52c-1.284,5.479-7.807,21.549-15.165,21.778-10.63,0.332-7.709-20.736-5.444-26.832-1.789,8.06,4.39,12.45,1.166,20.608,3.484-9.271,15.245-4.113,19.833-15.164" stroke="#000" stroke-linecap="square" stroke-miterlimit="10" stroke-width="0.7" fill="none"/>
<path fill="#FF7F00" d="M75.118,194.91c-1.471,11.637,5.694,37.194,16.722,17.887,8.206-14.366,7.558-34.678,10.741-50.601,1.625-8.128,10.577-42.369-4.521-25.614-13.354,14.81-18.491,39.48-22.941,58.32"/>
<path d="M75.118,194.91c-1.471,11.637,5.694,37.194,16.722,17.887,8.206-14.366,7.558-34.678,10.741-50.601,1.625-8.128,10.577-42.369-4.521-25.614-13.354,14.81-18.491,39.48-22.941,58.32" stroke="#000" stroke-linecap="square" stroke-miterlimit="10" stroke-width="0.7" fill="none"/>
<path fill="#CCC" d="M96.504,196.07c-0.034,5.592-3.635,22.259-10.498,24.109-10.457,2.82-11.716-18.737-10.889-25.275,0.392,7.828,7.193,11.413,5.443,19.443,0.53-6.93,15.719-6.88,15.944-18.27"/>
<path d="M96.504,196.07c-0.034,5.592-3.635,22.259-10.498,24.109-10.457,2.82-11.716-18.737-10.889-25.275,0.392,7.828,7.193,11.413,5.443,19.443,0.479-6.288,14.355-7.511,16.333-18.277" stroke="#000" stroke-linecap="square" stroke-miterlimit="10" stroke-width="0.7" fill="none"/>
<path fill="#FFF" d="M243.49,59.974c7.605,6.45,13.417,13.625,11.667,24.109-6.304-11.585-18.324-6.884-26.442-13.223-8.16-6.367,7.75-10.927,14.77-10.886"/>
<path d="M243.49,59.974c7.605,6.45,13.417,13.625,11.667,24.109-6.304-11.585-18.324-6.884-26.442-13.223-8.16-6.367,7.75-10.927,14.77-10.886" stroke="#000" stroke-linecap="square" stroke-miterlimit="10" stroke-width="0.3" fill="#FFB8B8"/>
<path fill="#E68A5C" d="M250.49,120.25c12.509,27.116,12.948,62.322-5.786,87.297-10.869,14.489-20.919,22.708-39.358,24.184-15.558,1.246-31.755-4.793-46.436-9.142-14.851-4.399-35.705-4.692-29.903-24.986,4.683-16.381,12.333-31.03,20.729-45.807,8.514-14.981,17.291-29.913,27.004-44.16,6.444-9.451,5.619-11.028,16.092-6.541,9.757,4.181,19.513,8.362,29.27,12.542,0.449-12.756-1.78-28.614-11.274-38.107-9.029-9.026-12.959-25.767-4.668-36.941,6.779-9.137,21.998-8.718,29.747-0.972,4.668,4.666,10.862,4.673,13.414,11.472,1.427,3.803-1.551,10.803-3.497,12.443-5.064,4.267-15.106,0.319-12.057,10.888,2.055,7.121,12.686,8.759,14.777,17.109,2.53,10.054-1.8,21.008,1.96,30.728"/>
<path fill="#FFB366" d="M133.45,215.52c32.171,8.038,73.898,30.006,102.12,3.125,26.454-25.2,29.546-66.713,14.932-98.394,12.13,33.959,4.115,80.078-34.163,92.043-19.463,6.083-38.583-3.565-53.098-15.755-6.537-5.489-17.169-15.222-25.12-7.072-5.75,5.88-4.67,18.68-4.67,26.05"/>
<path d="M250.49,120.25c13.772,29.855,12.573,72.191-12.906,96.465-29.991,28.57-69.554,7.445-104.14-1.196" stroke="#000" stroke-linecap="square" stroke-miterlimit="10" stroke-width="0.7" fill="none"/>
<path fill="#913A00" d="M222.1,113.25c0.491-13.957-2.403-26.855-11.468-37.72-8.162-9.782-13.134-25.27-4.475-36.941,6.779-9.137,21.998-8.718,29.747-0.972,4.668,4.666,10.862,4.673,13.414,11.472,1.427,3.803-1.551,10.803-3.497,12.443-5.064,4.267-15.106,0.319-12.057,10.888,2.055,7.121,12.686,8.759,14.777,17.109,2.518,10.05-1.815,21,1.946,30.72-4.84-6.184-1.638-16.067-4.667-23.331-2.652-6.36-8.884-14.378-14.389-18.278,4.783,6.73,9.125,15.344,9.335,23.721,0.327-2.499-7.582-9.507-12.058-7.778-4.29,1.663-6.42,16.038-6.6,18.668"/>
<path d="M222.1,113.25c0.491-13.957-2.403-26.855-11.468-37.72-8.162-9.782-13.134-25.27-4.475-36.941,6.779-9.137,21.998-8.718,29.747-0.972,4.668,4.666,10.862,4.673,13.414,11.472,1.427,3.803-1.551,10.803-3.497,12.443-5.064,4.267-15.106,0.319-12.057,10.888,2.055,7.121,12.686,8.759,14.777,17.109,2.518,10.05-1.815,21,1.946,30.72-4.84-6.184-1.638-16.067-4.667-23.331-2.652-6.36-8.884-14.378-14.389-18.278,4.783,6.73,9.125,15.344,9.335,23.721,0.313-2.392-6.59-8.793-10.892-7.778-5.359,1.265-7.346,14.083-7.776,19.054" stroke="#000" stroke-linecap="square" stroke-miterlimit="10" stroke-width="0.7" fill="none"/>
<path d="M240.77,41.475c4.247,10.221-2.421,10.527-9.723,17.109-9.805,8.836-9.064,18.778-0.778,36.942" stroke="#000" stroke-linecap="square" stroke-miterlimit="10" stroke-width="0.7" fill="none"/>
<path d="M230.66,56.864c8.451-6.641-2.321-11.571-8.942-9.917-0.91,0.228,3.38,13.649,8.94,9.917" stroke="#884508" stroke-linecap="square" stroke-miterlimit="10" stroke-width="0.7" fill="#ebd786"/>
<path fill="#CCC" d="M219.38,93.026c-18.554-27.681-49.098-40.334-82.153-31.042-37.286,10.481-48.771,54.448-40.829,89.39,3.322,14.616,9.791,43.238,31.381,40.294,19.955-2.723,35.542-9.567,51.546-22.036,25.07-19.52,44.4-44.14,40.05-76.594"/>
<path d="M219.38,93.026c-18.554-27.681-49.098-40.334-82.153-31.042-37.286,10.481-48.771,54.448-40.829,89.39,3.322,14.616,9.791,43.238,31.381,40.294,19.955-2.723,35.542-9.567,51.546-22.036,25.07-19.52,44.4-44.14,40.05-76.594" stroke="#000" stroke-linecap="square" stroke-miterlimit="10" stroke-width="0.7" fill="none"/>
<path fill="#8B5C29" d="M206.16,129.58c7.261,14.401,6.956,68.71-15.555,70.578-20.13,1.66,12.94-64.42,15.56-70.58"/>
<path d="M206.16,129.58c7.261,14.401,6.956,68.71-15.555,70.578-18.872,1.565,10.877-63.074,15.941-70.188" stroke="#FFF" stroke-linecap="square" stroke-miterlimit="10" stroke-width="0.3" fill="none"/>
<path fill="#8B5C29" d="M193.33,142.41c4.955,9.806,3.669,81.704-18.276,70.772-16.72-8.33,12.72-60.99,18.28-70.77"/>
<path d="M193.33,142.41c7.335,14.518,6.649,68.687-15.943,70.577-18.272,1.529,11.089-62.945,15.943-70.189" stroke="#FFF" stroke-linecap="square" stroke-miterlimit="10" stroke-width="0.3" fill="none"/>
<path fill="#8B5C29" d="M181.27,154.86c4.955,12.807,8.013,67.574-13.609,70.381-22.88,2.97,8.06-62.02,13.61-70.38"/>
<path d="M181.27,154.86c4.955,12.807,8.013,67.574-13.609,70.381-22.88,2.97,8.06-62.02,13.61-70.38" stroke="#FFF" stroke-linecap="square" stroke-miterlimit="10" stroke-width="0.3" fill="none"/>
<path fill="#8B5C29" d="M175.05,162.63c6.578,15.109,0.328,68.438-22.163,68.438-19.35,0,18.81-63.03,22.16-68.44"/>
<path d="M175.05,162.63c6.578,15.109,0.328,68.438-22.163,68.438-18.542,0,17.315-61.978,22.551-68.438" stroke="#FFF" stroke-linecap="square" stroke-miterlimit="10" stroke-width="0.3" fill="none"/>
<path fill="#8B5C29" d="M163,163.41c3.162,14.316-4.564,70.346-27.611,66.495-19.21-3.21,21.32-59.67,27.61-66.49"/>
<path d="M163,163.41c3.162,14.316-4.564,70.346-27.611,66.495-19.21-3.21,21.32-59.67,27.61-66.49" stroke="#FFF" stroke-linecap="square" stroke-miterlimit="10" stroke-width="0.3" fill="none"/>
<path fill="#8B5C29" d="M159.11,168.46c0.998,13.959-17.613,65.088-38.108,60.661-22.285-4.81,30.06-55.2,38.11-60.66"/>
<path d="M159.11,168.46c0.998,13.959-17.613,65.088-38.108,60.661-22.285-4.81,30.06-55.2,38.11-60.66" stroke="#FFF" stroke-linecap="square" stroke-miterlimit="10" stroke-width="0.3" fill="none"/>
<path fill="#8B5C29" d="M155.22,168.07c-0.186,14.116-24.804,63.458-44.332,55.997-20.77-7.94,35.29-51.08,44.33-56"/>
<path d="M155.22,168.07c-0.186,14.116-24.804,63.458-44.332,55.997-20.77-7.94,35.29-51.08,44.33-56" stroke="#FFF" stroke-linecap="square" stroke-miterlimit="10" stroke-width="0.3" fill="none"/>
<path fill="#8B5C29" d="M140.84,160.3c-0.008,15.246-25.508,64.764-46.081,55.412-18.377-8.35,39.661-50.81,46.081-55.41"/>
<path d="M140.84,160.3c-0.008,15.246-25.508,64.764-46.081,55.412-17.689-8.041,38.254-50.772,46.081-55.021" stroke="#FFF" stroke-linecap="square" stroke-miterlimit="10" stroke-width="0.3" fill="none"/>
<path fill="#F00" d="M100,65.806c12.34-4.317,27.999,5.73,27.999,19.637,0,3.258-38.768-2.824-28-19.637"/>
<path d="M100,65.806c12.34-4.317,27.999,5.73,27.999,19.637,0,3.736-39.647-3.185-27.608-19.637" stroke="#000" stroke-linecap="square" stroke-miterlimit="10" stroke-width="0.3" fill="none"/>
<path fill="#F00" d="M90.283,75.917c13.075-5.688,26.669,4.631,30.525,17.498,2.49,8.305-43.513-6.428-30.527-17.498"/>
<path d="M90.283,75.917c13.075-5.688,26.669,4.631,30.525,17.498,2.867,9.566-43.92-7.823-30.136-17.109" stroke="#000" stroke-linecap="square" stroke-miterlimit="10" stroke-width="0.3" fill="none"/>
<path fill="#F00" d="M81.729,87.582c12.573-7.886,26.476,1.62,32.47,13.61,4.03,8.06-44.18-1.221-32.471-13.608"/>
<path d="M81.729,87.582c12.573-7.886,26.476,1.62,32.47,13.61,4.281,8.563-44.493-1.552-32.081-13.61" stroke="#000" stroke-linecap="square" stroke-miterlimit="10" stroke-width="0.3" fill="none"/>
<path fill="#F00" d="M74.729,100.02c10.916-8.926,27.181-2.1,33.637,9.528,4.91,8.86-44.306,3.39-33.641-9.53"/>
<path d="M74.729,100.02c10.916-8.926,27.181-2.1,33.637,9.528,4.91,8.86-44.306,3.39-33.641-9.53" stroke="#000" stroke-linecap="square" stroke-miterlimit="10" stroke-width="0.3" fill="none"/>
<path fill="#F00" d="M72.396,117.14c9.025-10.781,26.411-7.702,35.191,2.333,5.83,6.67-41.812,13.34-35.194-2.33"/>
<path d="M72.396,117.14c9.025-10.781,26.411-7.702,35.191,2.333,6.364,7.274-42.452,12.804-34.803-2.333" stroke="#000" stroke-linecap="square" stroke-miterlimit="10" stroke-width="0.3" fill="none"/>
<path fill="#F00" d="M68.896,131.13c6.981-13.079,24.821-9.513,34.803-1.749,7.74,6.03-40.54,17.39-34.804,1.75"/>
<path d="M68.896,131.13c6.981-13.079,24.821-9.513,34.803-1.749,7.74,6.03-40.54,17.39-34.804,1.75" stroke="#000" stroke-linecap="square" stroke-miterlimit="10" stroke-width="0.3" fill="none"/>
<path fill="#F00" d="M114,67.361c3.405-13.524,23.507-3.42,22.166,6.611-2.07,15.453-18.71-2.424-22.17-6.611"/>
<path d="M114,67.361c3.405-13.524,23.507-3.42,22.166,6.611-2.032,15.196-18.355-1.964-21.776-6.222" stroke="#000" stroke-linecap="square" stroke-miterlimit="10" stroke-width="0.3" fill="none"/>
<path fill="#F00" d="M129.95,62.307c3.896-10.252,20.077-2.847,17.885,4.665,0.169-0.578-11.716,6.8-10.499,7-2.53-0.415-5.55-9.466-7.39-11.665"/>
<path d="M129.95,62.307c3.583-9.428,19.372-3.936,17.885,3.888-0.029,0.152-9.717,7.031-10.108,6.999-2.911-0.242-5.006-7.125-7.39-10.887" stroke="#000" stroke-linecap="square" stroke-miterlimit="10" stroke-width="0.3" fill="none"/>
<path fill="#F00" d="M145.11,58.029c3.738-0.694,18.102,1.43,10.5,7.388-4.78,3.748-13.69-2.965-10.5-7.388"/>
<path d="M145.11,58.029c3.738-0.694,18.102,1.43,10.5,7.388-4.746,3.72-13.267-2.759-10.5-6.999" stroke="#000" stroke-linecap="square" stroke-miterlimit="10" stroke-width="0.3" fill="none"/>
<path fill="#F00" d="M159.11,59.195c6.364-2.255,13.445,5.445,6.414,5.445-3.97,0-13.92-2.41-6.41-5.445"/>
<path d="M159.11,59.195c3.973-1.408,14.522,1.671,7.387,5.445-3.354,1.774-15.099-2.085-7.387-5.056" stroke="#000" stroke-linecap="square" stroke-miterlimit="10" stroke-width="0.3" fill="none"/>
<path fill="#F00" d="M167.66,59.584c5.259-1.791,12.748-3.028,15.166,3.112-3.64,0.229-21,1.846-15.17-3.112"/>
<path d="M167.66,59.584c5.259-1.791,12.748-3.028,15.166,3.112-3.572,0.224-20.666,2.41-14.775-3.112" stroke="#000" stroke-linecap="square" stroke-miterlimit="10" stroke-width="0.3" fill="none"/>
<path fill="#E6E6E6" d="M217.83,117.91c0.126,15.668-9.63,29.945-18.621,41.938-2.854,3.808-28.086,30.509-31.93,20.861-4.166-10.453,13.957-23.716,19.829-30.523,10.11-11.73,18.87-21.83,30.72-32.28"/>
<path d="M217.83,117.91c0.108,13.536-7.465,26.731-15.167,37.331-4.998,6.878-20.745,28.531-30.718,27.22-15.724-2.068,21.475-40.183,26.055-47.052" stroke="#000" stroke-linecap="square" stroke-miterlimit="10" stroke-width="0.7" fill="none"/>
<path fill="#993D1F" d="M174.28,168.46c-4.365,9.405-12.188,20.599-20.608,26.829-5.123,3.791-16.466,9.954-15.942,0.778,0.286-5.022,13.031-14.896,16.137-19.246,5.2-7.29,11.01-11.95,20.41-8.36"/>
<path d="M174.28,168.46c-4.365,9.405-12.188,20.599-20.608,26.829-5.123,3.791-16.466,9.954-15.942,0.778,0.286-5.022,13.031-14.896,16.137-19.246,5.2-7.29,11.01-11.95,20.41-8.36" stroke="#000" stroke-linecap="square" stroke-miterlimit="10" stroke-width="0.7" fill="none"/>
<path fill="#993D1F" d="M157.17,171.96c-5.121,10.382-12.998,21.108-22.557,27.803-4.558,3.191-17.975,8.557-13.025-1.359,5.44-10.87,23.07-32.42,35.59-26.44"/>
<path d="M157.17,171.96c-4.689,9.508-11.972,20.082-20.613,26.441-5.457,4.016-16.275,10.2-15.552,1.17,0.45-5.622,12.374-14.526,15.749-19.252,5.28-7.391,11.32-11.944,20.803-8.359" stroke="#000" stroke-linecap="square" stroke-miterlimit="10" stroke-width="0.7" fill="none"/>
<path fill="#993D1F" d="M140.44,175.07c-4.905,9.637-12.169,20.399-20.998,26.832-4.747,3.459-16.865,10.598-15.555,1.166,0.912-6.565,12.633-13.847,15.945-19.637,4.73-8.24,12.38-10.61,20.62-8.36"/>
<path d="M140.44,175.07c-4.905,9.637-12.169,20.399-20.998,26.832-4.747,3.459-16.865,10.598-15.555,1.166,0.912-6.565,12.633-13.847,15.945-19.637,4.392-7.678,12.023-11.49,20.607-7.971" stroke="#000" stroke-linecap="square" stroke-miterlimit="10" stroke-width="0.7" fill="none"/>
<path fill="#993D1F" d="M132.28,170.41c-11.289,3.926-23.153,8.157-32.276,16.138-3.534,3.091-12.513,16.686-1.555,13.025,13.165-4.4,35.315-12.97,33.835-29.17"/>
<path d="M132.28,170.41c-10.433,3.628-22.209,7.455-30.72,14.776-4.969,4.274-13.534,13.447-4.277,14.776,5.468,0.785,17.168-9.064,22.553-11.083,8.692-3.259,13.323-8.337,12.444-18.082" stroke="#000" stroke-linecap="square" stroke-miterlimit="10" stroke-width="0.7" fill="none"/>
<path fill="#993D1F" d="M121.39,164.96c-11.286,3.936-23.153,8.152-32.274,16.137-3.543,3.102-12.513,16.664-1.556,13.027,13.17-4.37,35.31-12.98,33.83-29.17"/>
<path d="M121.39,164.96c-10.433,3.638-22.205,7.452-30.719,14.775-4.974,4.277-13.527,13.448-4.277,14.775,5.464,0.784,17.175-9.058,22.554-11.081,8.694-3.271,13.32-8.326,12.442-18.083" stroke="#000" stroke-linecap="square" stroke-miterlimit="10" stroke-width="0.7" fill="none"/>
<path fill="#993D1F" d="M118.28,171.58c-8.619,6.129-20.489,11.831-31.109,13.219-6.335,0.828-18.655,0.854-13.999-6.606,2.771-4.44,18.443-6.889,23.331-9.335,7.937-3.98,16.637-4.78,21.777,2.72"/>
<path d="M118.28,171.58c-8.619,6.129-20.489,11.831-31.109,13.219-6.335,0.828-18.655,0.854-13.999-6.606,2.771-4.44,18.443-6.889,23.331-9.335,8.266-4.137,15.421-4.701,22.166,2.723" stroke="#000" stroke-linecap="square" stroke-miterlimit="10" stroke-width="0.7" fill="none"/>
<path fill="#E6E6E6" d="M200.72,134.24c-2.767,7.951-35.295,60.562-47.05,47.83-6.194-6.708,11.957-23.629,16.137-27.804,4.443-4.438,8.719-9.24,12.054-14.582,4.16-6.66,11.39-4.9,18.86-5.45"/>
<path d="M200.72,134.24c-5.787,16.635-24.471,46.027-43.744,48.8-11.453,1.648,5.056-19.988,6.803-21.97,7.403-8.398,14.767-16.324,21-25.664" stroke="#000" stroke-linecap="square" stroke-miterlimit="10" stroke-width="0.7" fill="none"/>
<path fill="#E6E6E6" d="M186.72,135.41c-3.062,7.817-34.253,59.563-46.663,47.438-6.962-6.802,12.197-23.434,15.943-27.802,3.674-4.284,6.963-9.423,10.89-13.415,6.75-6.87,9.28-5.96,19.83-6.23"/>
<path d="M186.72,135.41c-5.654,14.435-25.038,48.217-43.552,48.217-11.513,0,4.684-19.553,6.997-22.165,7.326-8.273,14.941-16.386,21-25.663" stroke="#000" stroke-linecap="square" stroke-miterlimit="10" stroke-width="0.7" fill="none"/>
<path fill="#E6E6E6" d="M173.11,135.8c-4.661,11.907-11.796,23.018-20.608,32.274-3.187,3.348-23.1,22.549-26.443,14.195-3.904-9.752,11.871-21.595,17.501-27.805,3.685-4.064,7.115-8.564,10.303-13.027,4.76-6.66,11.07-5.05,19.25-5.63"/>
<path d="M173.11,135.8c-6.434,16.434-24.156,45.622-43.747,48.413-10.875,1.55,5.056-20.399,6.806-22.358,7.264-8.129,14.867-15.479,20.609-24.889" stroke="#000" stroke-linecap="square" stroke-miterlimit="10" stroke-width="0.7" fill="none"/>
<path fill="#E6E6E6" d="M160.28,136.97c-2.533,6.73-41.49,57.806-47.44,42.968-3.741-9.33,12.479-20.96,17.886-26.635,3.736-3.922,6.99-8.151,10.5-12.249,5.16-6.03,11.03-4.08,19.05-4.08"/>
<path d="M160.28,136.97c-5.389,14.315-26.449,45.109-44.136,45.109-11.158,0,5.486-19.591,7.583-21.778,7.266-7.582,14.241-14.97,20.609-23.331" stroke="#000" stroke-linecap="square" stroke-miterlimit="10" stroke-width="0.7" fill="none"/>
<path fill="#E6E6E6" d="M129.95,135.8c-8.473,12.75-23.806,19.543-33.055,31.885-13.372,17.842,13.498,6.332,20.221,1.555,11.976-8.509,21.885-19.306,29.553-31.883-5.57-0.52-11.15-1.04-16.72-1.56"/>
<path d="M129.95,135.8c-8.473,12.75-23.806,19.543-33.055,31.885-13.372,17.842,13.498,6.332,20.221,1.555,11.976-8.509,21.885-19.306,29.553-31.883" stroke="#000" stroke-linecap="square" stroke-miterlimit="10" stroke-width="0.7" fill="none"/>
<path fill="#E6E6E6" d="M117.5,130.36c-7.625,13.957-39.385,22.719-41.606,38.108-2.172,15.047,23.001-0.864,28.919-4.25,11.697-6.692,24.071-16.699,30.966-28.415-6.09-1.81-12.18-3.63-18.28-5.44"/>
<path d="M117.5,130.36c-7.625,13.957-39.385,22.719-41.606,38.108-2.172,15.047,23.001-0.864,28.919-4.25,11.697-6.692,24.071-16.699,30.966-28.415" stroke="#000" stroke-linecap="square" stroke-miterlimit="10" stroke-width="0.7" fill="none"/>
<path fill="#E6E6E6" d="M110.5,115.97c-3.07,14.316-17.654,24.144-28.774,32.276-8.722,6.377-26.238,28.297-2.68,18.882,11.778-4.707,26.966-13.662,34.176-24.521,8.17-12.3,6.15-11.98-2.72-26.64"/>
<path d="M110.5,115.97c-2.786,12.992-14.81,21.698-24.886,29.166-4.88,3.616-29.316,19.953-15.165,24.497,9.582,3.076,28.966-14.02,35.385-19.639,5.694-4.983,10.825-10.964,14.777-17.302" stroke="#000" stroke-linecap="square" stroke-miterlimit="10" stroke-width="0.7" fill="none"/>
<path fill="#E6E6E6" d="M130.72,124.13c-1.275,6.798-11.019,19.4-19.442,17.305-4.333-1.078,7.802-17.445,8.556-21.193,3.62,1.29,7.25,2.59,10.88,3.88"/>
<path d="M130.72,124.13c-1.275,6.798-11.019,19.4-19.442,17.305-4.333-1.078,7.802-17.445,8.556-21.193" stroke="#000" stroke-linecap="square" stroke-miterlimit="10" stroke-width="0.7" fill="none"/>
<path fill="#E6E6E6" d="M140.84,128.41c-1.426,8.659-10.62,17.109-19.443,17.109-3.406,0,8.206-17.947,8.943-20.998,3.5,1.3,7,2.6,10.5,3.89"/>
<path d="M140.84,128.41c-1.426,8.659-10.62,17.109-19.443,17.109-3.406,0,8.206-17.947,8.943-20.998" stroke="#000" stroke-linecap="square" stroke-miterlimit="10" stroke-width="0.7" fill="none"/>
<path fill="#E6E6E6" d="M152.5,130.36c-1.282,6.798-11.018,19.395-19.442,17.302-4.343-1.079,7.83-17.594,8.555-21.191,3.62,1.29,7.25,2.59,10.88,3.89"/>
<path d="M152.5,130.36c-1.282,6.798-11.018,19.395-19.442,17.302-4.343-1.079,7.83-17.594,8.555-21.191" stroke="#000" stroke-linecap="square" stroke-miterlimit="10" stroke-width="0.7" fill="none"/>
<path fill="#E6E6E6" d="M162.22,131.13c-1.198,7.783-8.53,19.056-17.498,19.056-4.222,0,5.803-18.125,6.22-21.776,3.76,0.91,7.52,1.82,11.28,2.72"/>
<path d="M162.22,131.13c-1.198,7.783-8.53,19.056-17.498,19.056-4.222,0,5.803-18.125,6.22-21.776" stroke="#000" stroke-linecap="square" stroke-miterlimit="10" stroke-width="0.7" fill="none"/>
<path fill="#E6E6E6" d="M170.39,131.91c-0.035,7.154-6.724,21-15.36,21-4.044,0,3.664-18.951,3.694-22.554,3.89,0.52,7.78,1.03,11.67,1.55"/>
<path d="M170.39,131.91c-0.035,7.154-6.724,21-15.36,21-4.044,0,3.664-18.951,3.694-22.554" stroke="#000" stroke-linecap="square" stroke-miterlimit="10" stroke-width="0.7" fill="none"/>
<path fill="#E6E6E6" d="M180.5,131.52c-0.17,3.826-10.063,28.073-17.111,20.998-1.987-1.995,3.125-11.516,3.89-13.61,3.4-9.33,1.8-8.57,13.22-7.39"/>
<path d="M180.5,131.52c-0.316,7.15-6.132,21.389-15.167,21.389-4.732,0,3.678-18.818,3.889-22.554" stroke="#000" stroke-linecap="square" stroke-miterlimit="10" stroke-width="0.7" fill="none"/>
<path fill="#E6E6E6" d="M193.33,128.41c0.298,7.016-6.615,20.998-15.166,20.998-4.29,0,3.854-18.623,3.888-22.553,3.76,0.52,7.52,1.03,11.28,1.55"/>
<path d="M193.33,128.41c0.298,7.016-6.615,20.998-15.166,20.998-4.29,0,3.854-18.623,3.888-22.553" stroke="#000" stroke-linecap="square" stroke-miterlimit="10" stroke-width="0.7" fill="none"/>
<path fill="#E6E6E6" d="M205,126.86c-0.169,3.841-9.997,27.684-17.11,20.995-2.024-1.903,3.155-11.621,3.888-13.607,3.43-9.31,1.76-8.58,13.22-7.39"/>
<path d="M205,126.86c-0.393,8.934-5.934,18.87-15.166,21.191-4.15,1.043,3.649-19.175,3.888-22.359" stroke="#000" stroke-linecap="square" stroke-miterlimit="10" stroke-width="0.7" fill="none"/>
</svg>
