<?xml version="1.0" encoding="UTF-8" standalone="no"?>
<svg xmlns:rdf="http://www.w3.org/1999/02/22-rdf-syntax-ns#" xmlns:xml="http://www.w3.org/XML/1998/namespace" xmlns="http://www.w3.org/2000/svg" width="254.06" sodipodi:docname="teiera e tazza.svg" xml:space="preserve" style="enable-background:new 0 0 254.056 261.192;" height="261.19" sodipodi:version="0.32" viewBox="0 0 254.056 261.192" version="1.0" xmlns:cc="http://web.resource.org/cc/" xmlns:dc="http://purl.org/dc/elements/1.1/" sodipodi:docbase="F:\openclip\svg3" xmlns:sodipodi="http://inkscape.sourceforge.net/DTD/sodipodi-0.dtd"><metadata><rdf:RDF xmlns:rdf="http://www.w3.org/1999/02/22-rdf-syntax-ns#" xmlns:cc="http://web.resource.org/cc/" xmlns:dc="http://purl.org/dc/elements/1.1/"><cc:Work rdf:about=""><dc:title>Teiera tazza</dc:title><dc:description/><dc:subject><rdf:Bag><rdf:li>beverage</rdf:li></rdf:Bag></dc:subject><dc:publisher><cc:Agent rdf:about="http://www.openclipart.org"><dc:title>Architetto Francesco Rollandin</dc:title></cc:Agent></dc:publisher><dc:creator><cc:Agent><dc:title>Architetto Francesco Rollandin</dc:title></cc:Agent></dc:creator><dc:rights><cc:Agent><dc:title>Architetto Francesco Rollandin</dc:title></cc:Agent></dc:rights><dc:date/><dc:format>image/svg+xml</dc:format><dc:type rdf:resource="http://purl.org/dc/dcmitype/StillImage"/><cc:license rdf:resource="http://web.resource.org/cc/PublicDomain"/><dc:language>en</dc:language></cc:Work><cc:License rdf:about="http://web.resource.org/cc/PublicDomain"><cc:permits rdf:resource="http://web.resource.org/cc/Reproduction"/><cc:permits rdf:resource="http://web.resource.org/cc/Distribution"/><cc:permits rdf:resource="http://web.resource.org/cc/DerivativeWorks"/></cc:License></rdf:RDF></metadata>
	<path d="M237.7,110.13c-1.221,1.496-0.145,7.981-0.957,10.824-1.261,4.421,10.065,7.737,13.792,9.675,1.209-6.944,4.47-16.339,3.257-23.372-0.465-2.697-1.272-5.011-1.82-7.758-0.373-1.876-0.435-3.61-1.437-5.077-3.035,2.642-6.071,5.283-9.107,7.925-2.81,2.45-7.55,4.27-3.72,7.79"/>
	<path fill-rule="evenodd" clip-rule="evenodd" d="M236.17,122.96c-0.146,4.297-3.679,9.052-5.746,12.931-3.343,6.268-7.701,11.871-13.028,16.569,0-14.033-1.848-27.521-4.979-41.185-0.334-1.459-2.924-9.178-1.704-9.584,2.79-0.931,5.643-2.045,8.6-2.292,6.256-0.522,13.249,2.278,16.473,7.853,4.588-3.992,9.175-7.984,13.763-11.976,2.419-2.104-4.898-7.872-6.771-9.479-7.184-6.163-18.771-8.586-28.086-7.189-2.215,0.332-14.576,4.116-15.172,3.386-2.956-3.608-6.752-6.479-10.502-9.209-6.331-4.61-13.822-4.795-20.278-8.634,1.907-2.928,1.474-5.57,2.49-8.621,1.929-5.783-12.383-4.679-11.78-10.728,0.6-6.01-9.431-12.292-13.894-14.641-5.526-2.909-11.389-4.892-17.425-6.43,11.868-9.141-6.418-20.045-15.135-9.865-2.083,2.433-1.176,4.859-0.383,7.567,1.415,4.833,1.888,5.1-2.873,7.663-5.612,3.021-13.668,5.646-14.558,13.025-4.562-4.561-12.5-10.032-10.729-17.433,0.677-2.828,5.287-12.575,2.108-15.228-0.498-0.416-0.451-2.179-1.628-3.543-1.44-1.668-2.581-2.615-4.426-3.845-2.866-1.91-7.343-2.479-10.726-1.802-8.378,1.673-15.451,6.083-21.478,12.111-1.179,1.18-9.294,12.309-7.898,13.357,1.436,1.08,1.34,1.889,1.34,3.449,0,2.901,0.711,4.901,2.682,7.184,4.683,5.421,12.414,5.979,17.815,10.536,6.042,5.097,2.285,13.88-1.278,19.418-3.965,6.166-7.962,12.187-10.983,18.893-5.325-5.046-11.117-9.629-17.335-13.517-3.117-1.949-6.465-3.876-9.859-5.304-4.746-1.997-7.222,1.461-11.43,4.252-2.377,1.577-9.743,4.683-10.989,7.291-1.968,4.122,4.705,6.585,7.088,8.811,5.009,4.677,10.279,11.271,13.888,17.049,4.232,6.775,6.839,13.912,9.348,21.434,2.035,6.103,10.39,17.156,8.413,23.486-2.526,8.093-12.225,7.457-18.623,11.016-5.811,3.231-5.756,5.756-3.927,11.206,2.847,8.485,3.519,20.304,4.022,29.404,0.257,4.641,5.272,10.546,7.41,14.821,2.578,5.156,5.973,9.538,10.119,13.529-2.957,4.662-17.144,3.606-22.415,5.364-6.911,2.303-16.234,9.637-9.003,16.474,5.319,5.026,14.205,4.708,20.881,6.513,7.755,2.096,16.521,1.27,24.633,1.665,15.908,0.775,32.214,3.655,48.168,1.933,8.427-0.91,16.573-1.056,24.798-3.404,7.75-2.213,14.836-2.84,22.715-3.685,15.927-1.702,32.874-2.237,46.246-12.12,9.166-6.776-4.827-10.839-9.034-14.114-4.177-3.253,0.194-5.367,2.247-7.933,2.288-2.858,4.759-5.637,6.726-8.727,3.276-5.147,6.517-10.183,9.639-15.393,0.52-0.865,1.94-1.079,1.628-2.011-0.355-1.065-0.184-1.797,0.479-2.682,0.563-0.753,1.436-1.338,2.109-2.012,1.154-1.16-0.199-2.313,0.287-3.16,1.542-2.692,5.894-5.181,8.177-7.345,3.16-2.995,6.16-6.077,9.063-9.321,2.509-2.804,5.168-5.492,7.59-8.369,1.428-1.694,2.842-3.397,4.248-5.106,0.588-0.714,1.174-1.425,1.761-2.137,1.436-1.741,0.099-2.112,0.385-2.586,1.417-2.344,3.773-4.424,5.555-6.513-0.318-0.256-0.639-0.511-0.957-0.767,2.035-2.172,6.635-8.188,6.129-11.495-0.65-3.96-10.59-6.05-14.02-8.82"/>
	<path fill="#B2B2B2" d="M77.556,8.985c3.303-4.476,4.564,8.045,3.647,10.565-2.941,8.078-2.002,12.225,3.76,18.631,5.156,5.733,8.246,13.217,4.278,20.419-3.809,6.912-11.071,11.339-15.432,17.881-1.525,2.287-2.007,8.048-3.629,9.128-3.93,2.617,3.388,10.165,5.077,11.974,5.291,5.665,11.892,10.81,9.536,19.286-0.794,2.858-3.5,5.925-4.748,8.777-1.501,3.432-2.868,6.96-4.693,10.248-5.115,9.212,1.353,21.074,6.801,28.448-4.654,1.149-9.064-0.675-12.164-4.215-4.253-4.858-3.975-8.646-2.662-14.839,2.146-10.112,9.432-19.4,8.694-30.083-0.362-5.242-3.715-9.233-8.428-11.589-2.431-1.215-5.627-1.641-8.239-2.402-2.213-0.645-3.14-3.67-4.213-5.547-2.215-3.874,0.46-15.742,4.982-17.718-1.582-1.374,5.893-11.756,6.896-14.559,1.601-4.477,3.154-11.98,1.043-16.546-4.794-10.374-22.311-8.652-23.456-21.384,0.256,0.319,0.511,0.639,0.767,0.958,1.573-8.563,9.394-14.293,16.247-18.695,7.629-4.915,9.222-2.97,15.936,1.246"/>
	<path fill="#8210D2" d="M126.4,16.265c-1.09,4.258-10.537,8.134-10.537,2.107,0.01-3.627,8.69-5.376,10.54-2.107"/>
	<path fill="#AB10D2" d="M151.88,41.167c-0.255,0.319-0.511,0.639-0.766,0.958,2.568,0.272,1.461,3.032,2.874,4.597-4.185,3.083-6.022,2.726-11.259,2.821-8.29,0.152-16.58,0.303-24.871,0.454-6.348,0.116-12.697,0.231-19.045,0.347-1.748,0.032-2.004-3.021-1.913-4.58,2.792,0.841,3.502-3.956,4.946-5.811,3.509-4.509,9.043-7.152,14.382-8.933,10.3-3.432,29.84,0.889,35.66,10.147"/>
	<path fill="#8210D2" d="M166.82,56.684c-2.379,4.027-12.543,2.603-16.654,2.72-6.326,0.181-12.647,0.153-18.976,0.153-12.345,0-24.654,0.056-36.971,0.958,1.622-1.168,0.098-2.161,0.766-3.065,1.743-2.359,4.603-2.057,7.62-2.157,8.02-0.268,16.02-0.333,24.045-0.333,13.08,0,27.78-2.668,40.18,1.724"/>
	<path fill="#AB10D2" d="M199.01,90.781c-2.503,2.222,7.107,9.957,4.596,11.877,2.241,0.361,2.729,5.886,3.256,7.088,2.218,5.059,3.294,12.338,4.108,18.596,2.135,16.394,0.317,33.153-4.777,48.832-1.225,3.773-2.713,7.368-4.502,10.92-0.941,1.869-2.05,3.67-3.07,5.495-0.995,1.781,0.854,1.367-0.567,3.231-5.644,7.408-7.788,13.751-14.752,19.241-13.822,10.9-29.654,10.124-46.357,10.92-10.76,0.512-21.155-1.46-31.798-1.917,1.381-7.047,10.788-4.84,16.474-6.513,7.054-2.074,14.958-4.811,19.899-10.571,4.26-4.968,8.053-12.617,7.208-19.312-0.537-4.242-0.419-6.563-3.099-10.132-2.266-3.021-5.221-5.928-8.493-7.875-1.961-1.168-8.759-1.568-9.769-2.682-1.365-1.503,0.586-5.898,0.096-7.854-0.915-3.653-3.186-1.653-4.98-2.011-2.27-0.453-3.773-2.622-6.034-3.161-2.798-0.667-6.838-0.027-9.865-0.383-4.311-0.507-8.637-1.159-12.902-1.959-3.544-0.664-7.343-0.356-10.922-0.179-2.694,0.135-2.521-6.641-2.514-8.397,0.018-4.88,1.411-13.694,4.691-17.624,3.902-4.673,5.651-13.709,5.651-20.018,0-5.278-10.025-10.456-13.217-14.079-5.789-6.573,1.899-13.878,6.541-18.944,1.708-1.864,5.161-6.416,7.693-6.614,4.708-0.369,9.396-0.712,14.114-0.91,8.38-0.35,16.82-0.648,25.192-0.063,8.224,0.574,16.329,1.235,24.458,2.65,7.681,1.337,17.899,1.721,24.89,5.214,7.25,3.61,15.1,9.62,18.73,17.107"/>
	<path fill="#AB10D2" d="M41.735,85.226c4.031-4.251,7.924,13.358,8.896,15.304,1.41,2.819,2.979,5.344-0.66,7.684,1.5,1.329,0.278,1.817-0.861,3.257-1.545,1.952-0.539,2.539-0.862,3.256-1.195,2.647-2.032,3.819-5.172,3.639-5.977-0.342-10.638-6.354-13.984-10.535-7.667-9.582-13.354-20.521-23.179-28.16,1.088-0.129,1.078-0.481,1.915-0.765l-0.958-0.958c2.823,0.163,5.005-1.817,7.088-3.449,3.971-3.11,4.322-4.333,9.267-2.214,6.771,2.893,13.492,7.508,18.51,12.932"/>
	<path d="M181.57,88.866c1.723,5.336,3.832,10.582,3.832,16.282,0,3.844-3.804,10.552-8.619,8.142-4.493-2.248-7.919-12.448-10.537-16.378-3.791-5.695-19.456-9.244-12.835-17.624,7.33-9.262,23.15,3.494,28.17,9.578"/>
	<path fill="#FFFFBF" d="M177.74,90.781c1.355,4.321,5.865,15.25,0.956,17.433-5.471-9.206-11.021-17.215-20.305-22.891-2.011-1.229-2.252-2.995,0.001-4.311,1.652-0.965,5.564,0.516,7.184,1.054,4.72,1.576,9.27,5.405,12.16,8.719"/>
	<path fill="#8210D2" d="M239.23,90.781c8.224,3.822,8.927,11.869,9.673,19.349,0.665,6.677-1.538,14.185-3.351,20.498-1.025,3.569-2.672,5.91-4.407,9.002-0.782,1.393-4.642,6.096-3.45,7.278-5.012,3.793-5.823,10.919-13.194,10.919-3.366,0,1.298-5.847,3.041-6.32-0.318-0.319-0.638-0.639-0.956-0.958,5.253-3.959,10.871-13.253,12.932-19.443,2.014-6.055,3.813-12.311,3.925-17.719,0.128-6.196-4.517-11.711-9.002-15.517-3.599-3.054-20.405-7.875-23.563-2.491-0.352-1.652-1.816-3.418-1.052-4.692,1.562-2.602,2.975-5.625,5.938-6.896,2.53-1.086,10.17-0.05,13.121,0.287,4.36,0.494,8.64,3.019,10.34,6.7"/>
	<path fill="#AB10D2" d="M71.235,114.73c-1.154,5.471-0.473,10.024-4.023,14.75-1.56,2.077-4.703,10.394-4.31,13.123,0.087,0.604-2.082,6.553-2.586,7.565-0.32,0.645-15.551,2.441-17.625,2.299,1.159-11.81,5.174-22.17,9.195-33.14,0.899-2.454,2.825-10.948,5.556-12.068,3.638-1.49,11.866,4.94,13.793,7.48"/>
	<path d="M196.32,120.09c-0.911,5.874-0.744,11.667-6.019,15.36-2.64,1.85-7.448-0.756-8.733-3.292-4.27-8.43,10.81-20.26,14.75-12.07"/>
	<path fill="#FFF" d="M189.81,128.52c2.38,2.459-2.745,3.583-4.406,1.916-2.36-2.369,4.57-7.16,6.32-7.472,0.19,2.11,0.06,4.44-1.91,5.55"/>
	<path fill="#00A0C6" d="M119.89,177.17c-0.603,6.488-1.864,13.215-4.674,19.151-1.55,3.272-3.228,6.455-4.987,9.62-1.188,2.136-5.882,6.193-4.13,8.01-1.62,0.378-2.637,1.547-3.641,2.873,0.319,0.256,0.639,0.511,0.958,0.767-3.125,3.395-6.25,6.788-9.374,10.183-1.933,2.1-2.493,0.925-4.515,2.269-4.996,3.32-9.874,4.214-15.925,4.214-11.371,0-29.622-3.834-36.658-13.601-1.46-2.026-10.913-17.389-10.344-18.103,0.713-0.895-1.696-8.606-2.106-10.249-0.862-3.443-1.304-7.052-2.108-10.535-0.815-3.527-1.715-7.69-1.15-11.302,0.245-1.563-0.6-3.62,1.496-3.255,2.566,0.445,5.128,0.936,7.7,1.339,8.704,1.367,17.377,2.036,26.175,2.356,21.663,0.786,43.157-1.74,64.241-6.569,0,2.42,1.15,12.63-0.96,12.84"/>
	<path fill="#003CFF" d="M143.84,192.69c-1.217,5.214-4.443,10.401-8.881,13.474-3.85,2.663-11.304,7.831-16.022,5.108,0.787-3.716,4.026-5.108,7.184-6.513,4.01-1.782,6.117-3.922,7.662-8.045,2.914-7.775-0.228-9.87-7.374-13.984,2.767-2.363,6.117-8.515,9.939-6.286,5.82,3.39,7.71,10.58,7.49,16.24"/>
	<path d="M53.802,180.81c0.219,1.616,1.511,2.83,2.683,3.831-0.319,0.256-0.639,0.512-0.958,0.768,5.027,1.593,9.663,6.426,14.558,1.341,4.356-4.526,2.096-7.021,10.012-6.092,1.883,0.222,3.379,1.303,6.272,1.303,3.025,0,4.842,1.783,7.47,2.489,2.757,0.741,5.901-0.202,9.099,0.862,3.169,1.055,6.045,2.977,8.397,5.331,4.639,4.646-22.856,13.522-24.871,17.561-1.897,3.801,2.803,8.373-1.341,11.685-4.616,3.69-10.694-0.989-14.846-3.064,2.924-3.323-6.971-4.598-9.196-4.598-4.726,0-8.47,5.556-14.175,5.556-2.436,0-6.536-0.562-6.895-3.831-0.05-0.449,1.661-4.881,1.915-5.747,0.756-2.567,1.357-4.664,4.405-5.172l-0.958-0.958c1.385-0.376,2.765-0.915,3.832-1.916-8.331-3.423-10.548-5.766-13.026-13.792-0.826-2.674-2.591-3.86,1.627-5.268,5.25-1.74,10.861-3.27,15.991-0.28"/>
	<path fill="#0F0" d="M51.887,185.41c-0.528,3.328-6.467,4.618-4.597,8.428-2.588,0.717-7.361-3.751-6.513-6.513,1.01-3.29,8.944-3.05,11.11-1.92"/>
	<path fill="#FFFF40" d="M78.514,185.41c0.143,6.1,2.293,3.959,7.28,2.298,3.013-1.005,5.591-0.079,3.927,3.256-0.559,1.118-1.897,2.677-1.819,4.022,0.126,2.195,2.43,2.191,2.68,3.448,1.054,5.3-8.506,3.773-10.919,1.725-2.618-2.223-3.096-5.545-3.734-8.716-0.423-2.103,0.679-6.061-0.097-6.801,0.887,0.26,1.822,0.44,2.682,0.77"/>
	<path fill="#D010B1" d="M130.04,191.92c0.922,4.524-5.253,6.211-7.76,8.716-2.403,2.4-2.754-0.057-2.776-1.053-0.005-0.208,1.347-1.832,1.533-2.3,0.688-1.726,1.106-7.702,2.873-8.14,2.37-0.59,4.87,0.85,6.14,2.77"/>
	<path fill="#0F0" d="M104.38,191.92c-1.883,0.605-7.437,6.32-9.195,2.682-2.133-4.4,6.975-5.21,9.195-2.68"/>
	<path d="M83.878,196.52c-5.268,1.354-2.173-6.491-0.479-5.363,1.989,1.32,2.813,3.8,0.479,5.36"/>
	<path fill="#FFFF40" d="M59.933,196.52c-2.833,6.252,6.897,11.003,6.897,4.79,0-2.668-3.222-12.075,4.405-7.472-2.355,3.946,2.451,10.296-2.683,13.218-3.636,2.07-3.563-1.267-6.321-2.107-2.688-0.819-5.108,3.107-7.279,1.725-4.032-2.568,7.165-9.13-2.108-12.069,2.031-5.04,7.031-1.99,7.089,1.91"/>
	<path d="M182.53,194.61c0.429,3.15,0.241,6.284-0.382,9.387-0.485,2.429-4.457,6.896-3.449,8.237-4.671,3.071-14.703,12.335-20.304,7.087-5.862-5.493,4.877-11.343,8.428-14.559l-0.958-0.958c6.32-2.32,6.75-20.02,16.66-9.2"/>
	<path fill="#FFFFBF" d="M177.74,204.76c-4.059,4.845-8.708,8.685-14.56,11.111,3.196-7.007,10.877-11.51,12.836-19.348,2.96,1.55,1.68,5.92,1.72,8.24"/>
	<path fill="#0F0" d="M82.154,213c0.13,5.128-7.729,1.931-9.004-1.246-2.634-6.57,7.632-4.82,9.004,1.25"/>
	<path fill="#0F0" d="M49.207,207.63c-0.322,1.489,0.499,2.753,1.723,3.639-5.77,3.65-7.07-2.35-1.723-3.64"/>
	<path fill="#BF80FF" d="M177.74,232.34c-11.035,4.319-26.026,10.536-38.024,6.544-2.959-0.985-6.485-3.374-9.461-3.771-3.326-0.442-6.678-0.507-10.004-0.949-5.384-0.717-14.374,0.036-18.752-3.548,13.011,1.392,25.984,1.914,39.067,1.914,6.404,0,12.934-0.575,19.256-1.533,6.75-1.01,11.75-0.47,17.9,1.35"/>
	<path fill="#0060B6" d="M35.413,235.98c-4.509,9.147,14.437,11.417,19.084,12.408,10.793,2.305,20.092,3.614,31.105,1.958,4.846-0.729,9.684-1.934,13.984-4.405,2.146-1.233,3.645-2.896,5.555-4.406,1.426-1.126-1.381-1.725,1.627-1.725h4.376c10.267,0,18.431,0.177,27.136,6.322-9.994,8.663-26.903,8.862-39.462,9.193-14.889,0.394-29.953,0.23-44.824-0.573-15.432-0.833-30.283-3.346-45.137-7.587-3.079-0.88,3.164-6.195,3.951-6.589,3.114-1.557,6.245-2.734,9.579-3.734,3.551-1.05,9.25-1.73,13.016-0.85"/>
	<path fill="#0F0" d="M98.819,235.98c5.242,6.817-15.883,8.381-19.577,8.676-11.239,0.896-21.996-1.768-32.91-4.078,8.529-4.941,17.489-1.688,26.684-0.271,4.636,0.714,8.896,0.41,13.267-1.229,2.18-0.817,3.824-2.236,5.699-3.623,1.255-0.93,5.275,0.34,6.837,0.52"/>
	<path fill="#0F0" d="M187.89,241.54c-14.552,4.625-28.751,9.384-44.058,5.556,8.492-1.935,16.966-3.821,25.563-5.251,4.19-0.7,17.67-5.78,18.5-0.31"/>
</svg>
