<?xml version="1.0" encoding="UTF-8" standalone="no"?>
<svg xmlns="http://www.w3.org/2000/svg" version="1.0" y="0" x="0" xmlns:xlink="http://www.w3.org/1999/xlink" viewBox="0 0 1052.4 744.09">
 <defs>
  <linearGradient id="linearGradient2620">
   <stop stop-color="#000" offset="0"/>
   <stop stop-color="#d0d0d6" offset="1"/>
  </linearGradient>
  <linearGradient id="linearGradient2626" y2="265.61" gradientUnits="userSpaceOnUse" y1="459.34" gradientTransform="matrix(1.211436,0.000000,0.000000,0.996028,-27.39947,-51.59681)" x2="422.17" x1="59.133">
   <stop stop-color="#4e4e4e" offset="0"/>
   <stop stop-color="#d0d0d6" offset="1"/>
  </linearGradient>
  <linearGradient id="linearGradient2660" y2="629.14" xlink:href="#linearGradient2620" gradientUnits="userSpaceOnUse" y1="1057.6" gradientTransform="matrix(1.905564,6.045357e-2,-2.006826e-2,0.632574,-4.859007,-85.93767)" x2="421.29" x1="446.04"/>
  <linearGradient id="linearGradient2672" y2="48.32" xlink:href="#linearGradient2620" gradientUnits="userSpaceOnUse" y1="223.97" gradientTransform="matrix(1.173298,0.000000,0.000000,1.028403,-27.39947,-51.59681)" x2="510.9" x1="486.69"/>
  <linearGradient id="linearGradient2684" y2="371.45" gradientUnits="userSpaceOnUse" y1="375.54" gradientTransform="matrix(1.787382,0.000000,0.000000,0.675079,-27.39947,-51.59681)" x2="463.38" x1="313.45">
   <stop stop-color="#2c2f68" offset="0"/>
   <stop stop-color="#a1b6c3" offset="1"/>
  </linearGradient>
  <linearGradient id="linearGradient2744" y2="671.05" xlink:href="#linearGradient2620" gradientUnits="userSpaceOnUse" y1="688.14" gradientTransform="matrix(1.501197,0.000000,0.000000,0.803774,-27.39947,-51.59681)" x2="301.44" x1="152"/>
  <linearGradient id="linearGradient2754" y2="584.18" xlink:href="#linearGradient2620" gradientUnits="userSpaceOnUse" y1="765.1" gradientTransform="matrix(1.681681,0.000000,0.000000,0.717510,-27.39947,-51.59681)" x2="259.21" x1="25.048"/>
  <linearGradient id="linearGradient2766" y2="621.13" gradientUnits="userSpaceOnUse" y1="606.67" gradientTransform="matrix(1.496869,0.000000,0.000000,0.806098,-27.39947,-51.59681)" x2="183.89" x1="254.87">
   <stop stop-color="#000" offset="0"/>
   <stop stop-color="#000" stop-opacity="0.00000000" offset="1"/>
  </linearGradient>
  <linearGradient id="linearGradient2812" y2="1838.8" gradientUnits="userSpaceOnUse" y1="1447.3" gradientTransform="matrix(2.795081,0.000000,0.000000,0.431695,-27.39947,-51.59681)" x2="302.62" x1="180.1">
   <stop stop-color="#000" offset="0"/>
   <stop stop-color="#000" stop-opacity="0.00000000" offset="1"/>
  </linearGradient>
  <linearGradient id="linearGradient2864" y2="612.36" gradientUnits="userSpaceOnUse" y1="612.36" gradientTransform="matrix(1.380837,0.000000,0.000000,0.873835,-27.39947,-51.59681)" x2="598.34" x1="526.63">
   <stop stop-color="#ffffd9" stop-opacity="0.81632656" offset="0"/>
   <stop stop-color="#ffffd9" offset="0.5"/>
   <stop stop-color="#ffffd9" offset="1"/>
  </linearGradient>
  <linearGradient id="linearGradient2893" y2="206.49" gradientUnits="userSpaceOnUse" y1="201.78" gradientTransform="matrix(0.927004,0.000000,0.000000,1.301638,-27.39947,-51.59681)" x2="392.87" x1="692.28">
   <stop stop-color="#000" offset="0"/>
   <stop stop-color="#878787" offset="1"/>
  </linearGradient>
 </defs>
 <path opacity="0.98429316" stroke-linejoin="miter" d="M51.453,571.93s472.61,99.58,570.93,99.64c98.32,0.05,384.02-35.95,348.21-48.03-35.85-12.07-255.36-47.99-400.31-54.64-144.94-6.65-164.63-26.94-246.36-19.62-81.72,7.31-264.95-0.94-272.47,22.65z" stroke-opacity="0.57297295" fill-rule="evenodd" stroke="#d9dcdc" stroke-linecap="butt" stroke-miterlimit="4.0000000" stroke-width="21.969275" fill="url(#linearGradient2812)"/>
 <path stroke-linejoin="miter" d="M71.19,539.01l27.605-130.14,287.88-15.77,177.46-17.75,368.72,116.34-19.72,104.5s-7.88,15.77-21.69,23.66c-13.8,7.89-39.43,13.8-55.21,9.86-15.77-3.94-29.57-5.91-37.46-19.72-7.89-13.8-55.21-72.95-55.21-72.95l-78.87,25.63s0,17.75-9.86,43.38-13.8,35.49-25.63,39.43c-11.83,3.95-54.86,7.26-68.12,3.32-23.66-3.94-44.28-92.05-44.28-92.05l-17.74,1.98s5.91,7.88-15.78,15.77-102.53,9.86-161.68,9.86c-59.16,0-90.73,5.32-114.39,5.32-6.66-10.11-15.75-15.18-15.75-15.18l-39.44-1.97c-29.57-1.97-30.11,5.25-34.05-4.61-3.95-9.86-17.21-30.88-17.21-30.88l-29.58,1.97z" fill-rule="evenodd" stroke="#000" stroke-linecap="butt" stroke-width="1.0984638px" fill="#000"/>
 <path stroke-linejoin="miter" d="M81.049,513.37c7.887-65.06,15.774-90.7,15.774-90.7l3.947-7.88,120.28,5.91,15.77,53.24h9.86l94.65-5.92-1.98-55.21-108.44-3.94-128.17-5.92-11.832,23.67-9.859,86.75z" fill-rule="evenodd" stroke="#000" stroke-linecap="butt" stroke-width="1.0984638px" fill="url(#linearGradient2754)"/>
 <path fill-rule="evenodd" fill="url(#linearGradient2766)" d="M337.83,412.23l-103.98,3.9,16.89,57.19,97.49-2.6-10.4-58.49z"/>
 <path stroke-linejoin="miter" d="M432.03,402.95l5.91,153.8,63.1,7.89,3.94-88.73s9.86-19.72,23.67-29.58c13.8-9.85,43.37-11.83,57.18-3.94,13.8,7.89,33.52,21.69,39.43,41.41,5.92,19.72-1.97,94.64,23.66,94.64,25.64,0,53.24-5.91,53.24-5.91l7.89-72.96-3.94-67.04-100.56-51.27-153.8-3.94-19.72,25.63z" fill-rule="evenodd" fill-opacity="0.97837836" stroke="#000" stroke-linecap="butt" stroke-miterlimit="4.0000000" stroke-width="5.4923186" fill="#232326"/>
 <rect fill-rule="nonzero" rx="8.7941" ry="20.277" height="74.35" width="52.765" y="190.15" x="802.44" fill="#101111"/>
 <path stroke-linejoin="miter" d="M461.99,159.26l-6.97,90.63,112.93,27.88,264.91,2.79-6.97-118.51-237.02-13.95-126.88,11.16z" fill-rule="evenodd" stroke="#000" stroke-linecap="butt" stroke-miterlimit="4.0000000" stroke-width="16.476957" fill="url(#linearGradient2684)"/>
 <path stroke-linejoin="miter" d="M551.22,396.28h41.83l4.18-111.54-61.35-6.97,5.58,108.75,9.76,9.76z" fill-rule="evenodd" stroke="#000" stroke-linecap="butt" stroke-width="1.0984638px" fill="#0000a7"/>
 <path stroke-linejoin="miter" d="M700.41,459.01v48.79s11.15,3.48,29.28,3.48c18.12,0,59.95,5.23,64.13,1.75,4.19-3.49,8.37-55.76-2.79-59.25-11.15-3.48-47.4,3.49-58.55,1.75-11.16-1.75-30.68-5.23-32.07,3.48z" fill-rule="evenodd" stroke="#000" stroke-linecap="butt" stroke-width="1.2279711px" fill="url(#linearGradient2864)"/>
 <path stroke-linejoin="miter" d="M979.26,500.85c0-9.76-2.79-36.25,2.79-40.43s16.73-11.15,20.95-9.76c4.1,1.39,5.5,13.94,5.5,22.31,0,8.36,4.2,23.7-2.7,26.49-7.02,2.79-20.96,4.18-26.54,1.39z" fill-rule="evenodd" stroke="#000" stroke-linecap="butt" stroke-width="1.0984638px" fill="#ffffd9"/>
 <path stroke-linejoin="miter" d="M44.785,225.95l301.3-34.53,28.24-94.15,69.05-21.969,6.28,9.415-59.63,50.214-3.14,266.77-304.43-3.14-12.554,9.42-25.108-25.11v-156.92z" fill-rule="evenodd" stroke="#000" stroke-linecap="butt" stroke-miterlimit="4.0000000" stroke-width="2.1969275" fill="url(#linearGradient2626)"/>
 <path stroke-linejoin="miter" d="M448.24,86.671l298.91,28.969,2.18-14.49-305.46-26.894,4.37,12.415z" fill-rule="evenodd" stroke="#000" stroke-linecap="butt" stroke-miterlimit="4.0000000" stroke-width="2.1394117" fill="#d7dadc"/>
 <path stroke-linejoin="miter" d="M384.97,401.4l6.54-266.18,56.73-50.185,298.91,30.545-37.09,15.27-205.09-6.54-48,15.27-21.82,233.46v43.63h-45.82s-30.55,6.55-21.82-2.18,17.46-13.09,17.46-13.09z" fill-rule="evenodd" stroke="#000" stroke-linecap="butt" stroke-width="1.0984638px" fill="url(#linearGradient2672)"/>
 <path d="M591.9,565.33a46.677,81.436,0,1,1,-93.35,0,46.677,81.436,0,1,1,93.35,0z" fill-rule="nonzero" transform="matrix(1.203011,0.000000,0.000000,1.124145,-89.28115,-75.17807)" fill="#232323"/>
 <path d="M244.31,517.66a27.807,61.574,0,1,1,-55.62,0,27.807,61.574,0,1,1,55.62,0z" fill-rule="nonzero" transform="matrix(1.248884,0.000000,0.000000,1.177717,-64.14834,-91.92620)" fill="#181a1a"/>
 <path d="M168.83,512.7a26.814,56.608,0,1,1,-53.63,0,26.814,56.608,0,1,1,53.63,0z" fill-rule="nonzero" transform="matrix(1.124462,0.000000,0.000000,1.172354,-37.36590,-93.66298)" fill="#1e1e1e"/>
 <path stroke-linejoin="miter" d="M431.31,386.52s0-50.19,1.4-78.08c1.39-27.88,13.94-158.94,15.34-164.52,1.39-5.58,5.57-8.36,23.7-13.94,18.12-5.58,36.25-5.58,69.71-8.37s61.35,0,61.35,0,92.02,8.37,122.69,9.76c30.68,1.4,105.97,8.37,111.55,11.16,5.57,2.79,8.36,16.73,8.36,16.73s-107.36-9.76-129.67-11.16c-22.3-1.39-118.51-6.97-118.51-6.97h-19.52c-5.57,0-16.73,1.4-16.73,1.4l-103.17,9.76s-2.79-5.58-4.19,4.18c-1.39,9.76-6.97,92.02-6.97,92.02s0,5.58,2.79,6.97c2.79,1.4,108.75,23.71,108.75,23.71s-2.79,1.39-2.79,9.75v107.36s-118.51,4.19-124.09-9.76z" fill-rule="evenodd" stroke="#000" stroke-linecap="butt" stroke-miterlimit="4.0000000" stroke-width="2.1969275" fill="#0000b3"/>
 <path stroke-linejoin="miter" d="M587.47,396.28s-5.58-72.5-2.79-90.62c2.79-18.13,12.55-22.31,12.55-22.31h90.63l132.45,2.79h22.31s34.86,9.76,66.93,22.3c32.07,12.55,62.74,22.31,72.5,34.86s15.34,18.13,18.15,33.46c2.8,15.34,2.8,75.29,2.8,75.29l-19.56,8.37c-1.39,8.37-4.18,40.43-4.18,40.43s-47.4,13.95-92.02,13.95-76.69,1.39-83.66-1.4-9.76-13.94-9.76-13.94,4.19-33.46-2.79-37.65c-6.97-4.18-30.67-1.39-65.53-4.18-34.85-2.79-55.77,6.97-73.89-8.36-18.13-15.34-29.28-43.23-41.83-48.8-12.55-5.58-22.31-4.19-22.31-4.19z" fill-rule="evenodd" stroke="#000" stroke-linecap="butt" stroke-miterlimit="4.0000000" stroke-width="2.1969275" fill="#0000b3"/>
 <path stroke-linejoin="miter" d="M795.22,502.25s0-122.7-4.19-128.27c-4.18-5.58,0-5.58,0-5.58l185.44,2.79s8.37,48.8,6.97,72.5c-1.39,23.7-6.97,59.95-6.97,59.95s-51.59,8.37-86.44,9.76c-34.86,1.4-76.69,4.18-83.66,0s-11.15-11.15-11.15-11.15z" fill-rule="evenodd" fill-opacity="0.81621623" stroke="#000" stroke-linecap="butt" stroke-width="1.0984638px" fill="#000075"/>
 <path d="M601.41,291.71l167.32,59.96,206.35,1.39s-9.76-13.94-23.7-13.94c-13.95,0-121.31,13.94-186.84-5.58s-138.03-41.83-149.18-41.83h-13.95z" fill-opacity="0.58918917" fill-rule="evenodd" fill="#FFF"/>
 <path stroke-linejoin="miter" d="M1011.6,501.83s2.9-5.49,2.5,7.05,4.8,25.26-0.9,29.27c-5.7,4-6.9-3.01-11.7,17.76-4.87,20.77,3.4,25.22-3.74,29.18-7.1,3.96-260,16.86-260,16.86s-27.92,0.51-36.1-5.33-5.91-33.67-8.47-40.73c-2.57-7.05-9.45-10.06-9.45-10.06s-4.38-37.8,1.2-37.63c5.57,0.18,27.78,3.67,51.47,4.43,23.69,0.75,90.63,1.48,170.24-1.58,79.61-3.05,104.95-9.22,104.95-9.22z" fill-rule="evenodd" stroke="#000" stroke-linecap="butt" stroke-miterlimit="4.0000000" stroke-width="4.3938551" fill="url(#linearGradient2660)"/>
 <path d="M997.39,542.68s-87.22,12.25-179.15,12.25-58.93,1.75-58.93,1.75,126.11,0.88,166.18-2.62,71.9-11.38,71.9-11.38z" fill-opacity="0.23783781" fill-rule="evenodd" fill="#FFF"/>
 <path stroke-linejoin="miter" d="M576.32,272.19c0-8.36-1.4-115.72-1.4-115.72" stroke="#000" stroke-linecap="butt" stroke-miterlimit="4.0000000" stroke-width="16.476957" fill="none"/>
 <path stroke-linejoin="miter" d="M572.2,290.88l-40.77-28.78v-91.14s11.99-21.58,40.77-21.58,9.59-2.4,9.59-2.4" stroke="#000" stroke-linecap="butt" stroke-miterlimit="4.0000000" stroke-width="6.8653984" fill="none"/>
 <path stroke-linejoin="miter" d="M256.54,505.49l-1.97,13.8,177.46,23.66,3.94-86.76-179.43-9.86v17.75l165.63,11.83v49.3l-165.63-19.72z" fill-rule="evenodd" stroke="#000" stroke-linecap="butt" stroke-miterlimit="4.0000000" stroke-width="2.1969275" fill="url(#linearGradient2744)"/>
 <path stroke-linejoin="miter" d="M102.57,407.04l126.08,6.49,15.6,59.79" stroke="#000" stroke-linecap="butt" stroke-miterlimit="4.0000000" stroke-width="2.1969275" fill="none"/>
 <path stroke-linejoin="round" d="M556.12,563.06a14.199,29.581,0,1,1,-28.4,0,14.199,29.581,0,1,1,28.4,0z" stroke-opacity="0.37837836" fill-rule="nonzero" fill-opacity="0.64864862" transform="matrix(1.098464,0.000000,0.000000,1.098464,-29.99895,-60.69498)" stroke-dashoffset="0.00000000" stroke="#8b8a91" stroke-linecap="round" stroke-miterlimit="4.0000000" stroke-width="7.2500000" fill="#000"/>
 <path stroke-linejoin="round" d="M556.12,563.06a14.199,29.581,0,1,1,-28.4,0,14.199,29.581,0,1,1,28.4,0z" stroke-opacity="0.68108106" fill-rule="nonzero" fill-opacity="0.64864862" transform="matrix(0.670375,0.000000,0.000000,0.835119,-158.6864,48.83868)" stroke-dashoffset="0.00000000" stroke="#8b8a91" stroke-linecap="round" stroke-miterlimit="4.0000000" stroke-width="5.0000000" fill="#000"/>
 <path stroke-linejoin="round" d="M556.12,563.06a14.199,29.581,0,1,1,-28.4,0,14.199,29.581,0,1,1,28.4,0z" stroke-opacity="0.75675678" fill-rule="nonzero" fill-opacity="0.64864862" transform="matrix(0.593870,0.000000,0.000000,0.753428,-201.7103,80.04406)" stroke-dashoffset="0.00000000" stroke="#8b8a91" stroke-linecap="round" stroke-miterlimit="4.0000000" stroke-width="5.0000000" fill="#000"/>
 <rect opacity="0.98429" fill-rule="nonzero" fill-opacity="0.31892" rx="0" ry="6.7837" height="134.32" width="20.622" y="236.32" x="294.15" fill="#FFF"/>
 <rect opacity="0.98429" fill-rule="nonzero" fill-opacity="0.31892" height="131.78" width="20.622" y="241.06" x="250.21" fill="#FFF"/>
 <rect opacity="0.98429" fill-rule="nonzero" fill-opacity="0.31892" height="131.78" width="19.906" y="243.26" x="207.05" fill="#FFF"/>
 <rect opacity="0.98429" fill-rule="nonzero" fill-opacity="0.31892" height="129.24" width="18.226" y="248" x="164.83" fill="#FFF"/>
 <rect opacity="0.98429" fill-rule="nonzero" fill-opacity="0.27027" height="125.85" width="16.677" y="251.39" x="122.54" fill="#FFF"/>
 <rect opacity="0.98429" fill-rule="nonzero" fill-opacity="0.25405" height="115.67" width="15.129" y="253.59" x="80.252" fill="#FFF"/>
 <path stroke-linejoin="miter" d="M58.383,256.27l293.74-26" stroke-opacity="0.38918915" stroke="#000" stroke-linecap="butt" stroke-miterlimit="4.0000000" stroke-width="5.4923186" fill="none"/>
 <path d="M516.99,535.12s1.39-25.44,11.09-37.31c9.71-11.87,16.64-20.35,24.96-20.35s-12.48,13.57-12.48,13.57-9.7,10.17-13.86,22.04-9.71,22.05-9.71,22.05z" fill-opacity="0.19459458" fill-rule="evenodd" fill="#FFF"/>
 <path d="M174.41,496.11s0.9-19.45,7.14-28.53,10.7-15.56,16.05-15.56-8.03,10.37-8.03,10.37-6.24,7.79-8.91,16.86c-2.68,9.08-6.25,16.86-6.25,16.86z" fill-opacity="0.26486483" fill-rule="evenodd" fill="#FFF"/>
 <path d="M96.402,489.33s0.892-19.45,7.138-28.53c6.24-9.08,10.7-15.56,16.05-15.56s-8.03,10.37-8.03,10.37-6.24,7.78-8.92,16.86c-2.67,9.08-6.238,16.86-6.238,16.86z" fill-opacity="0.30270270" fill-rule="evenodd" fill="#FFF"/>
 <path stroke-linejoin="round" d="M512.22,163.77c-5.31,0-9.58,3.51-9.58,7.86v13.08c0,4.35,4.27,7.83,9.58,7.83-5.31,0-9.58,9.92-9.58,22.24v37.07c0,12.32,4.27,22.25,9.58,22.25h38.38c5.31,0,9.61-9.93,9.61-22.25v-37.07c0-12.32-4.3-22.24-9.61-22.24,5.31,0,9.61-3.48,9.61-7.83v-13.08c0-4.35-4.3-7.86-9.61-7.86h-38.38z" fill-rule="nonzero" stroke-dashoffset="0.00000000" stroke="#000" stroke-linecap="round" stroke-miterlimit="4.0000000" stroke-width="3.1580834" fill="url(#linearGradient2893)"/>
 <path d="M441.71,404.27l1.84,144.42,51.51,8.28s-31.28-14.72-38.63-46.92c-7.36-32.19-14.72-105.78-14.72-105.78z" fill-opacity="0.62162161" fill-rule="evenodd" fill="#000"/>
 <path d="M537.37,410.71s48.4-5.52,60.5,0,34.79,29.44,40.84,40.48c6.05,11.03-25.71-27.6-40.84-31.28-15.12-3.68-60.5-9.2-60.5-9.2z" fill-opacity="0.081081040" fill-rule="evenodd" fill="#FFF"/>
</svg>
